<?xml version="1.0" encoding="iso-8859-1"?>
<!-- Generator: Adobe Illustrator 19.0.0, SVG Export Plug-In . SVG Version: 6.00 Build 0)  -->
<svg version="1.1" id="Layer_1" xmlns="http://www.w3.org/2000/svg" xmlns:xlink="http://www.w3.org/1999/xlink" x="0px" y="0px"
	 viewBox="0 0 60 60" style="enable-background:new 0 0 60 60;" xml:space="preserve">
<style type="text/css">
	.st0{fill:#5C2D91;}
</style>
<g>
	<g id="XMLID_168_">
		<g id="XMLID_170_">
			<path class="st0" d="M20.072,44.639c-2.453,0-4.593-0.602-6.362-1.789c-2.038-1.365-3.071-3.069-3.071-5.065
				c0-1.211,0.397-2.248,1.18-3.085c0.401-0.426,0.862-0.753,1.37-0.974c-0.489-0.252-0.846-0.574-1.099-0.867
				c-0.674-0.784-1.016-1.838-1.016-3.132c0-0.233,0.004-0.423,0.01-0.572c0.007-0.164,0.017-0.321,0.032-0.464l0.861-6.821
				c0.231-1.753,0.747-2.896,1.624-3.602c0.833-0.671,2.043-0.971,3.923-0.971h8.124c1.243,0,2.257,0.359,3.013,1.069
				c0.783,0.734,1.197,1.776,1.197,3.013c0,1.237-0.413,2.278-1.196,3.013c-0.759,0.709-1.773,1.068-3.014,1.068h-0.367
				c1.033,0.448,1.96,1.076,2.775,1.882c1.827,1.806,2.753,4.165,2.753,7.012c0,3.08-1.01,5.598-3.002,7.486
				C25.845,43.697,23.243,44.639,20.072,44.639z M14.881,35.259c-0.671,0-1.24,0.244-1.693,0.725
				c-0.452,0.483-0.672,1.072-0.672,1.801c0,1.35,0.732,2.497,2.239,3.506c1.455,0.976,3.243,1.471,5.316,1.471
				c2.675,0,4.843-0.769,6.445-2.286c1.602-1.52,2.415-3.58,2.415-6.124c0-2.326-0.739-4.237-2.195-5.677
				c-1.456-1.44-3.39-2.17-5.746-2.17c-0.8,0-1.541,0.098-2.202,0.292c-0.307,0.086-0.632,0.017-0.874-0.187
				c-0.241-0.206-0.362-0.52-0.322-0.834l0.178-1.377c0.06-0.468,0.459-0.819,0.931-0.819h6.946c0.75,0,1.332-0.189,1.731-0.561
				c0.405-0.38,0.602-0.918,0.602-1.643c0-0.725-0.198-1.262-0.604-1.643c-0.397-0.372-0.979-0.561-1.729-0.561h-8.124
				c-1.402,0-2.275,0.177-2.746,0.555c-0.471,0.379-0.778,1.158-0.94,2.38l-0.857,6.793c-0.008,0.087-0.016,0.208-0.022,0.336
				c-0.006,0.129-0.008,0.29-0.008,0.488c0,0.833,0.189,1.475,0.561,1.907c0.38,0.442,0.944,0.666,1.675,0.666
				c0.155,0,0.626,0,2.259-0.824c1.011-0.511,1.905-0.771,2.657-0.771c1.112,0,1.993,0.344,2.617,1.023
				c0.639,0.694,0.949,1.626,0.949,2.85c0,1.292-0.312,2.292-0.926,2.973c-0.608,0.672-1.507,1.012-2.672,1.012
				c-0.682,0-1.227-0.114-1.622-0.337C18.051,38,17.641,37.557,17.23,36.91c-0.424-0.648-0.799-1.078-1.138-1.305
				C15.746,35.376,15.338,35.259,14.881,35.259z M19.376,36.592c0,0,0.176,0.093,0.696,0.093c0.923,0,1.192-0.296,1.28-0.393
				c0.288-0.319,0.441-0.912,0.441-1.714c0-0.731-0.148-1.248-0.453-1.579c-0.164-0.179-0.471-0.416-1.236-0.416
				c-0.313,0-0.881,0.099-1.811,0.569c-0.615,0.311-1.109,0.529-1.515,0.682c0.121,0.063,0.24,0.133,0.356,0.21
				c0.563,0.377,1.094,0.963,1.675,1.85C19.166,36.458,19.374,36.591,19.376,36.592L19.376,36.592z"/>
		</g>
		<g id="XMLID_169_">
			<path class="st0" d="M39.202,44.267c-1.274,0-2.427-0.48-3.336-1.39c-0.908-0.908-1.39-2.062-1.39-3.336
				c0-1.286,0.472-2.448,1.367-3.36c0.088-0.09,0.178-0.176,0.271-0.258c-0.549-0.562-1.155-1.522-1.155-3.022
				c0-0.916,0.225-1.84,0.67-2.745c0.409-0.834,0.989-1.61,1.724-2.303c0.295-0.283,0.719-0.649,1.29-1.116
				c1.464-1.189,1.538-1.841,1.538-1.959c0-0.63-0.188-0.828-0.25-0.893c-0.06-0.063-0.206-0.215-0.73-0.215
				c-0.425,0-0.663,0.082-0.787,0.151c-0.1,0.056-0.252,0.164-0.419,0.459c-0.104,0.17-0.191,0.338-0.304,0.565
				c-1.315,2.61-3.293,2.999-4.356,2.999c-1.553,0-2.512-0.681-3.043-1.251c-0.731-0.787-1.103-1.809-1.103-3.04
				c0-0.984,0.248-1.984,0.739-2.971c0.455-0.917,1.101-1.77,1.921-2.536c0.966-0.912,2.074-1.599,3.289-2.039
				c1.175-0.428,2.511-0.645,3.967-0.645c2.998,0,5.461,0.819,7.32,2.433l0,0c1.948,1.69,2.935,3.953,2.935,6.726
				c0,1.228-0.188,2.33-0.559,3.277c-0.37,0.945-0.996,1.897-1.863,2.83c-0.416,0.444-1.035,0.965-1.952,1.648
				c-0.915,0.679-1.167,0.984-1.208,1.039c-0.046,0.059-0.13,0.191-0.218,0.467c-0.248,0.769-0.294,0.884-0.372,1.04
				c-0.186,0.423-0.455,0.815-0.787,1.151c0.069,0.061,0.136,0.126,0.202,0.192c0.899,0.912,1.374,2.08,1.374,3.378
				c0,1.295-0.489,2.457-1.414,3.362C41.652,43.795,40.489,44.267,39.202,44.267z M39.202,21.793c0.892,0,1.575,0.26,2.088,0.797
				c0.511,0.537,0.769,1.273,0.769,2.189c0,1.064-0.75,2.213-2.23,3.414c-0.523,0.427-0.921,0.771-1.182,1.02
				c-0.576,0.544-1.022,1.138-1.333,1.77c-0.317,0.646-0.478,1.292-0.478,1.918c0,0.929,0.368,1.472,0.676,1.764
				c0.192,0.182,0.41,0.322,0.667,0.427c0.356,0.145,0.587,0.492,0.584,0.876c-0.003,0.383-0.239,0.727-0.597,0.867
				c-0.364,0.142-0.694,0.364-0.982,0.658c-0.544,0.555-0.831,1.263-0.831,2.048c0,0.776,0.282,1.452,0.841,2.008
				c1.113,1.115,2.962,1.081,4.055,0.012c0.564-0.552,0.85-1.231,0.85-2.02c0-0.806-0.28-1.499-0.831-2.058
				c-0.269-0.27-0.578-0.479-0.92-0.621c-0.353-0.146-0.583-0.49-0.581-0.872c0.002-0.381,0.234-0.724,0.588-0.867
				c0.113-0.045,0.219-0.1,0.322-0.162c0.357-0.22,0.64-0.545,0.814-0.94c0.038-0.079,0.076-0.173,0.283-0.816
				c0.137-0.424,0.305-0.764,0.518-1.037c0.266-0.349,0.797-0.822,1.576-1.401c0.814-0.606,1.37-1.071,1.7-1.422
				c0.701-0.756,1.203-1.51,1.488-2.236c0.284-0.727,0.429-1.599,0.429-2.591c0-2.204-0.77-3.991-2.288-5.309l0,0
				c-1.508-1.309-3.557-1.973-6.09-1.973c-1.237,0-2.356,0.18-3.325,0.533c-0.974,0.353-1.863,0.906-2.645,1.643
				c-0.659,0.615-1.171,1.288-1.524,2.003c-0.361,0.725-0.544,1.444-0.544,2.136c0,0.741,0.202,1.334,0.6,1.761
				c0.403,0.434,0.964,0.654,1.668,0.654c1.12,0,2.021-0.661,2.679-1.965c0.144-0.287,0.256-0.499,0.364-0.675
				c0.282-0.501,0.655-0.886,1.124-1.147C37.967,21.923,38.539,21.793,39.202,21.793z"/>
		</g>
	</g>
	<g id="XMLID_167_">
		<path class="st0" d="M30,59.974c-16.528,0-29.975-13.447-29.975-29.975C0.025,13.472,13.472,0.026,30,0.026
			c16.527,0,29.974,13.446,29.974,29.973C59.975,46.527,46.528,59.974,30,59.974z M30,1.903c-15.494,0-28.098,12.603-28.098,28.096
			c0,15.494,12.604,28.098,28.098,28.098c15.493,0,28.097-12.604,28.097-28.098C58.097,14.506,45.493,1.903,30,1.903z"/>
	</g>
</g>
</svg>
