<?xml version="1.0" encoding="iso-8859-1"?>
<!-- Generator: Adobe Illustrator 19.0.0, SVG Export Plug-In . SVG Version: 6.00 Build 0)  -->
<svg version="1.1" id="Layer_1" xmlns="http://www.w3.org/2000/svg" xmlns:xlink="http://www.w3.org/1999/xlink" x="0px" y="0px"
	 viewBox="0 0 60 60" style="enable-background:new 0 0 60 60;" xml:space="preserve">
<style type="text/css">
	.st0{fill:#5C2D91;}
</style>
<g>
	<g>
		<g id="XMLID_350_">
			<path class="st0" d="M29.999,60C13.457,60,0,46.542,0,29.999C0,13.457,13.457,0,29.999,0C46.542,0,60,13.457,60,29.999
				C60,46.542,46.542,60,29.999,60z M29.999,1.879c-15.506,0-28.12,12.614-28.12,28.12c0,15.507,12.614,28.122,28.12,28.122
				c15.507,0,28.122-12.615,28.122-28.122C58.121,14.493,45.506,1.879,29.999,1.879z"/>
		</g>
		<g id="XMLID_342_">
			<g id="XMLID_349_">
				<path class="st0" d="M18.598,43.014c-0.21,0-0.418-0.071-0.589-0.207c-0.271-0.217-0.399-0.567-0.334-0.908l1.654-8.663
					c0.031-0.162,0.105-0.313,0.212-0.439l14.011-16.214c1.804-2.086,4.97-2.317,7.058-0.514c1.012,0.873,1.623,2.089,1.72,3.421
					c0.097,1.333-0.331,2.624-1.206,3.636L27.113,39.341c-0.094,0.108-0.21,0.194-0.34,0.25l-7.804,3.348
					C18.849,42.99,18.723,43.014,18.598,43.014z M21.127,33.836l-1.275,6.679l5.981-2.565l13.87-16.052
					c0.547-0.632,0.814-1.438,0.753-2.271c-0.061-0.831-0.442-1.59-1.073-2.136c-1.303-1.126-3.282-0.982-4.408,0.321L21.127,33.836
					z"/>
			</g>
			<g id="XMLID_348_">
				<path id="XMLID_5_" class="st0" d="M26.307,39.169c-0.218,0-0.437-0.075-0.614-0.228l-5.221-4.511
					c-0.393-0.339-0.437-0.933-0.097-1.325c0.341-0.394,0.934-0.435,1.325-0.097l5.221,4.511c0.393,0.339,0.437,0.933,0.097,1.325
					C26.831,39.059,26.57,39.169,26.307,39.169z"/>
			</g>
			<g id="XMLID_344_">
				<path id="XMLID_4_" class="st0" d="M39.559,23.834c-0.218,0-0.437-0.075-0.614-0.228l-5.222-4.511
					c-0.393-0.339-0.437-0.932-0.097-1.325c0.34-0.394,0.935-0.436,1.325-0.097l5.222,4.511c0.393,0.339,0.437,0.932,0.097,1.325
					C40.084,23.724,39.823,23.834,39.559,23.834z"/>
			</g>
			<g id="XMLID_343_">
				<path id="XMLID_3_" class="st0" d="M40.057,43.243H19.116c-0.519,0-0.939-0.42-0.939-0.939s0.42-0.939,0.939-0.939h20.941
					c0.519,0,0.939,0.42,0.939,0.939S40.576,43.243,40.057,43.243z"/>
			</g>
		</g>
	</g>
	<g id="XMLID_341_">
		<path class="st0" d="M18.156,27.914c-0.1,0-0.202-0.016-0.301-0.05c-0.424-0.143-0.687-0.565-0.631-1.009l0.81-6.352h-2.616
			c-0.287,0-0.559-0.131-0.738-0.357c-0.178-0.226-0.243-0.52-0.176-0.8l1.416-5.948c0.101-0.423,0.479-0.722,0.914-0.722h4.532
			c0.286,0,0.558,0.131,0.736,0.355c0.178,0.225,0.244,0.517,0.179,0.797l-0.357,1.538l2.445-0.085
			c0.328-0.044,0.663,0.161,0.839,0.456c0.176,0.293,0.179,0.659,0.006,0.954l-6.247,10.755
			C18.796,27.743,18.483,27.914,18.156,27.914z M16.607,18.624h2.494c0.27,0,0.527,0.116,0.705,0.318
			c0.178,0.203,0.261,0.472,0.227,0.74l-0.358,2.806l3.061-5.271l-1.971,0.069c-0.298,0.028-0.572-0.116-0.759-0.341
			c-0.185-0.226-0.256-0.525-0.189-0.81l0.367-1.581h-2.607L16.607,18.624z"/>
	</g>
</g>
</svg>
