<?xml version="1.0" encoding="iso-8859-1"?>
<!-- Generator: Adobe Illustrator 19.0.0, SVG Export Plug-In . SVG Version: 6.00 Build 0)  -->
<svg version="1.1" id="Layer_1" xmlns="http://www.w3.org/2000/svg" xmlns:xlink="http://www.w3.org/1999/xlink" x="0px" y="0px"
	 viewBox="0 0 60 60" style="enable-background:new 0 0 60 60;" xml:space="preserve">
<style type="text/css">
	.st0{fill:#5C2D91;}
</style>
<g>
	<g id="XMLID_165_">
		<path class="st0" d="M44.329,47.591H17.192c-0.519,0-0.939-0.42-0.939-0.939V13.066c0-0.519,0.42-0.939,0.939-0.939h20.395
			c0.234,0,0.459,0.087,0.632,0.244l6.742,6.127c0.195,0.178,0.307,0.43,0.307,0.695v27.459
			C45.268,47.171,44.848,47.591,44.329,47.591z M18.132,45.712H43.39V19.609l-6.166-5.603H18.132V45.712z"/>
	</g>
	<g id="XMLID_164_">
		<path id="XMLID_8_" class="st0" d="M44.329,20.132h-6.742c-0.519,0-0.939-0.42-0.939-0.939v-6.127c0-0.519,0.42-0.939,0.939-0.939
			c0.519,0,0.939,0.42,0.939,0.939v5.188h5.803c0.519,0,0.939,0.42,0.939,0.939S44.848,20.132,44.329,20.132z"/>
	</g>
	<g id="XMLID_163_">
		<path class="st0" d="M30,60C13.458,60,0,46.542,0,29.999C0,13.457,13.458,0,30,0s30,13.457,30,29.999C60,46.542,46.542,60,30,60z
			 M30,1.879c-15.506,0-28.121,12.614-28.121,28.12c0,15.507,12.615,28.122,28.121,28.122s28.121-12.615,28.121-28.122
			C58.121,14.493,45.506,1.879,30,1.879z"/>
	</g>
	<g id="XMLID_162_">
		<path id="XMLID_5_" class="st0" d="M39.624,24.304H21.918c-0.519,0-0.939-0.42-0.939-0.939c0-0.519,0.42-0.939,0.939-0.939h17.706
			c0.519,0,0.939,0.42,0.939,0.939C40.563,23.884,40.143,24.304,39.624,24.304z"/>
	</g>
	<g id="XMLID_161_">
		<path id="XMLID_4_" class="st0" d="M39.624,28.711H21.918c-0.519,0-0.939-0.42-0.939-0.939c0-0.519,0.42-0.939,0.939-0.939h17.706
			c0.519,0,0.939,0.42,0.939,0.939C40.563,28.291,40.143,28.711,39.624,28.711z"/>
	</g>
	<g id="XMLID_160_">
		<path id="XMLID_3_" class="st0" d="M39.624,33.119H21.918c-0.519,0-0.939-0.42-0.939-0.939c0-0.519,0.42-0.939,0.939-0.939h17.706
			c0.519,0,0.939,0.42,0.939,0.939C40.563,32.699,40.143,33.119,39.624,33.119z"/>
	</g>
	<g id="XMLID_159_">
		<path id="XMLID_2_" class="st0" d="M39.624,37.527H21.918c-0.519,0-0.939-0.42-0.939-0.939s0.42-0.939,0.939-0.939h17.706
			c0.519,0,0.939,0.42,0.939,0.939S40.143,37.527,39.624,37.527z"/>
	</g>
	<g id="XMLID_158_">
		<path id="XMLID_1_" class="st0" d="M39.624,41.934H21.918c-0.519,0-0.939-0.42-0.939-0.939c0-0.519,0.42-0.939,0.939-0.939h17.706
			c0.519,0,0.939,0.42,0.939,0.939C40.563,41.514,40.143,41.934,39.624,41.934z"/>
	</g>
</g>
</svg>
