<?xml version="1.0" encoding="iso-8859-1"?>
<!-- Generator: Adobe Illustrator 19.0.0, SVG Export Plug-In . SVG Version: 6.00 Build 0)  -->
<svg version="1.1" id="Layer_1" xmlns="http://www.w3.org/2000/svg" xmlns:xlink="http://www.w3.org/1999/xlink" x="0px" y="0px"
	 viewBox="0 0 60 60" style="enable-background:new 0 0 60 60;" xml:space="preserve">
<style type="text/css">
	.st0{fill:#5C2D91;}
</style>
<g>
	<g id="XMLID_319_">
		<path class="st0" d="M30,60C13.458,60,0,46.542,0,29.999C0,13.457,13.458,0,30,0c16.542,0,30,13.457,30,29.999
			C60,46.542,46.542,60,30,60z M30,1.879c-15.507,0-28.122,12.614-28.122,28.12c0,15.507,12.615,28.122,28.122,28.122
			c15.506,0,28.121-12.615,28.121-28.122C58.122,14.493,45.506,1.879,30,1.879z"/>
	</g>
	<g id="XMLID_318_">
		<path class="st0" d="M50.606,44.271h-39.83c-0.519,0-0.939-0.42-0.939-0.939V15.107c0-0.519,0.42-0.939,0.939-0.939h39.83
			c0.519,0,0.939,0.42,0.939,0.939v28.225C51.546,43.851,51.126,44.271,50.606,44.271z M11.716,42.392h37.951V16.046H11.716V42.392z
			"/>
	</g>
	<g id="XMLID_317_">
		<path class="st0" d="M21.855,33.456h-6.33c-0.519,0-0.939-0.42-0.939-0.939v-5.012c0-0.519,0.42-0.939,0.939-0.939h6.33
			c0.519,0,0.939,0.42,0.939,0.939v5.012C22.794,33.036,22.374,33.456,21.855,33.456z M16.464,31.577h4.451v-3.133h-4.451V31.577z"
			/>
	</g>
	<g id="XMLID_316_">
		<path class="st0" d="M28.431,24.062h-6.33c-0.519,0-0.939-0.42-0.939-0.939V18.11c0-0.519,0.42-0.939,0.939-0.939h6.33
			c0.519,0,0.939,0.42,0.939,0.939v5.012C29.37,23.641,28.95,24.062,28.431,24.062z M23.04,22.183h4.451V19.05H23.04V22.183z"/>
	</g>
	<g id="XMLID_312_">
		<path class="st0" d="M32.188,31.577h-6.33c-0.519,0-0.939-0.42-0.939-0.939v-5.012c0-0.519,0.42-0.939,0.939-0.939h6.33
			c0.519,0,0.939,0.42,0.939,0.939v5.012C33.128,31.157,32.708,31.577,32.188,31.577z M26.798,29.698h4.451v-3.133h-4.451V29.698z"
			/>
	</g>
	<g id="XMLID_311_">
		<path class="st0" d="M36.886,39.092h-6.33c-0.519,0-0.939-0.42-0.939-0.939v-5.012c0-0.519,0.42-0.939,0.939-0.939h6.33
			c0.519,0,0.939,0.42,0.939,0.939v5.012C37.825,38.672,37.405,39.092,36.886,39.092z M31.495,37.214h4.451v-3.133h-4.451V37.214z"
			/>
	</g>
	<g id="XMLID_310_">
		<path class="st0" d="M43.462,25.94h-6.33c-0.519,0-0.939-0.42-0.939-0.939v-5.012c0-0.519,0.42-0.939,0.939-0.939h6.33
			c0.519,0,0.939,0.42,0.939,0.939v5.012C44.401,25.52,43.981,25.94,43.462,25.94z M38.071,24.062h4.451v-3.133h-4.451V24.062z"/>
	</g>
	<g id="XMLID_309_">
		<path class="st0" d="M47.219,35.335h-6.33c-0.519,0-0.939-0.42-0.939-0.939v-5.012c0-0.519,0.42-0.939,0.939-0.939h6.33
			c0.519,0,0.939,0.42,0.939,0.939v5.012C48.159,34.915,47.738,35.335,47.219,35.335z M41.829,33.456h4.451v-3.133h-4.451V33.456z"
			/>
	</g>
</g>
</svg>
