<?xml version="1.0" encoding="iso-8859-1"?>
<!-- Generator: Adobe Illustrator 19.0.0, SVG Export Plug-In . SVG Version: 6.00 Build 0)  -->
<svg version="1.1" id="Layer_1" xmlns="http://www.w3.org/2000/svg" xmlns:xlink="http://www.w3.org/1999/xlink" x="0px" y="0px"
	 viewBox="0 0 60 60" style="enable-background:new 0 0 60 60;" xml:space="preserve">
<style type="text/css">
	.st0{fill:#5C2D91;}
</style>
<g id="XMLID_235_">
	<g id="XMLID_253_">
		<path class="st0" d="M30,60C13.458,60,0,46.542,0,29.999C0,13.457,13.458,0,30,0c16.542,0,30,13.457,30,29.999
			C60,46.542,46.542,60,30,60z M30,1.879c-15.507,0-28.122,12.614-28.122,28.12c0,15.507,12.615,28.122,28.122,28.122
			c15.506,0,28.121-12.615,28.121-28.122C58.122,14.493,45.506,1.879,30,1.879z"/>
	</g>
	<g id="XMLID_247_">
		<g id="XMLID_252_">
			<path id="XMLID_24_" class="st0" d="M46.002,38.424c-2.313,0-4.194-1.882-4.194-4.194v-8.534c0-2.313,1.882-4.194,4.194-4.194
				c0.519,0,0.939,0.42,0.939,0.939c0,0.519-0.42,0.939-0.939,0.939c-1.277,0-2.316,1.039-2.316,2.316v8.534
				c0,1.277,1.038,2.316,2.316,2.316c0.519,0,0.939,0.42,0.939,0.939C46.941,38.003,46.521,38.424,46.002,38.424z"/>
		</g>
		<g id="XMLID_251_">
			<path class="st0" d="M47.14,24.795c-1.257,0-2.28-1.022-2.28-2.279c0-1.258,1.023-2.281,2.28-2.281
				c1.258,0,2.281,1.023,2.281,2.281C49.421,23.773,48.398,24.795,47.14,24.795z M47.14,22.114c-0.221,0-0.401,0.18-0.401,0.402
				c0,0.22,0.18,0.4,0.401,0.4c0.222,0,0.402-0.18,0.402-0.4C47.542,22.294,47.362,22.114,47.14,22.114z"/>
		</g>
		<g id="XMLID_250_">
			<path class="st0" d="M47.14,39.765c-1.257,0-2.28-1.023-2.28-2.28s1.023-2.28,2.28-2.28c1.258,0,2.281,1.023,2.281,2.28
				S48.398,39.765,47.14,39.765z M47.14,37.084c-0.221,0-0.401,0.18-0.401,0.401c0,0.221,0.18,0.401,0.401,0.401
				c0.222,0,0.402-0.18,0.402-0.401C47.542,37.264,47.362,37.084,47.14,37.084z"/>
		</g>
		<g id="XMLID_249_">
			<path class="st0" d="M47.14,32.541c-1.257,0-2.28-1.022-2.28-2.279c0-1.258,1.023-2.282,2.28-2.282
				c1.258,0,2.281,1.024,2.281,2.282C49.421,31.519,48.398,32.541,47.14,32.541z M47.14,29.86c-0.221,0-0.401,0.181-0.401,0.403
				c0,0.22,0.18,0.4,0.401,0.4c0.222,0,0.402-0.18,0.402-0.4C47.542,30.04,47.362,29.86,47.14,29.86z"/>
		</g>
		<g id="XMLID_248_">
			<path id="XMLID_17_" class="st0" d="M45.8,31.202h-8.423c-0.519,0-0.939-0.42-0.939-0.939c0-0.519,0.42-0.939,0.939-0.939H45.8
				c0.519,0,0.939,0.42,0.939,0.939C46.739,30.782,46.319,31.202,45.8,31.202z"/>
		</g>
	</g>
	<g id="XMLID_241_">
		<g id="XMLID_246_">
			<path id="XMLID_16_" class="st0" d="M14.064,38.499c-0.519,0-0.939-0.42-0.939-0.939s0.42-0.939,0.939-0.939
				c1.277,0,2.316-1.038,2.316-2.316v-8.534c0-1.277-1.038-2.316-2.316-2.316c-0.519,0-0.939-0.42-0.939-0.939
				s0.42-0.939,0.939-0.939c2.313,0,4.194,1.882,4.194,4.194v8.534C18.259,36.617,16.377,38.499,14.064,38.499z"/>
		</g>
		<g id="XMLID_245_">
			<path class="st0" d="M12.926,39.765c-1.258,0-2.281-1.023-2.281-2.281c0-1.257,1.023-2.279,2.281-2.279
				c1.257,0,2.28,1.022,2.28,2.279C15.205,38.742,14.183,39.765,12.926,39.765z M12.926,37.084c-0.222,0-0.402,0.18-0.402,0.4
				c0,0.222,0.18,0.402,0.402,0.402c0.221,0,0.401-0.18,0.401-0.402C13.327,37.264,13.147,37.084,12.926,37.084z"/>
		</g>
		<g id="XMLID_244_">
			<path class="st0" d="M12.926,24.795c-1.258,0-2.281-1.023-2.281-2.28s1.023-2.28,2.281-2.28c1.257,0,2.28,1.023,2.28,2.28
				S14.183,24.795,12.926,24.795z M12.926,22.114c-0.222,0-0.402,0.18-0.402,0.401s0.18,0.401,0.402,0.401
				c0.221,0,0.401-0.18,0.401-0.401S13.147,22.114,12.926,22.114z"/>
		</g>
		<g id="XMLID_243_">
			<path class="st0" d="M12.926,32.019c-1.258,0-2.281-1.024-2.281-2.282c0-1.257,1.023-2.279,2.281-2.279
				c1.257,0,2.28,1.022,2.28,2.279C15.205,30.995,14.183,32.019,12.926,32.019z M12.926,29.338c-0.222,0-0.402,0.18-0.402,0.4
				c0,0.222,0.18,0.403,0.402,0.403c0.221,0,0.401-0.181,0.401-0.403C13.327,29.517,13.147,29.338,12.926,29.338z"/>
		</g>
		<g id="XMLID_242_">
			<path id="XMLID_9_" class="st0" d="M22.569,30.677h-8.303c-0.519,0-0.939-0.42-0.939-0.939c0-0.519,0.42-0.939,0.939-0.939h8.303
				c0.519,0,0.939,0.42,0.939,0.939C23.509,30.257,23.089,30.677,22.569,30.677z"/>
		</g>
	</g>
	<g id="XMLID_240_">
		<path class="st0" d="M30,37.862c-4.336,0-7.863-3.526-7.863-7.862s3.527-7.863,7.863-7.863s7.862,3.527,7.862,7.863
			S34.336,37.862,30,37.862z M30,24.016c-3.3,0-5.984,2.684-5.984,5.984c0,3.299,2.684,5.983,5.984,5.983
			c3.299,0,5.983-2.684,5.983-5.983C35.984,26.7,33.299,24.016,30,24.016z"/>
	</g>
	<g id="XMLID_239_">
		<path class="st0" d="M30,16.321c-2.107,0-3.821-1.714-3.821-3.82c0-2.107,1.714-3.821,3.821-3.821c2.106,0,3.82,1.714,3.82,3.821
			C33.821,14.607,32.107,16.321,30,16.321z M30,10.558c-1.071,0-1.942,0.872-1.942,1.942S28.93,14.442,30,14.442
			c1.071,0,1.941-0.871,1.941-1.941S31.071,10.558,30,10.558z"/>
	</g>
	<g id="XMLID_238_">
		<path id="XMLID_4_" class="st0" d="M30,23.985c-0.519,0-0.939-0.42-0.939-0.939v-7.658c0-0.519,0.42-0.939,0.939-0.939
			c0.519,0,0.939,0.42,0.939,0.939v7.658C30.94,23.564,30.52,23.985,30,23.985z"/>
	</g>
	<g id="XMLID_237_">
		<path class="st0" d="M30,51.324c-2.107,0-3.821-1.714-3.821-3.821c0-2.106,1.714-3.82,3.821-3.82c2.106,0,3.82,1.714,3.82,3.82
			C33.821,49.61,32.107,51.324,30,51.324z M30,45.562c-1.071,0-1.942,0.871-1.942,1.941S28.93,49.445,30,49.445
			c1.071,0,1.941-0.872,1.941-1.942S31.071,45.562,30,45.562z"/>
	</g>
	<g id="XMLID_236_">
		<path id="XMLID_1_" class="st0" d="M30,45.555c-0.519,0-0.939-0.42-0.939-0.939v-7.658c0-0.519,0.42-0.939,0.939-0.939
			c0.519,0,0.939,0.42,0.939,0.939v7.658C30.94,45.135,30.52,45.555,30,45.555z"/>
	</g>
</g>
</svg>
