<?xml version="1.0" encoding="iso-8859-1"?>
<!-- Generator: Adobe Illustrator 19.0.0, SVG Export Plug-In . SVG Version: 6.00 Build 0)  -->
<svg version="1.1" id="Layer_1" xmlns="http://www.w3.org/2000/svg" xmlns:xlink="http://www.w3.org/1999/xlink" x="0px" y="0px"
	 viewBox="0 0 60 60" style="enable-background:new 0 0 60 60;" xml:space="preserve">
<style type="text/css">
	.st0{fill:#5C2D91;}
</style>
<g id="XMLID_135_">
	<path class="st0" d="M30,60C13.458,60,0,46.542,0,29.999C0,13.457,13.458,0,30,0s30,13.457,30,29.999C60,46.542,46.542,60,30,60z
		 M30,1.879c-15.506,0-28.121,12.614-28.121,28.12c0,15.507,12.615,28.122,28.121,28.122s28.121-12.615,28.121-28.122
		C58.121,14.493,45.506,1.879,30,1.879z"/>
</g>
<g id="XMLID_40_">
	<g id="XMLID_134_">
		<path class="st0" d="M29.999,41.53c-2.291,0-4.61-0.935-6.362-2.565c-1.782-1.658-2.803-3.876-2.803-6.088l0.001-14.96
			c0-4.815,3.987-8.586,9.078-8.586c4.845,0,9.258,4.092,9.258,8.585v14.961c0,4.61-4.284,8.653-9.168,8.653
			C30.002,41.53,30,41.53,29.999,41.53z M29.913,11.21c-3.538,0-7.199,2.509-7.199,6.707l-0.001,14.96
			c0,1.692,0.804,3.409,2.204,4.713c1.408,1.31,3.26,2.061,5.082,2.061c0.002,0,0.002,0,0.004,0c3.815,0,7.289-3.228,7.289-6.774
			V17.916C37.291,14.406,33.774,11.21,29.913,11.21z"/>
	</g>
	<g id="XMLID_133_">
		<path id="XMLID_11_" class="st0" d="M29.904,45.581C29.903,45.581,29.903,45.581,29.904,45.581c-3.454,0-6.642-1.327-8.979-3.737
			c-2.291-2.362-3.494-5.509-3.392-8.86v-2.88c0-0.519,0.42-0.939,0.939-0.939c0.519,0,0.939,0.42,0.939,0.939v2.909
			c-0.088,2.868,0.928,5.529,2.861,7.523c1.98,2.041,4.689,3.166,7.628,3.166c0,0,0.001,0,0.002,0c2.893,0,5.588-1.101,7.588-3.101
			c2-1.999,3.101-4.694,3.101-7.588V30.13c0-0.519,0.42-0.939,0.939-0.939s0.939,0.42,0.939,0.939v2.883
			c0,3.395-1.296,6.562-3.651,8.917C36.467,44.284,33.3,45.581,29.904,45.581z"/>
	</g>
	<g id="XMLID_132_">
		<path id="XMLID_10_" class="st0" d="M30.003,50.669c-0.519,0-0.939-0.42-0.939-0.939v-5.087c0-0.519,0.42-0.939,0.939-0.939
			s0.939,0.42,0.939,0.939v5.087C30.942,50.248,30.522,50.669,30.003,50.669z"/>
	</g>
	<g id="XMLID_115_">
		<path id="XMLID_9_" class="st0" d="M30.003,14.81c-0.519,0-0.939-0.42-0.939-0.939v-3.6c0-0.519,0.42-0.939,0.939-0.939
			s0.939,0.42,0.939,0.939v3.6C30.942,14.39,30.522,14.81,30.003,14.81z"/>
	</g>
	<g id="XMLID_114_">
		<path id="XMLID_8_" class="st0" d="M27.319,18.41h-5.533c-0.519,0-0.939-0.42-0.939-0.939c0-0.519,0.42-0.939,0.939-0.939h5.533
			c0.519,0,0.939,0.42,0.939,0.939C28.259,17.99,27.838,18.41,27.319,18.41z"/>
	</g>
	<g id="XMLID_113_">
		<path id="XMLID_7_" class="st0" d="M27.319,24.584h-5.533c-0.519,0-0.939-0.42-0.939-0.939s0.42-0.939,0.939-0.939h5.533
			c0.519,0,0.939,0.42,0.939,0.939S27.838,24.584,27.319,24.584z"/>
	</g>
	<g id="XMLID_112_">
		<path id="XMLID_6_" class="st0" d="M27.319,21.495h-5.545c-0.519,0-0.939-0.42-0.939-0.939c0-0.519,0.42-0.939,0.939-0.939h5.545
			c0.519,0,0.939,0.42,0.939,0.939C28.259,21.075,27.838,21.495,27.319,21.495z"/>
	</g>
	<g id="XMLID_110_">
		<path id="XMLID_5_" class="st0" d="M27.319,27.671h-5.545c-0.519,0-0.939-0.42-0.939-0.939c0-0.519,0.42-0.939,0.939-0.939h5.545
			c0.519,0,0.939,0.42,0.939,0.939C28.259,27.251,27.838,27.671,27.319,27.671z"/>
	</g>
	<g id="XMLID_109_">
		<path id="XMLID_4_" class="st0" d="M38.218,18.41h-5.711c-0.519,0-0.939-0.42-0.939-0.939c0-0.519,0.42-0.939,0.939-0.939h5.711
			c0.519,0,0.939,0.42,0.939,0.939C39.157,17.99,38.737,18.41,38.218,18.41z"/>
	</g>
	<g id="XMLID_107_">
		<path id="XMLID_3_" class="st0" d="M38.218,24.584h-5.711c-0.519,0-0.939-0.42-0.939-0.939s0.42-0.939,0.939-0.939h5.711
			c0.519,0,0.939,0.42,0.939,0.939S38.737,24.584,38.218,24.584z"/>
	</g>
	<g id="XMLID_106_">
		<path id="XMLID_2_" class="st0" d="M38.231,21.495h-5.724c-0.519,0-0.939-0.42-0.939-0.939c0-0.519,0.42-0.939,0.939-0.939h5.724
			c0.519,0,0.939,0.42,0.939,0.939C39.17,21.075,38.75,21.495,38.231,21.495z"/>
	</g>
	<g id="XMLID_104_">
		<path id="XMLID_1_" class="st0" d="M38.231,27.671h-5.724c-0.519,0-0.939-0.42-0.939-0.939c0-0.519,0.42-0.939,0.939-0.939h5.724
			c0.519,0,0.939,0.42,0.939,0.939C39.17,27.251,38.75,27.671,38.231,27.671z"/>
	</g>
</g>
</svg>
