<?xml version="1.0" encoding="iso-8859-1"?>
<!-- Generator: Adobe Illustrator 19.0.0, SVG Export Plug-In . SVG Version: 6.00 Build 0)  -->
<svg version="1.1" id="Layer_1" xmlns="http://www.w3.org/2000/svg" xmlns:xlink="http://www.w3.org/1999/xlink" x="0px" y="0px"
	 viewBox="0 0 60 60" style="enable-background:new 0 0 60 60;" xml:space="preserve">
<style type="text/css">
	.st0{fill:#5C2D91;}
</style>
<g>
	<g id="XMLID_331_">
		<g id="XMLID_332_">
			<path class="st0" d="M30,60C13.458,60,0,46.542,0,29.999C0,13.457,13.458,0,30,0s30,13.457,30,29.999C60,46.542,46.542,60,30,60z
				 M30,1.879c-15.506,0-28.121,12.614-28.121,28.12c0,15.507,12.615,28.122,28.121,28.122s28.121-12.615,28.121-28.122
				C58.121,14.493,45.506,1.879,30,1.879z"/>
		</g>
	</g>
	<g id="XMLID_330_">
		<path class="st0" d="M24.627,49.899c-0.178,0-0.354-0.05-0.507-0.149c-0.254-0.163-0.415-0.439-0.43-0.739l-0.418-7.661
			l-3.478-0.123c-1.024-0.077-1.768-0.409-2.249-0.991c-0.48-0.579-0.526-1.201-0.517-1.478l-0.422-4.623l-2.601-1.917
			c-0.381-0.281-0.494-0.802-0.261-1.216l3.463-6.175C18.217,14.5,26.645,11.99,30.999,12.093c13.079,0,14.222,12.664,14.232,12.791
			c0.003,8.757-4.876,12.48-6.515,13.485l-0.142,5.506c-0.01,0.378-0.245,0.713-0.596,0.85L24.97,49.834
			C24.859,49.878,24.742,49.899,24.627,49.899z M15.787,31.198l2.273,1.676c0.216,0.159,0.353,0.404,0.378,0.671l0.466,5.11
			c0.006,0.063,0.005,0.127-0.002,0.19c-0.003,0.256,0.369,0.46,0.995,0.507l4.297,0.151c0.486,0.017,0.879,0.402,0.905,0.887
			l0.394,7.22l11.217-4.405l0.139-5.417c0.009-0.354,0.217-0.672,0.535-0.824c0.24-0.117,5.97-3.011,5.97-12.006
			c-0.034-0.377-1.033-10.986-12.38-10.986c-0.47-0.006-10.924-0.116-11.915,11.223c-0.012,0.133-0.051,0.261-0.117,0.378
			L15.787,31.198z"/>
	</g>
	<g id="XMLID_329_">
		<path class="st0" d="M31.802,30.659c-4.068,0-7.378-3.31-7.378-7.379c0-4.068,3.31-7.377,7.378-7.377s7.378,3.309,7.378,7.377
			C39.18,27.349,35.87,30.659,31.802,30.659z M31.802,17.782c-3.032,0-5.499,2.466-5.499,5.498c0,3.033,2.467,5.5,5.499,5.5
			c3.032,0,5.499-2.467,5.499-5.5C37.301,20.248,34.834,17.782,31.802,17.782z"/>
	</g>
	<g id="XMLID_328_">
		<path id="XMLID_12_" class="st0" d="M26.865,19.285c-0.234,0-0.469-0.087-0.651-0.262l-5.329-5.121
			c-0.373-0.359-0.385-0.954-0.026-1.328c0.36-0.373,0.954-0.385,1.328-0.026l5.329,5.121c0.373,0.359,0.385,0.954,0.026,1.328
			C27.358,19.188,27.112,19.285,26.865,19.285z"/>
	</g>
	<g id="XMLID_327_">
		<path id="XMLID_11_" class="st0" d="M38.744,23.657c-0.408,0-0.784-0.269-0.903-0.682c-0.142-0.499,0.147-1.019,0.646-1.161
			l7.108-2.027c0.501-0.137,1.018,0.147,1.161,0.646c0.142,0.499-0.147,1.019-0.646,1.161l-7.108,2.027
			C38.916,23.645,38.829,23.657,38.744,23.657z"/>
	</g>
	<g id="XMLID_326_">
		<path id="XMLID_10_" class="st0" d="M35.686,18.866c-0.242,0-0.484-0.093-0.668-0.279c-0.365-0.369-0.361-0.964,0.007-1.328
			l5.257-5.195c0.37-0.366,0.964-0.361,1.328,0.007c0.365,0.369,0.361,0.964-0.007,1.328l-5.257,5.195
			C36.163,18.776,35.925,18.866,35.686,18.866z"/>
	</g>
	<g id="XMLID_325_">
		<path id="XMLID_9_" class="st0" d="M31.264,17.799c-0.01,0-0.019,0-0.028,0c-0.518-0.016-0.927-0.448-0.912-0.967l0.215-7.388
			c0.016-0.509,0.433-0.912,0.939-0.912c0.01,0,0.019,0,0.028,0c0.518,0.016,0.927,0.448,0.912,0.967l-0.215,7.388
			C32.187,17.397,31.77,17.799,31.264,17.799z"/>
	</g>
	<g id="XMLID_324_">
		<path class="st0" d="M19.995,14.164c-1.419,0-2.574-1.155-2.574-2.574s1.155-2.574,2.574-2.574c1.419,0,2.574,1.155,2.574,2.574
			S21.414,14.164,19.995,14.164z M19.995,10.894c-0.383,0-0.695,0.312-0.695,0.695s0.312,0.695,0.695,0.695
			c0.383,0,0.695-0.312,0.695-0.695S20.378,10.894,19.995,10.894z"/>
	</g>
	<g id="XMLID_323_">
		<path class="st0" d="M31.454,10.262c-1.419,0-2.574-1.155-2.574-2.574s1.155-2.574,2.574-2.574s2.574,1.155,2.574,2.574
			S32.873,10.262,31.454,10.262z M31.454,6.992c-0.383,0-0.695,0.312-0.695,0.695c0,0.383,0.312,0.695,0.695,0.695
			s0.695-0.312,0.695-0.695C32.149,7.304,31.838,6.992,31.454,6.992z"/>
	</g>
	<g id="XMLID_322_">
		<path class="st0" d="M41.937,14.041c-1.419,0-2.574-1.155-2.574-2.574s1.155-2.574,2.574-2.574s2.574,1.155,2.574,2.574
			S43.356,14.041,41.937,14.041z M41.937,10.771c-0.383,0-0.695,0.312-0.695,0.695c0,0.383,0.312,0.695,0.695,0.695
			c0.383,0,0.695-0.312,0.695-0.695C42.633,11.083,42.321,10.771,41.937,10.771z"/>
	</g>
	<g id="XMLID_321_">
		<path class="st0" d="M47.545,22.696c-1.419,0-2.574-1.155-2.574-2.574c0-1.419,1.155-2.574,2.574-2.574s2.574,1.155,2.574,2.574
			C50.12,21.541,48.965,22.696,47.545,22.696z M47.545,19.426c-0.383,0-0.695,0.312-0.695,0.695s0.312,0.695,0.695,0.695
			c0.383,0,0.695-0.312,0.695-0.695S47.929,19.426,47.545,19.426z"/>
	</g>
</g>
</svg>
