<?xml version="1.0" encoding="iso-8859-1"?>
<!-- Generator: Adobe Illustrator 19.0.0, SVG Export Plug-In . SVG Version: 6.00 Build 0)  -->
<svg version="1.1" id="Layer_1" xmlns="http://www.w3.org/2000/svg" xmlns:xlink="http://www.w3.org/1999/xlink" x="0px" y="0px"
	 viewBox="0 0 60 60" style="enable-background:new 0 0 60 60;" xml:space="preserve">
<style type="text/css">
	.st0{fill:#5C2D91;}
</style>
<g>
	<g id="XMLID_271_">
		<g id="XMLID_273_">
			<path class="st0" d="M32.348,47.071h-5.94c-5.276,0-8.755-1.56-10.342-4.637c-4.042-7.835,6.342-22.588,6.786-23.213
				c0.197-0.276,0.516-0.442,0.856-0.442H35.95c0.328,0,0.637,0.155,0.835,0.415c0.458,0.601,11.162,14.824,7.207,22.801
				C42.323,45.363,38.405,47.071,32.348,47.071z M24.255,20.88c-2.964,4.317-9.093,15.223-6.322,20.592
				c1.198,2.322,4.049,3.498,8.475,3.498h5.94c5.192,0,8.477-1.314,9.763-3.907c3.048-6.145-5-17.84-6.692-20.183H24.255z"/>
		</g>
		<g id="XMLID_272_">
			<path id="XMLID_3_" class="st0" d="M32.615,20.262c-0.58,0-1.05-0.47-1.05-1.05v-4.18h-3.132v3.851c0,0.58-0.47,1.05-1.05,1.05
				c-0.58,0-1.05-0.47-1.05-1.05v-4.902c0-0.58,0.47-1.05,1.05-1.05h5.231c0.58,0,1.05,0.47,1.05,1.05v5.23
				C33.664,19.792,33.194,20.262,32.615,20.262z"/>
		</g>
	</g>
	<g id="XMLID_270_">
		<path class="st0" d="M30,60C13.458,60,0,46.542,0,29.999C0,13.457,13.458,0,30,0s30,13.457,30,29.999C60,46.542,46.542,60,30,60z
			 M30,1.879c-15.506,0-28.121,12.614-28.121,28.12c0,15.507,12.615,28.122,28.121,28.122s28.121-12.615,28.121-28.122
			C58.121,14.493,45.506,1.879,30,1.879z"/>
	</g>
</g>
</svg>
