<?xml version="1.0" encoding="iso-8859-1"?>
<!-- Generator: Adobe Illustrator 19.0.0, SVG Export Plug-In . SVG Version: 6.00 Build 0)  -->
<svg version="1.1" id="Layer_1" xmlns="http://www.w3.org/2000/svg" xmlns:xlink="http://www.w3.org/1999/xlink" x="0px" y="0px"
	 viewBox="0 0 60 60" style="enable-background:new 0 0 60 60;" xml:space="preserve">
<style type="text/css">
	.st0{fill:#5C2D91;}
	.st1{fill:#5C2D91;stroke:#5C2D91;stroke-miterlimit:10;}
	.st2{fill:#231F20;}
</style>
<g>
	<path id="XMLID_4_" class="st0" d="M4.505,42.577h50.238c0.95,0,1.525-1.05,1.014-1.85l-5.968-9.343
		c-0.221-0.346-0.603-0.555-1.014-0.555H10.473c-0.41,0-0.793,0.209-1.014,0.555l-5.968,9.343
		C2.98,41.527,3.555,42.577,4.505,42.577z"/>
	<path id="XMLID_3_" class="st1" d="M28.61,1.403l-8.792,13.764c-0.511,0.801,0.064,1.85,1.014,1.85h17.584
		c0.95,0,1.525-1.05,1.014-1.85L30.637,1.403C30.164,0.662,29.083,0.662,28.61,1.403z"/>
	<path id="XMLID_2_" class="st1" d="M17.228,19.221l-5.179,8.107c-0.511,0.801,0.064,1.85,1.014,1.85h33.122
		c0.95,0,1.525-1.05,1.014-1.85l-5.179-8.107c-0.221-0.346-0.603-0.555-1.014-0.555H18.242
		C17.831,18.666,17.449,18.875,17.228,19.221z"/>
</g>
<g id="XMLID_6_">
	<path id="XMLID_7_" class="st2" d="M11.815,53.407c0,2.245-1.364,3.435-3.028,3.435c-1.722,0-2.931-1.335-2.931-3.309
		c0-2.07,1.287-3.425,3.028-3.425C10.664,50.108,11.815,51.473,11.815,53.407z M6.756,53.514c0,1.394,0.754,2.642,2.08,2.642
		c1.335,0,2.09-1.229,2.09-2.709c0-1.297-0.677-2.65-2.08-2.65C7.452,50.796,6.756,52.082,6.756,53.514z"/>
	<path id="XMLID_10_" class="st2" d="M12.875,53.582c0-0.601-0.019-1.084-0.039-1.529H13.6l0.039,0.804h0.019
		c0.348-0.571,0.9-0.91,1.664-0.91c1.132,0,1.983,0.958,1.983,2.38c0,1.684-1.025,2.516-2.128,2.516
		c-0.619,0-1.161-0.271-1.441-0.735h-0.02v2.544h-0.842V53.582z M13.716,54.829c0,0.126,0.02,0.242,0.039,0.349
		c0.155,0.59,0.667,0.996,1.277,0.996c0.9,0,1.422-0.734,1.422-1.809c0-0.938-0.494-1.741-1.393-1.741
		c-0.581,0-1.122,0.416-1.287,1.055c-0.029,0.106-0.058,0.231-0.058,0.348V54.829z"/>
	<path id="XMLID_13_" class="st2" d="M18.849,54.549c0.02,1.151,0.755,1.625,1.606,1.625c0.609,0,0.977-0.106,1.296-0.241
		l0.145,0.609c-0.3,0.136-0.813,0.29-1.558,0.29c-1.441,0-2.302-0.948-2.302-2.36s0.832-2.525,2.196-2.525
		c1.529,0,1.935,1.345,1.935,2.206c0,0.174-0.02,0.31-0.029,0.396H18.849z M21.345,53.939c0.01-0.542-0.223-1.383-1.18-1.383
		c-0.861,0-1.238,0.793-1.306,1.383H21.345z"/>
	<path id="XMLID_16_" class="st2" d="M23.218,53.514c0-0.551-0.01-1.025-0.039-1.461h0.745l0.029,0.919h0.039
		c0.213-0.628,0.726-1.025,1.296-1.025c0.097,0,0.165,0.01,0.242,0.029v0.803c-0.087-0.019-0.174-0.028-0.291-0.028
		c-0.6,0-1.025,0.454-1.142,1.093c-0.019,0.116-0.039,0.252-0.039,0.396v2.496h-0.842V53.514z"/>
	<path id="XMLID_18_" class="st2" d="M28.924,56.735l-0.068-0.59h-0.029c-0.261,0.367-0.764,0.696-1.432,0.696
		c-0.948,0-1.432-0.668-1.432-1.345c0-1.132,1.006-1.751,2.815-1.741v-0.097c0-0.387-0.106-1.084-1.064-1.084
		c-0.435,0-0.89,0.136-1.219,0.349l-0.193-0.562c0.387-0.251,0.948-0.416,1.538-0.416c1.432,0,1.78,0.978,1.78,1.916v1.751
		c0,0.406,0.02,0.803,0.077,1.122H28.924z M28.798,54.346c-0.929-0.02-1.983,0.146-1.983,1.055c0,0.552,0.368,0.813,0.803,0.813
		c0.61,0,0.997-0.387,1.132-0.783c0.029-0.088,0.049-0.185,0.049-0.271V54.346z"/>
	<path id="XMLID_21_" class="st2" d="M34.329,56.562c-0.223,0.116-0.716,0.271-1.345,0.271c-1.412,0-2.333-0.958-2.333-2.39
		c0-1.441,0.988-2.486,2.516-2.486c0.503,0,0.948,0.126,1.181,0.242l-0.193,0.658c-0.204-0.116-0.522-0.223-0.987-0.223
		c-1.074,0-1.654,0.793-1.654,1.771c0,1.083,0.696,1.751,1.625,1.751c0.484,0,0.804-0.126,1.045-0.232L34.329,56.562z"/>
	<path id="XMLID_23_" class="st2" d="M36.271,50.737c0.01,0.29-0.203,0.522-0.542,0.522c-0.3,0-0.513-0.232-0.513-0.522
		c0-0.3,0.223-0.532,0.532-0.532C36.067,50.205,36.271,50.438,36.271,50.737z M35.322,56.735v-4.683h0.852v4.683H35.322z"/>
	<path id="XMLID_26_" class="st2" d="M41.821,54.355c0,1.731-1.199,2.486-2.331,2.486c-1.268,0-2.245-0.929-2.245-2.409
		c0-1.567,1.025-2.486,2.322-2.486C40.912,51.946,41.821,52.924,41.821,54.355z M38.106,54.404c0,1.025,0.59,1.799,1.422,1.799
		c0.813,0,1.423-0.764,1.423-1.818c0-0.794-0.397-1.8-1.403-1.8S38.106,53.514,38.106,54.404z"/>
	<path id="XMLID_29_" class="st2" d="M42.892,53.32c0-0.483-0.01-0.88-0.038-1.268h0.754l0.049,0.774h0.02
		c0.231-0.445,0.773-0.881,1.548-0.881c0.647,0,1.654,0.388,1.654,1.993v2.796h-0.852v-2.699c0-0.755-0.281-1.383-1.084-1.383
		c-0.561,0-0.996,0.396-1.142,0.87c-0.038,0.106-0.058,0.252-0.058,0.396v2.815h-0.852V53.32z"/>
	<path id="XMLID_31_" class="st2" d="M50.85,56.735l-0.067-0.59h-0.029c-0.262,0.367-0.765,0.696-1.432,0.696
		c-0.948,0-1.432-0.668-1.432-1.345c0-1.132,1.006-1.751,2.814-1.741v-0.097c0-0.387-0.106-1.084-1.063-1.084
		c-0.436,0-0.891,0.136-1.219,0.349l-0.194-0.562c0.388-0.251,0.948-0.416,1.539-0.416c1.432,0,1.779,0.978,1.779,1.916v1.751
		c0,0.406,0.02,0.803,0.078,1.122H50.85z M50.724,54.346c-0.929-0.02-1.983,0.146-1.983,1.055c0,0.552,0.368,0.813,0.804,0.813
		c0.609,0,0.996-0.387,1.132-0.783c0.028-0.088,0.048-0.185,0.048-0.271V54.346z"/>
	<path id="XMLID_34_" class="st2" d="M52.916,49.867h0.852v6.868h-0.852V49.867z"/>
</g>
</svg>
