<?xml version="1.0" encoding="iso-8859-1"?>
<!-- Generator: Adobe Illustrator 19.0.0, SVG Export Plug-In . SVG Version: 6.00 Build 0)  -->
<svg version="1.1" id="Layer_1" xmlns="http://www.w3.org/2000/svg" xmlns:xlink="http://www.w3.org/1999/xlink" x="0px" y="0px"
	 viewBox="0 0 60 60" style="enable-background:new 0 0 60 60;" xml:space="preserve">
<style type="text/css">
	.st0{fill:#5C2D91;}
</style>
<g>
	<g id="XMLID_229_">
		<path class="st0" d="M30.001,59.734c-16.396,0-29.735-13.339-29.735-29.735c0-16.395,13.339-29.733,29.735-29.733
			c16.395,0,29.733,13.338,29.733,29.733C59.734,46.395,46.396,59.734,30.001,59.734z M30.001,2.128
			c-15.37,0-27.873,12.503-27.873,27.871c0,15.37,12.503,27.873,27.873,27.873c15.369,0,27.871-12.503,27.871-27.873
			C57.872,14.63,45.37,2.128,30.001,2.128z"/>
	</g>
	<g id="XMLID_228_">
		<path class="st0" d="M45.979,43.975H14.02c-1.969,0-3.571-1.602-3.571-3.571V20.589c0-1.969,1.602-3.571,3.571-3.571h8.341v-1.319
			c0-1.969,1.602-3.571,3.571-3.571h8.135c1.969,0,3.571,1.602,3.571,3.571v1.319h8.341c1.969,0,3.571,1.602,3.571,3.571v19.815
			C49.549,42.373,47.947,43.975,45.979,43.975z M14.02,18.88c-0.942,0-1.709,0.767-1.709,1.709v19.815
			c0,0.942,0.767,1.709,1.709,1.709h31.958c0.942,0,1.709-0.767,1.709-1.709V20.589c0-0.942-0.767-1.709-1.709-1.709h-9.272
			c-0.515,0-0.931-0.416-0.931-0.931v-2.25c0-0.942-0.767-1.709-1.709-1.709h-8.135c-0.942,0-1.709,0.767-1.709,1.709v2.25
			c0,0.515-0.416,0.931-0.931,0.931H14.02z"/>
	</g>
	<g id="XMLID_227_">
		<path class="st0" d="M30,39.221c-5.198,0-9.427-4.229-9.427-9.427s4.229-9.427,9.427-9.427s9.427,4.229,9.427,9.427
			S35.198,39.221,30,39.221z M30,22.228c-4.172,0-7.565,3.393-7.565,7.565s3.393,7.565,7.565,7.565s7.565-3.393,7.565-7.565
			S34.172,22.228,30,22.228z"/>
	</g>
</g>
</svg>
