<?xml version="1.0" encoding="iso-8859-1"?>
<!-- Generator: Adobe Illustrator 19.0.0, SVG Export Plug-In . SVG Version: 6.00 Build 0)  -->
<svg version="1.1" id="Layer_1" xmlns="http://www.w3.org/2000/svg" xmlns:xlink="http://www.w3.org/1999/xlink" x="0px" y="0px"
	 viewBox="0 0 60 60" style="enable-background:new 0 0 60 60;" xml:space="preserve">
<style type="text/css">
	.st0{fill:#5C2D91;}
</style>
<g>
	<g id="XMLID_121_">
		<path class="st0" d="M30,59.761c-16.41,0-29.761-13.351-29.761-29.762c0-16.41,13.351-29.76,29.761-29.76
			s29.761,13.35,29.761,29.76C59.761,46.41,46.41,59.761,30,59.761z M30,2.103c-15.383,0-27.897,12.514-27.897,27.896
			c0,15.383,12.515,27.898,27.897,27.898s27.897-12.515,27.897-27.898C57.897,14.617,45.383,2.103,30,2.103z"/>
	</g>
	<g id="XMLID_120_">
		<path id="XMLID_5_" class="st0" d="M46.711,40.105h-33.2c-0.515,0-0.932-0.417-0.932-0.932v-2.79c0-0.515,0.417-0.932,0.932-0.932
			s0.932,0.417,0.932,0.932v1.858h31.336V21.149H14.444v8.865c0,0.515-0.417,0.932-0.932,0.932s-0.932-0.417-0.932-0.932v-9.797
			c0-0.515,0.417-0.932,0.932-0.932h33.2c0.515,0,0.932,0.417,0.932,0.932v18.956C47.643,39.688,47.226,40.105,46.711,40.105z"/>
	</g>
	<g id="XMLID_119_">
		<path id="XMLID_4_" class="st0" d="M47.216,18.682H13.007c-0.515,0-0.932-0.417-0.932-0.932c0-0.515,0.417-0.932,0.932-0.932
			h34.209c0.515,0,0.932,0.417,0.932,0.932C48.148,18.265,47.732,18.682,47.216,18.682z"/>
	</g>
	<g id="XMLID_108_">
		<g id="XMLID_116_">
			<path id="XMLID_3_" class="st0" d="M22.961,47.844c-0.231,0-0.463-0.086-0.643-0.258c-0.372-0.356-0.386-0.946-0.031-1.318
				l7.178-7.516c0.358-0.372,0.947-0.386,1.318-0.031c0.372,0.356,0.386,0.946,0.031,1.318l-7.178,7.516
				C23.452,47.748,23.207,47.844,22.961,47.844z"/>
		</g>
		<g id="XMLID_111_">
			<path id="XMLID_2_" class="st0" d="M37.263,47.676c-0.231,0-0.463-0.086-0.643-0.258l-7.516-7.179
				c-0.372-0.355-0.386-0.945-0.03-1.317c0.356-0.372,0.947-0.386,1.317-0.03l7.516,7.179c0.372,0.355,0.386,0.945,0.03,1.317
				C37.753,47.58,37.508,47.676,37.263,47.676z"/>
		</g>
	</g>
	<g id="XMLID_105_">
		<path id="XMLID_1_" class="st0" d="M9.893,36.227c-0.309,0-0.612-0.154-0.789-0.434c-0.275-0.435-0.145-1.011,0.29-1.286
			l8.853-5.592c0.436-0.273,1.012-0.144,1.286,0.29c0.275,0.435,0.145,1.011-0.29,1.286l-8.853,5.592
			C10.235,36.181,10.063,36.227,9.893,36.227z"/>
	</g>
</g>
</svg>
