<?xml version="1.0" encoding="utf-8"?>
<!-- Generated by IcoMoon.io -->
<!DOCTYPE svg PUBLIC "-//W3C//DTD SVG 1.1//EN" "http://www.w3.org/Graphics/SVG/1.1/DTD/svg11.dtd">
<svg version="1.1" xmlns="http://www.w3.org/2000/svg" xmlns:xlink="http://www.w3.org/1999/xlink" width="912" height="100" viewBox="0 0 912 100">
<svg id="icon-act-conception" width="42" height="42" viewBox="0 0 42 42" x="0" y="0">
<path fill="#3db671" d="M42 21c0 11.598-9.402 21-21 21s-21-9.402-21-21c0-11.598 9.402-21 21-21s21 9.402 21 21z"></path>
<path fill="#404041" d="M28.809 10.106l-4.594-2.953c-2.822-1.837-6.169-2.034-8.4 0.394l16.013 10.238c1.247-3.019-0.131-5.841-3.019-7.678z"></path>
<path fill="#f9ec31" d="M14.044 16.341l0.066 0.328h0.525c0.066 0.197 0.131 0.328 0.197 0.459l-0.328 0.394 0.197 0.262 0.459-0.262c0.131 0.131 0.262 0.262 0.459 0.328l-0.066 0.525 0.328 0.131 0.262-0.459c0.197 0.066 0.328 0.066 0.525 0.066l0.197 0.459 0.328-0.066v-0.525c0.197-0.066 0.328-0.131 0.459-0.197l0.394 0.328 0.262-0.197-0.262-0.459c0.131-0.131 0.262-0.262 0.328-0.459l0.525 0.066 0.131-0.328-0.459-0.262c0.066-0.197 0.066-0.328 0.066-0.525l0.459-0.197-0.066-0.262h-0.525c-0.066-0.197-0.131-0.328-0.197-0.459l0.328-0.394-0.197-0.262-0.459 0.262c-0.131-0.131-0.262-0.197-0.394-0.328l0.066-0.525-0.328-0.131-0.262 0.459c-0.197-0.066-0.328-0.066-0.525-0.066l-0.197-0.459-0.328 0.066v0.525c-0.197 0.066-0.328 0.131-0.525 0.262l-0.394-0.394-0.262 0.197 0.262 0.459c-0.131 0.131-0.262 0.262-0.328 0.459l-0.525-0.066-0.131 0.328 0.459 0.262c-0.066 0.197-0.066 0.328-0.066 0.525l-0.459 0.131zM15.75 15.094c0.525-0.459 1.313-0.394 1.772 0.197 0.459 0.525 0.394 1.313-0.197 1.772-0.525 0.459-1.313 0.394-1.772-0.197-0.394-0.525-0.328-1.312 0.197-1.772z"></path>
<path fill="#f9ec31" d="M20.803 18.637c-0.656-0.853-0.525-2.1 0.328-2.756s2.1-0.525 2.756 0.328c0.591 0.722 0.525 1.772-0.066 2.428h1.509l0.066-0.262-0.459-0.328c0.066-0.197 0.066-0.459 0.066-0.656l0.591-0.197-0.066-0.459-0.656-0.066c-0.066-0.197-0.131-0.459-0.262-0.656l0.459-0.459-0.262-0.328-0.591 0.262c-0.197-0.131-0.328-0.328-0.525-0.394l0.131-0.656-0.394-0.197-0.328 0.525c-0.197-0.066-0.459-0.066-0.656-0.066l-0.197-0.656-0.591 0.131v0.656c-0.262 0.066-0.459 0.131-0.656 0.262l-0.459-0.459-0.328 0.262 0.262 0.591c-0.197 0.197-0.328 0.394-0.459 0.591l-0.656-0.131-0.197 0.459 0.525 0.394c-0.066 0.197-0.066 0.459-0.066 0.656l-0.591 0.197 0.066 0.459 0.656 0.066c0.066 0.197 0.131 0.328 0.197 0.525l0.853-0.066c0 0 0 0 0 0z"></path>
<path fill="#404041" d="M31.894 23.625v-3.609c0-0.459-0.066-0.853-0.131-1.313h-7.941c0 0 0 0 0 0h-3.019c0 0 0 0 0 0h-0.853c0 0 0 0 0 0h-8.925c-0.066 0.394-0.131 0.853-0.131 1.313v3.609c-0.787 0.066-1.378 0.656-1.378 1.444s0.591 1.444 1.378 1.444c0.262 3.872 3.544 6.956 7.481 6.956h5.972c3.938 0 7.219-3.084 7.481-6.956 0.722-0.066 1.313-0.656 1.313-1.444 0.066-0.788-0.525-1.378-1.247-1.444zM17.259 26.381c-0.591 0-1.050-0.459-1.050-1.050s0.459-1.050 1.050-1.050c0.591 0 1.050 0.459 1.050 1.050s-0.459 1.050-1.050 1.050zM21.328 30.384c-0.394 0-0.722-0.066-0.984-0.131-0.525-0.131-0.591-0.459-0.591-0.656 0-0.131 0.131-0.262 0.262-0.262s0.262 0.131 0.262 0.262c0 0.066 0.394 0.262 1.050 0.262s1.050-0.197 1.050-0.262c0-0.131 0.131-0.262 0.262-0.262s0.262 0.131 0.262 0.262c0.066 0.591-0.788 0.788-1.575 0.788zM25.462 26.381c-0.591 0-1.050-0.459-1.050-1.050s0.459-1.050 1.050-1.050c0.591 0 1.050 0.459 1.050 1.050s-0.459 1.050-1.050 1.050z"></path>
</svg>
<svg id="icon-act-feedback" width="42" height="42" viewBox="0 0 42 42" x="58" y="0">
<path fill="#3db671" d="M42 21c0 11.598-9.402 21-21 21s-21-9.402-21-21c0-11.598 9.402-21 21-21s21 9.402 21 21z"></path>
<path fill="#e6e7e8" d="M34.65 19.556c0-5.316-6.103-9.647-13.65-9.647s-13.65 4.331-13.65 9.647c0 5.316 6.103 9.647 13.65 9.647 1.509 0 2.953-0.197 4.331-0.525l6.169 2.822-0.919-5.053c2.428-1.772 4.069-4.2 4.069-6.891zM17.325 13.059c-2.756 0.722-4.856 2.231-5.841 4.134-0.131 0.197-0.262 0.262-0.459 0.262-0.066 0-0.197 0-0.262-0.066-0.262-0.131-0.394-0.459-0.197-0.722 1.116-2.166 3.544-3.872 6.563-4.659 0.262-0.066 0.591 0.066 0.656 0.394 0 0.262-0.197 0.525-0.459 0.656z"></path>
</svg>
<svg id="icon-act-guide" width="42" height="42" viewBox="0 0 42 42" x="116" y="0">
<path fill="#3db671" d="M41.708 20.16l-9.605-16.636c-0.31-0.53-0.858-0.84-1.461-0.84h-19.283c-0.603 0-1.169 0.329-1.461 0.84l-9.605 16.636c-0.31 0.53-0.31 1.169 0 1.698l9.605 16.636c0.31 0.53 0.858 0.84 1.461 0.84h19.283c0.603 0 1.169-0.329 1.461-0.84l9.605-16.636c0.31-0.53 0.31-1.187 0-1.698z"></path>
<path fill="#fff" d="M16.69 32.705h-1.059l-0.201 0.712h-0.858l1.15-3.378h0.877l1.15 3.378h-0.858l-0.201-0.712zM16.161 30.806c0 0-0.073 0.365-0.146 0.584l-0.201 0.657h0.657l-0.183-0.657c-0.037-0.201-0.11-0.584-0.128-0.584v0z"></path>
<path fill="#fff" d="M19.649 29.984c0.858 0 1.297 0.457 1.297 0.457l-0.402 0.621c0 0-0.347-0.31-0.822-0.31-0.712 0-1.004 0.457-1.004 0.95 0 0.639 0.438 1.023 0.968 1.023 0.402 0 0.676-0.237 0.676-0.237v-0.256h-0.475v-0.712h1.205v1.899h-0.694v-0.091c0-0.073 0-0.146 0-0.146h-0.018c0 0-0.329 0.292-0.895 0.292-0.858 0-1.662-0.639-1.662-1.753 0.073-0.968 0.803-1.735 1.826-1.735z"></path>
<path fill="#fff" d="M21.749 30.039h0.822v3.378h-0.822v-3.378z"></path>
<path fill="#fff" d="M23.374 30.039h1.169c0.347 0 0.511 0.018 0.657 0.073 0.383 0.146 0.621 0.493 0.621 0.986 0 0.365-0.164 0.749-0.511 0.913v0.018c0 0 0.055 0.055 0.128 0.201l0.657 1.187h-0.913l-0.603-1.132h-0.383v1.132h-0.822v-3.378zM24.561 31.573c0.256 0 0.438-0.146 0.438-0.42 0-0.256-0.091-0.402-0.511-0.402h-0.274v0.822h0.347z"></path>
<path fill="#13a25b" d="M19.466 11.504h5.35l-1.881 4.529h4.072l-8.82 11.157 2.557-7.158h-4.675z"></path>
<path fill="#fff" d="M19.064 11.121h5.35l-1.881 4.529h4.072l-8.82 11.157 2.557-7.177h-4.675z"></path>
</svg>
<svg id="icon-act-presentation" width="42" height="42" viewBox="0 0 42 42" x="174" y="0">
<path fill="#3db671" d="M42 21c0 11.598-9.402 21-21 21s-21-9.402-21-21c0-11.598 9.402-21 21-21s21 9.402 21 21z"></path>
<path fill="#404041" d="M34.781 11.091c0 0.591-0.459 1.050-1.050 1.050h-25.659c-0.591 0-1.050-0.459-1.050-1.050v0c0-0.591 0.459-1.050 1.050-1.050h25.659c0.591 0.066 1.050 0.525 1.050 1.050v0z"></path>
<path fill="#404041" d="M20.934 29.925c-0.262 0-0.459-0.197-0.459-0.459v-2.559c0-0.262 0.197-0.459 0.459-0.459s0.459 0.197 0.459 0.459v2.559c0 0.197-0.197 0.459-0.459 0.459z"></path>
<path fill="#404041" d="M15.816 35.241c-0.131 0-0.262-0.066-0.328-0.131-0.197-0.197-0.197-0.525 0-0.656l5.119-5.119c0.197-0.197 0.525-0.197 0.656 0 0.197 0.197 0.197 0.525 0 0.656l-5.119 5.119c-0.066 0.066-0.197 0.131-0.328 0.131z"></path>
<path fill="#404041" d="M26.053 35.241c-0.131 0-0.262-0.066-0.328-0.131l-5.119-5.119c-0.197-0.197-0.197-0.525 0-0.656 0.197-0.197 0.525-0.197 0.656 0l5.119 5.119c0.197 0.197 0.197 0.525 0 0.656-0.131 0.066-0.262 0.131-0.328 0.131z"></path>
<path fill="#e6e7e8" d="M8.138 12.731h25.594v14.569h-25.594v-14.569z"></path>
<path fill="#3db671" d="M16.341 24.347c-1.772 0-3.281-1.444-3.281-3.281 0-1.772 1.444-3.281 3.281-3.281s3.281 1.444 3.281 3.281c0 1.837-1.509 3.281-3.281 3.281zM16.341 18.506c-1.444 0-2.625 1.181-2.625 2.625s1.181 2.625 2.625 2.625c1.444 0 2.625-1.181 2.625-2.625s-1.181-2.625-2.625-2.625z"></path>
<path fill="#3db671" d="M24.741 19.425h-4.659c-0.197 0-0.328-0.131-0.328-0.328v-4.659c0-0.197 0.131-0.328 0.328-0.328h4.659c0.197 0 0.328 0.131 0.328 0.328v4.659c0 0.197-0.131 0.328-0.328 0.328zM20.344 18.769h4.003v-4.003h-4.003v4.003z"></path>
<path fill="#3db671" d="M28.481 24.216c0 0 0 0 0 0h-6.497c-0.131 0-0.262-0.066-0.328-0.197s0-0.262 0.066-0.328l3.281-3.281c0.131-0.131 0.328-0.131 0.459 0l3.216 3.216c0.066 0.066 0.131 0.131 0.131 0.262 0 0.197-0.131 0.328-0.328 0.328zM22.706 23.559h4.922l-2.494-2.494-2.428 2.494z"></path>
</svg>
<svg id="icon-check-icon" width="42" height="42" viewBox="0 0 42 42" x="232" y="0">
<path fill="#f6921e" d="M41.672 21c0 11.417-9.255 20.672-20.672 20.672s-20.672-9.255-20.672-20.672c0-11.417 9.255-20.672 20.672-20.672s20.672 9.255 20.672 20.672z"></path>
<path fill="#652d90" d="M19.688 31.566c-0.787 0-1.575-0.262-2.166-0.853l-7.35-6.694c-1.313-1.181-1.378-3.216-0.197-4.528s3.216-1.378 4.528-0.197l4.594 4.2 7.875-11.747c0.984-1.444 2.953-1.838 4.397-0.853s1.838 2.953 0.853 4.397l-9.909 14.897c-0.525 0.788-1.313 1.247-2.297 1.378-0.066 0-0.197 0-0.328 0z"></path>
</svg>
<svg id="icon-do-closing" width="42" height="42" viewBox="0 0 42 42" x="290" y="0">
<path fill="#21b89b" d="M42 21c0 11.598-9.402 21-21 21s-21-9.402-21-21c0-11.598 9.402-21 21-21s21 9.402 21 21z"></path>
<path fill="#404041" d="M14.766 29.334c-0.525 0-1.050-0.197-1.444-0.591-0.787-0.788-0.787-2.166 0-2.953l12.534-12.534c0.788-0.787 2.166-0.787 2.953 0s0.788 2.166 0 2.953l-12.6 12.534c-0.394 0.394-0.919 0.591-1.444 0.591z"></path>
<path fill="#404041" d="M27.234 29.334c-0.525 0-1.050-0.197-1.444-0.591l-12.534-12.534c-0.787-0.787-0.787-2.166 0-2.953s2.166-0.787 2.953 0l12.534 12.534c0.788 0.788 0.788 2.166 0 2.953-0.394 0.394-0.919 0.591-1.509 0.591z"></path>
</svg>
<svg id="icon-do" width="42" height="42" viewBox="0 0 42 42" x="348" y="0">
<path fill="#21b89b" d="M41.982 21.037c0-0.018 0-0.018 0 0 0-0.018 0-0.037 0-0.055 0-0.31 0-0.621-0.018-0.931-0.475-10.829-9.313-19.612-20.142-20.014-11.943-0.475-21.785 9.076-21.803 20.927 0 0 0 0.018 0 0.018s0 0 0 0c0 0.018 0 0.037 0 0.055 0 0.31 0 0.621 0.018 0.931 0.475 10.829 9.313 19.612 20.142 20.014 11.943 0.457 21.785-9.094 21.803-20.945 0 0 0 0 0 0z"></path>
<path fill="#fff" d="M9.897 28.012h1.205c0.347 0 0.53 0.018 0.676 0.091 0.402 0.146 0.639 0.511 0.639 1.004 0 0.365-0.183 0.767-0.511 0.95v0.018c0 0 0.055 0.055 0.128 0.201l0.676 1.223h-0.95l-0.621-1.169h-0.402v1.169h-0.858v-3.488zM11.121 29.583c0.274 0 0.438-0.146 0.438-0.42 0-0.256-0.091-0.42-0.53-0.42h-0.292v0.84h0.383z"></path>
<path fill="#fff" d="M13.221 28.012h2.173v0.73h-1.333v0.639h1.059v0.73h-1.059v0.657h1.388v0.73h-2.228v-3.488z"></path>
<path fill="#fff" d="M17.823 30.751h-1.077l-0.201 0.73h-0.877l1.187-3.47h0.858l1.187 3.47h-0.877l-0.201-0.73zM17.275 28.797c0 0-0.073 0.383-0.146 0.603l-0.201 0.676h0.694l-0.201-0.676c-0.055-0.219-0.146-0.603-0.146-0.603v0z"></path>
<path fill="#fff" d="M19.283 28.012h0.858v2.739h1.424v0.73h-2.264v-3.47z"></path>
<path fill="#fff" d="M22.023 28.012h0.858v3.47h-0.858v-3.47z"></path>
<path fill="#fff" d="M23.465 30.952l1.333-1.899c0.146-0.219 0.274-0.31 0.274-0.31v-0.018c0 0-0.11 0.018-0.274 0.018h-1.278v-0.73h2.63v0.53l-1.351 1.917c-0.146 0.219-0.274 0.31-0.274 0.31v0.018c0 0 0.11-0.018 0.274-0.018h1.37v0.73h-2.703v-0.548z"></path>
<path fill="#fff" d="M28.542 30.751h-1.077l-0.201 0.73h-0.877l1.187-3.47h0.895l1.187 3.47h-0.877l-0.237-0.73zM27.994 28.797c0 0-0.073 0.383-0.146 0.603l-0.201 0.676h0.694l-0.201-0.676c-0.055-0.219-0.146-0.603-0.146-0.603v0z"></path>
<path fill="#fff" d="M30.021 28.012h1.205c0.347 0 0.53 0.018 0.676 0.091 0.402 0.146 0.639 0.511 0.639 1.004 0 0.365-0.183 0.767-0.511 0.95v0.018c0 0 0.055 0.055 0.128 0.201l0.676 1.223h-0.95l-0.621-1.169h-0.402v1.169h-0.858v-3.488zM31.226 29.583c0.274 0 0.438-0.146 0.438-0.42 0-0.256-0.091-0.42-0.53-0.42h-0.274v0.84h0.365z"></path>
<path fill="#0ca690" d="M16.599 10.628l-0.858 0.292c-0.347 0.128-0.53 0.493-0.42 0.858 0.11 0.31 0.438 0.511 0.767 0.438l4.255 12.399c0.055 0.164 0.237 0.256 0.383 0.183l0.457-0.146c0.164-0.055 0.256-0.237 0.201-0.383l-4.255-12.399c0.292-0.146 0.438-0.493 0.329-0.822-0.128-0.347-0.511-0.53-0.858-0.42v0z"></path>
<path fill="#0ca690" d="M25.638 9.057c-0.621-0.073-1.223 0-1.808 0.201-0.785 0.274-1.479 0.749-2.137 1.205s-1.333 0.931-2.1 1.187c-0.53 0.183-1.059 0.256-1.625 0.201-0.091 0-0.183 0-0.183 0l2.319 6.793c0.621 0.073 1.223 0 1.808-0.201 0.785-0.274 1.461-0.749 2.137-1.205 0.657-0.457 1.333-0.931 2.1-1.205 0.53-0.183 1.059-0.256 1.625-0.201 0.091 0 0.164-0.037 0.201-0.11s0.055-0.183 0.018-0.274l-2.118-6.172c-0.037-0.128-0.128-0.201-0.237-0.219v0z"></path>
<path fill="#fff" d="M15.796 10.226l-0.858 0.292c-0.347 0.128-0.53 0.493-0.42 0.858 0.11 0.31 0.438 0.511 0.767 0.438l4.255 12.399c0.055 0.164 0.237 0.256 0.383 0.201l0.457-0.146c0.164-0.055 0.256-0.237 0.201-0.383l-4.273-12.417c0.292-0.146 0.438-0.493 0.329-0.822-0.11-0.347-0.493-0.548-0.84-0.42v0z"></path>
<path fill="#fff" d="M24.835 8.656c-0.621-0.073-1.223 0-1.808 0.201-0.785 0.274-1.479 0.749-2.137 1.205s-1.333 0.931-2.1 1.187c-0.53 0.183-1.059 0.256-1.625 0.201-0.091 0-0.183 0-0.183 0l2.319 6.793c0.621 0.073 1.223 0 1.808-0.201 0.785-0.274 1.461-0.749 2.137-1.205 0.657-0.457 1.333-0.931 2.1-1.205 0.53-0.183 1.059-0.256 1.625-0.201 0.091 0 0.164-0.037 0.201-0.11s0.055-0.183 0.018-0.274l-2.118-6.172c-0.037-0.128-0.146-0.219-0.237-0.219v0z"></path>
</svg>
<svg id="icon-do-open-cicle" width="42" height="42" viewBox="0 0 42 42" x="406" y="0">
<path fill="#21b89b" d="M42 21c0 11.598-9.402 21-21 21s-21-9.402-21-21c0-11.598 9.402-21 21-21s21 9.402 21 21z"></path>
<path fill="#e6e7e8" d="M21 32.156c-6.3 0-11.419-4.988-11.419-11.156 0-1.050 0.131-2.034 0.394-3.019 0.197-0.722 0.984-1.181 1.772-0.984s1.181 0.984 0.984 1.706c-0.197 0.722-0.328 1.509-0.328 2.231 0 4.659 3.872 8.4 8.597 8.4s8.597-3.741 8.597-8.4c0-4.659-3.872-8.4-8.597-8.4-1.247 0-2.428 0.262-3.609 0.787-0.722 0.328-1.575 0-1.903-0.656-0.328-0.722 0-1.509 0.722-1.838 1.509-0.656 3.084-1.050 4.791-1.050 6.3 0 11.419 4.987 11.419 11.156s-5.119 11.222-11.419 11.222z"></path>
</svg>
<svg id="icon-eye" width="42" height="42" viewBox="0 0 42 42" x="464" y="0">
<path fill="#f6921e" d="M42 21c0 11.598-9.402 21-21 21s-21-9.402-21-21c0-11.598 9.402-21 21-21s21 9.402 21 21z"></path>
<path fill="#404041" d="M21.262 31.434c-4.003 0-7.875-1.903-11.55-5.578-0.591-0.591-0.591-1.575 0-2.231 0.591-0.591 1.575-0.591 2.231 0 3.216 3.281 6.563 4.856 9.844 4.659 5.053-0.262 8.466-4.528 8.466-4.528 0.525-0.656 1.509-0.788 2.231-0.262 0.656 0.525 0.788 1.509 0.263 2.166-0.197 0.197-4.331 5.381-10.762 5.709-0.262 0.066-0.525 0.066-0.722 0.066z"></path>
<path fill="#404041" d="M21.131 26.447c-2.428 0-4.397-1.969-4.397-4.462 0-2.428 1.969-4.463 4.397-4.463s4.397 1.969 4.397 4.463c0 2.494-1.969 4.462-4.397 4.462zM21.131 20.409c-0.853 0-1.509 0.722-1.509 1.575s0.656 1.575 1.509 1.575c0.853 0 1.509-0.722 1.509-1.575s-0.656-1.575-1.509-1.575z"></path>
<path fill="#404041" d="M12.994 14.306c-0.328 0-0.656-0.131-0.919-0.394l-1.641-1.641c-0.525-0.525-0.525-1.313 0-1.838s1.313-0.525 1.838 0l1.641 1.641c0.525 0.525 0.525 1.313 0 1.838-0.262 0.262-0.591 0.394-0.919 0.394z"></path>
<path fill="#404041" d="M29.269 14.306c-0.328 0-0.656-0.131-0.919-0.394-0.525-0.525-0.525-1.313 0-1.838l1.641-1.641c0.525-0.525 1.313-0.525 1.837 0s0.525 1.313 0 1.838l-1.641 1.641c-0.262 0.262-0.591 0.394-0.919 0.394z"></path>
<path fill="#404041" d="M16.8 12.6c-0.525 0-0.984-0.328-1.181-0.787l-0.919-2.231c-0.262-0.656 0.066-1.444 0.722-1.706s1.444 0.066 1.706 0.722l0.919 2.231c0.262 0.656-0.066 1.444-0.722 1.706-0.197 0.066-0.394 0.066-0.525 0.066z"></path>
<path fill="#404041" d="M25.462 12.6c-0.197 0-0.328 0-0.525-0.131-0.656-0.262-0.984-1.050-0.722-1.706l0.919-2.231c0.262-0.656 1.050-0.984 1.706-0.722s0.984 1.050 0.722 1.706l-0.853 2.297c-0.262 0.525-0.722 0.787-1.247 0.787z"></path>
<path fill="#404041" d="M21.066 11.944c-0.722 0-1.313-0.591-1.313-1.313v-2.559c0-0.722 0.591-1.312 1.313-1.312s1.313 0.591 1.313 1.312v2.559c0 0.722-0.591 1.313-1.313 1.313z"></path>
<path fill="#404041" d="M10.828 21.525c-0.328 0-0.656-0.131-0.984-0.328-0.656-0.525-0.787-1.509-0.263-2.166 0.197-0.197 4.331-5.381 10.697-5.775 4.2-0.262 8.334 1.575 12.272 5.512 0.591 0.591 0.591 1.575 0 2.231-0.591 0.591-1.575 0.591-2.231 0-3.281-3.281-6.563-4.791-9.844-4.594-5.053 0.328-8.4 4.528-8.466 4.594-0.262 0.328-0.722 0.525-1.181 0.525z"></path>
</svg>
<svg id="icon-feel-guide" width="42" height="42" viewBox="0 0 42 42" x="522" y="0">
<path fill="#f6901e" d="M35.116 0.091h-28.231c-3.743 0-6.793 3.050-6.793 6.793v28.231c0 3.743 3.031 6.793 6.793 6.793h28.231c3.743 0 6.793-3.031 6.793-6.793v-28.231c0-3.743-3.050-6.793-6.793-6.793z"></path>
<path fill="#f48120" d="M21.603 8.783c-4.876 0-8.82 3.944-8.82 8.82s3.944 8.82 8.82 8.82c4.876 0 8.82-3.944 8.82-8.82 0.018-4.876-3.944-8.82-8.82-8.82v0zM24.871 14.663c0.694 0 1.26 0.566 1.26 1.26s-0.566 1.26-1.26 1.26c-0.694 0-1.26-0.566-1.26-1.26s0.566-1.26 1.26-1.26v0zM18.352 14.663c0.694 0 1.26 0.566 1.26 1.26s-0.566 1.26-1.26 1.26c-0.694 0-1.26-0.566-1.26-1.26s0.566-1.26 1.26-1.26v0zM26.369 20.671c-1.077 1.57-2.867 2.502-4.766 2.502s-3.689-0.931-4.766-2.502c-0.237-0.347-0.146-0.84 0.201-1.077s0.84-0.146 1.077 0.201c0.785 1.15 2.1 1.844 3.488 1.844s2.703-0.676 3.488-1.844c0.237-0.347 0.73-0.438 1.077-0.201 0.365 0.256 0.457 0.73 0.201 1.077v0z"></path>
<path fill="#fff" d="M12.016 34.823c0 0 0.438 0.402 0.913 0.402 0.201 0 0.402-0.073 0.402-0.31 0-0.457-1.735-0.438-1.735-1.625 0-0.712 0.603-1.169 1.351-1.169 0.822 0 1.242 0.438 1.242 0.438l-0.402 0.767c0 0-0.383-0.347-0.84-0.347-0.201 0-0.402 0.091-0.402 0.292 0 0.475 1.735 0.402 1.735 1.607 0 0.639-0.493 1.187-1.351 1.187-0.895 0-1.406-0.548-1.406-0.548l0.493-0.694z"></path>
<path fill="#fff" d="M14.937 32.176h2.41v0.803h-1.461v0.694h1.169v0.803h-1.169v0.73h1.534v0.803h-2.483v-3.835z"></path>
<path fill="#fff" d="M18.097 32.176h0.95l1.059 1.79c0.146 0.256 0.329 0.657 0.329 0.657h0.018c0 0-0.037-0.42-0.037-0.657v-1.79h0.931v3.835h-0.95l-1.077-1.79c-0.146-0.256-0.329-0.657-0.329-0.657v0c0 0 0.037 0.42 0.037 0.657v1.79h-0.95v-3.835z"></path>
<path fill="#fff" d="M22.972 32.979h-1.169v-0.803h3.269v0.803h-1.15v3.031h-0.95v-3.031z"></path>
<path fill="#fff" d="M25.565 32.176h0.95v3.835h-0.95v-3.835z"></path>
<path fill="#fff" d="M27.41 32.176h1.333c0.383 0 0.584 0.018 0.749 0.091 0.438 0.164 0.712 0.566 0.712 1.114 0 0.402-0.201 0.858-0.566 1.041v0.018c0 0 0.055 0.073 0.146 0.237l0.749 1.351h-1.041l-0.676-1.297h-0.438v1.297h-0.95v-3.853zM28.761 33.91c0.292 0 0.493-0.164 0.493-0.475 0-0.292-0.11-0.457-0.584-0.457h-0.31v0.931h0.402z"></path>
<path fill="#fff" d="M20.708 7.889c-4.876 0-8.82 3.944-8.82 8.82s3.944 8.82 8.82 8.82c4.876 0 8.82-3.944 8.82-8.82 0.018-4.876-3.944-8.82-8.82-8.82v0zM23.977 13.769c0.694 0 1.26 0.566 1.26 1.26s-0.566 1.26-1.26 1.26c-0.694 0-1.26-0.566-1.26-1.26-0.018-0.694 0.548-1.26 1.26-1.26v0zM17.457 13.769c0.694 0 1.26 0.566 1.26 1.26s-0.566 1.26-1.26 1.26c-0.694 0-1.26-0.566-1.26-1.26s0.566-1.26 1.26-1.26v0zM25.474 19.777c-1.077 1.57-2.867 2.502-4.766 2.502s-3.689-0.931-4.766-2.502c-0.237-0.347-0.146-0.84 0.201-1.077s0.84-0.146 1.077 0.201c0.785 1.15 2.1 1.844 3.488 1.844s2.703-0.676 3.488-1.844c0.237-0.347 0.73-0.438 1.077-0.201 0.347 0.256 0.438 0.73 0.201 1.077v0z"></path>
</svg>
<svg id="icon-limit" width="42" height="42" viewBox="0 0 42 42" x="580" y="0">
<path fill="#f6921e" d="M41.672 21c0 11.417-9.255 20.672-20.672 20.672s-20.672-9.255-20.672-20.672c0-11.417 9.255-20.672 20.672-20.672s20.672 9.255 20.672 20.672z"></path>
<path fill="#404041" d="M19.228 34.256c0 0.834-1.88 1.509-4.2 1.509s-4.2-0.676-4.2-1.509c0-0.834 1.88-1.509 4.2-1.509s4.2 0.676 4.2 1.509z"></path>
<path fill="#404041" d="M31.172 25.266c0 0.834-1.88 1.509-4.2 1.509s-4.2-0.676-4.2-1.509c0-0.834 1.88-1.509 4.2-1.509s4.2 0.676 4.2 1.509z"></path>
<path fill="#404041" d="M14.831 35.7c-0.525 0-0.984-0.459-0.984-0.984v-18.112c0-0.525 0.459-0.984 0.984-0.984s0.984 0.459 0.984 0.984v18.112c0 0.525-0.459 0.984-0.984 0.984z"></path>
<path fill="#404041" d="M27.038 26.25c-0.525 0-0.984-0.459-0.984-0.984v-18.113c0-0.525 0.459-0.984 0.984-0.984s0.984 0.459 0.984 0.984v18.113c-0.066 0.525-0.459 0.984-0.984 0.984z"></path>
<path fill="#fff" d="M14.831 18.113l12.206-9.909v3.216l-11.616 9.45z"></path>
</svg>
<svg id="icon-tool-5" width="42" height="42" viewBox="0 0 42 42" x="638" y="0">
<path fill="#fff" d="M14.044 31.238c-1.706 0-3.216-0.394-4.463-1.247-1.444-0.984-2.166-2.166-2.166-3.544 0-0.853 0.263-1.575 0.853-2.166 0.262-0.328 0.591-0.525 0.984-0.656-0.328-0.197-0.591-0.394-0.787-0.591-0.459-0.525-0.722-1.313-0.722-2.166 0-0.131 0-0.328 0-0.394 0-0.131 0-0.197 0-0.328l0.591-4.791c0.131-1.247 0.525-2.034 1.116-2.494s1.444-0.656 2.756-0.656h5.709c0.853 0 1.575 0.262 2.1 0.722 0.525 0.525 0.853 1.247 0.853 2.1s-0.262 1.575-0.853 2.1c-0.525 0.525-1.247 0.722-2.1 0.722h-0.197c0.722 0.328 1.378 0.722 1.969 1.313 1.313 1.247 1.903 2.887 1.903 4.922 0 2.166-0.722 3.938-2.1 5.25-1.378 1.247-3.216 1.903-5.447 1.903zM10.434 24.675c-0.459 0-0.853 0.197-1.181 0.525s-0.459 0.722-0.459 1.247c0 0.919 0.525 1.772 1.575 2.428s2.297 1.050 3.741 1.050c1.903 0 3.412-0.525 4.528-1.575s1.706-2.494 1.706-4.266c0-1.641-0.525-2.953-1.509-4.003-1.050-0.984-2.363-1.509-4.003-1.509-0.591 0-1.050 0.066-1.575 0.197-0.197 0.066-0.459 0-0.591-0.131-0.197-0.131-0.262-0.394-0.197-0.591l0.131-0.984c0.066-0.328 0.328-0.591 0.656-0.591h4.856c0.525 0 0.919-0.131 1.181-0.394s0.394-0.656 0.394-1.181c0-0.525-0.131-0.853-0.394-1.181-0.262-0.262-0.656-0.394-1.181-0.394h-5.709c-0.984 0-1.575 0.131-1.903 0.394s-0.525 0.787-0.656 1.641l-0.591 4.791c0 0.066 0 0.131 0 0.262 0 0.066 0 0.197 0 0.328 0 0.591 0.131 1.050 0.394 1.313 0.263 0.328 0.656 0.459 1.181 0.459 0.131 0 0.459 0 1.575-0.591 0.722-0.328 1.313-0.525 1.838-0.525 0.787 0 1.378 0.262 1.838 0.722s0.656 1.116 0.656 1.969c0 0.919-0.197 1.575-0.656 2.1-0.394 0.459-1.050 0.722-1.903 0.722-0.459 0-0.853-0.066-1.116-0.262-0.262-0.131-0.591-0.459-0.853-0.919-0.328-0.459-0.591-0.788-0.787-0.919-0.394-0.066-0.722-0.131-0.984-0.131zM13.584 25.594c0 0 0.131 0.066 0.459 0.066 0.656 0 0.853-0.197 0.919-0.262 0.197-0.197 0.328-0.656 0.328-1.181s-0.131-0.853-0.328-1.116c-0.131-0.131-0.328-0.262-0.853-0.262-0.197 0-0.591 0.066-1.247 0.394-0.459 0.197-0.787 0.394-1.050 0.459 0.066 0.066 0.197 0.066 0.262 0.131 0.394 0.262 0.787 0.656 1.181 1.313 0.131 0.394 0.328 0.459 0.328 0.459v0z"></path>
<path fill="#fff" d="M27.431 30.975c-0.919 0-1.706-0.328-2.363-0.984s-0.984-1.444-0.984-2.363c0-0.919 0.328-1.706 0.984-2.363 0.066-0.066 0.131-0.131 0.197-0.197-0.394-0.394-0.788-1.050-0.788-2.1 0-0.656 0.131-1.313 0.459-1.903 0.262-0.591 0.722-1.116 1.181-1.641 0.197-0.197 0.525-0.459 0.919-0.787 1.050-0.853 1.050-1.313 1.050-1.378 0-0.459-0.131-0.591-0.197-0.656s-0.131-0.131-0.525-0.131c-0.328 0-0.459 0.066-0.525 0.131s-0.197 0.131-0.262 0.328c-0.066 0.131-0.131 0.262-0.197 0.394-0.919 1.837-2.297 2.1-3.084 2.1-1.116 0-1.772-0.459-2.1-0.853-0.525-0.525-0.788-1.247-0.788-2.1 0-0.722 0.197-1.378 0.525-2.1 0.328-0.656 0.788-1.247 1.378-1.772 0.656-0.656 1.444-1.116 2.297-1.444s1.772-0.459 2.756-0.459c2.1 0 3.806 0.591 5.119 1.706v0c1.378 1.181 2.034 2.756 2.034 4.725 0 0.853-0.131 1.641-0.394 2.297s-0.722 1.313-1.313 1.969c-0.262 0.328-0.722 0.656-1.378 1.181-0.656 0.459-0.788 0.722-0.853 0.722 0 0.066-0.066 0.131-0.131 0.328-0.197 0.525-0.197 0.591-0.262 0.722-0.131 0.328-0.328 0.591-0.525 0.788 0.066 0.066 0.066 0.066 0.131 0.131 0.656 0.656 0.984 1.444 0.984 2.363s-0.328 1.706-0.984 2.363c-0.656 0.656-1.444 0.984-2.363 0.984zM27.431 15.225c0.656 0 1.116 0.197 1.444 0.591s0.525 0.919 0.525 1.509c0 0.722-0.525 1.575-1.575 2.363-0.394 0.328-0.656 0.525-0.853 0.722-0.394 0.394-0.722 0.788-0.919 1.247s-0.328 0.919-0.328 1.313c0 0.656 0.262 1.050 0.459 1.247 0.131 0.131 0.262 0.197 0.459 0.328 0.262 0.131 0.394 0.328 0.394 0.591s-0.197 0.525-0.394 0.591c-0.262 0.131-0.459 0.262-0.656 0.459-0.394 0.394-0.591 0.853-0.591 1.444 0 0.525 0.197 1.050 0.591 1.378 0.788 0.788 2.1 0.788 2.822 0 0.394-0.394 0.591-0.853 0.591-1.444s-0.197-1.050-0.591-1.444c-0.197-0.197-0.394-0.328-0.656-0.459s-0.394-0.328-0.394-0.591c0-0.262 0.131-0.525 0.394-0.591 0.066 0 0.131-0.066 0.197-0.131 0.262-0.131 0.459-0.394 0.591-0.656 0-0.066 0.066-0.131 0.197-0.591 0.066-0.328 0.197-0.525 0.394-0.722 0.197-0.262 0.591-0.591 1.116-0.984 0.591-0.394 0.984-0.722 1.181-0.984 0.459-0.525 0.853-1.050 1.050-1.575s0.328-1.116 0.328-1.838c0-1.575-0.525-2.822-1.575-3.741v0c-1.050-0.919-2.494-1.378-4.266-1.378-0.853 0-1.641 0.131-2.363 0.394-0.656 0.262-1.313 0.656-1.837 1.181-0.459 0.459-0.788 0.919-1.050 1.378-0.262 0.525-0.394 0.984-0.394 1.509s0.131 0.919 0.394 1.247c0.262 0.328 0.656 0.459 1.181 0.459 0.788 0 1.444-0.459 1.903-1.378 0.131-0.197 0.197-0.328 0.262-0.459 0.197-0.328 0.459-0.591 0.788-0.787 0.328-0.066 0.722-0.197 1.181-0.197z"></path>
<path fill="#fff" d="M21 42c-11.55 0-21-9.45-21-21s9.45-21 21-21c11.55 0 21 9.45 21 21s-9.45 21-21 21zM21 1.313c-10.828 0-19.688 8.859-19.688 19.688s8.859 19.688 19.688 19.688c10.828 0 19.688-8.859 19.688-19.688s-8.859-19.688-19.688-19.688z"></path>
</svg>
<svg id="icon-tool-brainstorming" width="42" height="42" viewBox="0 0 42 42" x="696" y="0">
<path fill="#fff" d="M21 42c-11.55 0-21-9.45-21-21s9.45-21 21-21 21 9.45 21 21c0 11.55-9.45 21-21 21zM21 1.313c-10.828 0-19.688 8.859-19.688 19.688s8.859 19.688 19.688 19.688 19.688-8.859 19.688-19.688c0-10.828-8.859-19.688-19.688-19.688z"></path>
<path fill="#fff" d="M17.391 35.569c-0.131 0-0.262-0.066-0.328-0.131-0.197-0.131-0.262-0.328-0.328-0.525l-0.328-5.709-2.625-0.066c-0.722-0.066-1.313-0.328-1.641-0.722s-0.394-0.853-0.394-1.050l-0.328-3.478-1.969-1.444c-0.263-0.197-0.328-0.591-0.197-0.853l2.625-4.659c0.919-9.713 10.237-9.581 10.303-9.581 9.778 0 10.631 9.45 10.631 9.516 0 6.563-3.675 9.384-4.856 10.106l-0.131 4.134c0 0.262-0.197 0.525-0.394 0.591l-9.778 3.806c-0.066 0.066-0.197 0.066-0.262 0.066zM10.697 21.656l1.706 1.313c0.131 0.131 0.262 0.262 0.262 0.459l0.328 3.806c0 0.066 0 0.066 0 0.131 0 0.197 0.262 0.394 0.787 0.459l3.216 0.131c0.328 0 0.591 0.262 0.656 0.591l0.328 5.447 8.466-3.347 0.131-4.069c0-0.262 0.131-0.459 0.394-0.591 0.197-0.066 4.528-2.297 4.528-9.056 0-0.262-0.788-8.269-9.319-8.269-0.394 0-8.203-0.066-8.991 8.466 0 0.066-0.066 0.197-0.066 0.262l-2.428 4.266z"></path>
<path fill="#fff" d="M19.753 21.394c-0.066 0-0.131 0-0.197-0.066-0.328-0.131-0.459-0.394-0.459-0.722l0.591-4.463h-1.838c-0.197 0-0.394-0.066-0.525-0.262-0.131-0.131-0.197-0.394-0.131-0.591l0.984-4.134c0.066-0.328 0.328-0.525 0.656-0.525h3.15c0.197 0 0.394 0.066 0.525 0.262 0.131 0.131 0.197 0.394 0.131 0.591l-0.262 1.050 1.706-0.066c0.197 0 0.459 0.131 0.591 0.328s0.131 0.459 0 0.656l-4.331 7.612c-0.131 0.197-0.328 0.328-0.591 0.328zM18.703 14.897h1.772c0.197 0 0.394 0.066 0.525 0.197s0.197 0.328 0.131 0.525l-0.262 1.969 2.166-3.675-1.378 0.066c-0.197 0-0.394-0.066-0.525-0.262-0.131-0.131-0.197-0.394-0.131-0.591l0.262-1.116h-1.838l-0.722 2.888z"></path>
</svg>
<svg id="icon-tool-brainwritting" width="42" height="42" viewBox="0 0 42 42" x="754" y="0">
<path fill="#fff" d="M21 42c-11.55 0-21-9.45-21-21s9.45-21 21-21c11.55 0 21 9.45 21 21s-9.45 21-21 21zM21 1.313c-10.828 0-19.688 8.859-19.688 19.688s8.859 19.688 19.688 19.688c10.828 0 19.688-8.859 19.688-19.688s-8.859-19.688-19.688-19.688z"></path>
<path fill="#fff" d="M12.994 30.122c-0.131 0-0.262-0.066-0.394-0.131-0.197-0.131-0.262-0.394-0.262-0.656l1.181-6.037c0-0.131 0.066-0.197 0.131-0.328l9.778-11.353c1.247-1.444 3.478-1.641 4.922-0.328 0.722 0.591 1.116 1.444 1.181 2.363s-0.262 1.838-0.853 2.559l-9.712 11.353c-0.066 0.066-0.131 0.131-0.262 0.197l-5.447 2.363c-0.066 0-0.131 0-0.262 0zM14.766 23.691l-0.919 4.659 4.2-1.772 9.712-11.222c0.394-0.459 0.591-0.984 0.525-1.575s-0.328-1.116-0.722-1.509c-0.919-0.787-2.297-0.656-3.084 0.197l-9.713 11.222z"></path>
<path fill="#fff" d="M18.441 27.431c-0.131 0-0.328-0.066-0.459-0.131l-3.675-3.15c-0.262-0.262-0.328-0.656-0.066-0.919s0.656-0.328 0.919-0.066l3.675 3.15c0.262 0.262 0.328 0.656 0.066 0.919-0.131 0.131-0.328 0.197-0.459 0.197z"></path>
<path fill="#fff" d="M27.694 16.669c-0.131 0-0.328-0.066-0.459-0.131l-3.609-3.15c-0.262-0.262-0.328-0.656-0.066-0.919s0.656-0.328 0.919-0.066l3.675 3.15c0.262 0.262 0.328 0.656 0.066 0.919-0.131 0.131-0.328 0.197-0.525 0.197z"></path>
<path fill="#fff" d="M28.022 30.253h-14.634c-0.394 0-0.656-0.262-0.656-0.656s0.262-0.656 0.656-0.656h14.634c0.394 0 0.656 0.262 0.656 0.656s-0.262 0.656-0.656 0.656z"></path>
<path fill="#fff" d="M12.731 19.556c-0.066 0-0.131 0-0.197-0.066-0.328-0.131-0.459-0.394-0.459-0.722l0.591-4.462h-1.838c-0.197 0-0.394-0.066-0.525-0.262-0.131-0.131-0.197-0.394-0.131-0.591l0.984-4.134c0.066-0.328 0.328-0.525 0.656-0.525h3.15c0.197 0 0.394 0.066 0.525 0.262 0.131 0.131 0.197 0.394 0.131 0.591l-0.262 1.050 1.706-0.066c0.197 0 0.459 0.131 0.591 0.328s0.131 0.459 0 0.656l-4.397 7.547c-0.131 0.262-0.328 0.394-0.525 0.394zM11.616 13.059h1.772c0.197 0 0.394 0.066 0.525 0.197s0.197 0.328 0.131 0.525l-0.262 1.969 2.166-3.675-1.378 0.066c-0.197 0-0.394-0.066-0.525-0.262-0.131-0.131-0.197-0.394-0.131-0.591l0.262-1.116h-1.838l-0.722 2.888z"></path>
</svg>
<svg id="icon-tool-briefing" width="42" height="42" viewBox="0 0 42 42" x="812" y="0">
<path fill="#fff" d="M31.041 33.337h-19.031c-0.394 0-0.656-0.263-0.656-0.656v-23.559c0-0.394 0.262-0.656 0.656-0.656h14.306c0.131 0 0.328 0.066 0.459 0.197l4.725 4.266c0.131 0.131 0.197 0.328 0.197 0.459v19.228c0 0.394-0.328 0.722-0.656 0.722zM12.666 32.025h17.653v-18.309l-4.331-3.938h-13.322v22.247z"></path>
<path fill="#fff" d="M31.041 14.109h-4.725c-0.394 0-0.656-0.262-0.656-0.656v-4.266c0-0.394 0.262-0.656 0.656-0.656s0.656 0.263 0.656 0.656v3.609h4.069c0.394 0 0.656 0.262 0.656 0.656 0 0.328-0.328 0.656-0.656 0.656z"></path>
<path fill="#fff" d="M21 42c-11.55 0-21-9.45-21-21s9.45-21 21-21 21 9.45 21 21c0 11.55-9.45 21-21 21zM21 1.313c-10.828 0-19.688 8.859-19.688 19.688s8.859 19.688 19.688 19.688 19.688-8.859 19.688-19.688c0-10.828-8.859-19.688-19.688-19.688z"></path>
<path fill="#fff" d="M27.759 16.997h-12.403c-0.394 0-0.656-0.262-0.656-0.656s0.262-0.656 0.656-0.656h12.403c0.394 0 0.656 0.262 0.656 0.656s-0.328 0.656-0.656 0.656z"></path>
<path fill="#fff" d="M27.759 20.081h-12.403c-0.394 0-0.656-0.262-0.656-0.656s0.262-0.656 0.656-0.656h12.403c0.394 0 0.656 0.262 0.656 0.656s-0.328 0.656-0.656 0.656z"></path>
<path fill="#fff" d="M27.759 23.166h-12.403c-0.394 0-0.656-0.262-0.656-0.656s0.262-0.656 0.656-0.656h12.403c0.394 0 0.656 0.262 0.656 0.656s-0.328 0.656-0.656 0.656z"></path>
<path fill="#fff" d="M27.759 26.25h-12.403c-0.394 0-0.656-0.262-0.656-0.656s0.262-0.656 0.656-0.656h12.403c0.394 0 0.656 0.262 0.656 0.656s-0.328 0.656-0.656 0.656z"></path>
<path fill="#fff" d="M27.759 29.334h-12.403c-0.394 0-0.656-0.262-0.656-0.656s0.262-0.656 0.656-0.656h12.403c0.394 0 0.656 0.262 0.656 0.656s-0.328 0.656-0.656 0.656z"></path>
</svg>
<svg id="icon-tool-concept-panel" width="42" height="42" viewBox="0 0 42 42" x="870" y="0">
<path fill="#fff" d="M21 42c-11.55 0-21-9.45-21-21s9.45-21 21-21c11.55 0 21 9.45 21 21s-9.45 21-21 21zM21 1.313c-10.828 0-19.688 8.859-19.688 19.688s8.859 19.688 19.688 19.688c10.828 0 19.688-8.859 19.688-19.688s-8.859-19.688-19.688-19.688z"></path>
<path fill="#fff" d="M35.438 30.975h-27.891c-0.394 0-0.656-0.262-0.656-0.656v-19.753c0-0.394 0.263-0.656 0.656-0.656h27.891c0.394 0 0.656 0.263 0.656 0.656v19.753c0 0.394-0.328 0.656-0.656 0.656zM8.203 29.663h26.578v-18.441h-26.578v18.441z"></path>
<path fill="#fff" d="M15.291 23.428h-4.463c-0.394 0-0.656-0.262-0.656-0.656v-3.478c0-0.394 0.263-0.656 0.656-0.656h4.463c0.394 0 0.656 0.262 0.656 0.656v3.478c0 0.328-0.262 0.656-0.656 0.656zM11.55 22.116h3.084v-2.166h-3.084v2.166z"></path>
<path fill="#fff" d="M19.884 16.866h-4.463c-0.394 0-0.656-0.262-0.656-0.656v-3.478c0-0.394 0.262-0.656 0.656-0.656h4.463c0.394 0 0.656 0.262 0.656 0.656v3.478c0 0.328-0.262 0.656-0.656 0.656zM16.144 15.553h3.084v-2.166h-3.084v2.166z"></path>
<path fill="#fff" d="M22.509 22.116h-4.463c-0.394 0-0.656-0.262-0.656-0.656v-3.478c0-0.394 0.262-0.656 0.656-0.656h4.463c0.394 0 0.656 0.262 0.656 0.656v3.478c0 0.328-0.262 0.656-0.656 0.656zM18.769 20.803h3.084v-2.166h-3.084v2.166z"></path>
<path fill="#fff" d="M25.791 27.366h-4.462c-0.394 0-0.656-0.262-0.656-0.656v-3.478c0-0.394 0.262-0.656 0.656-0.656h4.462c0.394 0 0.656 0.262 0.656 0.656v3.478c0 0.328-0.262 0.656-0.656 0.656zM22.050 26.053h3.084v-2.166h-3.084v2.166z"></path>
<path fill="#fff" d="M30.45 18.178h-4.462c-0.394 0-0.656-0.262-0.656-0.656v-3.478c0-0.394 0.262-0.656 0.656-0.656h4.462c0.394 0 0.656 0.262 0.656 0.656v3.478c0 0.328-0.328 0.656-0.656 0.656zM26.644 16.866h3.084v-2.166h-3.084v2.166z"></path>
<path fill="#fff" d="M33.075 24.741h-4.462c-0.394 0-0.656-0.262-0.656-0.656v-3.478c0-0.394 0.262-0.656 0.656-0.656h4.462c0.394 0 0.656 0.262 0.656 0.656v3.478c0 0.328-0.328 0.656-0.656 0.656zM29.269 23.428h3.084v-2.166h-3.084v2.166z"></path>
</svg>
<svg id="icon-tool-conceptual-map" width="42" height="42" viewBox="0 0 42 42" x="0" y="58">
<path fill="#fff" d="M21 42c-11.55 0-21-9.45-21-21s9.45-21 21-21c11.55 0 21 9.45 21 21s-9.45 21-21 21zM21 1.313c-10.828 0-19.688 8.859-19.688 19.688s8.859 19.688 19.688 19.688c10.828 0 19.688-8.859 19.688-19.688s-8.859-19.688-19.688-19.688z"></path>
<path fill="#fff" d="M32.222 26.906c-1.641 0-2.953-1.313-2.953-2.953v-5.972c0-1.641 1.313-2.953 2.953-2.953 0.394 0 0.656 0.262 0.656 0.656s-0.263 0.656-0.656 0.656c-0.919 0-1.641 0.722-1.641 1.641v5.972c0 0.919 0.722 1.641 1.641 1.641 0.394 0 0.656 0.262 0.656 0.656s-0.328 0.656-0.656 0.656z"></path>
<path fill="#fff" d="M33.009 17.325c-0.853 0-1.575-0.722-1.575-1.575s0.722-1.575 1.575-1.575c0.853 0 1.575 0.722 1.575 1.575 0 0.919-0.722 1.575-1.575 1.575zM33.009 15.488c-0.131 0-0.263 0.131-0.263 0.262s0.131 0.262 0.263 0.262c0.131 0 0.262-0.131 0.262-0.262s-0.131-0.262-0.262-0.262z"></path>
<path fill="#fff" d="M33.009 27.825c-0.853 0-1.575-0.722-1.575-1.575s0.722-1.575 1.575-1.575c0.853 0 1.575 0.722 1.575 1.575s-0.722 1.575-1.575 1.575zM33.009 25.988c-0.131 0-0.263 0.131-0.263 0.262s0.131 0.262 0.263 0.262c0.131 0 0.262-0.131 0.262-0.262 0-0.197-0.131-0.262-0.262-0.262z"></path>
<path fill="#fff" d="M33.009 22.772c-0.853 0-1.575-0.722-1.575-1.575s0.722-1.575 1.575-1.575c0.853 0 1.575 0.722 1.575 1.575s-0.722 1.575-1.575 1.575zM33.009 20.934c-0.131 0-0.263 0.131-0.263 0.262s0.131 0.262 0.263 0.262c0.131 0 0.262-0.131 0.262-0.262 0-0.197-0.131-0.262-0.262-0.262z"></path>
<path fill="#fff" d="M32.091 21.853h-5.906c-0.394 0-0.656-0.262-0.656-0.656s0.262-0.656 0.656-0.656h5.906c0.394 0 0.656 0.262 0.656 0.656s-0.328 0.656-0.656 0.656z"></path>
<path fill="#fff" d="M9.844 26.972c-0.394 0-0.656-0.262-0.656-0.656s0.263-0.656 0.656-0.656c0.919 0 1.641-0.722 1.641-1.641v-5.972c0-0.919-0.722-1.641-1.641-1.641-0.394 0-0.656-0.262-0.656-0.656s0.263-0.656 0.656-0.656c1.641 0 2.953 1.313 2.953 2.953v5.972c0 1.641-1.313 2.953-2.953 2.953z"></path>
<path fill="#fff" d="M9.056 27.825c-0.853 0-1.575-0.722-1.575-1.575s0.722-1.575 1.575-1.575c0.853 0 1.575 0.722 1.575 1.575s-0.722 1.575-1.575 1.575zM9.056 25.988c-0.131 0-0.262 0.131-0.262 0.262s0.131 0.262 0.262 0.262c0.131 0 0.263-0.131 0.263-0.262 0-0.197-0.131-0.262-0.263-0.262z"></path>
<path fill="#fff" d="M9.056 17.325c-0.853 0-1.575-0.722-1.575-1.575s0.722-1.575 1.575-1.575c0.853 0 1.575 0.722 1.575 1.575s-0.722 1.575-1.575 1.575zM9.056 15.488c-0.131 0-0.262 0.131-0.262 0.262s0.131 0.262 0.262 0.262c0.131 0 0.263-0.131 0.263-0.262s-0.131-0.262-0.263-0.262z"></path>
<path fill="#fff" d="M9.056 22.444c-0.853 0-1.575-0.722-1.575-1.575s0.722-1.575 1.575-1.575c0.853 0 1.575 0.722 1.575 1.575s-0.722 1.575-1.575 1.575zM9.056 20.541c-0.131 0-0.262 0.131-0.262 0.262s0.131 0.263 0.262 0.263c0.131 0 0.263-0.131 0.263-0.262s-0.131-0.262-0.263-0.262z"></path>
<path fill="#fff" d="M15.816 21.459h-5.841c-0.394 0-0.656-0.262-0.656-0.656s0.262-0.656 0.656-0.656h5.841c0.394 0 0.656 0.262 0.656 0.656s-0.328 0.656-0.656 0.656z"></path>
<path fill="#fff" d="M21 26.512c-3.019 0-5.512-2.494-5.512-5.512s2.494-5.512 5.512-5.512c3.019 0 5.512 2.494 5.512 5.512s-2.494 5.512-5.512 5.512zM21 16.8c-2.297 0-4.2 1.903-4.2 4.2s1.903 4.2 4.2 4.2c2.297 0 4.2-1.903 4.2-4.2s-1.903-4.2-4.2-4.2z"></path>
<path fill="#fff" d="M21 11.419c-1.444 0-2.691-1.181-2.691-2.691 0-1.444 1.181-2.691 2.691-2.691 1.444 0 2.691 1.181 2.691 2.691s-1.247 2.691-2.691 2.691zM21 7.416c-0.722 0-1.378 0.591-1.378 1.378s0.591 1.378 1.378 1.378c0.722 0 1.378-0.591 1.378-1.378s-0.656-1.378-1.378-1.378z"></path>
<path fill="#fff" d="M21 16.8c-0.394 0-0.656-0.262-0.656-0.656v-5.381c0-0.394 0.262-0.656 0.656-0.656s0.656 0.263 0.656 0.656v5.381c0 0.328-0.262 0.656-0.656 0.656z"></path>
<path fill="#fff" d="M21 35.897c-1.444 0-2.691-1.181-2.691-2.691 0-1.444 1.181-2.691 2.691-2.691 1.444 0 2.691 1.181 2.691 2.691s-1.247 2.691-2.691 2.691zM21 31.894c-0.722 0-1.378 0.591-1.378 1.378s0.591 1.378 1.378 1.378c0.722 0 1.378-0.591 1.378-1.378s-0.656-1.378-1.378-1.378z"></path>
<path fill="#fff" d="M21 31.894c-0.394 0-0.656-0.262-0.656-0.656v-5.381c0-0.394 0.262-0.656 0.656-0.656s0.656 0.262 0.656 0.656v5.381c0 0.328-0.262 0.656-0.656 0.656z"></path>
</svg>
<svg id="icon-tool-fotw" width="42" height="42" viewBox="0 0 42 42" x="58" y="58">
<path fill="#fff" d="M21 42c-11.55 0-21-9.45-21-21s9.45-21 21-21 21 9.45 21 21c0 11.55-9.45 21-21 21zM21 1.313c-10.828 0-19.688 8.859-19.688 19.688s8.859 19.688 19.688 19.688 19.688-8.859 19.688-19.688c0-10.828-8.859-19.688-19.688-19.688z"></path>
<path fill="#fff" d="M21 27.759c-4.528 0-8.662-2.494-10.828-6.497-0.131-0.197-0.131-0.459 0-0.656 2.166-4.003 6.3-6.497 10.828-6.497s8.663 2.494 10.828 6.497c0.131 0.197 0.131 0.459 0 0.656-2.166 4.069-6.3 6.497-10.828 6.497zM11.484 21c1.969 3.413 5.578 5.447 9.516 5.447s7.547-2.1 9.516-5.447c-1.969-3.412-5.578-5.447-9.516-5.447s-7.547 2.034-9.516 5.447z"></path>
<path fill="#fff" d="M21 24.806c-2.1 0-3.806-1.706-3.806-3.806s1.706-3.806 3.806-3.806c2.1 0 3.806 1.706 3.806 3.806s-1.706 3.806-3.806 3.806zM21 18.506c-1.378 0-2.494 1.116-2.494 2.494s1.116 2.494 2.494 2.494c1.378 0 2.494-1.116 2.494-2.494s-1.116-2.494-2.494-2.494z"></path>
</svg>
<svg id="icon-tool-interview" width="42" height="42" viewBox="0 0 42 42" x="116" y="58">
<path fill="#fff" d="M21 42c-11.55 0-21-9.45-21-21s9.45-21 21-21 21 9.45 21 21c0 11.55-9.45 21-21 21zM21 1.313c-10.828 0-19.688 8.859-19.688 19.688s8.859 19.688 19.688 19.688 19.688-8.859 19.688-19.688c0-10.828-8.859-19.688-19.688-19.688z"></path>
<path fill="#fff" d="M21 29.991c-1.575 0-3.216-0.656-4.463-1.772-1.247-1.181-1.969-2.691-1.969-4.266v-10.5c0-3.347 2.822-6.037 6.366-6.037 3.413 0 6.497 2.888 6.497 6.037v10.5c0 3.216-3.019 6.038-6.431 6.038 0 0 0 0 0 0zM20.934 8.794c-2.494 0-5.053 1.772-5.053 4.725v10.5c0 1.181 0.591 2.363 1.575 3.281s2.297 1.444 3.544 1.444c0 0 0 0 0 0 2.691 0 5.119-2.231 5.119-4.725v-10.5c0-2.494-2.494-4.725-5.184-4.725z"></path>
<path fill="#fff" d="M20.934 32.878c0 0 0 0 0 0-2.428 0-4.659-0.919-6.3-2.625-1.575-1.641-2.428-3.872-2.363-6.234v-2.034c0-0.394 0.262-0.656 0.656-0.656s0.656 0.262 0.656 0.656v2.034c-0.066 2.034 0.656 3.872 2.034 5.25 1.378 1.444 3.281 2.231 5.316 2.231 0 0 0 0 0 0 2.034 0 3.938-0.788 5.316-2.166s2.166-3.281 2.166-5.316v-2.034c0-0.394 0.262-0.656 0.656-0.656s0.656 0.262 0.656 0.656v2.034c0 2.363-0.919 4.594-2.559 6.234-1.641 1.706-3.872 2.625-6.234 2.625z"></path>
<path fill="#fff" d="M21 36.422c-0.394 0-0.656-0.262-0.656-0.656v-3.544c0-0.394 0.262-0.656 0.656-0.656s0.656 0.262 0.656 0.656v3.544c0 0.328-0.262 0.656-0.656 0.656z"></path>
<path fill="#fff" d="M21 11.287c-0.394 0-0.656-0.262-0.656-0.656v-2.494c0-0.394 0.262-0.656 0.656-0.656s0.656 0.263 0.656 0.656v2.494c0 0.394-0.262 0.656-0.656 0.656z"></path>
<path fill="#fff" d="M19.097 13.847h-3.872c-0.394 0-0.656-0.262-0.656-0.656s0.262-0.656 0.656-0.656h3.872c0.394 0 0.656 0.262 0.656 0.656 0 0.328-0.262 0.656-0.656 0.656z"></path>
<path fill="#fff" d="M19.097 18.178h-3.872c-0.394 0-0.656-0.262-0.656-0.656s0.262-0.656 0.656-0.656h3.872c0.394 0 0.656 0.262 0.656 0.656s-0.262 0.656-0.656 0.656z"></path>
<path fill="#fff" d="M19.097 16.012h-3.872c-0.394 0-0.656-0.262-0.656-0.656s0.262-0.656 0.656-0.656h3.872c0.394 0 0.656 0.262 0.656 0.656s-0.262 0.656-0.656 0.656z"></path>
<path fill="#fff" d="M19.097 20.278h-3.872c-0.394 0-0.656-0.262-0.656-0.656s0.262-0.656 0.656-0.656h3.872c0.394 0 0.656 0.262 0.656 0.656s-0.262 0.656-0.656 0.656z"></path>
<path fill="#fff" d="M26.775 13.847h-4.003c-0.394 0-0.656-0.262-0.656-0.656s0.262-0.656 0.656-0.656h4.003c0.394 0 0.656 0.262 0.656 0.656 0 0.328-0.328 0.656-0.656 0.656z"></path>
<path fill="#fff" d="M26.775 18.178h-4.003c-0.394 0-0.656-0.262-0.656-0.656s0.262-0.656 0.656-0.656h4.003c0.394 0 0.656 0.262 0.656 0.656s-0.328 0.656-0.656 0.656z"></path>
<path fill="#fff" d="M26.775 16.012h-4.003c-0.394 0-0.656-0.262-0.656-0.656s0.262-0.656 0.656-0.656h4.003c0.394 0 0.656 0.262 0.656 0.656s-0.328 0.656-0.656 0.656z"></path>
<path fill="#fff" d="M26.775 20.278h-4.003c-0.394 0-0.656-0.262-0.656-0.656s0.262-0.656 0.656-0.656h4.003c0.394 0 0.656 0.262 0.656 0.656s-0.328 0.656-0.656 0.656z"></path>
</svg>
<svg id="icon-tool-mental-map" width="42" height="42" viewBox="0 0 42 42" x="174" y="58">
<path fill="#fff" d="M21 42c-11.55 0-21-9.45-21-21s9.45-21 21-21 21 9.45 21 21c0 11.55-9.45 21-21 21zM21 1.313c-10.828 0-19.688 8.859-19.688 19.688s8.859 19.688 19.688 19.688 19.688-8.859 19.688-19.688c0-10.828-8.859-19.688-19.688-19.688z"></path>
<path fill="#fff" d="M17.259 34.913c-0.131 0-0.262-0.066-0.328-0.131-0.197-0.131-0.262-0.328-0.328-0.525l-0.262-5.381h-2.494c-0.722-0.066-1.247-0.262-1.575-0.722-0.328-0.394-0.394-0.853-0.394-1.050l-0.328-3.216-1.838-1.313c-0.262-0.197-0.328-0.591-0.197-0.853l2.428-4.331c0.722-7.219 6.628-8.991 9.647-8.925 9.188 0 9.975 8.859 9.975 8.925 0 6.103-3.413 8.728-4.528 9.45l-0.131 3.872c0 0.262-0.197 0.525-0.394 0.591l-9.122 3.544c0 0.066-0.066 0.066-0.131 0.066zM11.025 21.853l1.575 1.181c0.131 0.131 0.262 0.262 0.262 0.459l0.328 3.609c0 0.066 0 0.066 0 0.131 0 0.197 0.262 0.328 0.722 0.328l3.019 0.131c0.328 0 0.591 0.262 0.656 0.591l0.262 5.053 7.875-3.084 0.066-3.806c0-0.262 0.131-0.459 0.394-0.591 0.197-0.066 4.2-2.1 4.2-8.4 0-0.262-0.722-7.678-8.663-7.678-0.328 0-7.678-0.066-8.334 7.875 0 0.066-0.066 0.197-0.066 0.262l-2.297 3.938z"></path>
<path fill="#fff" d="M22.247 21.459c-2.822 0-5.184-2.297-5.184-5.184 0-2.822 2.297-5.184 5.184-5.184s5.184 2.297 5.184 5.184c0 2.887-2.297 5.184-5.184 5.184zM22.247 12.469c-2.1 0-3.872 1.706-3.872 3.872 0 2.1 1.706 3.872 3.872 3.872s3.872-1.706 3.872-3.872c0-2.166-1.706-3.872-3.872-3.872z"></path>
<path fill="#fff" d="M18.834 13.519c-0.131 0-0.328-0.066-0.459-0.197l-3.741-3.609c-0.262-0.262-0.262-0.656 0-0.919s0.656-0.263 0.919 0l3.741 3.609c0.262 0.262 0.262 0.656 0 0.919-0.131 0.131-0.328 0.197-0.459 0.197z"></path>
<path fill="#fff" d="M27.103 16.537c-0.262 0-0.525-0.197-0.656-0.459-0.131-0.328 0.131-0.722 0.459-0.787l4.988-1.444c0.328-0.066 0.722 0.131 0.788 0.459 0.131 0.328-0.131 0.722-0.459 0.787l-4.988 1.444c0 0-0.066 0-0.131 0z"></path>
<path fill="#fff" d="M25.003 13.191c-0.197 0-0.328-0.066-0.459-0.197-0.262-0.262-0.262-0.656 0-0.919l3.675-3.609c0.262-0.262 0.656-0.262 0.919 0s0.262 0.656 0 0.919l-3.675 3.609c-0.131 0.131-0.328 0.197-0.459 0.197z"></path>
<path fill="#fff" d="M21.853 12.469c0 0 0 0 0 0-0.394 0-0.656-0.328-0.656-0.656l0.131-5.184c0-0.328 0.328-0.656 0.656-0.656 0 0 0 0 0 0 0.394 0 0.656 0.328 0.656 0.656l-0.131 5.184c0 0.394-0.262 0.656-0.656 0.656z"></path>
<path fill="#fff" d="M13.978 9.909c-0.984 0-1.772-0.787-1.772-1.772s0.787-1.772 1.772-1.772c0.984 0 1.772 0.787 1.772 1.772s-0.787 1.772-1.772 1.772zM13.978 7.612c-0.262 0-0.459 0.197-0.459 0.459s0.197 0.459 0.459 0.459c0.262 0 0.459-0.197 0.459-0.459s-0.197-0.459-0.459-0.459z"></path>
<path fill="#fff" d="M22.050 7.153c-0.984 0-1.772-0.787-1.772-1.772s0.787-1.772 1.772-1.772 1.772 0.788 1.772 1.772-0.788 1.772-1.772 1.772zM22.050 4.922c-0.262 0-0.459 0.197-0.459 0.459s0.197 0.459 0.459 0.459 0.459-0.197 0.459-0.459-0.197-0.459-0.459-0.459z"></path>
<path fill="#fff" d="M29.334 9.844c-0.984 0-1.772-0.787-1.772-1.772s0.788-1.772 1.772-1.772c0.984 0 1.772 0.787 1.772 1.772s-0.788 1.772-1.772 1.772zM29.334 7.547c-0.262 0-0.459 0.197-0.459 0.459s0.197 0.459 0.459 0.459c0.262 0 0.459-0.197 0.459-0.459s-0.197-0.459-0.459-0.459z"></path>
<path fill="#fff" d="M33.272 15.881c-0.984 0-1.772-0.787-1.772-1.772s0.788-1.772 1.772-1.772c0.984 0 1.772 0.787 1.772 1.772s-0.788 1.772-1.772 1.772zM33.272 13.584c-0.262 0-0.459 0.197-0.459 0.459s0.197 0.459 0.459 0.459c0.263 0 0.459-0.197 0.459-0.459 0.066-0.197-0.197-0.459-0.459-0.459z"></path>
</svg>
<svg id="icon-tool-mockups" width="42" height="42" viewBox="0 0 42 42" x="232" y="58">
<path fill="#fff" d="M22.641 32.944h-4.134c-3.675 0-6.103-1.116-7.219-3.216-2.822-5.512 4.463-15.816 4.725-16.275 0.131-0.197 0.394-0.328 0.591-0.328h8.597c0.197 0 0.459 0.131 0.591 0.262 0.328 0.394 7.809 10.369 5.053 15.947-1.247 2.428-3.938 3.609-8.203 3.609zM16.997 14.634c-2.1 3.019-6.366 10.631-4.397 14.437 0.853 1.641 2.822 2.428 5.906 2.428h4.134c3.609 0 5.906-0.919 6.825-2.756 2.166-4.331-3.478-12.469-4.659-14.109h-7.809z"></path>
<path fill="#fff" d="M22.837 14.175c-0.394 0-0.722-0.328-0.722-0.722v-2.953h-2.166v2.691c0 0.394-0.328 0.722-0.722 0.722s-0.722-0.328-0.722-0.722v-3.412c0-0.394 0.328-0.722 0.722-0.722h3.675c0.394 0 0.722 0.328 0.722 0.722v3.675c-0.066 0.394-0.394 0.722-0.788 0.722z"></path>
<path fill="#fff" d="M21 42c-11.55 0-21-9.45-21-21s9.45-21 21-21 21 9.45 21 21c0 11.55-9.45 21-21 21zM21 1.313c-10.828 0-19.688 8.859-19.688 19.688s8.859 19.688 19.688 19.688 19.688-8.859 19.688-19.688c0-10.828-8.859-19.688-19.688-19.688z"></path>
</svg>
<svg id="icon-tool-pic" width="42" height="42" viewBox="0 0 42 42" x="290" y="58">
<path fill="#fff" d="M21 42c-11.55 0-21-9.45-21-21s9.45-21 21-21c11.55 0 21 9.45 21 21s-9.45 21-21 21zM21 1.313c-10.828 0-19.688 8.859-19.688 19.688s8.859 19.688 19.688 19.688c10.828 0 19.688-8.859 19.688-19.688s-8.859-19.688-19.688-19.688z"></path>
<path fill="#fff" d="M32.288 30.844h-22.575c-1.378 0-2.494-1.116-2.494-2.494v-13.978c0-1.378 1.116-2.494 2.494-2.494h5.906v-0.919c0-1.378 1.116-2.494 2.494-2.494h5.775c1.378 0 2.494 1.116 2.494 2.494v0.853h5.906c1.378 0 2.494 1.116 2.494 2.494v13.978c0 1.444-1.116 2.559-2.494 2.559zM9.713 13.125c-0.656 0-1.181 0.525-1.181 1.181v13.978c0 0.656 0.525 1.181 1.181 1.181h22.575c0.656 0 1.181-0.525 1.181-1.181v-13.912c0-0.656-0.525-1.181-1.181-1.181h-6.563c-0.394 0-0.656-0.262-0.656-0.656v-1.575c0-0.656-0.525-1.181-1.181-1.181h-5.775c-0.656 0-1.181 0.525-1.181 1.181v1.509c0 0.394-0.262 0.656-0.656 0.656h-6.563z"></path>
<path fill="#fff" d="M21 27.497c-3.675 0-6.628-3.019-6.628-6.628s2.953-6.694 6.628-6.694 6.628 3.019 6.628 6.628-2.953 6.694-6.628 6.694zM21 15.488c-2.953 0-5.316 2.428-5.316 5.316s2.428 5.316 5.316 5.316 5.316-2.428 5.316-5.316-2.363-5.316-5.316-5.316z"></path>
</svg>
<svg id="icon-tool-seminary" width="42" height="42" viewBox="0 0 42 42" x="348" y="58">
<path fill="#fff" d="M21 42c-11.55 0-21-9.45-21-21s9.45-21 21-21 21 9.45 21 21c0 11.55-9.45 21-21 21zM21 1.313c-10.828 0-19.688 8.859-19.688 19.688s8.859 19.688 19.688 19.688 19.688-8.859 19.688-19.688c0-10.828-8.859-19.688-19.688-19.688z"></path>
<path fill="#fff" d="M32.813 28.153h-23.428c-0.394 0-0.656-0.262-0.656-0.656v-1.969c0-0.394 0.262-0.656 0.656-0.656s0.656 0.262 0.656 0.656v1.313h22.116v-12.075h-22.116v6.234c0 0.394-0.263 0.656-0.656 0.656s-0.656-0.262-0.656-0.656v-6.891c0-0.394 0.262-0.656 0.656-0.656h23.428c0.394 0 0.656 0.262 0.656 0.656v13.387c0 0.328-0.328 0.656-0.656 0.656z"></path>
<path fill="#fff" d="M33.141 12.994h-24.15c-0.394 0-0.656-0.262-0.656-0.656s0.263-0.656 0.656-0.656h24.15c0.394 0 0.656 0.262 0.656 0.656s-0.262 0.656-0.656 0.656z"></path>
<path fill="#fff" d="M16.012 33.6c-0.131 0-0.328-0.066-0.459-0.197-0.262-0.262-0.262-0.656 0-0.919l5.053-5.316c0.262-0.262 0.656-0.262 0.919 0s0.262 0.656 0 0.919l-5.053 5.316c-0.066 0.131-0.262 0.197-0.459 0.197z"></path>
<path fill="#fff" d="M26.119 33.469c-0.131 0-0.328-0.066-0.459-0.197l-5.316-5.053c-0.262-0.262-0.262-0.656 0-0.919s0.656-0.262 0.919 0l5.316 5.053c0.262 0.262 0.262 0.656 0 0.919-0.131 0.131-0.262 0.197-0.459 0.197z"></path>
<path fill="#fff" d="M6.825 25.397c-0.197 0-0.459-0.131-0.525-0.328-0.197-0.328-0.131-0.722 0.197-0.919l6.234-3.938c0.328-0.197 0.722-0.131 0.919 0.197s0.131 0.722-0.197 0.919l-6.234 3.938c-0.197 0.066-0.263 0.131-0.394 0.131z"></path>
</svg>
<svg id="icon-tool-swot" width="42" height="42" viewBox="0 0 42 42" x="406" y="58">
<path fill="#fff" d="M21 42c-11.55 0-21-9.45-21-21s9.45-21 21-21c11.55 0 21 9.45 21 21s-9.45 21-21 21zM21 1.313c-10.828 0-19.688 8.859-19.688 19.688s8.859 19.688 19.688 19.688c10.828 0 19.688-8.859 19.688-19.688s-8.859-19.688-19.688-19.688z"></path>
<path fill="#fff" d="M13.978 21c-0.787 0-1.444-0.066-2.034-0.262s-1.181-0.459-1.706-0.853c-0.459-0.328-0.787-0.722-1.050-1.181-0.263-0.525-0.459-0.984-0.459-1.509 0-0.591 0.197-1.181 0.591-1.575 0.131-0.131 0.328-0.328 0.525-0.394 0 0-0.066-0.066-0.066-0.066-0.722-0.722-1.050-1.641-1.050-2.822 0-1.313 0.525-2.428 1.444-3.216 0.853-0.722 2.1-1.050 3.544-1.050 0.656 0 1.247 0.066 1.838 0.262 0.591 0.131 1.116 0.394 1.575 0.787 0.394 0.263 0.787 0.656 1.050 1.116 0.328 0.459 0.459 0.984 0.459 1.444 0 0.591-0.197 1.181-0.656 1.575-0.066 0.066-0.197 0.131-0.262 0.197 0.394 0.328 0.722 0.722 0.984 1.116 0.328 0.525 0.459 1.247 0.459 1.969 0 1.378-0.525 2.494-1.509 3.347-0.984 0.722-2.166 1.116-3.675 1.116zM10.959 16.209c-0.262 0-0.459 0.066-0.656 0.262s-0.263 0.394-0.263 0.722c0 0.262 0.066 0.591 0.263 0.853s0.394 0.525 0.722 0.787c0.394 0.328 0.853 0.525 1.313 0.656s0.984 0.197 1.641 0.197c1.181 0 2.1-0.262 2.822-0.853s1.050-1.313 1.050-2.297c0-0.525-0.066-0.984-0.262-1.378s-0.525-0.656-0.919-0.919c-0.262-0.131-0.525-0.262-0.853-0.328-0.328-0.131-0.853-0.262-1.509-0.394l-0.656-0.131c-1.116-0.262-1.641-0.656-1.641-1.181 0-0.394 0.131-0.656 0.459-0.853 0.262-0.197 0.656-0.328 1.181-0.328 0.328 0 0.656 0.066 0.919 0.131 0.262 0.131 0.459 0.262 0.656 0.459l0.197 0.262c0.328 0.459 0.656 0.656 1.050 0.656 0.262 0 0.459-0.066 0.656-0.262 0.197-0.131 0.262-0.394 0.262-0.656s-0.066-0.525-0.262-0.787c-0.197-0.262-0.394-0.525-0.656-0.722-0.328-0.262-0.788-0.459-1.181-0.591-0.459-0.131-0.919-0.197-1.444-0.197-1.181 0-2.1 0.262-2.756 0.787s-0.984 1.247-0.984 2.166c0 0.787 0.197 1.444 0.656 1.903 0.459 0.394 1.313 0.787 2.559 1.050 0 0 0 0 0 0h0.131c1.313 0.328 2.1 0.656 2.363 1.050 0.066 0.131 0.131 0.262 0.131 0.394 0 0.394-0.131 0.722-0.459 0.919s-0.787 0.328-1.378 0.328c-0.394 0-0.722-0.066-1.050-0.197-0.262-0.131-0.525-0.262-0.722-0.525-0.066-0.066-0.197-0.197-0.262-0.394-0.591-0.591-0.984-0.591-1.116-0.591z"></path>
<path fill="#fff" d="M28.744 20.869c-0.722 0-1.313-0.197-1.706-0.591-0.394-0.328-0.591-0.853-0.788-1.706-0.131 0.787-0.394 1.313-0.722 1.706-0.394 0.394-0.984 0.656-1.772 0.656-0.656 0-1.181-0.131-1.575-0.525-0.394-0.328-0.591-0.787-0.919-1.772l-2.034-7.088c-0.066-0.262-0.131-0.459-0.131-0.525 0-0.131-0.066-0.262-0.066-0.394 0-0.722 0.197-1.313 0.656-1.772s0.984-0.656 1.641-0.656c0.853 0 1.313 0.394 1.641 0.656 0.328 0.328 0.525 0.787 0.722 1.509l0.066 0.197v-0.131c0.131-0.722 0.459-1.313 0.853-1.641 0.328-0.262 0.722-0.459 1.181-0.525 0.131-0.131 0.328-0.262 0.525-0.262v0c0.197 0 0.394 0.066 0.525 0.262 0.459 0.066 0.853 0.263 1.181 0.525 0.394 0.394 0.656 0.919 0.853 1.706v0c0.197-0.787 0.394-1.247 0.722-1.575 0.394-0.459 0.984-0.722 1.641-0.722 0.853 0 1.378 0.394 1.641 0.656 0.394 0.459 0.591 0.984 0.591 1.641 0 0.131 0 0.262-0.066 0.459 0 0.131-0.066 0.328-0.131 0.459l-2.034 7.153c0 0.066-0.066 0.131-0.066 0.197-0.525 1.903-1.837 2.1-2.428 2.1zM26.25 14.569c0 0 0 0 0 0 0.328 0 0.591 0.197 0.656 0.525l0.656 3.15c0.131 0.591 0.262 0.919 0.394 1.050s0.459 0.197 0.853 0.197c0.525 0 0.919-0.394 1.116-1.116 0-0.066 0.066-0.131 0.066-0.197l2.034-7.088c0-0.131 0.066-0.262 0.066-0.328s0-0.197 0-0.262c0-0.328-0.066-0.591-0.197-0.722 0 0 0 0 0 0-0.131-0.197-0.394-0.263-0.656-0.263s-0.525 0.066-0.656 0.263c-0.131 0.197-0.328 0.525-0.459 1.116l-0.656 2.756c-0.066 0.328-0.328 0.525-0.656 0.525s-0.591-0.197-0.656-0.525l-0.591-2.887c-0.131-0.525-0.262-0.853-0.459-0.984s-0.459-0.262-0.853-0.262c0 0 0 0 0 0s0 0-0.066 0c-0.394 0-0.656 0.066-0.788 0.262-0.197 0.197-0.328 0.459-0.394 0.919l-0.591 2.953c-0.066 0.328-0.328 0.525-0.656 0.525s-0.591-0.197-0.656-0.525l-0.722-3.019c-0.131-0.459-0.262-0.722-0.394-0.919-0.328-0.328-0.984-0.328-1.378 0-0.197 0.197-0.262 0.459-0.262 0.787 0 0 0 0.131 0 0.197s0.066 0.197 0.131 0.394l2.034 7.022c0.197 0.591 0.328 0.984 0.459 1.116s0.394 0.197 0.722 0.197c0.262 0 0.656-0.066 0.853-0.262 0.131-0.197 0.262-0.525 0.394-1.050l0.656-3.15c0.066-0.131 0.328-0.394 0.656-0.394z"></path>
<path fill="#fff" d="M14.634 34.519c-1.838 0-3.347-0.591-4.463-1.837-1.116-1.181-1.641-2.756-1.641-4.659s0.525-3.478 1.641-4.659c1.116-1.181 2.625-1.837 4.463-1.837s3.347 0.591 4.463 1.837c1.116 1.181 1.641 2.756 1.641 4.659s-0.525 3.478-1.641 4.659c-1.116 1.247-2.625 1.837-4.463 1.837zM14.634 22.903c-1.444 0-2.625 0.459-3.478 1.378s-1.313 2.166-1.313 3.741c0 1.575 0.459 2.822 1.313 3.741s2.034 1.378 3.478 1.378c1.444 0 2.625-0.459 3.478-1.378s1.313-2.166 1.313-3.741c0-1.575-0.459-2.822-1.313-3.741-0.853-0.853-2.034-1.378-3.478-1.378zM14.634 31.5c-0.853 0-1.509-0.262-2.034-0.919-0.459-0.591-0.722-1.444-0.722-2.494s0.262-1.903 0.722-2.494c0.459-0.591 1.181-0.919 2.034-0.919s1.509 0.262 2.034 0.919c0.459 0.591 0.722 1.444 0.722 2.494s-0.262 1.903-0.722 2.494c-0.459 0.591-1.116 0.919-2.034 0.919zM14.634 25.988c-0.591 0-0.853 0.197-0.984 0.394-0.262 0.328-0.394 0.919-0.394 1.706 0 0.722 0.131 1.313 0.459 1.706 0.131 0.197 0.394 0.394 0.984 0.394s0.853-0.197 0.984-0.394c0.262-0.328 0.459-0.919 0.459-1.706 0-0.722-0.131-1.313-0.459-1.706-0.197-0.197-0.459-0.394-1.050-0.394z"></path>
<path fill="#fff" d="M26.841 34.387c-0.722 0-1.313-0.262-1.706-0.656-0.394-0.459-0.591-0.984-0.591-1.706v-5.775h-0.722c-0.656 0-1.181-0.197-1.575-0.525-0.328-0.262-0.722-0.788-0.722-1.641 0-0.656 0.262-1.247 0.722-1.641 0.394-0.394 0.919-0.525 1.575-0.525h6.103c0.656 0 1.181 0.197 1.641 0.525 0.459 0.394 0.656 0.984 0.656 1.641s-0.262 1.247-0.722 1.641c-0.394 0.328-0.919 0.525-1.575 0.525h-0.722v5.775c0 0.722-0.197 1.247-0.591 1.706-0.459 0.459-1.050 0.656-1.772 0.656zM23.756 23.231c-0.328 0-0.591 0.066-0.722 0.197-0.197 0.131-0.262 0.394-0.262 0.656s0.066 0.525 0.262 0.656c0.131 0.131 0.394 0.197 0.722 0.197h1.378c0.394 0 0.656 0.262 0.656 0.656v6.431c0 0.328 0.066 0.591 0.262 0.788s0.394 0.262 0.788 0.262c0.328 0 0.591-0.066 0.788-0.262 0.131-0.197 0.262-0.459 0.262-0.788v-6.431c0-0.394 0.262-0.656 0.656-0.656h1.378c0.328 0 0.591-0.066 0.722-0.197s0.262-0.328 0.262-0.656c0-0.262-0.066-0.525-0.262-0.656s-0.394-0.197-0.722-0.197h-6.169z"></path>
</svg>
<svg id="icon-tool-video" width="42" height="42" viewBox="0 0 42 42" x="464" y="58">
<path fill="#fff" d="M21 42c-11.55 0-21-9.45-21-21s9.45-21 21-21 21 9.45 21 21c0 11.55-9.45 21-21 21zM21 1.313c-10.828 0-19.688 8.859-19.688 19.688s8.859 19.688 19.688 19.688 19.688-8.859 19.688-19.688c0-10.828-8.859-19.688-19.688-19.688z"></path>
<path fill="#fff" d="M33.731 30.712h-25.462c-0.394 0-0.656-0.262-0.656-0.656v-13.191c0-0.394 0.263-0.656 0.656-0.656h25.462c0.394 0 0.656 0.262 0.656 0.656v13.191c0 0.394-0.262 0.656-0.656 0.656zM8.925 29.4h24.15v-11.878h-24.15v11.878z"></path>
<path fill="#fff" d="M18.047 27.431c-0.131 0-0.197 0-0.328-0.066-0.197-0.131-0.328-0.328-0.328-0.591v-7.219c0-0.262 0.131-0.459 0.328-0.591s0.459-0.131 0.656 0l5.841 3.281c0.197 0.131 0.328 0.328 0.328 0.525s-0.131 0.459-0.262 0.591l-5.841 3.938c-0.131 0.066-0.262 0.131-0.394 0.131zM18.703 20.672v4.856l3.938-2.625-3.938-2.231z"></path>
<path fill="#fff" d="M15.291 15.816h-2.428c-0.394 0-0.656-0.262-0.656-0.656v-4.987c0-0.394 0.262-0.656 0.656-0.656h2.428c0.394 0 0.656 0.262 0.656 0.656v4.987c0 0.328-0.328 0.656-0.656 0.656zM13.519 14.503h1.116v-3.675h-1.116v3.675z"></path>
<path fill="#fff" d="M19.884 15.816h-2.428c-0.394 0-0.656-0.262-0.656-0.656v-7.875c0-0.394 0.262-0.656 0.656-0.656h2.428c0.394 0 0.656 0.263 0.656 0.656v7.875c0 0.328-0.262 0.656-0.656 0.656zM18.113 14.503h1.116v-6.563h-1.116v6.563z"></path>
<path fill="#fff" d="M24.478 15.816h-2.428c-0.394 0-0.656-0.262-0.656-0.656v-3.412c0-0.394 0.262-0.656 0.656-0.656h2.428c0.394 0 0.656 0.262 0.656 0.656v3.412c0 0.328-0.262 0.656-0.656 0.656zM22.706 14.503h1.116v-2.1h-1.116v2.1z"></path>
<path fill="#fff" d="M29.072 15.816h-2.428c-0.394 0-0.656-0.262-0.656-0.656v-6.037c0-0.394 0.262-0.656 0.656-0.656h2.428c0.394 0 0.656 0.263 0.656 0.656v6.037c0 0.328-0.262 0.656-0.656 0.656zM27.3 14.503h1.116v-4.725h-1.116v4.725z"></path>
</svg>
<svg id="icon-tool-video-opinions" width="42" height="42" viewBox="0 0 42 42" x="522" y="58">
<path fill="#fff" d="M21 42c-11.55 0-21-9.45-21-21s9.45-21 21-21 21 9.45 21 21c0 11.55-9.45 21-21 21zM21 1.313c-10.828 0-19.688 8.859-19.688 19.688s8.859 19.688 19.688 19.688 19.688-8.859 19.688-19.688c0-10.828-8.859-19.688-19.688-19.688z"></path>
<path fill="#fff" d="M32.681 32.55h-23.363c-0.394 0-0.656-0.263-0.656-0.656v-12.075c0-0.394 0.262-0.656 0.656-0.656h23.363c0.394 0 0.656 0.262 0.656 0.656v12.141c0 0.328-0.328 0.591-0.656 0.591zM9.975 31.238h22.050v-10.762h-22.050v10.762z"></path>
<path fill="#fff" d="M18.309 29.531c-0.131 0-0.197 0-0.328-0.066-0.197-0.131-0.328-0.328-0.328-0.591v-6.628c0-0.262 0.131-0.459 0.328-0.591s0.459-0.131 0.656 0l5.381 3.019c0.197 0.131 0.328 0.328 0.328 0.525s-0.131 0.459-0.262 0.591l-5.381 3.609c-0.131 0.066-0.262 0.131-0.394 0.131zM18.966 23.363v4.266l3.478-2.297-3.478-1.969z"></path>
<path fill="#fff" d="M16.734 18.113c-0.131 0-0.262-0.066-0.394-0.131-0.197-0.131-0.262-0.394-0.262-0.656l0.394-1.969c-1.247-0.984-1.903-2.231-1.903-3.544 0-2.888 3.216-5.25 7.153-5.25s7.153 2.362 7.153 5.25-3.281 5.25-7.219 5.25c-0.656 0-1.313-0.066-1.969-0.197l-2.691 1.247c-0.066 0-0.197 0-0.262 0zM21.656 7.941c-3.216 0-5.841 1.772-5.841 3.872 0 0.984 0.591 1.969 1.706 2.756 0.197 0.131 0.328 0.394 0.262 0.656l-0.197 1.116 1.772-0.787c0.131-0.066 0.262-0.066 0.394-0.066 0.656 0.131 1.247 0.197 1.903 0.197 3.216 0 5.841-1.772 5.841-3.872 0-2.166-2.625-3.872-5.841-3.872z"></path>
</svg>
<svg id="icon-tool-visual-panel" width="42" height="42" viewBox="0 0 42 42" x="580" y="58">
<path fill="#fff" d="M21 42c-11.55 0-21-9.45-21-21s9.45-21 21-21c11.55 0 21 9.45 21 21s-9.45 21-21 21zM21 1.313c-10.828 0-19.688 8.859-19.688 19.688s8.859 19.688 19.688 19.688c10.828 0 19.688-8.859 19.688-19.688s-8.859-19.688-19.688-19.688z"></path>
<path fill="#fff" d="M35.044 31.434h-27.694c-0.394 0-0.656-0.262-0.656-0.656v-19.556c0-0.394 0.263-0.656 0.656-0.656h27.694c0.394 0 0.656 0.262 0.656 0.656v19.491c0 0.394-0.328 0.722-0.656 0.722zM8.006 30.122h26.381v-18.244h-26.381v18.244z"></path>
<path fill="#fff" d="M21.984 27.038h-1.969c-1.903 0-3.15-0.591-3.741-1.706-1.444-2.756 1.903-7.547 2.297-8.072 0.131-0.197 0.328-0.262 0.525-0.262h4.134c0.197 0 0.394 0.066 0.525 0.262 0.394 0.525 3.806 5.184 2.428 7.941-0.656 1.181-2.034 1.837-4.2 1.837zM19.425 18.244c-0.984 1.509-2.822 4.856-2.034 6.431 0.328 0.656 1.181 0.984 2.559 0.984h1.969c1.641 0 2.625-0.394 3.019-1.116 0.788-1.641-1.116-4.922-2.1-6.3h-3.413z"></path>
<path fill="#fff" d="M22.050 18.047c-0.394 0-0.656-0.262-0.656-0.656v-1.116h-0.394v0.984c0 0.394-0.262 0.656-0.656 0.656s-0.656-0.262-0.656-0.656v-1.641c0-0.394 0.262-0.656 0.656-0.656h1.772c0.394 0 0.656 0.262 0.656 0.656v1.772c-0.066 0.328-0.328 0.656-0.722 0.656z"></path>
<path fill="#fff" d="M13.781 20.344h-2.953c-0.394 0-0.656-0.262-0.656-0.656v-2.953c0-0.394 0.263-0.656 0.656-0.656h2.953c0.394 0 0.656 0.262 0.656 0.656v2.953c0 0.328-0.262 0.656-0.656 0.656zM11.484 19.031h1.641v-1.641h-1.641v1.641z"></path>
<path fill="#fff" d="M13.781 25.922h-2.953c-0.394 0-0.656-0.262-0.656-0.656v-2.953c0-0.394 0.263-0.656 0.656-0.656h2.953c0.394 0 0.656 0.262 0.656 0.656v2.953c0 0.394-0.262 0.656-0.656 0.656zM11.484 24.609h1.641v-1.641h-1.641v1.641z"></path>
<path fill="#fff" d="M31.369 20.213h-2.953c-0.394 0-0.656-0.262-0.656-0.656v-2.953c0-0.394 0.262-0.656 0.656-0.656h2.953c0.394 0 0.656 0.262 0.656 0.656v2.953c0 0.394-0.328 0.656-0.656 0.656zM29.072 18.9h1.641v-1.641h-1.641v1.641z"></path>
<path fill="#fff" d="M31.369 26.053h-2.953c-0.394 0-0.656-0.262-0.656-0.656v-2.953c0-0.394 0.262-0.656 0.656-0.656h2.953c0.394 0 0.656 0.262 0.656 0.656v2.953c0 0.328-0.328 0.656-0.656 0.656zM29.072 24.741h1.641v-1.641h-1.641v1.641z"></path>
</svg>
</svg>
