<?xml version="1.0" encoding="iso-8859-1"?>
<!-- Generator: Adobe Illustrator 19.0.0, SVG Export Plug-In . SVG Version: 6.00 Build 0)  -->
<svg version="1.1" id="Layer_1" xmlns="http://www.w3.org/2000/svg" xmlns:xlink="http://www.w3.org/1999/xlink" x="0px" y="0px"
	 viewBox="0 0 60 60" style="enable-background:new 0 0 60 60;" xml:space="preserve">
<style type="text/css">
	.st0{fill:#5C2D91;}
	.st1{fill:none;stroke:#5C2D91;stroke-miterlimit:10;}
	.st2{fill:#5C2D91;stroke:#5C2D91;stroke-miterlimit:10;}
	.st3{fill:#231F20;}
</style>
<g>
	<path id="XMLID_4_" class="st0" d="M4.505,42.577h50.238c0.95,0,1.525-1.05,1.014-1.85l-5.968-9.343
		c-0.221-0.346-0.603-0.555-1.014-0.555H10.473c-0.41,0-0.793,0.209-1.014,0.555l-5.968,9.343
		C2.98,41.527,3.555,42.577,4.505,42.577z"/>
	<path id="XMLID_3_" class="st1" d="M28.61,1.403l-8.792,13.764c-0.511,0.801,0.064,1.85,1.014,1.85h17.584
		c0.95,0,1.525-1.05,1.014-1.85L30.637,1.403C30.164,0.662,29.083,0.662,28.61,1.403z"/>
	<path id="XMLID_2_" class="st2" d="M17.228,19.221l-5.179,8.107c-0.511,0.801,0.064,1.85,1.014,1.85h33.122
		c0.95,0,1.525-1.05,1.014-1.85l-5.179-8.107c-0.221-0.346-0.603-0.555-1.014-0.555H18.242
		C17.831,18.666,17.449,18.875,17.228,19.221z"/>
</g>
<g id="XMLID_6_">
	<path id="XMLID_7_" class="st3" d="M20.054,50.931h-1.983v-0.716h4.828v0.716h-1.993v5.805h-0.851V50.931z"/>
	<path id="XMLID_9_" class="st3" d="M25.565,56.735l-0.068-0.59h-0.029c-0.261,0.367-0.764,0.696-1.432,0.696
		c-0.948,0-1.432-0.668-1.432-1.345c0-1.132,1.006-1.751,2.815-1.741v-0.097c0-0.387-0.106-1.084-1.064-1.084
		c-0.436,0-0.89,0.136-1.219,0.349l-0.193-0.562c0.387-0.251,0.948-0.416,1.538-0.416c1.432,0,1.78,0.978,1.78,1.916v1.751
		c0,0.406,0.019,0.803,0.077,1.122H25.565z M25.439,54.346c-0.929-0.02-1.983,0.146-1.983,1.055c0,0.552,0.368,0.813,0.803,0.813
		c0.61,0,0.997-0.387,1.132-0.783c0.029-0.088,0.048-0.185,0.048-0.271V54.346z M25.865,50.031l-1.18,1.384h-0.609l0.851-1.384
		H25.865z"/>
	<path id="XMLID_13_" class="st3" d="M28.619,50.708v1.345h1.219v0.648h-1.219v2.525c0,0.58,0.165,0.909,0.639,0.909
		c0.223,0,0.387-0.029,0.494-0.059l0.039,0.639c-0.165,0.068-0.426,0.116-0.755,0.116c-0.396,0-0.716-0.126-0.919-0.357
		c-0.242-0.252-0.329-0.668-0.329-1.22v-2.554h-0.726v-0.648h0.726v-1.122L28.619,50.708z"/>
	<path id="XMLID_15_" class="st3" d="M31.741,50.737c0.01,0.29-0.203,0.522-0.542,0.522c-0.299,0-0.512-0.232-0.512-0.522
		c0-0.3,0.223-0.532,0.532-0.532C31.538,50.205,31.741,50.438,31.741,50.737z M30.793,56.735v-4.683h0.851v4.683H30.793z"/>
	<path id="XMLID_18_" class="st3" d="M36.393,56.562c-0.223,0.116-0.716,0.271-1.345,0.271c-1.412,0-2.331-0.958-2.331-2.39
		c0-1.441,0.986-2.486,2.515-2.486c0.503,0,0.948,0.126,1.181,0.242l-0.193,0.658c-0.203-0.116-0.522-0.223-0.987-0.223
		c-1.073,0-1.654,0.793-1.654,1.771c0,1.083,0.697,1.751,1.626,1.751c0.483,0,0.803-0.126,1.044-0.232L36.393,56.562z"/>
	<path id="XMLID_20_" class="st3" d="M41.565,54.355c0,1.731-1.2,2.486-2.332,2.486c-1.267,0-2.244-0.929-2.244-2.409
		c0-1.567,1.025-2.486,2.322-2.486C40.656,51.946,41.565,52.924,41.565,54.355z M37.851,54.404c0,1.025,0.59,1.799,1.422,1.799
		c0.813,0,1.422-0.764,1.422-1.818c0-0.794-0.396-1.8-1.402-1.8S37.851,53.514,37.851,54.404z"/>
</g>
</svg>
