<?xml version="1.0" encoding="iso-8859-1"?>
<!-- Generator: Adobe Illustrator 19.0.0, SVG Export Plug-In . SVG Version: 6.00 Build 0)  -->
<svg version="1.1" id="Layer_1" xmlns="http://www.w3.org/2000/svg" xmlns:xlink="http://www.w3.org/1999/xlink" x="0px" y="0px"
	 viewBox="0 0 60 60" style="enable-background:new 0 0 60 60;" xml:space="preserve">
<style type="text/css">
	.st0{fill:#5C2D91;}
</style>
<g>
	<g id="XMLID_171_">
		<path class="st0" d="M30,60C13.458,60,0,46.542,0,29.999C0,13.457,13.458,0,30,0s30,13.457,30,29.999C60,46.542,46.542,60,30,60z
			 M30,1.879c-15.506,0-28.121,12.614-28.121,28.12c0,15.507,12.615,28.122,28.121,28.122s28.121-12.615,28.121-28.122
			C58.121,14.493,45.506,1.879,30,1.879z"/>
	</g>
	<g id="XMLID_166_">
		<path class="st0" d="M46.682,46.531H13.318c-0.519,0-0.939-0.42-0.939-0.939V28.284c0-0.519,0.42-0.939,0.939-0.939h33.364
			c0.519,0,0.939,0.42,0.939,0.939v17.308C47.621,46.111,47.201,46.531,46.682,46.531z M14.257,44.652h31.485V29.223H14.257V44.652z
			"/>
	</g>
	<g id="XMLID_156_">
		<path class="st0" d="M26.156,42.193c-0.151,0-0.304-0.037-0.442-0.111c-0.306-0.163-0.497-0.482-0.497-0.828l0.001-9.446
			c0-0.333,0.177-0.641,0.464-0.81c0.288-0.169,0.642-0.172,0.934-0.01l7.687,4.298c0.285,0.16,0.467,0.456,0.48,0.783
			s-0.144,0.637-0.416,0.818l-7.688,5.148C26.521,42.14,26.339,42.193,26.156,42.193z M27.096,33.41l-0.001,6.084l4.952-3.315
			L27.096,33.41z"/>
	</g>
	<g id="XMLID_155_">
		<path class="st0" d="M23.886,25.918c-0.206,0-0.412-0.068-0.58-0.2c-0.276-0.217-0.408-0.569-0.343-0.914l0.533-2.825
			c-1.755-1.379-2.714-3.162-2.714-5.077c0-4.111,4.574-7.456,10.197-7.456c5.624,0,10.199,3.345,10.199,7.456
			s-4.575,7.455-10.199,7.455c-0.942,0-1.889-0.097-2.818-0.29l-3.886,1.766C24.151,25.891,24.019,25.918,23.886,25.918z
			 M30.98,11.326c-4.587,0-8.318,2.502-8.318,5.577c0,1.451,0.852,2.835,2.399,3.894c0.307,0.211,0.461,0.583,0.392,0.95
			l-0.307,1.628l2.523-1.147c0.188-0.086,0.396-0.106,0.601-0.061c0.892,0.206,1.805,0.311,2.711,0.311
			c4.588,0,8.32-2.502,8.32-5.576C39.3,13.828,35.568,11.326,30.98,11.326z"/>
	</g>
</g>
</svg>
