<?xml version="1.0" encoding="iso-8859-1"?>
<!-- Generator: Adobe Illustrator 19.0.0, SVG Export Plug-In . SVG Version: 6.00 Build 0)  -->
<svg version="1.1" id="act-icon-group" xmlns="http://www.w3.org/2000/svg" xmlns:xlink="http://www.w3.org/1999/xlink" x="0px"
	 y="0px" viewBox="0 0 230 230" style="enable-background:new 0 0 230 230;" xml:space="preserve">
<g id="act-icon_1_">
	<path id="act-icon-bg" style="fill:#3DB671;" d="M228.4,110.4l-52.6-91.1c-1.7-2.9-4.7-4.6-8-4.6h-0.3h-105h-0.3
		c-3.3,0-6.4,1.8-8,4.6L1.6,110.4c-1.7,2.9-1.7,6.4,0,9.3l52.6,91.1c1.7,2.9,4.7,4.6,8,4.6h0.3h105h0.3c3.3,0,6.4-1.8,8-4.6
		l52.6-91.1C230.1,116.8,230.1,113.2,228.4,110.4z"/>
	<g id="act-icon-text">
		<path id="XMLID_25_" style="fill:#FFFFFF;" d="M91.4,179.1h-5.8l-1.1,3.9h-4.7l6.3-18.5h4.8l6.3,18.5h-4.7L91.4,179.1z
			 M88.5,168.7c0,0-0.4,2-0.8,3.2l-1.1,3.6h3.6l-1-3.6C89,170.8,88.6,168.7,88.5,168.7L88.5,168.7z"/>
		<path id="XMLID_23_" style="fill:#FFFFFF;" d="M107.6,164.2c4.7,0,7.1,2.5,7.1,2.5l-2.2,3.4c0,0-1.9-1.7-4.5-1.7
			c-3.9,0-5.5,2.5-5.5,5.2c0,3.5,2.4,5.6,5.3,5.6c2.2,0,3.7-1.3,3.7-1.3v-1.4h-2.6v-3.9h6.6V183h-3.8v-0.5c0-0.4,0-0.8,0-0.8h-0.1
			c0,0-1.8,1.6-4.9,1.6c-4.7,0-9.1-3.5-9.1-9.6C98,168.4,102,164.2,107.6,164.2z"/>
		<path id="XMLID_21_" style="fill:#FFFFFF;" d="M119.1,164.5h4.5V183h-4.5V164.5z"/>
		<path id="XMLID_18_" style="fill:#FFFFFF;" d="M128,164.5h6.4c1.9,0,2.8,0.1,3.6,0.4c2.1,0.8,3.4,2.7,3.4,5.4c0,2-0.9,4.1-2.8,5
			v0.1c0,0,0.3,0.3,0.7,1.1l3.6,6.5h-5l-3.3-6.2h-2.1v6.2H128V164.5z M134.5,172.9c1.4,0,2.4-0.8,2.4-2.3c0-1.4-0.5-2.2-2.8-2.2
			h-1.5v4.5H134.5z"/>
	</g>
	<g id="act-icon-bolt-shadow">
		<polygon id="XMLID_2_" style="fill:#13A25B;" points="106.6,63 135.9,63 125.6,87.8 147.9,87.8 99.6,148.9 113.6,109.7 88,109.7 
					"/>
	</g>
	<g id="act-icon-bolt">
		<polygon id="XMLID_1_" style="fill:#FFFFFF;" points="104.4,60.9 133.7,60.9 123.4,85.7 145.7,85.7 97.4,146.8 111.4,107.5 
			85.8,107.5 		"/>
	</g>
</g>
</svg>
