<?xml version="1.0" encoding="iso-8859-1"?>
<!-- Generator: Adobe Illustrator 19.0.0, SVG Export Plug-In . SVG Version: 6.00 Build 0)  -->
<svg version="1.1" id="Layer_1" xmlns="http://www.w3.org/2000/svg" xmlns:xlink="http://www.w3.org/1999/xlink" x="0px" y="0px"
	 viewBox="0 0 64 64" style="enable-background:new 0 0 64 64;" xml:space="preserve">
<style type="text/css">
	.st0{fill:#3DB671;}
	.st1{fill:#E6E7E8;}
</style>
<g id="XMLID_190_">
	<circle id="XMLID_43_" class="st0" cx="32" cy="32" r="32"/>
	<path id="XMLID_409_" class="st1" d="M52.8,29.8c0-8.1-9.3-14.7-20.8-14.7c-11.5,0-20.8,6.6-20.8,14.7c0,8.1,9.3,14.7,20.8,14.7
		c2.3,0,4.5-0.3,6.6-0.8l9.4,4.3l-1.4-7.7C50.3,37.6,52.8,33.9,52.8,29.8z M26.4,19.9c-4.2,1.1-7.4,3.4-8.9,6.3
		c-0.2,0.3-0.4,0.4-0.7,0.4c-0.1,0-0.3,0-0.4-0.1c-0.4-0.2-0.6-0.7-0.3-1.1c1.7-3.3,5.4-5.9,10-7.1c0.4-0.1,0.9,0.1,1,0.6
		C27.1,19.3,26.8,19.7,26.4,19.9z"/>
</g>
</svg>
