<?xml version="1.0" encoding="iso-8859-1"?>
<!-- Generator: Adobe Illustrator 19.0.0, SVG Export Plug-In . SVG Version: 6.00 Build 0)  -->
<svg version="1.1" id="Layer_1" xmlns="http://www.w3.org/2000/svg" xmlns:xlink="http://www.w3.org/1999/xlink" x="0px" y="0px"
	 viewBox="0 0 64 64" style="enable-background:new 0 0 64 64;" xml:space="preserve">
<style type="text/css">
	.st0{fill:#3DB671;}
	.st1{fill:#404041;}
	.st2{fill:#E6E7E8;}
</style>
<g id="XMLID_190_">
	<circle id="XMLID_44_" class="st0" cx="32" cy="32" r="32"/>
	<g id="XMLID_191_">
		<path id="XMLID_393_" class="st1" d="M53,16.9c0,0.9-0.7,1.6-1.6,1.6H12.3c-0.9,0-1.6-0.7-1.6-1.6l0,0c0-0.9,0.7-1.6,1.6-1.6h39.1
			C52.3,15.4,53,16.1,53,16.9L53,16.9z"/>
		<g id="XMLID_394_">
			<path id="XMLID_395_" class="st1" d="M31.9,45.6c-0.4,0-0.7-0.3-0.7-0.7V41c0-0.4,0.3-0.7,0.7-0.7c0.4,0,0.7,0.3,0.7,0.7v3.9
				C32.6,45.2,32.3,45.6,31.9,45.6z"/>
			<path id="XMLID_396_" class="st1" d="M24.1,53.7c-0.2,0-0.4-0.1-0.5-0.2c-0.3-0.3-0.3-0.8,0-1l7.8-7.8c0.3-0.3,0.8-0.3,1,0
				c0.3,0.3,0.3,0.8,0,1l-7.8,7.8C24.5,53.6,24.3,53.7,24.1,53.7z"/>
			<path id="XMLID_397_" class="st1" d="M39.7,53.7c-0.2,0-0.4-0.1-0.5-0.2l-7.8-7.8c-0.3-0.3-0.3-0.8,0-1c0.3-0.3,0.8-0.3,1,0
				l7.8,7.8c0.3,0.3,0.3,0.8,0,1C40,53.6,39.8,53.7,39.7,53.7z"/>
		</g>
		<rect id="XMLID_398_" x="12.4" y="19.4" class="st2" width="39" height="22.2"/>
		<g id="XMLID_399_">
			<path id="XMLID_400_" class="st0" d="M24.9,37.1c-2.7,0-5-2.2-5-5c0-2.7,2.2-5,5-5c2.8,0,5,2.2,5,5
				C29.9,34.9,27.6,37.1,24.9,37.1z M24.9,28.2c-2.2,0-4,1.8-4,4s1.8,4,4,4c2.2,0,4-1.8,4-4S27.1,28.2,24.9,28.2z"/>
			<path id="XMLID_403_" class="st0" d="M37.7,29.6h-7.1c-0.3,0-0.5-0.2-0.5-0.5V22c0-0.3,0.2-0.5,0.5-0.5h7.1
				c0.3,0,0.5,0.2,0.5,0.5v7.1C38.2,29.4,38,29.6,37.7,29.6z M31,28.6h6.1v-6.1H31V28.6z"/>
			<path id="XMLID_406_" class="st0" d="M43.4,36.9C43.4,36.9,43.4,36.9,43.4,36.9h-9.9c-0.2,0-0.4-0.1-0.5-0.3
				c-0.1-0.2,0-0.4,0.1-0.5l5-5c0.2-0.2,0.5-0.2,0.7,0l4.9,4.9c0.1,0.1,0.2,0.2,0.2,0.4C43.9,36.7,43.7,36.9,43.4,36.9z M34.6,35.9
				h7.5l-3.8-3.8L34.6,35.9z"/>
		</g>
	</g>
</g>
</svg>
