<?xml version="1.0" encoding="iso-8859-1"?>
<!-- Generator: Adobe Illustrator 19.0.0, SVG Export Plug-In . SVG Version: 6.00 Build 0)  -->
<svg version="1.1" id="Layer_1" xmlns="http://www.w3.org/2000/svg" xmlns:xlink="http://www.w3.org/1999/xlink" x="0px" y="0px"
	 viewBox="0 0 64 64" style="enable-background:new 0 0 64 64;" xml:space="preserve">
<style type="text/css">
	.st0{fill:#3DB671;}
	.st1{fill:#404041;}
	.st2{fill:#F9EC31;}
</style>
<g id="XMLID_190_">
	<circle id="XMLID_45_" class="st0" cx="32" cy="32" r="32"/>
	<g id="XMLID_191_">
		<path id="XMLID_383_" class="st1" d="M43.9,15.4l-7-4.5c-4.3-2.8-9.4-3.1-12.8,0.6l24.4,15.6C50.4,22.5,48.3,18.2,43.9,15.4z"/>
		<path id="XMLID_384_" class="st2" d="M21.4,24.9l0.1,0.5l0.8,0c0.1,0.3,0.2,0.5,0.3,0.7l-0.5,0.6l0.3,0.4l0.7-0.4
			c0.2,0.2,0.4,0.4,0.7,0.5l-0.1,0.8l0.5,0.2l0.4-0.7c0.3,0.1,0.5,0.1,0.8,0.1l0.3,0.7l0.5-0.1l0-0.8c0.3-0.1,0.5-0.2,0.7-0.3
			l0.6,0.5l0.4-0.3l-0.4-0.7c0.2-0.2,0.4-0.4,0.5-0.7l0.8,0.1l0.2-0.5l-0.7-0.4c0.1-0.3,0.1-0.5,0.1-0.8l0.7-0.3L29,23.6l-0.8,0
			c-0.1-0.3-0.2-0.5-0.3-0.7l0.5-0.6l-0.3-0.4l-0.7,0.4c-0.2-0.2-0.4-0.3-0.6-0.5l0.1-0.8l-0.5-0.2L26,21.5
			c-0.3-0.1-0.5-0.1-0.8-0.1l-0.3-0.7l-0.5,0.1l0,0.8c-0.3,0.1-0.5,0.2-0.8,0.4L23,21.4l-0.4,0.3l0.4,0.7c-0.2,0.2-0.4,0.4-0.5,0.7
			L21.7,23l-0.2,0.5l0.7,0.4c-0.1,0.3-0.1,0.5-0.1,0.8L21.4,24.9z M24,23c0.8-0.7,2-0.6,2.7,0.3c0.7,0.8,0.6,2-0.3,2.7
			c-0.8,0.7-2,0.6-2.7-0.3C23.1,24.9,23.2,23.7,24,23z"/>
		<path id="XMLID_387_" class="st2" d="M31.7,28.4c-1-1.3-0.8-3.2,0.5-4.2c1.3-1,3.2-0.8,4.2,0.5c0.9,1.1,0.8,2.7-0.1,3.7h2.3
			l0.1-0.4L38,27.5c0.1-0.3,0.1-0.7,0.1-1l0.9-0.3l-0.1-0.7l-1-0.1c-0.1-0.3-0.2-0.7-0.4-1l0.7-0.7l-0.4-0.5l-0.9,0.4
			c-0.3-0.2-0.5-0.5-0.8-0.6l0.2-1l-0.6-0.3l-0.5,0.8c-0.3-0.1-0.7-0.1-1-0.1l-0.3-1L33,21.6l0,1c-0.4,0.1-0.7,0.2-1,0.4l-0.7-0.7
			l-0.5,0.4l0.4,0.9c-0.3,0.3-0.5,0.6-0.7,0.9l-1-0.2L29.2,25l0.8,0.6c-0.1,0.3-0.1,0.7-0.1,1L29,26.9l0.1,0.7l1,0.1
			c0.1,0.3,0.2,0.5,0.3,0.8L31.7,28.4C31.7,28.4,31.7,28.4,31.7,28.4z"/>
		<path id="XMLID_388_" class="st1" d="M48.6,36v-5.5c0-0.7-0.1-1.3-0.2-2h-9.8l0,0h-2.3c0,0,0,0,0,0h-4.6c0,0,0,0,0,0h-1.3
			c0,0,0,0,0,0H16.8c-0.1,0.6-0.2,1.3-0.2,2v5.5c-1.2,0.1-2.1,1-2.1,2.2c0,1.2,0.9,2.2,2.1,2.2C17,46.3,22,51,28,51h9.1
			c6,0,11-4.7,11.4-10.6c1.1-0.1,2-1,2-2.2C50.6,37,49.7,36.1,48.6,36z M26.3,40.2c-0.9,0-1.6-0.7-1.6-1.6c0-0.9,0.7-1.6,1.6-1.6
			c0.9,0,1.6,0.7,1.6,1.6C27.9,39.5,27.2,40.2,26.3,40.2z M32.5,46.3c-0.6,0-1.1-0.1-1.5-0.2c-0.8-0.2-0.9-0.7-0.9-1
			c0-0.2,0.2-0.4,0.4-0.4c0.2,0,0.4,0.2,0.4,0.4c0,0.1,0.6,0.4,1.6,0.4c1,0,1.6-0.3,1.6-0.4c0-0.2,0.2-0.4,0.4-0.4
			c0.2,0,0.4,0.2,0.4,0.4C35,46,33.7,46.3,32.5,46.3z M38.8,40.2c-0.9,0-1.6-0.7-1.6-1.6c0-0.9,0.7-1.6,1.6-1.6
			c0.9,0,1.6,0.7,1.6,1.6C40.4,39.5,39.7,40.2,38.8,40.2z"/>
	</g>
</g>
</svg>
