<?xml version="1.0" encoding="iso-8859-1"?>
<!-- Generator: Adobe Illustrator 19.0.0, SVG Export Plug-In . SVG Version: 6.00 Build 0)  -->
<svg version="1.1" id="Layer_1" xmlns="http://www.w3.org/2000/svg" xmlns:xlink="http://www.w3.org/1999/xlink" x="0px" y="0px"
	 viewBox="0 0 64 64" style="enable-background:new 0 0 64 64;" xml:space="preserve">
<style type="text/css">
	.st0{fill:#21B89B;}
	.st1{fill:#404041;}
</style>
<g id="XMLID_293_">
	<circle id="XMLID_72_" class="st0" cx="32" cy="32" r="32"/>
	<g id="XMLID_413_">
		<path id="XMLID_414_" class="st1" d="M22.5,44.7c-0.8,0-1.6-0.3-2.2-0.9c-1.2-1.2-1.2-3.3,0-4.5l19.1-19.1c1.2-1.2,3.3-1.2,4.5,0
			c1.2,1.2,1.2,3.3,0,4.5L24.7,43.8C24.1,44.4,23.3,44.7,22.5,44.7z"/>
		<path id="XMLID_415_" class="st1" d="M41.5,44.7c-0.8,0-1.6-0.3-2.2-0.9L20.2,24.7c-1.2-1.2-1.2-3.3,0-4.5c1.2-1.2,3.3-1.2,4.5,0
			l19.1,19.1c1.2,1.2,1.2,3.3,0,4.5C43.2,44.4,42.4,44.7,41.5,44.7z"/>
	</g>
</g>
</svg>
