<?xml version="1.0" encoding="iso-8859-1"?>
<!-- Generator: Adobe Illustrator 19.0.0, SVG Export Plug-In . SVG Version: 6.00 Build 0)  -->
<svg version="1.1" id="do-icon-group" xmlns="http://www.w3.org/2000/svg" xmlns:xlink="http://www.w3.org/1999/xlink" x="0px"
	 y="0px" viewBox="0 0 230 230" style="enable-background:new 0 0 230 230;" xml:space="preserve">
<g id="do-icon">
	<path id="do-icon-bg" style="fill:#21B89B;" d="M229.9,115.2C229.9,115.1,229.9,115.1,229.9,115.2c0-0.1,0-0.2,0-0.3
		c0-1.7,0-3.4-0.1-5.1c-2.6-59.3-51-107.4-110.3-109.6C54.1-2.4,0.2,49.9,0.1,114.8c0,0,0,0.1,0,0.1c0,0,0,0,0,0c0,0.1,0,0.2,0,0.3
		c0,1.7,0,3.4,0.1,5.1c2.6,59.3,51,107.4,110.3,109.6C175.9,232.4,229.8,180.1,229.9,115.2C229.9,115.2,229.9,115.2,229.9,115.2z"/>
	<g id="do-icon-text">
		<path style="fill:#FFFFFF;" d="M54.2,153.4h6.6c1.9,0,2.9,0.1,3.7,0.5c2.2,0.8,3.5,2.8,3.5,5.5c0,2-1,4.2-2.8,5.2v0.1
			c0,0,0.3,0.3,0.7,1.1l3.7,6.7h-5.2l-3.4-6.4h-2.2v6.4h-4.7V153.4z M60.9,162c1.5,0,2.4-0.8,2.4-2.3c0-1.4-0.5-2.3-2.9-2.3h-1.6
			v4.6H60.9z"/>
		<path style="fill:#FFFFFF;" d="M72.4,153.4h11.9v4H77v3.5h5.8v4H77v3.6h7.6v4H72.4V153.4z"/>
		<path style="fill:#FFFFFF;" d="M97.6,168.4h-5.9l-1.1,4h-4.8l6.5-19H97l6.5,19h-4.8L97.6,168.4z M94.6,157.7c0,0-0.4,2.1-0.8,3.3
			l-1.1,3.7h3.8l-1.1-3.7C95.1,159.8,94.6,157.7,94.6,157.7L94.6,157.7z"/>
		<path style="fill:#FFFFFF;" d="M105.6,153.4h4.7v15h7.8v4h-12.4V153.4z"/>
		<path style="fill:#FFFFFF;" d="M120.6,153.4h4.7v19h-4.7V153.4z"/>
		<path style="fill:#FFFFFF;" d="M128.5,169.5l7.3-10.4c0.8-1.2,1.5-1.7,1.5-1.7v-0.1c0,0-0.6,0.1-1.5,0.1h-7v-4h14.4v2.9l-7.4,10.5
			c-0.8,1.2-1.5,1.7-1.5,1.7v0.1c0,0,0.6-0.1,1.5-0.1h7.5v4h-14.8V169.5z"/>
		<path style="fill:#FFFFFF;" d="M156.3,168.4h-5.9l-1.1,4h-4.8l6.5-19h4.9l6.5,19h-4.8L156.3,168.4z M153.3,157.7
			c0,0-0.4,2.1-0.8,3.3l-1.1,3.7h3.8l-1.1-3.7C153.8,159.8,153.3,157.7,153.3,157.7L153.3,157.7z"/>
		<path style="fill:#FFFFFF;" d="M164.4,153.4h6.6c1.9,0,2.9,0.1,3.7,0.5c2.2,0.8,3.5,2.8,3.5,5.5c0,2-1,4.2-2.8,5.2v0.1
			c0,0,0.3,0.3,0.7,1.1l3.7,6.7h-5.2l-3.4-6.4H169v6.4h-4.7V153.4z M171,162c1.5,0,2.4-0.8,2.4-2.3c0-1.4-0.5-2.3-2.9-2.3H169v4.6
			H171z"/>
	</g>
	<g id="do-flag-shadow">
		<g>
			<path style="fill:#0CA690;" d="M90.9,58.2l-4.7,1.6c-1.9,0.7-2.9,2.7-2.3,4.7c0.6,1.7,2.4,2.8,4.2,2.4l23.3,67.9
				c0.3,0.9,1.3,1.4,2.1,1l2.5-0.8c0.9-0.3,1.4-1.3,1.1-2.1L93.8,65c1.6-0.8,2.4-2.7,1.8-4.5C94.9,58.6,92.8,57.6,90.9,58.2
				L90.9,58.2z M90.9,58.2"/>
		</g>
		<g>
			<path style="fill:#0CA690;" d="M140.4,49.6c-3.4-0.4-6.7,0-9.9,1.1c-4.3,1.5-8.1,4.1-11.7,6.6c-3.6,2.5-7.3,5.1-11.5,6.5
				c-2.9,1-5.8,1.4-8.9,1.1c-0.5,0-1,0-1,0l12.7,37.2c3.4,0.4,6.7,0,9.9-1.1c4.3-1.5,8-4.1,11.7-6.6c3.6-2.5,7.3-5.1,11.5-6.6
				c2.9-1,5.8-1.4,8.9-1.1c0.5,0,0.9-0.2,1.1-0.6c0.2-0.4,0.3-1,0.1-1.5l-11.6-33.8C141.5,50.1,141,49.7,140.4,49.6L140.4,49.6z
				 M140.4,49.6"/>
		</g>
	</g>
	<g id="do-flag">
		<g>
			<path style="fill:#FFFFFF;" d="M86.5,56l-4.7,1.6c-1.9,0.7-2.9,2.7-2.3,4.7c0.6,1.7,2.4,2.8,4.2,2.4l23.3,67.9
				c0.3,0.9,1.3,1.4,2.1,1.1l2.5-0.8c0.9-0.3,1.4-1.3,1.1-2.1L89.3,62.8c1.6-0.8,2.4-2.7,1.8-4.5C90.5,56.4,88.4,55.3,86.5,56
				L86.5,56z M86.5,56"/>
		</g>
		<g>
			<path style="fill:#FFFFFF;" d="M136,47.4c-3.4-0.4-6.7,0-9.9,1.1c-4.3,1.5-8.1,4.1-11.7,6.6c-3.6,2.5-7.3,5.1-11.5,6.5
				c-2.9,1-5.8,1.4-8.9,1.1c-0.5,0-1,0-1,0l12.7,37.2c3.4,0.4,6.7,0,9.9-1.1c4.3-1.5,8-4.1,11.7-6.6c3.6-2.5,7.3-5.1,11.5-6.6
				c2.9-1,5.8-1.4,8.9-1.1c0.5,0,0.9-0.2,1.1-0.6c0.2-0.4,0.3-1,0.1-1.5l-11.6-33.8C137.1,47.9,136.5,47.4,136,47.4L136,47.4z
				 M136,47.4"/>
		</g>
	</g>
</g>
</svg>
