<?xml version="1.0" encoding="iso-8859-1"?>
<!-- Generator: Adobe Illustrator 19.0.0, SVG Export Plug-In . SVG Version: 6.00 Build 0)  -->
<svg version="1.1" id="Layer_1" xmlns="http://www.w3.org/2000/svg" xmlns:xlink="http://www.w3.org/1999/xlink" x="0px" y="0px"
	 viewBox="0 0 64 64" style="enable-background:new 0 0 64 64;" xml:space="preserve">
<style type="text/css">
	.st0{fill:#21B89B;}
	.st1{fill:#E6E7E8;}
</style>
<g id="XMLID_293_">
	<circle id="XMLID_70_" class="st0" cx="32" cy="32" r="32"/>
	<path id="XMLID_360_" class="st1" d="M32,49c-9.6,0-17.4-7.6-17.4-17c0-1.6,0.2-3.1,0.6-4.6c0.3-1.1,1.5-1.8,2.7-1.5
		c1.2,0.3,1.8,1.5,1.5,2.6c-0.3,1.1-0.5,2.3-0.5,3.4c0,7.1,5.9,12.8,13.1,12.8c7.2,0,13.1-5.7,13.1-12.8c0-7.1-5.9-12.8-13.1-12.8
		c-1.9,0-3.7,0.4-5.5,1.2c-1.1,0.5-2.4,0-2.9-1c-0.5-1.1,0-2.3,1.1-2.8c2.3-1,4.7-1.6,7.3-1.6c9.6,0,17.4,7.6,17.4,17S41.6,49,32,49
		z"/>
</g>
</svg>
