<?xml version="1.0" encoding="iso-8859-1"?>
<!-- Generator: Adobe Illustrator 19.0.0, SVG Export Plug-In . SVG Version: 6.00 Build 0)  -->
<svg version="1.1" id="Layer_1" xmlns="http://www.w3.org/2000/svg" xmlns:xlink="http://www.w3.org/1999/xlink" x="0px" y="0px"
	 viewBox="0 0 64 64" style="enable-background:new 0 0 64 64;" xml:space="preserve">
<style type="text/css">
	.st0{fill:#F6921E;}
	.st1{fill:#404041;}
</style>
<circle id="eye-bg" class="st0" cx="32" cy="32" r="32"/>
<path id="bottom-lid" class="st1" d="M32.4,47.9c-6.1,0-12-2.9-17.6-8.5c-0.9-0.9-0.9-2.4,0-3.4c0.9-0.9,2.4-0.9,3.4,0
	c4.9,5,10,7.4,15,7.1c7.7-0.4,12.9-6.9,12.9-6.9c0.8-1,2.3-1.2,3.4-0.4c1,0.8,1.2,2.3,0.4,3.3c-0.3,0.3-6.6,8.2-16.4,8.7
	C33.1,47.9,32.7,47.9,32.4,47.9z"/>
<path id="iris" class="st1" d="M32.2,40.3c-3.7,0-6.7-3-6.7-6.8c0-3.7,3-6.8,6.7-6.8c3.7,0,6.7,3,6.7,6.8
	C38.9,37.3,35.9,40.3,32.2,40.3z M32.2,31.1c-1.3,0-2.3,1.1-2.3,2.4c0,1.3,1,2.4,2.3,2.4c1.3,0,2.3-1.1,2.3-2.4
	C34.5,32.2,33.5,31.1,32.2,31.1z"/>
<path id="hair-1" class="st1" d="M19.8,21.8c-0.5,0-1-0.2-1.4-0.6l-2.5-2.5c-0.8-0.8-0.8-2,0-2.8c0.8-0.8,2-0.8,2.8,0l2.5,2.5
	c0.8,0.8,0.8,2,0,2.8C20.8,21.6,20.3,21.8,19.8,21.8z"/>
<path id="hair-5" class="st1" d="M44.6,21.8c-0.5,0-1-0.2-1.4-0.6c-0.8-0.8-0.8-2,0-2.8l2.5-2.5c0.8-0.8,2-0.8,2.8,0
	c0.8,0.8,0.8,2,0,2.8L46,21.2C45.6,21.6,45.1,21.8,44.6,21.8z"/>
<path id="hair-2" class="st1" d="M25.6,19.2c-0.8,0-1.5-0.5-1.8-1.2l-1.4-3.4c-0.4-1,0.1-2.2,1.1-2.6c1-0.4,2.2,0.1,2.6,1.1l1.4,3.4
	c0.4,1-0.1,2.2-1.1,2.6C26.1,19.2,25.8,19.2,25.6,19.2z"/>
<path id="hair-4" class="st1" d="M38.8,19.2c-0.3,0-0.5,0-0.8-0.2c-1-0.4-1.5-1.6-1.1-2.6l1.4-3.4c0.4-1,1.6-1.5,2.6-1.1
	c1,0.4,1.5,1.6,1.1,2.6L40.7,18C40.3,18.8,39.6,19.2,38.8,19.2z"/>
<path id="hair-3" class="st1" d="M32.1,18.2c-1.1,0-2-0.9-2-2v-3.9c0-1.1,0.9-2,2-2c1.1,0,2,0.9,2,2v3.9
	C34.1,17.3,33.2,18.2,32.1,18.2z"/>
<path id="upper-lid" class="st1" d="M16.5,32.8c-0.5,0-1-0.2-1.5-0.5c-1-0.8-1.2-2.3-0.4-3.3c0.3-0.3,6.6-8.2,16.3-8.8
	c6.4-0.4,12.7,2.4,18.7,8.4c0.9,0.9,0.9,2.4,0,3.4c-0.9,0.9-2.4,0.9-3.4,0c-5-5-10-7.3-15-7c-7.7,0.5-12.8,6.9-12.9,7
	C17.9,32.5,17.2,32.8,16.5,32.8z"/>
</svg>
