<?xml version="1.0" encoding="iso-8859-1"?>
<!-- Generator: Adobe Illustrator 19.0.0, SVG Export Plug-In . SVG Version: 6.00 Build 0)  -->
<svg version="1.1" id="feel-guide" xmlns="http://www.w3.org/2000/svg" xmlns:xlink="http://www.w3.org/1999/xlink" x="0px" y="0px"
	 viewBox="0 0 230 230" style="enable-background:new 0 0 230 230;" xml:space="preserve">
<g id="feel-icon-group">
	<g id="feel-icon-bg">
		<path id="XMLID_19_" style="fill:#F6901E;" d="M192.3,0.5H37.7C17.2,0.5,0.5,17.2,0.5,37.7v154.6c0,20.5,16.6,37.2,37.2,37.2
			h154.6c20.5,0,37.2-16.6,37.2-37.2V37.7C229.5,17.2,212.8,0.5,192.3,0.5z"/>
	</g>
	<g id="feel-icon-shadow">
		<g>
			<path style="fill:#F48120;" d="M118.3,48.1C91.6,48.1,70,69.7,70,96.4c0,26.7,21.6,48.3,48.3,48.3c26.7,0,48.3-21.6,48.3-48.3
				C166.7,69.7,145,48.1,118.3,48.1L118.3,48.1z M136.2,80.3c3.8,0,6.9,3.1,6.9,6.9c0,3.8-3.1,6.9-6.9,6.9c-3.8,0-6.9-3.1-6.9-6.9
				C129.3,83.4,132.4,80.3,136.2,80.3L136.2,80.3z M100.5,80.3c3.8,0,6.9,3.1,6.9,6.9c0,3.8-3.1,6.9-6.9,6.9c-3.8,0-6.9-3.1-6.9-6.9
				C93.6,83.4,96.7,80.3,100.5,80.3L100.5,80.3z M144.4,113.2c-5.9,8.6-15.7,13.7-26.1,13.7c-10.4,0-20.2-5.1-26.1-13.7
				c-1.3-1.9-0.8-4.6,1.1-5.9c1.9-1.3,4.6-0.8,5.9,1.1c4.3,6.3,11.5,10.1,19.1,10.1c7.6,0,14.8-3.7,19.1-10.1c1.3-1.9,4-2.4,5.9-1.1
				C145.3,108.7,145.8,111.3,144.4,113.2L144.4,113.2z M144.4,113.2"/>
		</g>
	</g>
	<g id="feel-text">
		<path style="fill:#FFFFFF;" d="M65.8,190.7c0,0,2.4,2.2,5,2.2c1.1,0,2.2-0.4,2.2-1.7c0-2.5-9.5-2.4-9.5-8.9c0-3.9,3.3-6.4,7.4-6.4
			c4.5,0,6.8,2.4,6.8,2.4l-2.2,4.2c0,0-2.1-1.9-4.6-1.9c-1.1,0-2.2,0.5-2.2,1.6c0,2.6,9.5,2.2,9.5,8.8c0,3.5-2.7,6.5-7.4,6.5
			c-4.9,0-7.7-3-7.7-3L65.8,190.7z"/>
		<path style="fill:#FFFFFF;" d="M81.8,176.2H95v4.4h-8v3.8h6.4v4.4h-6.4v4h8.4v4.4H81.8V176.2z"/>
		<path style="fill:#FFFFFF;" d="M99.1,176.2h5.2l5.8,9.8c0.8,1.4,1.8,3.6,1.8,3.6h0.1c0,0-0.2-2.3-0.2-3.6v-9.8h5.1v21h-5.2
			l-5.9-9.8c-0.8-1.4-1.8-3.6-1.8-3.6H104c0,0,0.2,2.3,0.2,3.6v9.8h-5.2V176.2z"/>
		<path style="fill:#FFFFFF;" d="M125.8,180.6h-6.4v-4.4h17.9v4.4H131v16.6h-5.2V180.6z"/>
		<path style="fill:#FFFFFF;" d="M140,176.2h5.2v21H140V176.2z"/>
		<path style="fill:#FFFFFF;" d="M150.1,176.2h7.3c2.1,0,3.2,0.1,4.1,0.5c2.4,0.9,3.9,3.1,3.9,6.1c0,2.2-1.1,4.7-3.1,5.7v0.1
			c0,0,0.3,0.4,0.8,1.3l4.1,7.4h-5.7l-3.7-7.1h-2.4v7.1h-5.2V176.2z M157.5,185.7c1.6,0,2.7-0.9,2.7-2.6c0-1.6-0.6-2.5-3.2-2.5h-1.7
			v5.1H157.5z"/>
	</g>
	<g id="feel-icon">
		<g>
			<path style="fill:#FFFFFF;" d="M113.4,43.2c-26.7,0-48.3,21.6-48.3,48.3c0,26.7,21.6,48.3,48.3,48.3c26.7,0,48.3-21.6,48.3-48.3
				C161.8,64.8,140.1,43.2,113.4,43.2L113.4,43.2z M131.3,75.4c3.8,0,6.9,3.1,6.9,6.9c0,3.8-3.1,6.9-6.9,6.9c-3.8,0-6.9-3.1-6.9-6.9
				C124.3,78.5,127.4,75.4,131.3,75.4L131.3,75.4z M95.6,75.4c3.8,0,6.9,3.1,6.9,6.9c0,3.8-3.1,6.9-6.9,6.9c-3.8,0-6.9-3.1-6.9-6.9
				C88.7,78.5,91.8,75.4,95.6,75.4L95.6,75.4z M139.5,108.3c-5.9,8.6-15.7,13.7-26.1,13.7c-10.4,0-20.2-5.1-26.1-13.7
				c-1.3-1.9-0.8-4.6,1.1-5.9c1.9-1.3,4.6-0.8,5.9,1.1c4.3,6.3,11.5,10.1,19.1,10.1c7.6,0,14.8-3.7,19.1-10.1c1.3-1.9,4-2.4,5.9-1.1
				C140.3,103.8,140.8,106.4,139.5,108.3L139.5,108.3z M139.5,108.3"/>
		</g>
	</g>
</g>
</svg>
