<?xml version="1.0" encoding="iso-8859-1"?>
<!-- Generator: Adobe Illustrator 19.0.0, SVG Export Plug-In . SVG Version: 6.00 Build 0)  -->
<svg version="1.1" id="feel-details" xmlns="http://www.w3.org/2000/svg" xmlns:xlink="http://www.w3.org/1999/xlink" x="0px"
	 y="0px" viewBox="0 0 265 85" style="enable-background:new 0 0 265 85;" xml:space="preserve">
<style type="text/css">
	.st0{fill:#F6921E;}
	.st1{fill:#404041;}
	.st2{fill:#231F20;}
	.st3{fill:#652D90;}
	.st4{fill:#FFFFFF;}
	.st5{fill:none;stroke:#A6A8AB;stroke-width:3;stroke-linecap:round;stroke-linejoin:round;}
	.st6{fill:none;stroke:#A6A8AB;stroke-width:3;stroke-linecap:round;stroke-linejoin:round;stroke-dasharray:0.9919,4.9593;}
	.st7{fill:none;stroke:#A6A8AB;stroke-width:2;stroke-linecap:round;stroke-linejoin:round;stroke-miterlimit:10;}
</style>
<g id="sense-group">
	<circle id="eye-bg" class="st0" cx="32.5" cy="32.5" r="32.4"/>
	<path id="bottom-lid" class="st1" d="M33.4,49.9c-6.1,0-12-2.9-17.6-8.5c-0.9-0.9-0.9-2.4,0-3.4c0.9-0.9,2.4-0.9,3.4,0
		c4.9,5,10,7.4,15,7.1c7.7-0.4,12.9-6.9,12.9-6.9c0.8-1,2.3-1.2,3.4-0.4c1,0.8,1.2,2.3,0.4,3.3c-0.3,0.3-6.6,8.2-16.4,8.7
		C34.1,49.9,33.7,49.9,33.4,49.9z"/>
	<path id="iris" class="st1" d="M33.2,42.3c-3.7,0-6.7-3-6.7-6.8c0-3.7,3-6.8,6.7-6.8c3.7,0,6.7,3,6.7,6.8
		C39.9,39.3,36.9,42.3,33.2,42.3z M33.2,33.1c-1.3,0-2.3,1.1-2.3,2.4c0,1.3,1,2.4,2.3,2.4c1.3,0,2.3-1.1,2.3-2.4
		C35.5,34.2,34.5,33.1,33.2,33.1z"/>
	<path id="hair-1" class="st1" d="M20.8,23.8c-0.5,0-1-0.2-1.4-0.6l-2.5-2.5c-0.8-0.8-0.8-2,0-2.8c0.8-0.8,2-0.8,2.8,0l2.5,2.5
		c0.8,0.8,0.8,2,0,2.8C21.8,23.6,21.3,23.8,20.8,23.8z"/>
	<path id="hair-5" class="st1" d="M45.6,23.8c-0.5,0-1-0.2-1.4-0.6c-0.8-0.8-0.8-2,0-2.8l2.5-2.5c0.8-0.8,2-0.8,2.8,0
		c0.8,0.8,0.8,2,0,2.8L47,23.2C46.6,23.6,46.1,23.8,45.6,23.8z"/>
	<path id="hair-2" class="st1" d="M26.6,21.2c-0.8,0-1.5-0.5-1.8-1.2l-1.4-3.4c-0.4-1,0.1-2.2,1.1-2.6c1-0.4,2.2,0.1,2.6,1.1
		l1.4,3.4c0.4,1-0.1,2.2-1.1,2.6C27.1,21.2,26.8,21.2,26.6,21.2z"/>
	<path id="hair-4" class="st1" d="M39.8,21.2c-0.3,0-0.5,0-0.8-0.2c-1-0.4-1.5-1.6-1.1-2.6l1.4-3.4c0.4-1,1.6-1.5,2.6-1.1
		c1,0.4,1.5,1.6,1.1,2.6L41.7,20C41.3,20.8,40.6,21.2,39.8,21.2z"/>
	<path id="hair-3" class="st1" d="M33.1,20.2c-1.1,0-2-0.9-2-2v-3.9c0-1.1,0.9-2,2-2c1.1,0,2,0.9,2,2v3.9
		C35.1,19.3,34.2,20.2,33.1,20.2z"/>
	<path id="upper-lid" class="st1" d="M17.5,34.8c-0.5,0-1-0.2-1.5-0.5c-1-0.8-1.2-2.3-0.4-3.3c0.3-0.3,6.6-8.2,16.3-8.8
		c6.4-0.4,12.7,2.4,18.7,8.4c0.9,0.9,0.9,2.4,0,3.4c-0.9,0.9-2.4,0.9-3.4,0c-5-5-10-7.3-15-7c-7.7,0.5-12.8,6.9-12.9,7
		C18.9,34.5,18.2,34.8,17.5,34.8z"/>
	<g id="sense-text-group">
		<g id="XMLID_325_">
			<path id="XMLID_362_" class="st2" d="M1.7,80.6c0.5,0.3,1.2,0.5,1.9,0.5c1.1,0,1.7-0.6,1.7-1.4c0-0.8-0.4-1.2-1.5-1.6
				c-1.3-0.5-2.1-1.2-2.1-2.3c0-1.3,1-2.2,2.6-2.2c0.8,0,1.4,0.2,1.8,0.4l-0.3,0.9c-0.3-0.1-0.8-0.4-1.5-0.4c-1.1,0-1.5,0.7-1.5,1.2
				c0,0.8,0.5,1.1,1.6,1.6c1.4,0.5,2.1,1.2,2.1,2.4c0,1.2-0.9,2.3-2.8,2.3c-0.8,0-1.6-0.2-2.1-0.5L1.7,80.6z"/>
			<path id="XMLID_359_" class="st2" d="M8.4,79.2c0,1.4,0.9,2,2,2c0.8,0,1.2-0.1,1.6-0.3l0.2,0.8c-0.4,0.2-1,0.4-1.9,0.4
				c-1.8,0-2.9-1.2-2.9-2.9s1-3.1,2.7-3.1c1.9,0,2.4,1.7,2.4,2.7c0,0.2,0,0.4,0,0.5H8.4z M11.5,78.4c0-0.7-0.3-1.7-1.5-1.7
				c-1.1,0-1.5,1-1.6,1.7H11.5z"/>
			<path id="XMLID_357_" class="st2" d="M13.8,77.6c0-0.6,0-1.1,0-1.6h0.9l0.1,1h0c0.3-0.6,1-1.1,1.9-1.1c0.8,0,2.1,0.5,2.1,2.5v3.5
				h-1.1v-3.3c0-0.9-0.3-1.7-1.3-1.7c-0.7,0-1.2,0.5-1.4,1.1c0,0.1-0.1,0.3-0.1,0.5v3.5h-1.1V77.6z"/>
			<path id="XMLID_355_" class="st2" d="M20.3,80.8c0.3,0.2,0.9,0.4,1.4,0.4c0.8,0,1.1-0.4,1.1-0.9c0-0.5-0.3-0.8-1.1-1.1
				c-1-0.4-1.5-0.9-1.5-1.6c0-0.9,0.8-1.7,2-1.7c0.6,0,1.1,0.2,1.4,0.4l-0.3,0.8c-0.2-0.1-0.6-0.3-1.2-0.3c-0.6,0-1,0.4-1,0.8
				c0,0.5,0.3,0.7,1.1,1c1,0.4,1.5,0.9,1.5,1.8c0,1-0.8,1.7-2.2,1.7c-0.6,0-1.2-0.2-1.6-0.4L20.3,80.8z"/>
			<path id="XMLID_352_" class="st2" d="M26.4,74.4c0,0.4-0.3,0.6-0.7,0.6c-0.4,0-0.6-0.3-0.6-0.6c0-0.4,0.3-0.7,0.7-0.7
				C26.2,73.8,26.4,74.1,26.4,74.4z M25.2,81.9v-5.8h1.1v5.8H25.2z"/>
			<path id="XMLID_349_" class="st2" d="M28,81.9c0-0.4,0-1,0-1.5v-7h1V77h0c0.4-0.6,1-1.1,2-1.1c1.4,0,2.5,1.2,2.4,3
				c0,2.1-1.3,3.1-2.6,3.1c-0.8,0-1.5-0.3-1.9-1.1h0l0,1H28z M29.1,79.5c0,0.1,0,0.3,0,0.4c0.2,0.7,0.8,1.2,1.6,1.2
				c1.1,0,1.8-0.9,1.8-2.2c0-1.2-0.6-2.2-1.7-2.2c-0.7,0-1.4,0.5-1.6,1.3c0,0.1-0.1,0.3-0.1,0.4V79.5z"/>
			<path id="XMLID_345_" class="st2" d="M36,74.4c0,0.4-0.3,0.6-0.7,0.6c-0.4,0-0.6-0.3-0.6-0.6c0-0.4,0.3-0.7,0.7-0.7
				C35.8,73.8,36,74.1,36,74.4z M34.9,81.9v-5.8h1.1v5.8H34.9z"/>
			<path id="XMLID_343_" class="st2" d="M37.7,73.3h1.1v8.5h-1.1V73.3z"/>
			<path id="XMLID_340_" class="st2" d="M41.7,74.4c0,0.4-0.3,0.6-0.7,0.6c-0.4,0-0.6-0.3-0.6-0.6c0-0.4,0.3-0.7,0.7-0.7
				C41.4,73.8,41.7,74.1,41.7,74.4z M40.5,81.9v-5.8h1.1v5.8H40.5z"/>
			<path id="XMLID_338_" class="st2" d="M42.7,81.3l2.6-3.4c0.3-0.3,0.5-0.6,0.8-0.9v0h-3.1v-0.9h4.4l0,0.7l-2.6,3.4
				c-0.2,0.3-0.5,0.6-0.7,0.9v0h3.4v0.8h-4.7V81.3z"/>
			<path id="XMLID_335_" class="st2" d="M51.7,81.9l-0.1-0.7h0c-0.3,0.5-0.9,0.9-1.8,0.9c-1.2,0-1.8-0.8-1.8-1.7
				c0-1.4,1.2-2.2,3.5-2.2V78c0-0.5-0.1-1.3-1.3-1.3c-0.5,0-1.1,0.2-1.5,0.4l-0.2-0.7c0.5-0.3,1.2-0.5,1.9-0.5
				c1.8,0,2.2,1.2,2.2,2.4v2.2c0,0.5,0,1,0.1,1.4H51.7z M51.5,78.9c-1.2,0-2.5,0.2-2.5,1.3c0,0.7,0.5,1,1,1c0.8,0,1.2-0.5,1.4-1
				c0-0.1,0.1-0.2,0.1-0.3V78.9z"/>
			<path id="XMLID_333_" class="st2" d="M58.4,81.6c-0.3,0.1-0.8,0.3-1.5,0.3l-0.3,0.5c0.4,0.1,0.8,0.4,0.8,0.8c0,0.7-0.6,1-1.2,1
				c-0.3,0-0.6-0.1-0.8-0.2l0.2-0.5c0.2,0.1,0.4,0.2,0.6,0.2c0.3,0,0.5-0.1,0.5-0.4c0-0.3-0.4-0.5-0.9-0.5l0.5-0.9
				c-1.5-0.2-2.4-1.3-2.4-2.9c0-1.8,1.2-3.1,3.1-3.1c0.6,0,1.2,0.2,1.5,0.3l-0.2,0.8c-0.3-0.1-0.6-0.3-1.2-0.3c-1.3,0-2.1,1-2.1,2.2
				c0,1.3,0.9,2.2,2,2.2c0.6,0,1-0.2,1.3-0.3L58.4,81.6z"/>
			<path id="XMLID_329_" class="st2" d="M62.8,81.9l-0.1-0.7h0c-0.3,0.5-0.9,0.9-1.8,0.9c-1.2,0-1.8-0.8-1.8-1.7
				c0-1.4,1.2-2.2,3.5-2.2V78c0-0.5-0.1-1.3-1.3-1.3c-0.5,0-1.1,0.2-1.5,0.4l-0.2-0.7c0.5-0.3,1.2-0.5,1.9-0.5
				c1.8,0,2.2,1.2,2.2,2.4v2.2c0,0.5,0,1,0.1,1.4H62.8z M60.1,75.1c0-0.8,0.3-1.2,0.8-1.2c0.3,0,0.5,0.1,0.7,0.3
				c0.2,0.1,0.4,0.2,0.5,0.2c0.2,0,0.3-0.1,0.3-0.5h0.6c0,0.8-0.3,1.2-0.8,1.2c-0.3,0-0.5-0.1-0.7-0.2c-0.2-0.1-0.4-0.2-0.5-0.2
				c-0.2,0-0.3,0.2-0.3,0.5H60.1z M62.7,78.9c-1.2,0-2.5,0.2-2.5,1.3c0,0.7,0.5,1,1,1c0.8,0,1.2-0.5,1.4-1c0-0.1,0.1-0.2,0.1-0.3
				V78.9z"/>
			<path id="XMLID_326_" class="st2" d="M70.7,78.9c0,2.1-1.5,3.1-2.9,3.1c-1.6,0-2.8-1.2-2.8-3c0-1.9,1.3-3.1,2.9-3.1
				C69.5,75.9,70.7,77.1,70.7,78.9z M66,79c0,1.3,0.7,2.2,1.8,2.2c1,0,1.8-0.9,1.8-2.3c0-1-0.5-2.2-1.7-2.2C66.6,76.7,66,77.9,66,79
				z"/>
		</g>
	</g>
</g>
<g id="verify-group">
	<g id="verify-text-group">
		<g id="XMLID_271_">
			<path id="XMLID_298_" class="st2" d="M110.9,81.9l-2.6-8.1h1.1l1.3,4c0.3,1.1,0.6,2.1,0.9,3h0c0.2-0.9,0.6-2,0.9-3l1.4-4h1.1
				l-2.9,8.1H110.9z"/>
			<path id="XMLID_295_" class="st2" d="M116,79.2c0,1.4,0.9,2,2,2c0.8,0,1.2-0.1,1.6-0.3l0.2,0.8c-0.4,0.2-1,0.4-1.9,0.4
				c-1.8,0-2.9-1.2-2.9-2.9s1-3.1,2.7-3.1c1.9,0,2.4,1.7,2.4,2.7c0,0.2,0,0.4,0,0.5H116z M119.1,78.4c0-0.7-0.3-1.7-1.5-1.7
				c-1.1,0-1.5,1-1.6,1.7H119.1z"/>
			<path id="XMLID_293_" class="st2" d="M121.4,77.9c0-0.7,0-1.3,0-1.8h0.9l0,1.1h0c0.3-0.8,0.9-1.3,1.6-1.3c0.1,0,0.2,0,0.3,0v1
				c-0.1,0-0.2,0-0.4,0c-0.7,0-1.3,0.6-1.4,1.4c0,0.1,0,0.3,0,0.5v3.1h-1V77.9z"/>
			<path id="XMLID_290_" class="st2" d="M126.6,74.4c0,0.4-0.3,0.6-0.7,0.6c-0.4,0-0.6-0.3-0.6-0.6c0-0.4,0.3-0.7,0.7-0.7
				C126.3,73.8,126.6,74.1,126.6,74.4z M125.4,81.9v-5.8h1.1v5.8H125.4z"/>
			<path id="XMLID_288_" class="st2" d="M128.3,81.9v-5h-0.8v-0.8h0.8v-0.3c0-1.5,0.9-2.5,2.5-2.5c0.5,0,1.2,0.2,1.5,0.4l-0.3,0.8
				c-0.3-0.2-0.7-0.3-1.2-0.3c-1.1,0-1.4,0.8-1.4,1.7v0.3h3.4v5.8h-1v-5h-2.3v5H128.3z"/>
			<path id="XMLID_285_" class="st2" d="M138.6,81.6c-0.3,0.1-0.9,0.3-1.7,0.3c-1.8,0-2.9-1.2-2.9-3c0-1.8,1.2-3.1,3.1-3.1
				c0.6,0,1.2,0.2,1.5,0.3l-0.2,0.8c-0.3-0.1-0.6-0.3-1.2-0.3c-1.3,0-2.1,1-2.1,2.2c0,1.3,0.9,2.2,2,2.2c0.6,0,1-0.2,1.3-0.3
				L138.6,81.6z"/>
			<path id="XMLID_281_" class="st2" d="M143.1,81.9l-0.1-0.7h0c-0.3,0.5-0.9,0.9-1.8,0.9c-1.2,0-1.8-0.8-1.8-1.7
				c0-1.4,1.2-2.2,3.5-2.2V78c0-0.5-0.1-1.3-1.3-1.3c-0.5,0-1.1,0.2-1.5,0.4l-0.2-0.7c0.5-0.3,1.2-0.5,1.9-0.5
				c1.8,0,2.2,1.2,2.2,2.4v2.2c0,0.5,0,1,0.1,1.4H143.1z M142.9,78.9c-1.2,0-2.5,0.2-2.5,1.3c0,0.7,0.5,1,1,1c0.8,0,1.2-0.5,1.4-1
				c0-0.1,0.1-0.2,0.1-0.3V78.9z"/>
			<path id="XMLID_279_" class="st2" d="M149.8,81.6c-0.3,0.1-0.8,0.3-1.5,0.3l-0.3,0.5c0.4,0.1,0.8,0.4,0.8,0.8c0,0.7-0.6,1-1.2,1
				c-0.3,0-0.6-0.1-0.8-0.2l0.2-0.5c0.2,0.1,0.4,0.2,0.6,0.2c0.3,0,0.5-0.1,0.5-0.4c0-0.3-0.4-0.5-0.9-0.5l0.5-0.9
				c-1.5-0.2-2.4-1.3-2.4-2.9c0-1.8,1.2-3.1,3.1-3.1c0.6,0,1.2,0.2,1.5,0.3l-0.2,0.8c-0.3-0.1-0.6-0.3-1.2-0.3c-1.3,0-2.1,1-2.1,2.2
				c0,1.3,0.9,2.2,2,2.2c0.6,0,1-0.2,1.3-0.3L149.8,81.6z"/>
			<path id="XMLID_275_" class="st2" d="M154.2,81.9l-0.1-0.7h0c-0.3,0.5-0.9,0.9-1.8,0.9c-1.2,0-1.8-0.8-1.8-1.7
				c0-1.4,1.2-2.2,3.5-2.2V78c0-0.5-0.1-1.3-1.3-1.3c-0.5,0-1.1,0.2-1.5,0.4l-0.2-0.7c0.5-0.3,1.2-0.5,1.9-0.5
				c1.8,0,2.2,1.2,2.2,2.4v2.2c0,0.5,0,1,0.1,1.4H154.2z M151.5,75.1c0-0.8,0.3-1.2,0.8-1.2c0.3,0,0.5,0.1,0.7,0.3
				c0.2,0.1,0.4,0.2,0.5,0.2c0.2,0,0.3-0.1,0.3-0.5h0.6c0,0.8-0.3,1.2-0.8,1.2c-0.3,0-0.5-0.1-0.7-0.2c-0.2-0.1-0.4-0.2-0.5-0.2
				c-0.2,0-0.3,0.2-0.3,0.5H151.5z M154.1,78.9c-1.2,0-2.5,0.2-2.5,1.3c0,0.7,0.5,1,1,1c0.8,0,1.2-0.5,1.4-1c0-0.1,0.1-0.2,0.1-0.3
				V78.9z"/>
			<path id="XMLID_272_" class="st2" d="M162,78.9c0,2.1-1.5,3.1-2.9,3.1c-1.6,0-2.8-1.2-2.8-3c0-1.9,1.3-3.1,2.9-3.1
				C160.9,75.9,162,77.1,162,78.9z M157.4,79c0,1.3,0.7,2.2,1.8,2.2c1,0,1.8-0.9,1.8-2.3c0-1-0.5-2.2-1.7-2.2S157.4,77.9,157.4,79z"
				/>
		</g>
	</g>
	<circle id="verify-bg" class="st0" cx="132.9" cy="32.5" r="32.4"/>
	<path id="check-icon" class="st3" d="M131.7,49.5c-1.2,0-2.4-0.5-3.4-1.3l-11.5-10.6c-2-1.9-2.2-5-0.3-7.1c1.9-2,5-2.2,7.1-0.3
		l7.2,6.6l12.4-18.4c1.5-2.3,4.6-2.9,6.9-1.4c2.3,1.5,2.9,4.6,1.4,6.9l-15.6,23.3c-0.8,1.2-2.1,2-3.6,2.2
		C132.1,49.5,131.9,49.5,131.7,49.5z"/>
</g>
<g id="limit-group">
	<circle id="XMLID_347_" class="st0" cx="232.5" cy="32.5" r="32.4"/>
	<polygon id="XMLID_377_" class="st4" points="223.5,27.3 242.6,11.8 242.6,16.8 224.5,31.6 	"/>
	<g id="XMLID_131_">
		<ellipse id="XMLID_375_" class="st1" cx="223.9" cy="52.7" rx="6.6" ry="2.4"/>
		<ellipse id="XMLID_376_" class="st1" cx="242.5" cy="38.6" rx="6.6" ry="2.4"/>
		<path id="XMLID_373_" class="st1" d="M223.5,54.9c-0.8,0-1.5-0.7-1.5-1.5V24.9c0-0.8,0.7-1.5,1.5-1.5c0.8,0,1.5,0.7,1.5,1.5v28.5
			C225,54.2,224.3,54.9,223.5,54.9z"/>
		<path id="XMLID_374_" class="st1" d="M242.6,40.1c-0.8,0-1.5-0.7-1.5-1.5V10.1c0-0.8,0.7-1.5,1.5-1.5c0.8,0,1.5,0.7,1.5,1.5v28.5
			C244.1,39.4,243.5,40.1,242.6,40.1z"/>
	</g>
	<g id="limit-text-grup">
		<g id="XMLID_403_">
			<path id="XMLID_431_" class="st2" d="M205.1,73.9c0.6-0.1,1.4-0.2,2.2-0.2c1.5,0,2.6,0.3,3.3,1c0.7,0.7,1.1,1.6,1.1,2.9
				c0,1.3-0.4,2.4-1.2,3.1c-0.8,0.8-2,1.2-3.6,1.2c-0.7,0-1.4,0-1.9-0.1V73.9z M206.1,81c0.3,0,0.6,0.1,1.1,0.1
				c2.2,0,3.4-1.2,3.4-3.4c0-1.9-1.1-3.1-3.3-3.1c-0.5,0-0.9,0-1.2,0.1V81z"/>
			<path id="XMLID_428_" class="st2" d="M213.7,79.2c0,1.4,0.9,2,2,2c0.8,0,1.2-0.1,1.6-0.3l0.2,0.8c-0.4,0.2-1,0.4-1.9,0.4
				c-1.8,0-2.9-1.2-2.9-2.9s1-3.1,2.7-3.1c1.9,0,2.4,1.7,2.4,2.7c0,0.2,0,0.4,0,0.5H213.7z M216.8,78.4c0-0.7-0.3-1.7-1.5-1.7
				c-1.1,0-1.5,1-1.6,1.7H216.8z"/>
			<path id="XMLID_426_" class="st2" d="M219.1,73.3h1.1v8.5h-1.1V73.3z"/>
			<path id="XMLID_423_" class="st2" d="M223.1,74.4c0,0.4-0.3,0.6-0.7,0.6c-0.4,0-0.6-0.3-0.6-0.6c0-0.4,0.3-0.7,0.7-0.7
				C222.9,73.8,223.1,74.1,223.1,74.4z M221.9,81.9v-5.8h1.1v5.8H221.9z"/>
			<path id="XMLID_421_" class="st2" d="M224.8,77.6c0-0.6,0-1.1,0-1.6h0.9l0,0.9h0c0.3-0.6,0.9-1.1,1.8-1.1c0.8,0,1.4,0.5,1.6,1.2
				h0c0.2-0.3,0.4-0.6,0.6-0.8c0.3-0.3,0.7-0.4,1.3-0.4c0.8,0,1.9,0.5,1.9,2.5v3.4h-1v-3.3c0-1.1-0.4-1.8-1.3-1.8
				c-0.6,0-1.1,0.4-1.2,1c0,0.1-0.1,0.3-0.1,0.5v3.6h-1v-3.5c0-0.9-0.4-1.6-1.2-1.6c-0.7,0-1.1,0.5-1.3,1.1
				c-0.1,0.2-0.1,0.3-0.1,0.5v3.5h-1V77.6z"/>
			<path id="XMLID_418_" class="st2" d="M235.9,74.4c0,0.4-0.3,0.6-0.7,0.6c-0.4,0-0.6-0.3-0.6-0.6c0-0.4,0.3-0.7,0.7-0.7
				C235.7,73.8,235.9,74.1,235.9,74.4z M234.8,81.9v-5.8h1.1v5.8H234.8z"/>
			<path id="XMLID_416_" class="st2" d="M238.8,74.4v1.7h1.5v0.8h-1.5V80c0,0.7,0.2,1.1,0.8,1.1c0.3,0,0.5,0,0.6-0.1l0,0.8
				c-0.2,0.1-0.5,0.1-0.9,0.1c-0.5,0-0.9-0.2-1.1-0.4c-0.3-0.3-0.4-0.8-0.4-1.5v-3.2h-0.9v-0.8h0.9v-1.4L238.8,74.4z"/>
			<path id="XMLID_413_" class="st2" d="M244.8,81.9l-0.1-0.7h0c-0.3,0.5-0.9,0.9-1.8,0.9c-1.2,0-1.8-0.8-1.8-1.7
				c0-1.4,1.2-2.2,3.5-2.2V78c0-0.5-0.1-1.3-1.3-1.3c-0.5,0-1.1,0.2-1.5,0.4l-0.2-0.7c0.5-0.3,1.2-0.5,1.9-0.5
				c1.8,0,2.2,1.2,2.2,2.4v2.2c0,0.5,0,1,0.1,1.4H244.8z M244.6,78.9c-1.2,0-2.5,0.2-2.5,1.3c0,0.7,0.5,1,1,1c0.8,0,1.2-0.5,1.4-1
				c0-0.1,0.1-0.2,0.1-0.3V78.9z"/>
			<path id="XMLID_411_" class="st2" d="M251.5,81.6c-0.3,0.1-0.8,0.3-1.5,0.3l-0.3,0.5c0.4,0.1,0.8,0.4,0.8,0.8c0,0.7-0.6,1-1.2,1
				c-0.3,0-0.6-0.1-0.8-0.2l0.2-0.5c0.2,0.1,0.4,0.2,0.6,0.2c0.3,0,0.5-0.1,0.5-0.4c0-0.3-0.4-0.5-0.9-0.5l0.5-0.9
				c-1.5-0.2-2.4-1.3-2.4-2.9c0-1.8,1.2-3.1,3.1-3.1c0.6,0,1.2,0.2,1.5,0.3l-0.2,0.8c-0.3-0.1-0.6-0.3-1.2-0.3c-1.3,0-2.1,1-2.1,2.2
				c0,1.3,0.9,2.2,2,2.2c0.6,0,1-0.2,1.3-0.3L251.5,81.6z"/>
			<path id="XMLID_407_" class="st2" d="M255.9,81.9l-0.1-0.7h0c-0.3,0.5-0.9,0.9-1.8,0.9c-1.2,0-1.8-0.8-1.8-1.7
				c0-1.4,1.2-2.2,3.5-2.2V78c0-0.5-0.1-1.3-1.3-1.3c-0.5,0-1.1,0.2-1.5,0.4l-0.2-0.7c0.5-0.3,1.2-0.5,1.9-0.5
				c1.8,0,2.2,1.2,2.2,2.4v2.2c0,0.5,0,1,0.1,1.4H255.9z M253.2,75.1c0-0.8,0.3-1.2,0.8-1.2c0.3,0,0.5,0.1,0.7,0.3
				c0.2,0.1,0.4,0.2,0.5,0.2c0.2,0,0.3-0.1,0.3-0.5h0.6c0,0.8-0.3,1.2-0.8,1.2c-0.3,0-0.5-0.1-0.7-0.2c-0.2-0.1-0.4-0.2-0.5-0.2
				c-0.2,0-0.3,0.2-0.3,0.5H253.2z M255.8,78.9c-1.2,0-2.5,0.2-2.5,1.3c0,0.7,0.5,1,1,1c0.8,0,1.2-0.5,1.4-1c0-0.1,0.1-0.2,0.1-0.3
				V78.9z"/>
			<path id="XMLID_404_" class="st2" d="M263.7,78.9c0,2.1-1.5,3.1-2.9,3.1c-1.6,0-2.8-1.2-2.8-3c0-1.9,1.3-3.1,2.9-3.1
				C262.6,75.9,263.7,77.1,263.7,78.9z M259.1,79c0,1.3,0.7,2.2,1.8,2.2c1,0,1.8-0.9,1.8-2.3c0-1-0.5-2.2-1.7-2.2
				C259.7,76.7,259.1,77.9,259.1,79z"/>
		</g>
	</g>
</g>
<g id="arrow-1">
	<g id="line-1">
		<g id="XMLID_17_">
			<line id="XMLID_20_" class="st5" x1="72.1" y1="32.6" x2="72.6" y2="32.6"/>
			<line id="XMLID_19_" class="st6" x1="77.6" y1="32.6" x2="87" y2="32.6"/>
			<line id="XMLID_18_" class="st5" x1="89.5" y1="32.6" x2="90" y2="32.6"/>
		</g>
	</g>
	<polyline id="arrow-head-1" class="st7" points="91.9,37.5 95.1,32.6 91.9,27.6 	"/>
</g>
<g id="arrow-2">
	<g id="line-2">
		<g id="XMLID_11_">
			<line id="XMLID_14_" class="st5" x1="172.3" y1="32.6" x2="172.8" y2="32.6"/>
			<line id="XMLID_13_" class="st6" x1="177.7" y1="32.6" x2="187.1" y2="32.6"/>
			<line id="XMLID_12_" class="st5" x1="189.6" y1="32.6" x2="190.1" y2="32.6"/>
		</g>
	</g>
	<polyline id="arrow-head-2" class="st7" points="192.1,37.5 195.3,32.6 192.1,27.6 	"/>
</g>
</svg>
