<?xml version="1.0" encoding="iso-8859-1"?>
<!-- Generator: Adobe Illustrator 19.0.0, SVG Export Plug-In . SVG Version: 6.00 Build 0)  -->
<svg version="1.1" id="Layer_3" xmlns="http://www.w3.org/2000/svg" xmlns:xlink="http://www.w3.org/1999/xlink" x="0px" y="0px"
	 viewBox="0 0 64 64" style="enable-background:new 0 0 64 64;" xml:space="preserve">
<style type="text/css">
	.st0{fill:#F6921E;}
	.st1{fill:#404041;}
	.st2{fill:#FFFFFF;}
</style>
<circle id="XMLID_347_" class="st0" cx="32" cy="32" r="31.5"/>
<g id="XMLID_131_">
	<ellipse id="XMLID_375_" class="st1" cx="22.9" cy="52.2" rx="6.4" ry="2.3"/>
	<ellipse id="XMLID_376_" class="st1" cx="41.1" cy="38.5" rx="6.4" ry="2.3"/>
	<path id="XMLID_373_" class="st1" d="M22.6,54.4c-0.8,0-1.5-0.7-1.5-1.5V25.3c0-0.8,0.7-1.5,1.5-1.5c0.8,0,1.5,0.7,1.5,1.5v27.6
		C24.1,53.7,23.4,54.4,22.6,54.4z"/>
	<path id="XMLID_374_" class="st1" d="M41.2,40c-0.8,0-1.5-0.7-1.5-1.5V10.9c0-0.8,0.7-1.5,1.5-1.5c0.8,0,1.5,0.7,1.5,1.5v27.6
		C42.6,39.3,42,40,41.2,40z"/>
	<polygon id="XMLID_377_" class="st2" points="22.6,27.6 41.2,12.5 41.2,17.4 23.5,31.8 	"/>
</g>
</svg>
