<?xml version="1.0" encoding="iso-8859-1"?>
<!-- Generator: Adobe Illustrator 19.0.0, SVG Export Plug-In . SVG Version: 6.00 Build 0)  -->
<svg version="1.1" id="start-svg" xmlns="http://www.w3.org/2000/svg" xmlns:xlink="http://www.w3.org/1999/xlink" x="0px" y="0px"
	 viewBox="0 0 230 230" style="enable-background:new 0 0 230 230;" xml:space="preserve">
<g id="start-icon-group">
	<g id="start-icon">
		<path id="XMLID_4_" style="fill:#E73B5E;" d="M56.6,56.2v113.3c0,0-0.7,14.2,9.4,20.2c0,0,8.1,9.4,27-0.7l97.1-57.3
			c0,0,6.7-6.7,6.7-15.5c0,0,0.7-10.8-10.8-15.5L89.6,38.6c0,0-10.1-4.7-20.2-0.7C69.4,37.9,56.6,43.3,56.6,56.2z"/>
	</g>
	<g id="start-icon-circle">
		<path style="fill:#E73B5E;" d="M115.6,229.2C52.6,229.2,1.4,178,1.4,115C1.4,52,52.6,0.8,115.6,0.8c63,0,114.2,51.2,114.2,114.2
			C229.8,178,178.5,229.2,115.6,229.2z M115.6,5.9C55.4,5.9,6.4,54.8,6.4,115s49,109.1,109.1,109.1s109.1-49,109.1-109.1
			S175.8,5.9,115.6,5.9z"/>
	</g>
	<g id="start-text-group">
		<path style="fill:#FFFFFF;" d="M79.4,121.2c0,0,2.5,2.2,5.2,2.2c1.1,0,2.3-0.4,2.3-1.7c0-2.6-9.8-2.5-9.8-9.2c0-4,3.4-6.6,7.7-6.6
			c4.7,0,7,2.5,7,2.5l-2.2,4.3c0,0-2.2-1.9-4.8-1.9c-1.1,0-2.3,0.5-2.3,1.7c0,2.7,9.8,2.2,9.8,9.1c0,3.6-2.8,6.7-7.6,6.7
			c-5.1,0-7.9-3.1-7.9-3.1L79.4,121.2z"/>
		<path style="fill:#FFFFFF;" d="M100,110.8h-6.6v-4.6h18.5v4.6h-6.6V128H100V110.8z"/>
		<path style="fill:#FFFFFF;" d="M124.2,123.4h-6.8l-1.3,4.6h-5.5l7.4-21.7h5.6L131,128h-5.5L124.2,123.4z M120.8,111.2
			c0,0-0.5,2.4-0.9,3.7l-1.2,4.2h4.3l-1.2-4.2C121.4,113.6,120.9,111.2,120.8,111.2L120.8,111.2z"/>
		<path style="fill:#FFFFFF;" d="M133.5,106.3h7.6c2.2,0,3.3,0.2,4.2,0.5c2.5,0.9,4,3.2,4,6.3c0,2.3-1.1,4.8-3.2,5.9v0.1
			c0,0,0.3,0.4,0.8,1.3l4.2,7.6h-5.9l-3.9-7.3h-2.5v7.3h-5.3V106.3z M141.1,116.1c1.7,0,2.8-0.9,2.8-2.7c0-1.6-0.6-2.6-3.3-2.6h-1.8
			v5.3H141.1z"/>
		<path id="XMLID_1_" style="fill:#FFFFFF;" d="M158.4,110.8h-6.6v-4.6h18.5v4.6h-6.6V128h-5.3V110.8z"/>
	</g>
</g>
</svg>
