<?xml version="1.0" encoding="iso-8859-1"?>
<!-- Generator: Adobe Illustrator 19.0.0, SVG Export Plug-In . SVG Version: 6.00 Build 0)  -->
<svg version="1.1" id="Layer_1" xmlns="http://www.w3.org/2000/svg" xmlns:xlink="http://www.w3.org/1999/xlink" x="0px" y="0px"
	 viewBox="0 0 64 64" style="enable-background:new 0 0 64 64;" xml:space="preserve">
<style type="text/css">
	.st0{fill:#FFFFFF;}
</style>
<g id="XMLID_438_">
	<g id="XMLID_229_">
		<path id="XMLID_449_" class="st0" d="M32,64C14.4,64,0,49.6,0,32C0,14.4,14.4,0,32,0c17.6,0,32,14.4,32,32C64,49.6,49.6,64,32,64z
			 M32,2C15.5,2,2,15.5,2,32c0,16.5,13.5,30,30,30c16.5,0,30-13.5,30-30C62,15.5,48.5,2,32,2z"/>
	</g>
	<g id="XMLID_228_">
		<path id="XMLID_445_" class="st0" d="M49.2,47H14.8c-2.1,0-3.8-1.7-3.8-3.8V21.9c0-2.1,1.7-3.8,3.8-3.8h9v-1.4
			c0-2.1,1.7-3.8,3.8-3.8h8.8c2.1,0,3.8,1.7,3.8,3.8V18h9c2.1,0,3.8,1.7,3.8,3.8v21.3C53,45.3,51.3,47,49.2,47z M14.8,20
			c-1,0-1.8,0.8-1.8,1.8v21.3c0,1,0.8,1.8,1.8,1.8h34.4c1,0,1.8-0.8,1.8-1.8V21.9c0-1-0.8-1.8-1.8-1.8h-10c-0.6,0-1-0.4-1-1v-2.4
			c0-1-0.8-1.8-1.8-1.8h-8.8c-1,0-1.8,0.8-1.8,1.8V19c0,0.6-0.4,1-1,1H14.8z"/>
	</g>
	<g id="XMLID_227_">
		<path id="XMLID_441_" class="st0" d="M32,41.9c-5.6,0-10.1-4.6-10.1-10.1S26.4,21.6,32,21.6s10.1,4.6,10.1,10.1S37.6,41.9,32,41.9
			z M32,23.6c-4.5,0-8.1,3.7-8.1,8.1s3.7,8.1,8.1,8.1s8.1-3.7,8.1-8.1S36.5,23.6,32,23.6z"/>
	</g>
</g>
</svg>
