<?xml version="1.0" encoding="iso-8859-1"?>
<!-- Generator: Adobe Illustrator 19.0.0, SVG Export Plug-In . SVG Version: 6.00 Build 0)  -->
<svg version="1.1" id="Layer_1" xmlns="http://www.w3.org/2000/svg" xmlns:xlink="http://www.w3.org/1999/xlink" x="0px" y="0px"
	 viewBox="0 0 64 64" style="enable-background:new 0 0 64 64;" xml:space="preserve">
<style type="text/css">
	.st0{fill:#FFFFFF;}
</style>
<g id="XMLID_235_">
	<g id="XMLID_253_">
		<path id="XMLID_491_" class="st0" d="M32,64C14.4,64,0,49.6,0,32C0,14.4,14.4,0,32,0c17.6,0,32,14.4,32,32C64,49.6,49.6,64,32,64z
			 M32,2C15.5,2,2,15.5,2,32c0,16.5,13.5,30,30,30c16.5,0,30-13.5,30-30C62,15.5,48.5,2,32,2z"/>
	</g>
	<g id="XMLID_247_">
		<g id="XMLID_252_">
			<path id="XMLID_489_" class="st0" d="M49.1,41c-2.5,0-4.5-2-4.5-4.5v-9.1c0-2.5,2-4.5,4.5-4.5c0.6,0,1,0.4,1,1s-0.4,1-1,1
				c-1.4,0-2.5,1.1-2.5,2.5v9.1c0,1.4,1.1,2.5,2.5,2.5c0.6,0,1,0.4,1,1S49.6,41,49.1,41z"/>
		</g>
		<g id="XMLID_251_">
			<path id="XMLID_485_" class="st0" d="M50.3,26.4c-1.3,0-2.4-1.1-2.4-2.4c0-1.3,1.1-2.4,2.4-2.4c1.3,0,2.4,1.1,2.4,2.4
				C52.7,25.4,51.6,26.4,50.3,26.4z M50.3,23.6c-0.2,0-0.4,0.2-0.4,0.4c0,0.2,0.2,0.4,0.4,0.4c0.2,0,0.4-0.2,0.4-0.4
				C50.7,23.8,50.5,23.6,50.3,23.6z"/>
		</g>
		<g id="XMLID_250_">
			<path id="XMLID_481_" class="st0" d="M50.3,42.4c-1.3,0-2.4-1.1-2.4-2.4c0-1.3,1.1-2.4,2.4-2.4c1.3,0,2.4,1.1,2.4,2.4
				C52.7,41.3,51.6,42.4,50.3,42.4z M50.3,39.6c-0.2,0-0.4,0.2-0.4,0.4c0,0.2,0.2,0.4,0.4,0.4c0.2,0,0.4-0.2,0.4-0.4
				C50.7,39.7,50.5,39.6,50.3,39.6z"/>
		</g>
		<g id="XMLID_249_">
			<path id="XMLID_477_" class="st0" d="M50.3,34.7c-1.3,0-2.4-1.1-2.4-2.4c0-1.3,1.1-2.4,2.4-2.4c1.3,0,2.4,1.1,2.4,2.4
				C52.7,33.6,51.6,34.7,50.3,34.7z M50.3,31.9c-0.2,0-0.4,0.2-0.4,0.4c0,0.2,0.2,0.4,0.4,0.4c0.2,0,0.4-0.2,0.4-0.4
				C50.7,32,50.5,31.9,50.3,31.9z"/>
		</g>
		<g id="XMLID_248_">
			<path id="XMLID_475_" class="st0" d="M48.9,33.3h-9c-0.6,0-1-0.4-1-1s0.4-1,1-1h9c0.6,0,1,0.4,1,1S49.4,33.3,48.9,33.3z"/>
		</g>
	</g>
	<g id="XMLID_241_">
		<g id="XMLID_246_">
			<path id="XMLID_472_" class="st0" d="M15,41.1c-0.6,0-1-0.4-1-1s0.4-1,1-1c1.4,0,2.5-1.1,2.5-2.5v-9.1c0-1.4-1.1-2.5-2.5-2.5
				c-0.6,0-1-0.4-1-1s0.4-1,1-1c2.5,0,4.5,2,4.5,4.5v9.1C19.5,39.1,17.5,41.1,15,41.1z"/>
		</g>
		<g id="XMLID_245_">
			<path id="XMLID_468_" class="st0" d="M13.8,42.4c-1.3,0-2.4-1.1-2.4-2.4c0-1.3,1.1-2.4,2.4-2.4c1.3,0,2.4,1.1,2.4,2.4
				C16.2,41.3,15.1,42.4,13.8,42.4z M13.8,39.6c-0.2,0-0.4,0.2-0.4,0.4c0,0.2,0.2,0.4,0.4,0.4c0.2,0,0.4-0.2,0.4-0.4
				C14.2,39.7,14,39.6,13.8,39.6z"/>
		</g>
		<g id="XMLID_244_">
			<path id="XMLID_464_" class="st0" d="M13.8,26.4c-1.3,0-2.4-1.1-2.4-2.4s1.1-2.4,2.4-2.4c1.3,0,2.4,1.1,2.4,2.4
				S15.1,26.4,13.8,26.4z M13.8,23.6c-0.2,0-0.4,0.2-0.4,0.4s0.2,0.4,0.4,0.4c0.2,0,0.4-0.2,0.4-0.4S14,23.6,13.8,23.6z"/>
		</g>
		<g id="XMLID_243_">
			<path id="XMLID_460_" class="st0" d="M13.8,34.2c-1.3,0-2.4-1.1-2.4-2.4c0-1.3,1.1-2.4,2.4-2.4c1.3,0,2.4,1.1,2.4,2.4
				C16.2,33.1,15.1,34.2,13.8,34.2z M13.8,31.3c-0.2,0-0.4,0.2-0.4,0.4c0,0.2,0.2,0.4,0.4,0.4c0.2,0,0.4-0.2,0.4-0.4
				C14.2,31.5,14,31.3,13.8,31.3z"/>
		</g>
		<g id="XMLID_242_">
			<path id="XMLID_458_" class="st0" d="M24.1,32.7h-8.9c-0.6,0-1-0.4-1-1s0.4-1,1-1h8.9c0.6,0,1,0.4,1,1S24.6,32.7,24.1,32.7z"/>
		</g>
	</g>
	<g id="XMLID_240_">
		<path id="XMLID_453_" class="st0" d="M32,40.4c-4.6,0-8.4-3.8-8.4-8.4s3.8-8.4,8.4-8.4c4.6,0,8.4,3.8,8.4,8.4S36.6,40.4,32,40.4z
			 M32,25.6c-3.5,0-6.4,2.9-6.4,6.4c0,3.5,2.9,6.4,6.4,6.4c3.5,0,6.4-2.9,6.4-6.4C38.4,28.5,35.5,25.6,32,25.6z"/>
	</g>
	<g id="XMLID_239_">
		<path id="XMLID_449_" class="st0" d="M32,17.4c-2.2,0-4.1-1.8-4.1-4.1c0-2.2,1.8-4.1,4.1-4.1c2.2,0,4.1,1.8,4.1,4.1
			C36.1,15.6,34.2,17.4,32,17.4z M32,11.3c-1.1,0-2.1,0.9-2.1,2.1s0.9,2.1,2.1,2.1c1.1,0,2.1-0.9,2.1-2.1S33.1,11.3,32,11.3z"/>
	</g>
	<g id="XMLID_238_">
		<path id="XMLID_447_" class="st0" d="M32,25.6c-0.6,0-1-0.4-1-1v-8.2c0-0.6,0.4-1,1-1c0.6,0,1,0.4,1,1v8.2
			C33,25.1,32.6,25.6,32,25.6z"/>
	</g>
	<g id="XMLID_237_">
		<path id="XMLID_443_" class="st0" d="M32,54.7c-2.2,0-4.1-1.8-4.1-4.1c0-2.2,1.8-4.1,4.1-4.1c2.2,0,4.1,1.8,4.1,4.1
			C36.1,52.9,34.2,54.7,32,54.7z M32,48.6c-1.1,0-2.1,0.9-2.1,2.1s0.9,2.1,2.1,2.1c1.1,0,2.1-0.9,2.1-2.1S33.1,48.6,32,48.6z"/>
	</g>
	<g id="XMLID_236_">
		<path id="XMLID_441_" class="st0" d="M32,48.6c-0.6,0-1-0.4-1-1v-8.2c0-0.6,0.4-1,1-1c0.6,0,1,0.4,1,1v8.2
			C33,48.1,32.6,48.6,32,48.6z"/>
	</g>
</g>
</svg>
