<?xml version="1.0" encoding="iso-8859-1"?>
<!-- Generator: Adobe Illustrator 19.0.0, SVG Export Plug-In . SVG Version: 6.00 Build 0)  -->
<svg version="1.1" id="Layer_1" xmlns="http://www.w3.org/2000/svg" xmlns:xlink="http://www.w3.org/1999/xlink" x="0px" y="0px"
	 viewBox="0 0 64 64" style="enable-background:new 0 0 64 64;" xml:space="preserve">
<style type="text/css">
	.st0{fill:#FFFFFF;}
</style>
<g id="XMLID_465_">
	<g id="XMLID_95_">
		<g id="XMLID_104_">
			<path id="XMLID_105_" class="st0" d="M32,64C14.4,64,0,49.6,0,32C0,14.4,14.4,0,32,0s32,14.4,32,32C64,49.6,49.6,64,32,64z M32,2
				C15.5,2,2,15.5,2,32c0,16.5,13.5,30,30,30s30-13.5,30-30C62,15.5,48.5,2,32,2z"/>
		</g>
		<g id="XMLID_100_">
			<path id="XMLID_101_" class="st0" d="M26.5,54.2c-0.2,0-0.4-0.1-0.5-0.2c-0.3-0.2-0.4-0.5-0.5-0.8L25,44.5l-4-0.1
				c-1.1-0.1-2-0.5-2.5-1.1c-0.5-0.6-0.6-1.3-0.6-1.6l-0.5-5.3l-3-2.2c-0.4-0.3-0.5-0.9-0.3-1.3l4-7.1C19.5,11,33.7,11.2,33.8,11.2
				C48.7,11.2,50,25.6,50,25.7c0,10-5.6,14.3-7.4,15.4l-0.2,6.3c0,0.4-0.3,0.8-0.6,0.9l-14.9,5.8C26.8,54.2,26.6,54.2,26.5,54.2z
				 M16.3,33l2.6,2c0.2,0.2,0.4,0.4,0.4,0.7l0.5,5.8c0,0.1,0,0.1,0,0.2c0,0.3,0.4,0.6,1.2,0.7l4.9,0.2c0.5,0,0.9,0.4,1,0.9l0.5,8.3
				l12.9-5.1l0.2-6.2c0-0.4,0.2-0.7,0.6-0.9c0.3-0.1,6.9-3.5,6.9-13.8c0-0.4-1.2-12.6-14.2-12.6c-0.6,0-12.5-0.1-13.7,12.9
				c0,0.1-0.1,0.3-0.1,0.4L16.3,33z"/>
		</g>
		<g id="XMLID_96_">
			<path id="XMLID_97_" class="st0" d="M30.1,32.6c-0.1,0-0.2,0-0.3-0.1c-0.5-0.2-0.7-0.6-0.7-1.1l0.9-6.8h-2.8
				c-0.3,0-0.6-0.1-0.8-0.4c-0.2-0.2-0.3-0.6-0.2-0.9l1.5-6.3c0.1-0.5,0.5-0.8,1-0.8h4.8c0.3,0,0.6,0.1,0.8,0.4
				c0.2,0.2,0.3,0.6,0.2,0.9l-0.4,1.6l2.6-0.1c0.3,0,0.7,0.2,0.9,0.5c0.2,0.3,0.2,0.7,0,1L31,32.1C30.8,32.4,30.5,32.6,30.1,32.6z
				 M28.5,22.7h2.7c0.3,0,0.6,0.1,0.8,0.3c0.2,0.2,0.3,0.5,0.2,0.8l-0.4,3l3.3-5.6l-2.1,0.1c-0.3,0-0.6-0.1-0.8-0.4
				c-0.2-0.2-0.3-0.6-0.2-0.9l0.4-1.7h-2.8L28.5,22.7z"/>
		</g>
	</g>
</g>
</svg>
