<?xml version="1.0" encoding="iso-8859-1"?>
<!-- Generator: Adobe Illustrator 19.0.0, SVG Export Plug-In . SVG Version: 6.00 Build 0)  -->
<svg version="1.1" id="Layer_1" xmlns="http://www.w3.org/2000/svg" xmlns:xlink="http://www.w3.org/1999/xlink" x="0px" y="0px"
	 viewBox="0 0 64 64" style="enable-background:new 0 0 64 64;" xml:space="preserve">
<style type="text/css">
	.st0{fill:#FFFFFF;}
</style>
<g id="XMLID_1_">
	<g id="XMLID_135_">
		<path id="XMLID_467_" class="st0" d="M32,64C14.4,64,0,49.6,0,32C0,14.4,14.4,0,32,0s32,14.4,32,32C64,49.6,49.6,64,32,64z M32,2
			C15.5,2,2,15.5,2,32c0,16.5,13.5,30,30,30s30-13.5,30-30C62,15.5,48.5,2,32,2z"/>
	</g>
	<g id="XMLID_40_">
		<g id="XMLID_134_">
			<path id="XMLID_463_" class="st0" d="M32,45.7c-2.4,0-4.9-1-6.8-2.7c-1.9-1.8-3-4.1-3-6.5l0-16c0-5.1,4.3-9.2,9.7-9.2
				c5.2,0,9.9,4.4,9.9,9.2v16C41.8,41.4,37.2,45.7,32,45.7C32,45.7,32,45.7,32,45.7z M31.9,13.4c-3.8,0-7.7,2.7-7.7,7.2l0,16
				c0,1.8,0.9,3.6,2.4,5c1.5,1.4,3.5,2.2,5.4,2.2c0,0,0,0,0,0c4.1,0,7.8-3.4,7.8-7.2v-16C39.8,16.8,36,13.4,31.9,13.4z"/>
		</g>
		<g id="XMLID_133_">
			<path id="XMLID_461_" class="st0" d="M31.9,50.1C31.9,50.1,31.9,50.1,31.9,50.1c-3.7,0-7.1-1.4-9.6-4c-2.4-2.5-3.7-5.9-3.6-9.5
				v-3.1c0-0.6,0.4-1,1-1s1,0.4,1,1v3.1c-0.1,3.1,1,5.9,3.1,8c2.1,2.2,5,3.4,8.1,3.4c0,0,0,0,0,0c3.1,0,6-1.2,8.1-3.3
				c2.1-2.1,3.3-5,3.3-8.1v-3.1c0-0.6,0.4-1,1-1c0.6,0,1,0.4,1,1v3.1c0,3.6-1.4,7-3.9,9.5C38.9,48.7,35.5,50.1,31.9,50.1z"/>
		</g>
		<g id="XMLID_132_">
			<path id="XMLID_459_" class="st0" d="M32,55.5c-0.6,0-1-0.4-1-1v-5.4c0-0.6,0.4-1,1-1c0.6,0,1,0.4,1,1v5.4
				C33,55,32.6,55.5,32,55.5z"/>
		</g>
		<g id="XMLID_115_">
			<path id="XMLID_457_" class="st0" d="M32,17.2c-0.6,0-1-0.4-1-1v-3.8c0-0.6,0.4-1,1-1c0.6,0,1,0.4,1,1v3.8
				C33,16.8,32.6,17.2,32,17.2z"/>
		</g>
		<g id="XMLID_114_">
			<path id="XMLID_455_" class="st0" d="M29.1,21.1h-5.9c-0.6,0-1-0.4-1-1c0-0.6,0.4-1,1-1h5.9c0.6,0,1,0.4,1,1
				C30.1,20.6,29.7,21.1,29.1,21.1z"/>
		</g>
		<g id="XMLID_113_">
			<path id="XMLID_453_" class="st0" d="M29.1,27.7h-5.9c-0.6,0-1-0.4-1-1s0.4-1,1-1h5.9c0.6,0,1,0.4,1,1S29.7,27.7,29.1,27.7z"/>
		</g>
		<g id="XMLID_112_">
			<path id="XMLID_451_" class="st0" d="M29.1,24.4h-5.9c-0.6,0-1-0.4-1-1s0.4-1,1-1h5.9c0.6,0,1,0.4,1,1S29.7,24.4,29.1,24.4z"/>
		</g>
		<g id="XMLID_110_">
			<path id="XMLID_449_" class="st0" d="M29.1,30.9h-5.9c-0.6,0-1-0.4-1-1s0.4-1,1-1h5.9c0.6,0,1,0.4,1,1S29.7,30.9,29.1,30.9z"/>
		</g>
		<g id="XMLID_109_">
			<path id="XMLID_447_" class="st0" d="M40.8,21.1h-6.1c-0.6,0-1-0.4-1-1c0-0.6,0.4-1,1-1h6.1c0.6,0,1,0.4,1,1
				C41.8,20.6,41.3,21.1,40.8,21.1z"/>
		</g>
		<g id="XMLID_107_">
			<path id="XMLID_445_" class="st0" d="M40.8,27.7h-6.1c-0.6,0-1-0.4-1-1s0.4-1,1-1h6.1c0.6,0,1,0.4,1,1S41.3,27.7,40.8,27.7z"/>
		</g>
		<g id="XMLID_106_">
			<path id="XMLID_443_" class="st0" d="M40.8,24.4h-6.1c-0.6,0-1-0.4-1-1s0.4-1,1-1h6.1c0.6,0,1,0.4,1,1S41.3,24.4,40.8,24.4z"/>
		</g>
		<g id="XMLID_104_">
			<path id="XMLID_441_" class="st0" d="M40.8,30.9h-6.1c-0.6,0-1-0.4-1-1s0.4-1,1-1h6.1c0.6,0,1,0.4,1,1S41.3,30.9,40.8,30.9z"/>
		</g>
	</g>
</g>
</svg>
