<?xml version="1.0" encoding="iso-8859-1"?>
<!-- Generator: Adobe Illustrator 19.0.0, SVG Export Plug-In . SVG Version: 6.00 Build 0)  -->
<svg version="1.1" id="Layer_1" xmlns="http://www.w3.org/2000/svg" xmlns:xlink="http://www.w3.org/1999/xlink" x="0px" y="0px"
	 viewBox="0 0 64 64" style="enable-background:new 0 0 64 64;" xml:space="preserve">
<style type="text/css">
	.st0{fill:#FFFFFF;}
</style>
<g id="XMLID_438_">
	<g id="XMLID_225_">
		<path id="XMLID_460_" class="st0" d="M32,64C14.4,64,0,49.6,0,32C0,14.4,14.4,0,32,0c17.6,0,32,14.4,32,32C64,49.6,49.6,64,32,64z
			 M32,2C15.5,2,2,15.5,2,32c0,16.5,13.5,30,30,30c16.5,0,30-13.5,30-30C62,15.5,48.5,2,32,2z"/>
	</g>
	<g id="XMLID_137_">
		<g id="XMLID_174_">
			<path id="XMLID_456_" class="st0" d="M21.3,32c-1.2,0-2.2-0.1-3.1-0.4c-0.9-0.3-1.8-0.7-2.6-1.3c-0.7-0.5-1.2-1.1-1.6-1.8
				c-0.4-0.8-0.7-1.5-0.7-2.3c0-0.9,0.3-1.8,0.9-2.4c0.2-0.2,0.5-0.5,0.8-0.6c0,0-0.1-0.1-0.1-0.1c-1.1-1.1-1.6-2.5-1.6-4.3
				c0-2,0.8-3.7,2.2-4.9c1.3-1.1,3.2-1.6,5.4-1.6c1,0,1.9,0.1,2.8,0.4c0.9,0.2,1.7,0.6,2.4,1.2c0.6,0.4,1.2,1,1.6,1.7
				c0.5,0.7,0.7,1.5,0.7,2.2c0,0.9-0.3,1.8-1,2.4c-0.1,0.1-0.3,0.2-0.4,0.3c0.6,0.5,1.1,1.1,1.5,1.7c0.5,0.8,0.7,1.9,0.7,3
				c0,2.1-0.8,3.8-2.3,5.1C25.4,31.4,23.6,32,21.3,32z M16.7,24.7c-0.4,0-0.7,0.1-1,0.4c-0.3,0.3-0.4,0.6-0.4,1.1
				c0,0.4,0.1,0.9,0.4,1.3c0.3,0.4,0.6,0.8,1.1,1.2c0.6,0.5,1.3,0.8,2,1c0.7,0.2,1.5,0.3,2.5,0.3c1.8,0,3.2-0.4,4.3-1.3
				c1.1-0.9,1.6-2,1.6-3.5c0-0.8-0.1-1.5-0.4-2.1c-0.3-0.6-0.8-1-1.4-1.4c-0.4-0.2-0.8-0.4-1.3-0.5c-0.5-0.2-1.3-0.4-2.3-0.6l-1-0.2
				c-1.7-0.4-2.5-1-2.5-1.8c0-0.6,0.2-1,0.7-1.3c0.4-0.3,1-0.5,1.8-0.5c0.5,0,1,0.1,1.4,0.2c0.4,0.2,0.7,0.4,1,0.7l0.3,0.4
				c0.5,0.7,1,1,1.6,1c0.4,0,0.7-0.1,1-0.4c0.3-0.2,0.4-0.6,0.4-1c0-0.4-0.1-0.8-0.4-1.2c-0.3-0.4-0.6-0.8-1-1.1
				c-0.5-0.4-1.2-0.7-1.8-0.9c-0.7-0.2-1.4-0.3-2.2-0.3c-1.8,0-3.2,0.4-4.2,1.2c-1,0.8-1.5,1.9-1.5,3.3c0,1.2,0.3,2.2,1,2.9
				c0.7,0.6,2,1.2,3.9,1.6c0,0,0,0,0,0l0.2,0c2,0.5,3.2,1,3.6,1.6c0.1,0.2,0.2,0.4,0.2,0.6c0,0.6-0.2,1.1-0.7,1.4
				c-0.5,0.3-1.2,0.5-2.1,0.5c-0.6,0-1.1-0.1-1.6-0.3c-0.4-0.2-0.8-0.4-1.1-0.8c-0.1-0.1-0.3-0.3-0.4-0.6
				C17.5,24.7,16.9,24.7,16.7,24.7z"/>
		</g>
		<g id="XMLID_141_">
			<path id="XMLID_452_" class="st0" d="M43.8,31.8c-1.1,0-2-0.3-2.6-0.9c-0.6-0.5-0.9-1.3-1.2-2.6c-0.2,1.2-0.6,2-1.1,2.6
				c-0.6,0.6-1.5,1-2.7,1c-1,0-1.8-0.2-2.4-0.8c-0.6-0.5-0.9-1.2-1.4-2.7l-3.1-10.8c-0.1-0.4-0.2-0.7-0.2-0.8c0-0.2-0.1-0.4-0.1-0.6
				c0-1.1,0.3-2,1-2.7c0.7-0.7,1.5-1,2.5-1c1.3,0,2,0.6,2.5,1c0.5,0.5,0.8,1.2,1.1,2.3l0.1,0.3l0-0.2c0.2-1.1,0.7-2,1.3-2.5
				c0.5-0.4,1.1-0.7,1.8-0.8c0.2-0.2,0.5-0.4,0.8-0.4h0c0.3,0,0.6,0.1,0.8,0.4c0.7,0.1,1.3,0.4,1.8,0.8c0.6,0.6,1,1.4,1.3,2.6l0,0
				c0.3-1.2,0.6-1.9,1.1-2.4c0.6-0.7,1.5-1.1,2.5-1.1c1.3,0,2.1,0.6,2.5,1C50.7,14.2,51,15,51,16c0,0.2,0,0.4-0.1,0.7
				c0,0.2-0.1,0.5-0.2,0.7l-3.1,10.9c0,0.1-0.1,0.2-0.1,0.3C46.7,31.5,44.7,31.8,43.8,31.8z M40,22.2C40,22.2,40,22.2,40,22.2
				c0.5,0,0.9,0.3,1,0.8l1,4.8c0.2,0.9,0.4,1.4,0.6,1.6c0.2,0.2,0.7,0.3,1.3,0.3c0.8,0,1.4-0.6,1.7-1.7c0-0.1,0.1-0.2,0.1-0.3
				l3.1-10.8c0-0.2,0.1-0.4,0.1-0.5c0-0.1,0-0.3,0-0.4c0-0.5-0.1-0.9-0.3-1.1c0,0,0,0,0,0c-0.2-0.3-0.6-0.4-1-0.4
				c-0.4,0-0.8,0.1-1,0.4c-0.2,0.3-0.5,0.8-0.7,1.7l-1,4.2c-0.1,0.5-0.5,0.8-1,0.8c-0.5,0-0.9-0.3-1-0.8L42,16.4
				c-0.2-0.8-0.4-1.3-0.7-1.5c-0.3-0.2-0.7-0.4-1.3-0.4c0,0,0,0,0,0c0,0,0,0-0.1,0c-0.6,0-1,0.1-1.2,0.4c-0.3,0.3-0.5,0.7-0.6,1.4
				l-0.9,4.5c-0.1,0.5-0.5,0.8-1,0.8c-0.5,0-0.9-0.3-1-0.8l-1.1-4.6c-0.2-0.7-0.4-1.1-0.6-1.4c-0.5-0.5-1.5-0.5-2.1,0
				c-0.3,0.3-0.4,0.7-0.4,1.2c0,0,0,0.2,0,0.3c0,0.1,0.1,0.3,0.2,0.6l3.1,10.7c0.3,0.9,0.5,1.5,0.7,1.7c0.2,0.2,0.6,0.3,1.1,0.3
				c0.4,0,1-0.1,1.3-0.4c0.2-0.3,0.4-0.8,0.6-1.6l1-4.8C39.1,22.6,39.5,22.2,40,22.2z"/>
		</g>
		<g id="XMLID_140_">
			<path id="XMLID_446_" class="st0" d="M22.3,52.6c-2.8,0-5.1-0.9-6.8-2.8c-1.7-1.8-2.5-4.2-2.5-7.1c0-2.9,0.8-5.3,2.5-7.1
				c1.7-1.8,4-2.8,6.8-2.8c2.8,0,5.1,0.9,6.8,2.8c1.7,1.8,2.5,4.2,2.5,7.1s-0.8,5.3-2.5,7.1C27.4,51.7,25.1,52.6,22.3,52.6z
				 M22.3,34.9c-2.2,0-4,0.7-5.3,2.1c-1.3,1.4-2,3.3-2,5.7c0,2.4,0.7,4.3,2,5.7c1.3,1.4,3.1,2.1,5.3,2.1c2.2,0,4-0.7,5.3-2.1
				c1.3-1.4,2-3.3,2-5.7c0-2.4-0.7-4.3-2-5.7C26.3,35.7,24.5,34.9,22.3,34.9z M22.3,48c-1.3,0-2.3-0.4-3.1-1.4
				c-0.7-0.9-1.1-2.2-1.1-3.8c0-1.6,0.4-2.9,1.1-3.8c0.7-0.9,1.8-1.4,3.1-1.4c1.3,0,2.3,0.4,3.1,1.4c0.7,0.9,1.1,2.2,1.1,3.8
				c0,1.6-0.4,2.9-1.1,3.8C24.7,47.5,23.7,48,22.3,48z M22.3,39.6c-0.9,0-1.3,0.3-1.5,0.6c-0.4,0.5-0.6,1.4-0.6,2.6
				c0,1.1,0.2,2,0.7,2.6c0.2,0.3,0.6,0.6,1.5,0.6c0.9,0,1.3-0.3,1.5-0.6c0.4-0.5,0.7-1.4,0.7-2.6c0-1.1-0.2-2-0.7-2.6
				C23.6,39.9,23.2,39.6,22.3,39.6z"/>
		</g>
		<g id="XMLID_139_">
			<path id="XMLID_442_" class="st0" d="M40.9,52.4c-1.1,0-2-0.4-2.6-1c-0.6-0.7-0.9-1.5-0.9-2.6V40h-1.1c-1,0-1.8-0.3-2.4-0.8
				c-0.5-0.4-1.1-1.2-1.1-2.5c0-1,0.4-1.9,1.1-2.5c0.6-0.6,1.4-0.8,2.4-0.8h9.3c1,0,1.8,0.3,2.5,0.8c0.7,0.6,1,1.5,1,2.5
				c0,1-0.4,1.9-1.1,2.5c-0.6,0.5-1.4,0.8-2.4,0.8h-1.1v8.8c0,1.1-0.3,1.9-0.9,2.6C42.9,52.1,42,52.4,40.9,52.4z M36.2,35.4
				c-0.5,0-0.9,0.1-1.1,0.3c-0.3,0.2-0.4,0.6-0.4,1c0,0.4,0.1,0.8,0.4,1c0.2,0.2,0.6,0.3,1.1,0.3h2.1c0.6,0,1,0.4,1,1v9.8
				c0,0.5,0.1,0.9,0.4,1.2c0.3,0.3,0.6,0.4,1.2,0.4c0.5,0,0.9-0.1,1.2-0.4c0.2-0.3,0.4-0.7,0.4-1.2V39c0-0.6,0.4-1,1-1h2.1
				c0.5,0,0.9-0.1,1.1-0.3c0.2-0.2,0.4-0.5,0.4-1c0-0.4-0.1-0.8-0.4-1c-0.3-0.2-0.6-0.3-1.1-0.3H36.2z"/>
		</g>
	</g>
</g>
</svg>
