<?xml version="1.0" encoding="iso-8859-1"?>
<!-- Generator: Adobe Illustrator 19.0.0, SVG Export Plug-In . SVG Version: 6.00 Build 0)  -->
<svg version="1.1" id="Layer_1" xmlns="http://www.w3.org/2000/svg" xmlns:xlink="http://www.w3.org/1999/xlink" x="0px" y="0px"
	 viewBox="0 0 64 64" style="enable-background:new 0 0 64 64;" xml:space="preserve">
<style type="text/css">
	.st0{fill:#FFFFFF;}
</style>
<g id="XMLID_465_">
	<g id="XMLID_331_">
		<g id="XMLID_332_">
			<path id="XMLID_500_" class="st0" d="M32,64C14.4,64,0,49.6,0,32C0,14.4,14.4,0,32,0s32,14.4,32,32C64,49.6,49.6,64,32,64z M32,2
				C15.5,2,2,15.5,2,32c0,16.5,13.5,30,30,30s30-13.5,30-30C62,15.5,48.5,2,32,2z"/>
		</g>
	</g>
	<g id="XMLID_330_">
		<path id="XMLID_495_" class="st0" d="M26.3,53.2c-0.2,0-0.4-0.1-0.5-0.2c-0.3-0.2-0.4-0.5-0.5-0.8l-0.4-8.2L21.1,44
			c-1.1-0.1-1.9-0.4-2.4-1.1c-0.5-0.6-0.6-1.3-0.6-1.6l-0.5-4.9l-2.8-2c-0.4-0.3-0.5-0.9-0.3-1.3l3.7-6.6
			c1.1-11,10.1-13.7,14.7-13.6c14,0,15.2,13.5,15.2,13.6c0,9.3-5.2,13.3-6.9,14.4l-0.2,5.9c0,0.4-0.3,0.8-0.6,0.9l-13.9,5.4
			C26.5,53.2,26.4,53.2,26.3,53.2z M16.8,33.3l2.4,1.8c0.2,0.2,0.4,0.4,0.4,0.7l0.5,5.5c0,0.1,0,0.1,0,0.2c0,0.3,0.4,0.5,1.1,0.5
			l4.6,0.2c0.5,0,0.9,0.4,1,0.9l0.4,7.7l12-4.7l0.1-5.8c0-0.4,0.2-0.7,0.6-0.9c0.3-0.1,6.4-3.2,6.4-12.8c0-0.4-1.1-11.7-13.2-11.7
			c-0.5,0-11.7-0.1-12.7,12c0,0.1-0.1,0.3-0.1,0.4L16.8,33.3z"/>
	</g>
	<g id="XMLID_329_">
		<path id="XMLID_491_" class="st0" d="M33.9,32.7c-4.3,0-7.9-3.5-7.9-7.9c0-4.3,3.5-7.9,7.9-7.9s7.9,3.5,7.9,7.9
			C41.8,29.2,38.3,32.7,33.9,32.7z M33.9,19c-3.2,0-5.9,2.6-5.9,5.9c0,3.2,2.6,5.9,5.9,5.9s5.9-2.6,5.9-5.9
			C39.8,21.6,37.2,19,33.9,19z"/>
	</g>
	<g id="XMLID_328_">
		<path id="XMLID_489_" class="st0" d="M28.7,20.6c-0.2,0-0.5-0.1-0.7-0.3l-5.7-5.5c-0.4-0.4-0.4-1,0-1.4c0.4-0.4,1-0.4,1.4,0
			l5.7,5.5c0.4,0.4,0.4,1,0,1.4C29.2,20.5,28.9,20.6,28.7,20.6z"/>
	</g>
	<g id="XMLID_327_">
		<path id="XMLID_487_" class="st0" d="M41.3,25.2c-0.4,0-0.8-0.3-1-0.7c-0.2-0.5,0.2-1.1,0.7-1.2l7.6-2.2c0.5-0.1,1.1,0.2,1.2,0.7
			c0.2,0.5-0.2,1.1-0.7,1.2l-7.6,2.2C41.5,25.2,41.4,25.2,41.3,25.2z"/>
	</g>
	<g id="XMLID_326_">
		<path id="XMLID_485_" class="st0" d="M38.1,20.1c-0.3,0-0.5-0.1-0.7-0.3c-0.4-0.4-0.4-1,0-1.4l5.6-5.5c0.4-0.4,1-0.4,1.4,0
			c0.4,0.4,0.4,1,0,1.4l-5.6,5.5C38.6,20,38.3,20.1,38.1,20.1z"/>
	</g>
	<g id="XMLID_325_">
		<path id="XMLID_483_" class="st0" d="M33.3,19C33.3,19,33.3,19,33.3,19c-0.6,0-1-0.5-1-1l0.2-7.9c0-0.5,0.5-1,1-1c0,0,0,0,0,0
			c0.6,0,1,0.5,1,1L34.3,18C34.3,18.6,33.9,19,33.3,19z"/>
	</g>
	<g id="XMLID_324_">
		<path id="XMLID_479_" class="st0" d="M21.3,15.1c-1.5,0-2.7-1.2-2.7-2.7s1.2-2.7,2.7-2.7c1.5,0,2.7,1.2,2.7,2.7
			S22.8,15.1,21.3,15.1z M21.3,11.6c-0.4,0-0.7,0.3-0.7,0.7s0.3,0.7,0.7,0.7c0.4,0,0.7-0.3,0.7-0.7S21.7,11.6,21.3,11.6z"/>
	</g>
	<g id="XMLID_323_">
		<path id="XMLID_475_" class="st0" d="M33.6,10.9c-1.5,0-2.7-1.2-2.7-2.7s1.2-2.7,2.7-2.7s2.7,1.2,2.7,2.7S35.1,10.9,33.6,10.9z
			 M33.6,7.5c-0.4,0-0.7,0.3-0.7,0.7s0.3,0.7,0.7,0.7s0.7-0.3,0.7-0.7S34,7.5,33.6,7.5z"/>
	</g>
	<g id="XMLID_322_">
		<path id="XMLID_471_" class="st0" d="M44.7,15c-1.5,0-2.7-1.2-2.7-2.7s1.2-2.7,2.7-2.7c1.5,0,2.7,1.2,2.7,2.7S46.2,15,44.7,15z
			 M44.7,11.5c-0.4,0-0.7,0.3-0.7,0.7s0.3,0.7,0.7,0.7c0.4,0,0.7-0.3,0.7-0.7S45.1,11.5,44.7,11.5z"/>
	</g>
	<g id="XMLID_321_">
		<path id="XMLID_467_" class="st0" d="M50.7,24.2c-1.5,0-2.7-1.2-2.7-2.7s1.2-2.7,2.7-2.7c1.5,0,2.7,1.2,2.7,2.7
			S52.2,24.2,50.7,24.2z M50.7,20.7c-0.4,0-0.7,0.3-0.7,0.7c0,0.4,0.3,0.7,0.7,0.7c0.4,0,0.7-0.3,0.7-0.7
			C51.5,21.1,51.1,20.7,50.7,20.7z"/>
	</g>
</g>
</svg>
