<?xml version="1.0" encoding="iso-8859-1"?>
<!-- Generator: Adobe Illustrator 19.0.0, SVG Export Plug-In . SVG Version: 6.00 Build 0)  -->
<svg version="1.1" id="Layer_1" xmlns="http://www.w3.org/2000/svg" xmlns:xlink="http://www.w3.org/1999/xlink" x="0px" y="0px"
	 viewBox="0 0 64 64" style="enable-background:new 0 0 64 64;" xml:space="preserve">
<style type="text/css">
	.st0{fill:#FFFFFF;}
</style>
<g id="XMLID_438_">
	<g id="XMLID_168_">
		<g id="XMLID_170_">
			<path id="XMLID_450_" class="st0" d="M21.4,47.6c-2.6,0-4.9-0.6-6.8-1.9c-2.2-1.5-3.3-3.3-3.3-5.4c0-1.3,0.4-2.4,1.3-3.3
				c0.4-0.5,0.9-0.8,1.5-1c-0.5-0.3-0.9-0.6-1.2-0.9c-0.7-0.8-1.1-2-1.1-3.3c0-0.2,0-0.5,0-0.6c0-0.2,0-0.3,0-0.5l0.9-7.3
				c0.2-1.9,0.8-3.1,1.7-3.8c0.9-0.7,2.2-1,4.2-1h8.7c1.3,0,2.4,0.4,3.2,1.1c0.8,0.8,1.3,1.9,1.3,3.2c0,1.3-0.4,2.4-1.3,3.2
				c-0.8,0.8-1.9,1.1-3.2,1.1H27c1.1,0.5,2.1,1.1,3,2c2,1.9,2.9,4.4,2.9,7.5c0,3.3-1.1,6-3.2,8C27.6,46.6,24.8,47.6,21.4,47.6z
				 M15.9,37.6c-0.7,0-1.3,0.3-1.8,0.8c-0.5,0.5-0.7,1.1-0.7,1.9c0,1.4,0.8,2.7,2.4,3.7c1.6,1,3.5,1.6,5.7,1.6
				c2.9,0,5.2-0.8,6.9-2.4c1.7-1.6,2.6-3.8,2.6-6.5c0-2.5-0.8-4.5-2.3-6.1c-1.6-1.5-3.6-2.3-6.1-2.3c-0.9,0-1.6,0.1-2.4,0.3
				c-0.3,0.1-0.7,0-0.9-0.2c-0.3-0.2-0.4-0.6-0.3-0.9l0.2-1.5c0.1-0.5,0.5-0.9,1-0.9h7.4c0.8,0,1.4-0.2,1.8-0.6
				c0.4-0.4,0.6-1,0.6-1.8c0-0.8-0.2-1.3-0.6-1.8c-0.4-0.4-1-0.6-1.8-0.6h-8.7c-1.5,0-2.4,0.2-2.9,0.6c-0.5,0.4-0.8,1.2-1,2.5
				l-0.9,7.3c0,0.1,0,0.2,0,0.4c0,0.1,0,0.3,0,0.5c0,0.9,0.2,1.6,0.6,2c0.4,0.5,1,0.7,1.8,0.7c0.2,0,0.7,0,2.4-0.9
				c1.1-0.5,2-0.8,2.8-0.8c1.2,0,2.1,0.4,2.8,1.1c0.7,0.7,1,1.7,1,3c0,1.4-0.3,2.4-1,3.2c-0.6,0.7-1.6,1.1-2.9,1.1
				c-0.7,0-1.3-0.1-1.7-0.4c-0.4-0.2-0.9-0.7-1.3-1.4c-0.5-0.7-0.9-1.2-1.2-1.4C16.8,37.7,16.3,37.6,15.9,37.6z M20.7,39
				c0,0,0.2,0.1,0.7,0.1c1,0,1.3-0.3,1.4-0.4c0.3-0.3,0.5-1,0.5-1.8c0-0.8-0.2-1.3-0.5-1.7c-0.2-0.2-0.5-0.4-1.3-0.4
				c-0.3,0-0.9,0.1-1.9,0.6c-0.7,0.3-1.2,0.6-1.6,0.7c0.1,0.1,0.3,0.1,0.4,0.2c0.6,0.4,1.2,1,1.8,2C20.4,38.9,20.7,39,20.7,39
				L20.7,39z"/>
		</g>
		<g id="XMLID_169_">
			<path id="XMLID_446_" class="st0" d="M41.8,47.2c-1.4,0-2.6-0.5-3.6-1.5c-1-1-1.5-2.2-1.5-3.6c0-1.4,0.5-2.6,1.5-3.6
				c0.1-0.1,0.2-0.2,0.3-0.3c-0.6-0.6-1.2-1.6-1.2-3.2c0-1,0.2-2,0.7-2.9c0.4-0.9,1.1-1.7,1.8-2.5c0.3-0.3,0.8-0.7,1.4-1.2
				c1.6-1.3,1.6-2,1.6-2.1c0-0.7-0.2-0.9-0.3-1c-0.1-0.1-0.2-0.2-0.8-0.2c-0.5,0-0.7,0.1-0.8,0.2c-0.1,0.1-0.3,0.2-0.4,0.5
				c-0.1,0.2-0.2,0.4-0.3,0.6c-1.4,2.8-3.5,3.2-4.7,3.2c-1.7,0-2.7-0.7-3.2-1.3c-0.8-0.8-1.2-1.9-1.2-3.2c0-1.1,0.3-2.1,0.8-3.2
				c0.5-1,1.2-1.9,2.1-2.7c1-1,2.2-1.7,3.5-2.2c1.3-0.5,2.7-0.7,4.2-0.7c3.2,0,5.8,0.9,7.8,2.6l0,0c2.1,1.8,3.1,4.2,3.1,7.2
				c0,1.3-0.2,2.5-0.6,3.5c-0.4,1-1.1,2-2,3c-0.4,0.5-1.1,1-2.1,1.8c-1,0.7-1.2,1.1-1.3,1.1c0,0.1-0.1,0.2-0.2,0.5
				c-0.3,0.8-0.3,0.9-0.4,1.1c-0.2,0.5-0.5,0.9-0.8,1.2c0.1,0.1,0.1,0.1,0.2,0.2c1,1,1.5,2.2,1.5,3.6c0,1.4-0.5,2.6-1.5,3.6
				C44.4,46.7,43.2,47.2,41.8,47.2z M41.8,23.2c1,0,1.7,0.3,2.2,0.9c0.5,0.6,0.8,1.4,0.8,2.3c0,1.1-0.8,2.4-2.4,3.6
				c-0.6,0.5-1,0.8-1.3,1.1c-0.6,0.6-1.1,1.2-1.4,1.9c-0.3,0.7-0.5,1.4-0.5,2c0,1,0.4,1.6,0.7,1.9c0.2,0.2,0.4,0.3,0.7,0.5
				c0.4,0.2,0.6,0.5,0.6,0.9c0,0.4-0.3,0.8-0.6,0.9c-0.4,0.2-0.7,0.4-1,0.7c-0.6,0.6-0.9,1.3-0.9,2.2c0,0.8,0.3,1.6,0.9,2.1
				c1.2,1.2,3.2,1.2,4.3,0c0.6-0.6,0.9-1.3,0.9-2.2c0-0.9-0.3-1.6-0.9-2.2c-0.3-0.3-0.6-0.5-1-0.7c-0.4-0.2-0.6-0.5-0.6-0.9
				c0-0.4,0.2-0.8,0.6-0.9c0.1,0,0.2-0.1,0.3-0.2c0.4-0.2,0.7-0.6,0.9-1c0-0.1,0.1-0.2,0.3-0.9c0.1-0.5,0.3-0.8,0.6-1.1
				c0.3-0.4,0.9-0.9,1.7-1.5c0.9-0.6,1.5-1.1,1.8-1.5c0.7-0.8,1.3-1.6,1.6-2.4c0.3-0.8,0.5-1.7,0.5-2.8c0-2.4-0.8-4.3-2.4-5.7l0,0
				c-1.6-1.4-3.8-2.1-6.5-2.1c-1.3,0-2.5,0.2-3.6,0.6c-1,0.4-2,1-2.8,1.8c-0.7,0.7-1.2,1.4-1.6,2.1c-0.4,0.8-0.6,1.5-0.6,2.3
				c0,0.8,0.2,1.4,0.6,1.9c0.4,0.5,1,0.7,1.8,0.7c1.2,0,2.2-0.7,2.9-2.1c0.2-0.3,0.3-0.5,0.4-0.7c0.3-0.5,0.7-0.9,1.2-1.2
				C40.5,23.4,41.1,23.2,41.8,23.2z"/>
		</g>
	</g>
	<g id="XMLID_167_">
		<path id="XMLID_441_" class="st0" d="M32,64C14.4,64,0,49.6,0,32C0,14.4,14.4,0,32,0c17.6,0,32,14.4,32,32C64,49.6,49.6,64,32,64z
			 M32,2C15.5,2,2,15.5,2,32c0,16.5,13.5,30,30,30c16.5,0,30-13.5,30-30C62,15.5,48.5,2,32,2z"/>
	</g>
</g>
</svg>
