<?xml version="1.0" encoding="iso-8859-1"?>
<!-- Generator: Adobe Illustrator 19.0.0, SVG Export Plug-In . SVG Version: 6.00 Build 0)  -->
<svg version="1.1" id="Layer_1" xmlns="http://www.w3.org/2000/svg" xmlns:xlink="http://www.w3.org/1999/xlink" x="0px" y="0px"
	 viewBox="0 0 64 64" style="enable-background:new 0 0 64 64;" xml:space="preserve">
<style type="text/css">
	.st0{fill:#FFFFFF;}
</style>
<g id="XMLID_452_">
	<g id="XMLID_165_">
		<path id="XMLID_470_" class="st0" d="M47.3,50.8H18.3c-0.6,0-1-0.4-1-1V13.9c0-0.6,0.4-1,1-1h21.8c0.2,0,0.5,0.1,0.7,0.3l7.2,6.5
			c0.2,0.2,0.3,0.5,0.3,0.7v29.3C48.3,50.3,47.8,50.8,47.3,50.8z M19.3,48.8h26.9V20.9l-6.6-6H19.3V48.8z"/>
	</g>
	<g id="XMLID_164_">
		<path id="XMLID_468_" class="st0" d="M47.3,21.5h-7.2c-0.6,0-1-0.4-1-1v-6.5c0-0.6,0.4-1,1-1s1,0.4,1,1v5.5h6.2c0.6,0,1,0.4,1,1
			C48.3,21,47.8,21.5,47.3,21.5z"/>
	</g>
	<g id="XMLID_163_">
		<path id="XMLID_464_" class="st0" d="M32,64C14.4,64,0,49.6,0,32C0,14.4,14.4,0,32,0s32,14.4,32,32C64,49.6,49.6,64,32,64z M32,2
			C15.5,2,2,15.5,2,32c0,16.5,13.5,30,30,30s30-13.5,30-30C62,15.5,48.5,2,32,2z"/>
	</g>
	<g id="XMLID_162_">
		<path id="XMLID_462_" class="st0" d="M42.3,25.9H23.4c-0.6,0-1-0.4-1-1c0-0.6,0.4-1,1-1h18.9c0.6,0,1,0.4,1,1
			C43.3,25.5,42.8,25.9,42.3,25.9z"/>
	</g>
	<g id="XMLID_161_">
		<path id="XMLID_460_" class="st0" d="M42.3,30.6H23.4c-0.6,0-1-0.4-1-1c0-0.6,0.4-1,1-1h18.9c0.6,0,1,0.4,1,1
			C43.3,30.2,42.8,30.6,42.3,30.6z"/>
	</g>
	<g id="XMLID_160_">
		<path id="XMLID_458_" class="st0" d="M42.3,35.3H23.4c-0.6,0-1-0.4-1-1s0.4-1,1-1h18.9c0.6,0,1,0.4,1,1S42.8,35.3,42.3,35.3z"/>
	</g>
	<g id="XMLID_159_">
		<path id="XMLID_456_" class="st0" d="M42.3,40H23.4c-0.6,0-1-0.4-1-1s0.4-1,1-1h18.9c0.6,0,1,0.4,1,1S42.8,40,42.3,40z"/>
	</g>
	<g id="XMLID_158_">
		<path id="XMLID_454_" class="st0" d="M42.3,44.7H23.4c-0.6,0-1-0.4-1-1s0.4-1,1-1h18.9c0.6,0,1,0.4,1,1S42.8,44.7,42.3,44.7z"/>
	</g>
</g>
</svg>
