<?xml version="1.0" encoding="iso-8859-1"?>
<!-- Generator: Adobe Illustrator 19.0.0, SVG Export Plug-In . SVG Version: 6.00 Build 0)  -->
<svg version="1.1" id="Layer_1" xmlns="http://www.w3.org/2000/svg" xmlns:xlink="http://www.w3.org/1999/xlink" x="0px" y="0px"
	 viewBox="0 0 64 64" style="enable-background:new 0 0 64 64;" xml:space="preserve">
<style type="text/css">
	.st0{fill:#FFFFFF;}
</style>
<g id="XMLID_465_">
	<g id="XMLID_319_">
		<path id="XMLID_495_" class="st0" d="M32,64C14.4,64,0,49.6,0,32C0,14.4,14.4,0,32,0c17.6,0,32,14.4,32,32C64,49.6,49.6,64,32,64z
			 M32,2C15.5,2,2,15.5,2,32c0,16.5,13.5,30,30,30c16.5,0,30-13.5,30-30C62,15.5,48.5,2,32,2z"/>
	</g>
	<g id="XMLID_318_">
		<path id="XMLID_491_" class="st0" d="M54,47.2H11.5c-0.6,0-1-0.4-1-1V16.1c0-0.6,0.4-1,1-1H54c0.6,0,1,0.4,1,1v30.1
			C55,46.8,54.5,47.2,54,47.2z M12.5,45.2H53V17.1H12.5V45.2z"/>
	</g>
	<g id="XMLID_317_">
		<path id="XMLID_487_" class="st0" d="M23.3,35.7h-6.8c-0.6,0-1-0.4-1-1v-5.3c0-0.6,0.4-1,1-1h6.8c0.6,0,1,0.4,1,1v5.3
			C24.3,35.2,23.9,35.7,23.3,35.7z M17.6,33.7h4.7v-3.3h-4.7V33.7z"/>
	</g>
	<g id="XMLID_316_">
		<path id="XMLID_483_" class="st0" d="M30.3,25.7h-6.8c-0.6,0-1-0.4-1-1v-5.3c0-0.6,0.4-1,1-1h6.8c0.6,0,1,0.4,1,1v5.3
			C31.3,25.2,30.9,25.7,30.3,25.7z M24.6,23.7h4.7v-3.3h-4.7V23.7z"/>
	</g>
	<g id="XMLID_312_">
		<path id="XMLID_479_" class="st0" d="M34.3,33.7h-6.8c-0.6,0-1-0.4-1-1v-5.3c0-0.6,0.4-1,1-1h6.8c0.6,0,1,0.4,1,1v5.3
			C35.3,33.2,34.9,33.7,34.3,33.7z M28.6,31.7h4.7v-3.3h-4.7V31.7z"/>
	</g>
	<g id="XMLID_311_">
		<path id="XMLID_475_" class="st0" d="M39.3,41.7h-6.8c-0.6,0-1-0.4-1-1v-5.3c0-0.6,0.4-1,1-1h6.8c0.6,0,1,0.4,1,1v5.3
			C40.3,41.2,39.9,41.7,39.3,41.7z M33.6,39.7h4.7v-3.3h-4.7V39.7z"/>
	</g>
	<g id="XMLID_310_">
		<path id="XMLID_471_" class="st0" d="M46.4,27.7h-6.8c-0.6,0-1-0.4-1-1v-5.3c0-0.6,0.4-1,1-1h6.8c0.6,0,1,0.4,1,1v5.3
			C47.4,27.2,46.9,27.7,46.4,27.7z M40.6,25.7h4.7v-3.3h-4.7V25.7z"/>
	</g>
	<g id="XMLID_309_">
		<path id="XMLID_467_" class="st0" d="M50.4,37.7h-6.8c-0.6,0-1-0.4-1-1v-5.3c0-0.6,0.4-1,1-1h6.8c0.6,0,1,0.4,1,1v5.3
			C51.4,37.2,50.9,37.7,50.4,37.7z M44.6,35.7h4.7v-3.3h-4.7V35.7z"/>
	</g>
</g>
</svg>
