<?xml version="1.0" encoding="iso-8859-1"?>
<!-- Generator: Adobe Illustrator 19.0.0, SVG Export Plug-In . SVG Version: 6.00 Build 0)  -->
<svg version="1.1" id="Layer_1" xmlns="http://www.w3.org/2000/svg" xmlns:xlink="http://www.w3.org/1999/xlink" x="0px" y="0px"
	 viewBox="0 0 64 64" style="enable-background:new 0 0 64 64;" xml:space="preserve">
<style type="text/css">
	.st0{fill:#FFFFFF;}
</style>
<g id="XMLID_423_">
	<g id="XMLID_199_">
		<path id="XMLID_438_" class="st0" d="M32,64C14.4,64,0,49.6,0,32C0,14.4,14.4,0,32,0s32,14.4,32,32C64,49.6,49.6,64,32,64z M32,2
			C15.5,2,2,15.5,2,32c0,16.5,13.5,30,30,30s30-13.5,30-30C62,15.5,48.5,2,32,2z"/>
	</g>
	<g id="XMLID_198_">
		<path id="XMLID_435_" class="st0" d="M50,42.9H14.3c-0.6,0-1-0.4-1-1v-3c0-0.6,0.4-1,1-1c0.6,0,1,0.4,1,1v2H49V22.5H15.3V32
			c0,0.6-0.4,1-1,1c-0.6,0-1-0.4-1-1V21.5c0-0.6,0.4-1,1-1H50c0.6,0,1,0.4,1,1v20.4C51,42.4,50.5,42.9,50,42.9z"/>
	</g>
	<g id="XMLID_197_">
		<path id="XMLID_433_" class="st0" d="M50.5,19.8H13.7c-0.6,0-1-0.4-1-1c0-0.6,0.4-1,1-1h36.8c0.6,0,1,0.4,1,1
			C51.5,19.4,51.1,19.8,50.5,19.8z"/>
	</g>
	<g id="XMLID_189_">
		<g id="XMLID_196_">
			<path id="XMLID_431_" class="st0" d="M24.4,51.2c-0.2,0-0.5-0.1-0.7-0.3c-0.4-0.4-0.4-1,0-1.4l7.7-8.1c0.4-0.4,1-0.4,1.4,0
				c0.4,0.4,0.4,1,0,1.4l-7.7,8.1C25,51.1,24.7,51.2,24.4,51.2z"/>
		</g>
		<g id="XMLID_195_">
			<path id="XMLID_428_" class="st0" d="M39.8,51c-0.2,0-0.5-0.1-0.7-0.3L31,43c-0.4-0.4-0.4-1,0-1.4c0.4-0.4,1-0.4,1.4,0l8.1,7.7
				c0.4,0.4,0.4,1,0,1.4C40.3,50.9,40.1,51,39.8,51z"/>
		</g>
	</g>
	<g id="XMLID_188_">
		<path id="XMLID_425_" class="st0" d="M10.4,38.7c-0.3,0-0.7-0.2-0.8-0.5c-0.3-0.5-0.2-1.1,0.3-1.4l9.5-6c0.5-0.3,1.1-0.2,1.4,0.3
			c0.3,0.5,0.2,1.1-0.3,1.4l-9.5,6C10.7,38.6,10.6,38.7,10.4,38.7z"/>
	</g>
</g>
</svg>
