<?xml version="1.0" encoding="iso-8859-1"?>
<!-- Generator: Adobe Illustrator 19.0.0, SVG Export Plug-In . SVG Version: 6.00 Build 0)  -->
<svg version="1.1" id="Layer_1" xmlns="http://www.w3.org/2000/svg" xmlns:xlink="http://www.w3.org/1999/xlink" x="0px" y="0px"
	 viewBox="0 0 64 64" style="enable-background:new 0 0 64 64;" xml:space="preserve">
<style type="text/css">
	.st0{fill:#FFFFFF;}
</style>
<g id="XMLID_423_">
	<g id="XMLID_187_">
		<path id="XMLID_434_" class="st0" d="M32,64C14.4,64,0,49.6,0,32C0,14.4,14.4,0,32,0s32,14.4,32,32C64,49.6,49.6,64,32,64z M32,2
			C15.5,2,2,15.5,2,32c0,16.5,13.5,30,30,30s30-13.5,30-30C62,15.5,48.5,2,32,2z"/>
	</g>
	<g id="XMLID_183_">
		<path id="XMLID_430_" class="st0" d="M32,42.3c-6.9,0-13.2-3.8-16.5-9.9c-0.2-0.3-0.2-0.7,0-1c3.3-6.1,9.6-9.9,16.5-9.9
			c6.9,0,13.2,3.8,16.5,9.9c0.2,0.3,0.2,0.7,0,1C45.2,38.6,38.9,42.3,32,42.3z M17.5,32c3,5.2,8.5,8.3,14.5,8.3
			c6,0,11.5-3.2,14.5-8.3c-3-5.2-8.5-8.3-14.5-8.3C26,23.7,20.5,26.8,17.5,32z"/>
	</g>
	<g id="XMLID_182_">
		<path id="XMLID_425_" class="st0" d="M32,37.8c-3.2,0-5.8-2.6-5.8-5.8c0-3.2,2.6-5.8,5.8-5.8c3.2,0,5.8,2.6,5.8,5.8
			C37.8,35.2,35.2,37.8,32,37.8z M32,28.2c-2.1,0-3.8,1.7-3.8,3.8c0,2.1,1.7,3.8,3.8,3.8c2.1,0,3.8-1.7,3.8-3.8
			C35.8,29.9,34.1,28.2,32,28.2z"/>
	</g>
</g>
</svg>
