<?xml version="1.0" encoding="iso-8859-1"?>
<!-- Generator: Adobe Illustrator 19.0.0, SVG Export Plug-In . SVG Version: 6.00 Build 0)  -->
<svg version="1.1" id="Layer_1" xmlns="http://www.w3.org/2000/svg" xmlns:xlink="http://www.w3.org/1999/xlink" x="0px" y="0px"
	 viewBox="0 0 64 64" style="enable-background:new 0 0 64 64;" xml:space="preserve">
<style type="text/css">
	.st0{fill:#FFFFFF;}
</style>
<g id="XMLID_465_">
	<g id="XMLID_470_">
		<g id="XMLID_350_">
			<path id="XMLID_483_" class="st0" d="M32,64C14.4,64,0,49.6,0,32C0,14.4,14.4,0,32,0c17.6,0,32,14.4,32,32C64,49.6,49.6,64,32,64
				z M32,2C15.5,2,2,15.5,2,32c0,16.5,13.5,30,30,30c16.5,0,30-13.5,30-30C62,15.5,48.5,2,32,2z"/>
		</g>
		<g id="XMLID_342_">
			<g id="XMLID_349_">
				<path id="XMLID_479_" class="st0" d="M19.8,45.9c-0.2,0-0.4-0.1-0.6-0.2c-0.3-0.2-0.4-0.6-0.4-1l1.8-9.2c0-0.2,0.1-0.3,0.2-0.5
					l14.9-17.3c1.9-2.2,5.3-2.5,7.5-0.5c1.1,0.9,1.7,2.2,1.8,3.6c0.1,1.4-0.4,2.8-1.3,3.9L28.9,42c-0.1,0.1-0.2,0.2-0.4,0.3
					l-8.3,3.6C20.1,45.9,20,45.9,19.8,45.9z M22.5,36.1l-1.4,7.1l6.4-2.7l14.8-17.1c0.6-0.7,0.9-1.5,0.8-2.4
					c-0.1-0.9-0.5-1.7-1.1-2.3c-1.4-1.2-3.5-1-4.7,0.3L22.5,36.1z"/>
			</g>
			<g id="XMLID_348_">
				<path id="XMLID_477_" class="st0" d="M28.1,41.8c-0.2,0-0.5-0.1-0.7-0.2l-5.6-4.8c-0.4-0.4-0.5-1-0.1-1.4c0.4-0.4,1-0.5,1.4-0.1
					l5.6,4.8c0.4,0.4,0.5,1,0.1,1.4C28.6,41.7,28.3,41.8,28.1,41.8z"/>
			</g>
			<g id="XMLID_344_">
				<path id="XMLID_475_" class="st0" d="M42.2,25.4c-0.2,0-0.5-0.1-0.7-0.2L36,20.4c-0.4-0.4-0.5-1-0.1-1.4c0.4-0.4,1-0.5,1.4-0.1
					l5.6,4.8c0.4,0.4,0.5,1,0.1,1.4C42.8,25.3,42.5,25.4,42.2,25.4z"/>
			</g>
			<g id="XMLID_343_">
				<path id="XMLID_473_" class="st0" d="M42.7,46.1H20.4c-0.6,0-1-0.4-1-1s0.4-1,1-1h22.3c0.6,0,1,0.4,1,1S43.3,46.1,42.7,46.1z"/>
			</g>
		</g>
	</g>
	<g id="XMLID_341_">
		<path id="XMLID_467_" class="st0" d="M19.4,29.8c-0.1,0-0.2,0-0.3-0.1c-0.5-0.2-0.7-0.6-0.7-1.1l0.9-6.8h-2.8
			c-0.3,0-0.6-0.1-0.8-0.4c-0.2-0.2-0.3-0.6-0.2-0.9l1.5-6.3c0.1-0.5,0.5-0.8,1-0.8h4.8c0.3,0,0.6,0.1,0.8,0.4
			c0.2,0.2,0.3,0.6,0.2,0.9l-0.4,1.6l2.6-0.1c0.3,0,0.7,0.2,0.9,0.5c0.2,0.3,0.2,0.7,0,1l-6.7,11.5C20,29.6,19.7,29.8,19.4,29.8z
			 M17.7,19.9h2.7c0.3,0,0.6,0.1,0.8,0.3c0.2,0.2,0.3,0.5,0.2,0.8L21,24l3.3-5.6l-2.1,0.1c-0.3,0-0.6-0.1-0.8-0.4
			c-0.2-0.2-0.3-0.6-0.2-0.9l0.4-1.7h-2.8L17.7,19.9z"/>
	</g>
</g>
</svg>
