<?xml version="1.0" encoding="iso-8859-1"?>
<!-- Generator: Adobe Illustrator 19.0.0, SVG Export Plug-In . SVG Version: 6.00 Build 0)  -->
<svg version="1.1" id="Layer_1" xmlns="http://www.w3.org/2000/svg" xmlns:xlink="http://www.w3.org/1999/xlink" x="0px" y="0px"
	 viewBox="0 0 64 64" style="enable-background:new 0 0 64 64;" xml:space="preserve">
<style type="text/css">
	.st0{fill:#FFFFFF;}
</style>
<g id="XMLID_423_">
	<g id="XMLID_179_">
		<path id="XMLID_452_" class="st0" d="M32,64C14.4,64,0,49.6,0,32C0,14.4,14.4,0,32,0s32,14.4,32,32C64,49.6,49.6,64,32,64z M32,2
			C15.5,2,2,15.5,2,32c0,16.5,13.5,30,30,30s30-13.5,30-30C62,15.5,48.5,2,32,2z"/>
	</g>
	<g id="XMLID_178_">
		<path id="XMLID_448_" class="st0" d="M51.4,46.8H12.6c-0.6,0-1-0.4-1-1V25.7c0-0.6,0.4-1,1-1h38.8c0.6,0,1,0.4,1,1v20.1
			C52.4,46.4,52,46.8,51.4,46.8z M13.6,44.8h36.8V26.7H13.6V44.8z"/>
	</g>
	<g id="XMLID_177_">
		<path id="XMLID_444_" class="st0" d="M27.5,41.8c-0.2,0-0.3,0-0.5-0.1c-0.3-0.2-0.5-0.5-0.5-0.9l0-11c0-0.4,0.2-0.7,0.5-0.9
			c0.3-0.2,0.7-0.2,1,0l8.9,5c0.3,0.2,0.5,0.5,0.5,0.8c0,0.3-0.2,0.7-0.4,0.9l-8.9,6C27.9,41.7,27.7,41.8,27.5,41.8z M28.5,31.5
			l0,7.4l6-4L28.5,31.5z"/>
	</g>
	<g id="XMLID_176_">
		<path id="XMLID_439_" class="st0" d="M23.3,24.1h-3.7c-0.6,0-1-0.4-1-1v-7.6c0-0.6,0.4-1,1-1h3.7c0.6,0,1,0.4,1,1v7.6
			C24.3,23.6,23.8,24.1,23.3,24.1z M20.6,22.1h1.7v-5.6h-1.7V22.1z"/>
	</g>
	<g id="XMLID_153_">
		<path id="XMLID_434_" class="st0" d="M30.3,24.1h-3.7c-0.6,0-1-0.4-1-1v-12c0-0.6,0.4-1,1-1h3.7c0.6,0,1,0.4,1,1v12
			C31.3,23.6,30.9,24.1,30.3,24.1z M27.6,22.1h1.7v-10h-1.7V22.1z"/>
	</g>
	<g id="XMLID_152_">
		<path id="XMLID_430_" class="st0" d="M37.3,24.1h-3.7c-0.6,0-1-0.4-1-1v-5.2c0-0.6,0.4-1,1-1h3.7c0.6,0,1,0.4,1,1v5.2
			C38.3,23.6,37.9,24.1,37.3,24.1z M34.6,22.1h1.7v-3.2h-1.7V22.1z"/>
	</g>
	<g id="XMLID_147_">
		<path id="XMLID_425_" class="st0" d="M44.3,24.1h-3.7c-0.6,0-1-0.4-1-1v-9.2c0-0.6,0.4-1,1-1h3.7c0.6,0,1,0.4,1,1v9.2
			C45.3,23.6,44.9,24.1,44.3,24.1z M41.6,22.1h1.7v-7.2h-1.7V22.1z"/>
	</g>
</g>
</svg>
