<?xml version="1.0" encoding="iso-8859-1"?>
<!-- Generator: Adobe Illustrator 19.0.0, SVG Export Plug-In . SVG Version: 6.00 Build 0)  -->
<svg version="1.1" id="Layer_1" xmlns="http://www.w3.org/2000/svg" xmlns:xlink="http://www.w3.org/1999/xlink" x="0px" y="0px"
	 viewBox="0 0 64 64" style="enable-background:new 0 0 64 64;" xml:space="preserve">
<style type="text/css">
	.st0{fill:#FFFFFF;}
</style>
<g id="XMLID_438_">
	<g id="XMLID_171_">
		<path id="XMLID_453_" class="st0" d="M32,64C14.4,64,0,49.6,0,32C0,14.4,14.4,0,32,0s32,14.4,32,32C64,49.6,49.6,64,32,64z M32,2
			C15.5,2,2,15.5,2,32c0,16.5,13.5,30,30,30s30-13.5,30-30C62,15.5,48.5,2,32,2z"/>
	</g>
	<g id="XMLID_166_">
		<path id="XMLID_449_" class="st0" d="M49.8,49.6H14.2c-0.6,0-1-0.4-1-1V30.2c0-0.6,0.4-1,1-1h35.6c0.6,0,1,0.4,1,1v18.5
			C50.8,49.2,50.3,49.6,49.8,49.6z M15.2,47.6h33.6V31.2H15.2V47.6z"/>
	</g>
	<g id="XMLID_156_">
		<path id="XMLID_445_" class="st0" d="M27.9,45c-0.2,0-0.3,0-0.5-0.1c-0.3-0.2-0.5-0.5-0.5-0.9l0-10.1c0-0.4,0.2-0.7,0.5-0.9
			c0.3-0.2,0.7-0.2,1,0l8.2,4.6c0.3,0.2,0.5,0.5,0.5,0.8c0,0.3-0.2,0.7-0.4,0.9l-8.2,5.5C28.3,44.9,28.1,45,27.9,45z M28.9,35.6
			l0,6.5l5.3-3.5L28.9,35.6z"/>
	</g>
	<g id="XMLID_155_">
		<path id="XMLID_441_" class="st0" d="M25.5,27.6c-0.2,0-0.4-0.1-0.6-0.2c-0.3-0.2-0.4-0.6-0.4-1l0.6-3c-1.9-1.5-2.9-3.4-2.9-5.4
			c0-4.4,4.9-8,10.9-8c6,0,10.9,3.6,10.9,8S39,26,33,26c-1,0-2-0.1-3-0.3l-4.1,1.9C25.8,27.6,25.6,27.6,25.5,27.6z M33,12.1
			c-4.9,0-8.9,2.7-8.9,5.9c0,1.5,0.9,3,2.6,4.2c0.3,0.2,0.5,0.6,0.4,1l-0.3,1.7l2.7-1.2c0.2-0.1,0.4-0.1,0.6-0.1
			c1,0.2,1.9,0.3,2.9,0.3c4.9,0,8.9-2.7,8.9-5.9C41.9,14.7,37.9,12.1,33,12.1z"/>
	</g>
</g>
</svg>
