<?xml version="1.0" encoding="iso-8859-1"?>
<!-- Generator: Adobe Illustrator 19.0.0, SVG Export Plug-In . SVG Version: 6.00 Build 0)  -->
<svg version="1.1" id="Layer_1" xmlns="http://www.w3.org/2000/svg" xmlns:xlink="http://www.w3.org/1999/xlink" x="0px" y="0px"
	 viewBox="0 0 64 64" style="enable-background:new 0 0 64 64;" xml:space="preserve">
<style type="text/css">
	.st0{fill:#FFFFFF;}
</style>
<g id="XMLID_465_">
	<g id="XMLID_307_">
		<path id="XMLID_496_" class="st0" d="M32,64C14.4,64,0,49.6,0,32C0,14.4,14.4,0,32,0c17.6,0,32,14.4,32,32C64,49.6,49.6,64,32,64z
			 M32,2C15.5,2,2,15.5,2,32c0,16.5,13.5,30,30,30c16.5,0,30-13.5,30-30C62,15.5,48.5,2,32,2z"/>
	</g>
	<g id="XMLID_306_">
		<path id="XMLID_492_" class="st0" d="M53.4,47.9H11.2c-0.6,0-1-0.4-1-1V17.1c0-0.6,0.4-1,1-1h42.2c0.6,0,1,0.4,1,1v29.7
			C54.4,47.4,53.9,47.9,53.4,47.9z M12.2,45.9h40.2V18.1H12.2V45.9z"/>
	</g>
	<g id="XMLID_303_">
		<g id="XMLID_305_">
			<path id="XMLID_488_" class="st0" d="M33.5,41.2h-3c-2.9,0-4.8-0.9-5.7-2.6c-2.2-4.2,2.9-11.5,3.5-12.3c0.2-0.3,0.5-0.4,0.8-0.4
				h6.3c0.3,0,0.6,0.1,0.8,0.4c0.6,0.8,5.8,7.9,3.7,12.1C38.9,40.2,36.8,41.2,33.5,41.2z M29.6,27.8c-1.5,2.3-4.3,7.4-3.1,9.8
				c0.5,1,1.8,1.5,3.9,1.5h3c2.5,0,4-0.6,4.6-1.7c1.2-2.5-1.7-7.5-3.2-9.6H29.6z"/>
		</g>
		<g id="XMLID_304_">
			<path id="XMLID_486_" class="st0" d="M33.6,27.5c-0.6,0-1-0.4-1-1v-1.7H32v1.5c0,0.6-0.4,1-1,1s-1-0.4-1-1v-2.5c0-0.6,0.4-1,1-1
				h2.7c0.6,0,1,0.4,1,1v2.7C34.6,27,34.2,27.5,33.6,27.5z"/>
		</g>
	</g>
	<g id="XMLID_300_">
		<g id="XMLID_302_">
			<path id="XMLID_481_" class="st0" d="M21,31h-4.5c-0.6,0-1-0.4-1-1v-4.5c0-0.6,0.4-1,1-1H21c0.6,0,1,0.4,1,1V30
				C22,30.5,21.6,31,21,31z M17.5,29H20v-2.5h-2.5V29z"/>
		</g>
		<g id="XMLID_301_">
			<path id="XMLID_477_" class="st0" d="M21,39.5h-4.5c-0.6,0-1-0.4-1-1V34c0-0.6,0.4-1,1-1H21c0.6,0,1,0.4,1,1v4.5
				C22,39.1,21.6,39.5,21,39.5z M17.5,37.5H20V35h-2.5V37.5z"/>
		</g>
	</g>
	<g id="XMLID_297_">
		<g id="XMLID_299_">
			<path id="XMLID_472_" class="st0" d="M47.8,30.8h-4.5c-0.6,0-1-0.4-1-1v-4.5c0-0.6,0.4-1,1-1h4.5c0.6,0,1,0.4,1,1v4.5
				C48.8,30.4,48.3,30.8,47.8,30.8z M44.3,28.8h2.5v-2.5h-2.5V28.8z"/>
		</g>
		<g id="XMLID_298_">
			<path id="XMLID_468_" class="st0" d="M47.8,39.7h-4.5c-0.6,0-1-0.4-1-1v-4.5c0-0.6,0.4-1,1-1h4.5c0.6,0,1,0.4,1,1v4.5
				C48.8,39.2,48.3,39.7,47.8,39.7z M44.3,37.7h2.5v-2.5h-2.5V37.7z"/>
		</g>
	</g>
</g>
</svg>
