<?xml version="1.0" encoding="iso-8859-1"?>
<!-- Generator: Adobe Illustrator 19.0.0, SVG Export Plug-In . SVG Version: 6.00 Build 0)  -->
<svg version="1.1" id="Layer_1" xmlns="http://www.w3.org/2000/svg" xmlns:xlink="http://www.w3.org/1999/xlink" x="0px" y="0px"
	 viewBox="0 0 60 60" style="enable-background:new 0 0 60 60;" xml:space="preserve">
<style type="text/css">
	.st0{fill:#5C2D91;}
</style>
<g>
	<g id="XMLID_100_">
		<g id="XMLID_109_">
			<path id="XMLID_110_" class="st0" d="M30,60C13.458,60,0,46.542,0,29.999C0,13.457,13.458,0,30,0s30,13.457,30,29.999
				C60,46.542,46.542,60,30,60z M30,1.879c-15.506,0-28.121,12.614-28.121,28.12c0,15.507,12.615,28.122,28.121,28.122
				s28.121-12.615,28.121-28.122C58.121,14.493,45.506,1.879,30,1.879z"/>
		</g>
		<g id="XMLID_105_">
			<path id="XMLID_106_" class="st0" d="M24.858,50.839c-0.178,0-0.354-0.05-0.507-0.149c-0.254-0.163-0.415-0.439-0.43-0.739
				l-0.451-8.266l-3.785-0.134c-1.075-0.081-1.856-0.429-2.36-1.037c-0.504-0.608-0.548-1.259-0.539-1.543l-0.454-4.984l-2.81-2.071
				c-0.381-0.281-0.494-0.803-0.261-1.216l3.716-6.625c1.335-13.786,14.573-13.607,14.705-13.592
				c13.949,0,15.167,13.501,15.178,13.637c0.003,9.402-5.265,13.361-6.977,14.4l-0.154,5.935c-0.01,0.377-0.245,0.712-0.596,0.85
				l-13.93,5.47C25.09,50.818,24.974,50.839,24.858,50.839z M15.303,30.895l2.482,1.83c0.216,0.159,0.353,0.404,0.378,0.671
				l0.499,5.472c0.006,0.063,0.005,0.127-0.002,0.19c-0.007,0.32,0.413,0.563,1.127,0.617l4.604,0.162
				c0.486,0.017,0.879,0.402,0.905,0.887l0.428,7.825l12.14-4.768l0.151-5.848c0.009-0.353,0.217-0.672,0.535-0.823
				c0.26-0.127,6.431-3.238,6.431-12.919c-0.037-0.411-1.109-11.832-13.326-11.832c-0.528-0.006-11.76-0.119-12.827,12.08
				c-0.012,0.133-0.051,0.261-0.117,0.378L15.303,30.895z"/>
		</g>
		<g id="XMLID_101_">
			<path id="XMLID_102_" class="st0" d="M28.245,30.536c-0.1,0-0.202-0.016-0.301-0.05c-0.424-0.143-0.687-0.565-0.631-1.009
				l0.81-6.352h-2.616c-0.287,0-0.559-0.131-0.738-0.357c-0.178-0.226-0.243-0.52-0.176-0.8l1.416-5.948
				c0.101-0.423,0.479-0.722,0.914-0.722h4.532c0.286,0,0.558,0.131,0.736,0.355c0.178,0.225,0.244,0.517,0.179,0.797l-0.357,1.538
				l2.445-0.085c0.328-0.044,0.663,0.161,0.839,0.456c0.176,0.293,0.179,0.659,0.006,0.954l-6.247,10.755
				C28.885,30.364,28.573,30.536,28.245,30.536z M26.696,21.246h2.494c0.27,0,0.527,0.116,0.705,0.318
				c0.178,0.203,0.261,0.472,0.227,0.74l-0.358,2.806l3.061-5.271l-1.971,0.069c-0.298,0.028-0.572-0.116-0.759-0.341
				c-0.185-0.226-0.256-0.525-0.189-0.81l0.367-1.581h-2.607L26.696,21.246z"/>
		</g>
	</g>
</g>
</svg>
