<?xml version="1.0" encoding="iso-8859-1"?>
<!-- Generator: Adobe Illustrator 19.0.0, SVG Export Plug-In . SVG Version: 6.00 Build 0)  -->
<svg version="1.1" id="collective-icon" xmlns="http://www.w3.org/2000/svg" xmlns:xlink="http://www.w3.org/1999/xlink" x="0px"
	 y="0px" viewBox="0 0 50 50" style="enable-background:new 0 0 50 50;" xml:space="preserve">
<g id="XMLID_14_">
	<path id="XMLID_15_" style="fill:#231F20;" d="M14.092,48.634c-0.298,0.149-0.894,0.298-1.657,0.298c-1.769,0-3.1-1.116-3.1-3.174
		c0-1.964,1.331-3.295,3.276-3.295c0.782,0,1.275,0.168,1.489,0.279l-0.195,0.661c-0.307-0.149-0.745-0.261-1.266-0.261
		c-1.47,0-2.448,0.94-2.448,2.588c0,1.535,0.884,2.522,2.411,2.522c0.493,0,0.996-0.103,1.322-0.261L14.092,48.634z"/>
	<path id="XMLID_17_" style="fill:#231F20;" d="M19.051,46.549c0,1.666-1.154,2.393-2.243,2.393c-1.219,0-2.16-0.894-2.16-2.317
		c0-1.508,0.987-2.393,2.234-2.393C18.176,44.232,19.051,45.172,19.051,46.549z M15.477,46.596c0,0.986,0.568,1.731,1.368,1.731
		c0.782,0,1.368-0.735,1.368-1.75c0-0.764-0.381-1.731-1.35-1.731C15.896,44.846,15.477,45.74,15.477,46.596z"/>
	<path id="XMLID_20_" style="fill:#231F20;" d="M20.081,42.231H20.9v6.608h-0.819V42.231z"/>
	<path id="XMLID_22_" style="fill:#231F20;" d="M22.732,46.736c0.019,1.107,0.726,1.563,1.545,1.563c0.586,0,0.94-0.103,1.248-0.232
		l0.14,0.586c-0.289,0.131-0.782,0.279-1.499,0.279c-1.387,0-2.215-0.912-2.215-2.271c0-1.359,0.801-2.43,2.113-2.43
		c1.47,0,1.862,1.294,1.862,2.122c0,0.168-0.02,0.298-0.028,0.382H22.732z M25.134,46.149c0.009-0.521-0.214-1.331-1.136-1.331
		c-0.828,0-1.191,0.764-1.256,1.331H25.134z"/>
	<path id="XMLID_25_" style="fill:#231F20;" d="M27.923,43.04v1.294h1.173v0.623h-1.173v2.43c0,0.559,0.158,0.875,0.614,0.875
		c0.214,0,0.372-0.028,0.475-0.056l0.037,0.614c-0.158,0.065-0.409,0.111-0.726,0.111c-0.382,0-0.688-0.121-0.885-0.344
		c-0.232-0.242-0.316-0.643-0.316-1.173v-2.458h-0.697v-0.623h0.697v-1.08L27.923,43.04z"/>
	<path id="XMLID_27_" style="fill:#231F20;" d="M30.928,43.069c0.009,0.279-0.195,0.502-0.521,0.502
		c-0.288,0-0.493-0.223-0.493-0.502c0-0.289,0.214-0.513,0.512-0.513C30.732,42.556,30.928,42.78,30.928,43.069z M30.016,48.839
		v-4.505h0.819v4.505H30.016z"/>
	<path id="XMLID_30_" style="fill:#231F20;" d="M32.509,44.334l0.884,2.531c0.149,0.41,0.271,0.782,0.363,1.154h0.028
		c0.102-0.372,0.232-0.744,0.381-1.154l0.875-2.531h0.856l-1.769,4.505h-0.781l-1.713-4.505H32.509z"/>
	<path id="XMLID_32_" style="fill:#231F20;" d="M40.65,46.549c0,1.666-1.153,2.393-2.243,2.393c-1.219,0-2.159-0.894-2.159-2.317
		c0-1.508,0.986-2.393,2.234-2.393C39.776,44.232,40.65,45.172,40.65,46.549z M37.076,46.596c0,0.986,0.568,1.731,1.369,1.731
		c0.781,0,1.368-0.735,1.368-1.75c0-0.764-0.382-1.731-1.35-1.731C37.495,44.846,37.076,45.74,37.076,46.596z"/>
</g>
<g>
	<g id="XMLID_169_">
		<path id="XMLID_185_" style="fill:#5c2d91;" d="M16.413,4.551c0,1.929-1.565,3.492-3.492,3.492c-1.93,0-3.493-1.563-3.493-3.492
			c0-1.93,1.563-3.493,3.493-3.493C14.849,1.058,16.413,2.621,16.413,4.551L16.413,4.551z M16.413,4.551"/>
		<path id="XMLID_182_" style="fill:#5c2d91;" d="M9.024,20.283H9.37v6.927c0,0.953,0.779,1.732,1.731,1.732h3.638
			c0.953,0,1.732-0.779,1.732-1.732v-0.404c-0.318-0.606-0.52-1.298-0.52-2.019v-9.064c0-1.76,1.068-3.291,2.598-3.955v-0.692
			c0-0.953-0.779-1.732-1.732-1.732H9.024c-0.953,0-1.732,0.779-1.732,1.732v7.475C7.291,19.503,8.041,20.283,9.024,20.283
			L9.024,20.283z M9.024,20.283"/>
		<path id="XMLID_179_" style="fill:#5c2d91;" d="M40.601,4.551c0,1.929-1.564,3.492-3.492,3.492c-1.93,0-3.493-1.563-3.493-3.492
			c0-1.93,1.563-3.493,3.493-3.493C39.037,1.058,40.601,2.621,40.601,4.551L40.601,4.551z M40.601,4.551"/>
		<path id="XMLID_176_" style="fill:#5c2d91;" d="M31.452,11.046v0.693c1.529,0.664,2.598,2.193,2.598,3.953v9.036
			c0,0.722-0.173,1.414-0.52,2.019v0.404c0,0.953,0.779,1.732,1.732,1.732h3.638c0.951,0,1.73-0.779,1.73-1.732v-6.927h0.347
			c0.953,0,1.732-0.779,1.732-1.732v-7.447c0-0.953-0.779-1.732-1.732-1.732h-7.792C32.231,9.313,31.452,10.093,31.452,11.046
			L31.452,11.046z M31.452,11.046"/>
		<path id="XMLID_173_" style="fill:#5c2d91;" d="M18.578,15.722v9.064c0,0.951,0.779,1.731,1.731,1.731h0.665v8.169
			c0,0.953,0.778,1.732,1.731,1.732h4.648c0.951,0,1.73-0.779,1.73-1.732v-8.197h0.664c0.953,0,1.732-0.779,1.732-1.732v-9.034
			c0-0.953-0.779-1.732-1.732-1.732h-9.439C19.328,13.99,18.578,14.769,18.578,15.722L18.578,15.722z M18.578,15.722"/>
		<path id="XMLID_170_" style="fill:#5c2d91;" d="M29.026,8.534c0,2.217-1.795,4.013-4.011,4.013c-2.216,0-4.013-1.796-4.013-4.013
			c0-2.216,1.797-4.011,4.013-4.011C27.23,4.523,29.026,6.318,29.026,8.534L29.026,8.534z M29.026,8.534"/>
	</g>
</g>
</svg>
