<?xml version="1.0" encoding="iso-8859-1"?>
<!-- Generator: Adobe Illustrator 19.0.0, SVG Export Plug-In . SVG Version: 6.00 Build 0)  -->
<svg version="1.1" id="Layer_1" xmlns="http://www.w3.org/2000/svg" xmlns:xlink="http://www.w3.org/1999/xlink" x="0px" y="0px"
	 viewBox="0 0 60 60" style="enable-background:new 0 0 60 60;" xml:space="preserve">
<style type="text/css">
	.st0{fill:#5C2D91;}
</style>
<g>
	<g id="XMLID_187_">
		<path class="st0" d="M30,58.982c-15.981,0-28.982-13.002-28.982-28.983C1.018,14.018,14.019,1.018,30,1.018
			s28.982,13.001,28.982,28.982C58.982,45.981,45.981,58.982,30,58.982z M30,2.833c-14.98,0-27.167,12.186-27.167,27.166
			C2.833,44.98,15.02,57.167,30,57.167S57.167,44.98,57.167,29.999C57.167,15.019,44.98,2.833,30,2.833z"/>
	</g>
	<g id="XMLID_183_">
		<path class="st0" d="M30,39.364c-6.255,0-11.991-3.423-14.968-8.932c-0.145-0.269-0.145-0.594,0-0.863
			c2.978-5.509,8.714-8.932,14.968-8.932c6.255,0,11.991,3.423,14.969,8.932c0.145,0.269,0.145,0.594,0,0.863
			C41.991,35.941,36.255,39.364,30,39.364z M16.871,30c2.722,4.669,7.707,7.549,13.129,7.549c5.423,0,10.409-2.88,13.13-7.549
			c-2.722-4.669-7.707-7.549-13.13-7.549C24.578,22.451,19.592,25.331,16.871,30z"/>
	</g>
	<g id="XMLID_182_">
		<path class="st0" d="M30,35.285c-2.913,0-5.284-2.371-5.284-5.284c0-2.914,2.371-5.285,5.284-5.285
			c2.914,0,5.285,2.371,5.285,5.285C35.285,32.914,32.914,35.285,30,35.285z M30,26.531c-1.913,0-3.469,1.556-3.469,3.47
			c0,1.913,1.556,3.469,3.469,3.469c1.913,0,3.47-1.556,3.47-3.469C33.47,28.087,31.913,26.531,30,26.531z"/>
	</g>
</g>
</svg>
