<?xml version="1.0" encoding="iso-8859-1"?>
<!-- Generator: Adobe Illustrator 19.0.0, SVG Export Plug-In . SVG Version: 6.00 Build 0)  -->
<svg version="1.1" id="Layer_2" xmlns="http://www.w3.org/2000/svg" xmlns:xlink="http://www.w3.org/1999/xlink" x="0px" y="0px"
	 viewBox="0 0 60 60" style="enable-background:new 0 0 60 60;" xml:space="preserve">
<style type="text/css">
	.st0{fill:#231F20;}
	.st1{fill:#5C2D91;}
</style>
<g id="XMLID_1_">
	<path id="XMLID_2_" class="st0" d="M8.651,49.752v7.528H7.679v-7.528H8.651z"/>
	<path id="XMLID_4_" class="st0" d="M10.426,53.338c0-0.559-0.011-1.017-0.045-1.464h0.872l0.056,0.894h0.022
		c0.268-0.514,0.894-1.017,1.787-1.017c0.748,0,1.91,0.447,1.91,2.302v3.228h-0.983v-3.116c0-0.871-0.324-1.598-1.251-1.598
		c-0.647,0-1.15,0.458-1.318,1.006c-0.044,0.123-0.067,0.29-0.067,0.458v3.25h-0.983V53.338z"/>
	<path id="XMLID_10_" class="st0" d="M21.292,49.35v6.534c0,0.48,0.011,1.028,0.044,1.396h-0.882l-0.045-0.938h-0.022
		c-0.302,0.604-0.96,1.062-1.843,1.062c-1.307,0-2.312-1.106-2.312-2.748c-0.011-1.798,1.106-2.904,2.424-2.904
		c0.827,0,1.385,0.392,1.631,0.827h0.022V49.35H21.292z M20.31,54.074c0-0.122-0.011-0.29-0.045-0.413
		c-0.145-0.625-0.681-1.139-1.418-1.139c-1.017,0-1.62,0.894-1.62,2.088c0,1.095,0.536,2,1.597,2c0.659,0,1.262-0.436,1.441-1.173
		c0.034-0.134,0.045-0.269,0.045-0.425V54.074z"/>
	<path id="XMLID_13_" class="st0" d="M24.016,50.355c0.011,0.335-0.235,0.603-0.625,0.603c-0.347,0-0.592-0.268-0.592-0.603
		c0-0.347,0.257-0.614,0.614-0.614C23.781,49.741,24.016,50.009,24.016,50.355z M22.921,57.28v-5.406h0.983v5.406H22.921z"/>
	<path id="XMLID_16_" class="st0" d="M25.914,51.874l1.061,3.038c0.179,0.492,0.324,0.938,0.436,1.385h0.034
		c0.123-0.446,0.279-0.893,0.458-1.385l1.05-3.038h1.027l-2.122,5.406h-0.938l-2.055-5.406H25.914z"/>
	<path id="XMLID_19_" class="st0" d="M31.999,50.355c0.011,0.335-0.234,0.603-0.626,0.603c-0.346,0-0.591-0.268-0.591-0.603
		c0-0.347,0.256-0.614,0.614-0.614C31.765,49.741,31.999,50.009,31.999,50.355z M30.905,57.28v-5.406h0.982v5.406H30.905z"/>
	<path id="XMLID_22_" class="st0" d="M38.186,49.35v6.534c0,0.48,0.011,1.028,0.045,1.396h-0.883l-0.045-0.938H37.28
		c-0.301,0.604-0.96,1.062-1.843,1.062c-1.307,0-2.312-1.106-2.312-2.748c-0.012-1.798,1.105-2.904,2.424-2.904
		c0.826,0,1.385,0.392,1.63,0.827h0.022V49.35H38.186z M37.202,54.074c0-0.122-0.011-0.29-0.044-0.413
		c-0.146-0.625-0.682-1.139-1.419-1.139c-1.017,0-1.619,0.894-1.619,2.088c0,1.095,0.536,2,1.597,2c0.659,0,1.263-0.436,1.441-1.173
		c0.033-0.134,0.044-0.269,0.044-0.425V54.074z"/>
	<path id="XMLID_25_" class="st0" d="M44.338,55.806c0,0.559,0.012,1.05,0.045,1.475h-0.871l-0.056-0.883h-0.022
		c-0.257,0.437-0.827,1.006-1.787,1.006c-0.85,0-1.865-0.47-1.865-2.368v-3.161h0.982v2.993c0,1.028,0.313,1.721,1.206,1.721
		c0.659,0,1.117-0.458,1.296-0.894c0.056-0.146,0.09-0.324,0.09-0.503v-3.317h0.982V55.806z"/>
	<path id="XMLID_27_" class="st0" d="M48.96,57.28l-0.078-0.682h-0.033c-0.302,0.425-0.883,0.805-1.653,0.805
		c-1.095,0-1.653-0.771-1.653-1.553c0-1.307,1.162-2.021,3.251-2.011v-0.111c0-0.447-0.123-1.251-1.229-1.251
		c-0.503,0-1.028,0.156-1.408,0.402l-0.223-0.648c0.446-0.29,1.094-0.48,1.775-0.48c1.653,0,2.056,1.129,2.056,2.212v2.021
		c0,0.47,0.022,0.928,0.089,1.296H48.96z M48.814,54.521c-1.072-0.022-2.289,0.168-2.289,1.218c0,0.637,0.424,0.938,0.927,0.938
		c0.704,0,1.15-0.446,1.307-0.904c0.034-0.101,0.056-0.212,0.056-0.313V54.521z"/>
	<path id="XMLID_30_" class="st0" d="M51.349,49.35h0.982v7.931h-0.982V49.35z"/>
</g>
<g>
	<g id="XMLID_57_">
		<path id="XMLID_61_" class="st1" d="M22.292,17.529v10.88c0,1.142,0.935,2.077,2.077,2.077h0.799v9.805
			c0,1.144,0.934,2.079,2.078,2.079h5.579c1.142,0,2.077-0.935,2.077-2.079v-9.839h0.797c1.144,0,2.079-0.935,2.079-2.079V17.529
			c0-1.144-0.935-2.079-2.079-2.079h-11.33C23.191,15.45,22.292,16.385,22.292,17.529L22.292,17.529z M22.292,17.529"/>
		<path id="XMLID_58_" class="st1" d="M34.832,8.901c0,2.661-2.155,4.816-4.815,4.816c-2.659,0-4.816-2.155-4.816-4.816
			c0-2.66,2.157-4.815,4.816-4.815C32.677,4.086,34.832,6.241,34.832,8.901L34.832,8.901z M34.832,8.901"/>
	</g>
</g>
</svg>
