<?xml version="1.0" encoding="iso-8859-1"?>
<!-- Generator: Adobe Illustrator 19.0.0, SVG Export Plug-In . SVG Version: 6.00 Build 0)  -->
<svg version="1.1" id="intro-svg" class="intro-svg" xmlns="http://www.w3.org/2000/svg" xmlns:xlink="http://www.w3.org/1999/xlink" x="0px"
	 y="0px" viewBox="0 0 415.961 442.593" style="enable-background:new 0 0 415.961 442.593;" xml:space="preserve">
<g id="dashed-path-group">
	
		<rect x="122.173" y="-56.074" transform="matrix(0.7235 0.6903 -0.6903 0.7235 -3.8098 -99.7683)" style="fill:#FFFFFF;" width="0.956" height="2.867"/>
	<path style="fill:#FFFFFF;" d="M-88.21,167.079l-0.691-0.659l3.893-4.081l0.691,0.659L-88.21,167.079z M-80.424,158.917
		l-0.691-0.659l3.893-4.081l0.691,0.66L-80.424,158.917z M-72.638,150.757l-0.691-0.66l3.893-4.081l0.691,0.66L-72.638,150.757z
		 M-64.852,142.596l-0.691-0.66l3.892-4.081l0.692,0.66L-64.852,142.596z M-57.067,134.435l-0.691-0.66l3.893-4.081l0.691,0.66
		L-57.067,134.435z M-49.281,126.273l-0.691-0.66l3.893-4.081l0.691,0.66L-49.281,126.273z M-41.495,118.112l-0.692-0.66
		l3.893-4.081l0.691,0.66L-41.495,118.112z M-33.709,109.951l-0.691-0.66l3.893-4.081l0.691,0.66L-33.709,109.951z M-25.923,101.79
		l-0.691-0.66l3.893-4.08l0.691,0.66L-25.923,101.79z M-18.138,93.629l-0.691-0.66l3.893-4.08l0.691,0.66L-18.138,93.629z
		 M-10.352,85.467l-0.692-0.66l3.893-4.08l0.692,0.66L-10.352,85.467z M-2.566,77.306l-0.691-0.66l3.893-4.081l0.691,0.66
		L-2.566,77.306z M5.22,69.145l-0.691-0.66l3.893-4.081l0.692,0.66L5.22,69.145z M13.006,60.984l-0.692-0.66l3.893-4.081l0.691,0.66
		L13.006,60.984z M20.792,52.822l-0.691-0.66l3.892-4.081l0.691,0.66L20.792,52.822z M28.577,44.661l-0.691-0.66l3.893-4.08
		l0.692,0.66L28.577,44.661z M36.363,36.5l-0.691-0.66l3.893-4.081l0.692,0.66L36.363,36.5z M44.149,28.339l-0.691-0.66l3.892-4.081
		l0.692,0.66L44.149,28.339z M51.935,20.177l-0.692-0.66l3.893-4.08l0.691,0.66L51.935,20.177z M59.721,12.016l-0.691-0.66
		l3.893-4.081l0.691,0.66L59.721,12.016z M67.506,3.855l-0.691-0.66l3.893-4.081l0.691,0.66L67.506,3.855z M75.292-4.306
		l-0.691-0.66l3.893-4.081l0.691,0.66L75.292-4.306z M83.078-12.467l-0.691-0.66l3.893-4.081l0.691,0.66L83.078-12.467z
		 M90.864-20.629l-0.691-0.66l3.893-4.08l0.691,0.66L90.864-20.629z M98.65-28.79l-0.691-0.66l3.893-4.081l0.691,0.66L98.65-28.79z
		 M106.436-36.951l-0.692-0.66l3.893-4.081l0.691,0.66L106.436-36.951z M114.221-45.112l-0.691-0.66l3.893-4.081l0.691,0.66
		L114.221-45.112z"/>
	<polygon style="fill:#FFFFFF;" points="-91.888,174.318 -95.28,173.107 -92.794,170.5 -92.103,171.159 -93.574,172.702 
		-91.567,173.418 	"/>
	<path style="fill:#FFFFFF;" d="M312.842,318.769l-5.469-1.952l0.321-0.9l5.469,1.952L312.842,318.769z M301.903,314.865
		l-5.469-1.952l0.321-0.9l5.469,1.952L301.903,314.865z M290.965,310.961l-5.47-1.952l0.321-0.9l5.47,1.952L290.965,310.961z
		 M280.026,307.057l-5.469-1.952l0.321-0.9l5.469,1.952L280.026,307.057z M269.087,303.153l-5.469-1.952l0.321-0.9l5.469,1.952
		L269.087,303.153z M258.149,299.249l-5.469-1.952l0.321-0.9l5.469,1.952L258.149,299.249z M247.21,295.345l-5.469-1.952l0.321-0.9
		l5.469,1.952L247.21,295.345z M236.272,291.441l-5.47-1.952l0.321-0.9l5.47,1.952L236.272,291.441z M225.333,287.536l-5.469-1.952
		l0.321-0.9l5.469,1.952L225.333,287.536z M214.394,283.632l-5.469-1.952l0.321-0.9l5.469,1.952L214.394,283.632z M203.456,279.728
		l-5.47-1.952l0.321-0.9l5.47,1.952L203.456,279.728z M192.517,275.824l-5.469-1.952l0.321-0.9l5.469,1.952L192.517,275.824z
		 M181.578,271.92l-5.469-1.952l0.321-0.9l5.469,1.952L181.578,271.92z M170.64,268.016l-5.47-1.952l0.321-0.9l5.47,1.952
		L170.64,268.016z M159.701,264.112l-5.469-1.952l0.321-0.9l5.469,1.952L159.701,264.112z M148.763,260.208l-5.47-1.952l0.321-0.9
		l5.47,1.952L148.763,260.208z M137.824,256.304l-5.469-1.952l0.321-0.9l5.469,1.952L137.824,256.304z M126.885,252.4l-5.469-1.952
		l0.321-0.9l5.469,1.952L126.885,252.4z M115.946,248.495l-5.469-1.952l0.321-0.9l5.469,1.952L115.946,248.495z M105.008,244.591
		l-5.469-1.952l0.321-0.899l5.469,1.952L105.008,244.591z M94.069,240.687l-5.47-1.952l0.321-0.9l5.47,1.952L94.069,240.687z
		 M83.131,236.783l-5.47-1.952l0.321-0.9l5.47,1.952L83.131,236.783z M72.192,232.879l-5.469-1.952l0.321-0.899l5.469,1.952
		L72.192,232.879z M61.253,228.975l-5.469-1.952l0.321-0.9l5.469,1.952L61.253,228.975z M50.315,225.071l-5.469-1.952l0.321-0.9
		l5.469,1.952L50.315,225.071z M39.376,221.167l-5.469-1.952l0.321-0.9l5.47,1.952L39.376,221.167z M28.437,217.263l-5.469-1.952
		l0.321-0.9l5.469,1.952L28.437,217.263z M17.498,213.359l-5.469-1.952l0.321-0.9l5.469,1.952L17.498,213.359z M6.56,209.454
		l-5.469-1.952l0.321-0.9l5.469,1.952L6.56,209.454z M-4.379,205.55l-5.469-1.952l0.321-0.899l5.47,1.952L-4.379,205.55z
		 M-15.317,201.646l-5.47-1.952l0.321-0.9l5.469,1.952L-15.317,201.646z M-26.256,197.742l-5.47-1.952l0.321-0.9l5.47,1.952
		L-26.256,197.742z M-37.195,193.839l-5.469-1.952l0.321-0.9l5.469,1.952L-37.195,193.839z M-48.133,189.934l-5.469-1.952l0.321-0.9
		l5.469,1.952L-48.133,189.934z M-59.072,186.03l-5.47-1.952l0.321-0.9l5.47,1.952L-59.072,186.03z M-70.01,182.126l-5.469-1.952
		l0.321-0.9l5.469,1.952L-70.01,182.126z M-80.949,178.222l-5.47-1.952l0.321-0.9l5.469,1.952L-80.949,178.222z"/>
	<polygon style="fill:#FFFFFF;" points="323.488,322.57 318.311,320.721 318.632,319.822 318.855,319.901 318.674,319.749 
		319.292,319.019 	"/>
	<path style="fill:#FFFFFF;" d="M314.293,316.041l-4.382-3.708l0.618-0.73l4.382,3.708L314.293,316.041z M305.529,308.624
		l-4.382-3.708l0.618-0.73l4.382,3.708L305.529,308.624z M296.765,301.208l-4.382-3.708l0.618-0.73l4.382,3.708L296.765,301.208z
		 M288.001,293.791l-4.382-3.708l0.618-0.73l4.382,3.708L288.001,293.791z M279.237,286.376l-4.382-3.708l0.618-0.73l4.382,3.708
		L279.237,286.376z M270.473,278.959l-4.382-3.708l0.618-0.73l4.382,3.708L270.473,278.959z M261.709,271.543l-4.382-3.708
		l0.618-0.73l4.382,3.708L261.709,271.543z M252.945,264.126l-4.382-3.708l0.618-0.73l4.382,3.708L252.945,264.126z M244.181,256.71
		l-4.382-3.708l0.618-0.73l4.382,3.708L244.181,256.71z M235.417,249.293l-4.382-3.708l0.618-0.73l4.382,3.708L235.417,249.293z
		 M226.653,241.877l-4.382-3.708l0.618-0.73l4.382,3.708L226.653,241.877z M217.89,234.461l-4.382-3.708l0.618-0.73l4.382,3.708
		L217.89,234.461z M209.126,227.045l-4.382-3.708l0.618-0.73l4.382,3.708L209.126,227.045z M200.362,219.628l-4.382-3.708
		l0.618-0.73l4.382,3.708L200.362,219.628z M191.598,212.212l-4.382-3.708l0.618-0.73l4.382,3.708L191.598,212.212z
		 M182.834,204.796l-4.382-3.708l0.618-0.73l4.382,3.708L182.834,204.796z M174.07,197.379l-4.382-3.708l0.618-0.73l4.382,3.708
		L174.07,197.379z M165.306,189.962l-4.382-3.708l0.618-0.73l4.382,3.708L165.306,189.962z M156.542,182.546l-4.382-3.707
		l0.618-0.73l4.382,3.707L156.542,182.546z M147.778,175.131l-4.382-3.708l0.618-0.73l4.382,3.708L147.778,175.131z
		 M139.015,167.714l-4.382-3.708l0.618-0.73l4.382,3.708L139.015,167.714z M130.251,160.298l-4.382-3.708l0.617-0.73l4.382,3.708
		L130.251,160.298z M121.487,152.881l-4.382-3.708l0.617-0.73l4.382,3.708L121.487,152.881z M112.723,145.465l-4.382-3.708
		l0.617-0.73l4.382,3.708L112.723,145.465z M103.959,138.049l-4.382-3.708l0.617-0.73l4.382,3.708L103.959,138.049z M95.195,130.632
		l-4.382-3.708l0.617-0.73l4.382,3.708L95.195,130.632z M86.432,123.216l-4.382-3.708l0.617-0.73l4.382,3.708L86.432,123.216z
		 M77.668,115.8l-4.382-3.708l0.617-0.73l4.382,3.708L77.668,115.8z M68.904,108.383l-4.382-3.708l0.617-0.73l4.382,3.708
		L68.904,108.383z M60.14,100.967l-4.382-3.708l0.617-0.73l4.382,3.708L60.14,100.967z M51.376,93.55l-4.382-3.708l0.617-0.73
		l4.382,3.708L51.376,93.55z M42.612,86.134l-4.382-3.708l0.617-0.73l4.382,3.708L42.612,86.134z M33.848,78.718l-4.382-3.708
		l0.617-0.73l4.382,3.708L33.848,78.718z M25.084,71.301l-4.382-3.708l0.617-0.73l4.382,3.708L25.084,71.301z M16.32,63.885
		l-4.382-3.708l0.617-0.73l4.382,3.708L16.32,63.885z M7.556,56.469l-4.382-3.708l0.617-0.73l4.382,3.708L7.556,56.469z
		 M-1.207,49.052l-4.382-3.708l0.617-0.73l4.382,3.708L-1.207,49.052z M-9.971,41.636l-4.382-3.708l0.617-0.73l4.382,3.708
		L-9.971,41.636z M-18.735,34.22l-4.382-3.708l0.617-0.73l4.382,3.708L-18.735,34.22z M-27.499,26.803l-4.382-3.708l0.617-0.73
		l4.382,3.708L-27.499,26.803z M-36.263,19.387l-4.382-3.708l0.617-0.73l4.382,3.708L-36.263,19.387z"/>
	
		<rect x="13.357" y="144.136" transform="matrix(-0.424 -0.9057 0.9057 -0.424 -107.8767 220.6142)" style="fill:#FFFFFF;" width="5.727" height="0.955"/>
	
		<rect x="8.501" y="133.762" transform="matrix(-0.424 -0.9057 0.9057 -0.424 -105.3962 201.4449)" style="fill:#FFFFFF;" width="5.727" height="0.955"/>
	
		<rect x="18.213" y="154.51" transform="matrix(-0.424 -0.9057 0.9057 -0.424 -110.3567 239.7845)" style="fill:#FFFFFF;" width="5.727" height="0.955"/>
	
		<rect x="37.636" y="196.004" transform="matrix(-0.424 -0.9057 0.9057 -0.424 -120.2772 316.4648)" style="fill:#FFFFFF;" width="5.727" height="0.955"/>
	
		<rect x="23.068" y="164.883" transform="matrix(-0.424 -0.9057 0.9057 -0.424 -112.8353 258.9576)" style="fill:#FFFFFF;" width="5.726" height="0.955"/>
	
		<rect x="32.78" y="185.63" transform="matrix(-0.424 -0.9057 0.9057 -0.424 -117.7956 297.2969)" style="fill:#FFFFFF;" width="5.726" height="0.955"/>
	
		<rect x="-1.211" y="113.015" transform="matrix(-0.424 -0.9057 0.9057 -0.424 -100.4351 163.1058)" style="fill:#FFFFFF;" width="5.727" height="0.955"/>
	
		<rect x="27.924" y="175.257" transform="matrix(-0.424 -0.9057 0.9057 -0.424 -115.3163 278.1259)" style="fill:#FFFFFF;" width="5.727" height="0.955"/>
	
		<rect x="3.645" y="123.389" transform="matrix(-0.424 -0.9057 0.9057 -0.424 -102.9152 182.2757)" style="fill:#FFFFFF;" width="5.727" height="0.955"/>
	
		<rect x="-35.202" y="40.4" transform="matrix(-0.424 -0.9057 0.9057 -0.424 -83.0708 28.921)" style="fill:#FFFFFF;" width="5.727" height="0.955"/>
	
		<rect x="-6.067" y="102.642" transform="matrix(-0.424 -0.9057 0.9057 -0.424 -97.9546 143.9363)" style="fill:#FFFFFF;" width="5.727" height="0.955"/>
	
		<rect x="-25.49" y="61.147" transform="matrix(-0.424 -0.9057 0.9057 -0.424 -88.0313 67.2583)" style="fill:#FFFFFF;" width="5.727" height="0.955"/>
	<path style="fill:#FFFFFF;" d="M-42.841,17.339c-0.041,0.637-0.091,1.273-0.149,1.909l1.722,3.679l0.865-0.405l-2.428-5.187
		L-42.841,17.339z"/>
	
		<rect x="-40.057" y="30.026" transform="matrix(-0.4239 -0.9057 0.9057 -0.4239 -80.589 9.7501)" style="fill:#FFFFFF;" width="5.727" height="0.955"/>
	
		<rect x="-10.922" y="92.268" transform="matrix(-0.4239 -0.9057 0.9057 -0.4239 -95.4743 124.7652)" style="fill:#FFFFFF;" width="5.727" height="0.955"/>
	
		<rect x="-15.778" y="81.895" transform="matrix(-0.424 -0.9057 0.9057 -0.424 -92.9933 105.597)" style="fill:#FFFFFF;" width="5.727" height="0.955"/>
	
		<rect x="-20.634" y="71.521" transform="matrix(-0.4239 -0.9057 0.9057 -0.4239 -90.5132 86.4243)" style="fill:#FFFFFF;" width="5.727" height="0.955"/>
	
		<rect x="-30.346" y="50.774" transform="matrix(-0.4239 -0.9057 0.9057 -0.4239 -85.5507 48.0885)" style="fill:#FFFFFF;" width="5.727" height="0.955"/>
	
		<rect x="42.492" y="206.377" transform="matrix(-0.424 -0.9057 0.9057 -0.424 -122.7593 335.632)" style="fill:#FFFFFF;" width="5.726" height="0.955"/>
	
		<rect x="95.906" y="320.487" transform="matrix(-0.424 -0.9057 0.9057 -0.424 -150.0392 546.5042)" style="fill:#FFFFFF;" width="5.726" height="0.955"/>
	
		<rect x="105.618" y="341.234" transform="matrix(-0.424 -0.9057 0.9057 -0.424 -155.0011 584.842)" style="fill:#FFFFFF;" width="5.726" height="0.955"/>
	
		<rect x="91.05" y="310.113" transform="matrix(-0.4239 -0.9057 0.9057 -0.4239 -147.5804 527.3094)" style="fill:#FFFFFF;" width="5.727" height="0.955"/>
	
		<rect x="100.762" y="330.861" transform="matrix(-0.424 -0.9057 0.9057 -0.424 -152.5199 565.6735)" style="fill:#FFFFFF;" width="5.726" height="0.955"/>
	
		<rect x="110.474" y="351.608" transform="matrix(-0.424 -0.9057 0.9057 -0.424 -157.4813 604.0117)" style="fill:#FFFFFF;" width="5.726" height="0.955"/>
	
		<rect x="127.426" y="380.343" transform="matrix(0.9057 -0.4239 0.4239 0.9057 -150.383 90.3533)" style="fill:#FFFFFF;" width="0.955" height="5.726"/>
	
		<rect x="120.185" y="372.355" transform="matrix(-0.424 -0.9057 0.9057 -0.424 -162.4419 642.3508)" style="fill:#FFFFFF;" width="5.726" height="0.955"/>
	
		<rect x="115.329" y="361.981" transform="matrix(-0.4239 -0.9057 0.9057 -0.4239 -159.9829 623.1585)" style="fill:#FFFFFF;" width="5.726" height="0.955"/>
	
		<rect x="86.194" y="299.74" transform="matrix(-0.4239 -0.9057 0.9057 -0.4239 -145.0936 508.1471)" style="fill:#FFFFFF;" width="5.727" height="0.955"/>
	
		<rect x="52.204" y="227.124" transform="matrix(-0.4239 -0.9057 0.9057 -0.4239 -127.7281 373.9612)" style="fill:#FFFFFF;" width="5.726" height="0.955"/>
	
		<rect x="57.059" y="237.498" transform="matrix(-0.4239 -0.9057 0.9057 -0.4239 -130.2082 393.1325)" style="fill:#FFFFFF;" width="5.727" height="0.955"/>
	
		<rect x="61.915" y="247.872" transform="matrix(-0.4239 -0.9057 0.9057 -0.4239 -132.6889 412.3018)" style="fill:#FFFFFF;" width="5.727" height="0.955"/>
	
		<rect x="47.348" y="216.751" transform="matrix(-0.424 -0.9057 0.9057 -0.424 -125.235 354.8074)" style="fill:#FFFFFF;" width="5.727" height="0.955"/>
	
		<rect x="71.626" y="268.619" transform="matrix(-0.4239 -0.9057 0.9057 -0.4239 -137.6543 450.6358)" style="fill:#FFFFFF;" width="5.727" height="0.955"/>
	
		<rect x="66.771" y="258.245" transform="matrix(-0.4239 -0.9057 0.9057 -0.4239 -135.1816 431.4569)" style="fill:#FFFFFF;" width="5.727" height="0.955"/>
	
		<rect x="76.482" y="278.993" transform="matrix(-0.4239 -0.9057 0.9057 -0.4239 -140.128 469.8132)" style="fill:#FFFFFF;" width="5.727" height="0.955"/>
	
		<rect x="81.338" y="289.366" transform="matrix(-0.4239 -0.9057 0.9057 -0.4239 -142.6168 488.9729)" style="fill:#FFFFFF;" width="5.727" height="0.955"/>
	<polygon style="fill:#FFFFFF;" points="132.748,394.681 131.113,391.189 131.979,390.784 132.774,392.484 133.611,390.803 
		134.465,391.229 	"/>
	<path style="fill:#FFFFFF;" d="M137.012,386.115l-0.855-0.425l2.546-5.114l0.855,0.425L137.012,386.115z M142.104,375.888
		l-0.855-0.426l2.546-5.115l0.855,0.426L142.104,375.888z M147.196,365.66l-0.855-0.426l2.546-5.113l0.855,0.426L147.196,365.66z
		 M152.288,355.433l-0.855-0.426l2.546-5.113l0.855,0.425L152.288,355.433z M157.38,345.205l-0.855-0.426l2.546-5.113l0.855,0.426
		L157.38,345.205z M162.472,334.978l-0.855-0.426l2.546-5.113l0.855,0.426L162.472,334.978z M167.564,324.751l-0.855-0.426
		l2.546-5.115l0.855,0.426L167.564,324.751z M172.656,314.523l-0.855-0.425l2.546-5.114l0.855,0.426L172.656,314.523z
		 M177.748,304.296l-0.855-0.426l2.545-5.113l0.855,0.426L177.748,304.296z M182.841,294.069l-0.855-0.425l2.546-5.114l0.855,0.426
		L182.841,294.069z M187.933,283.841l-0.855-0.426l2.546-5.113l0.855,0.425L187.933,283.841z M193.025,273.614l-0.855-0.426
		l2.545-5.113l0.855,0.426L193.025,273.614z M198.117,263.386l-0.855-0.426l2.546-5.114l0.855,0.426L198.117,263.386z
		 M203.209,253.159l-0.855-0.426l2.546-5.114l0.855,0.426L203.209,253.159z M208.301,242.932l-0.855-0.425l2.545-5.115l0.855,0.426
		L208.301,242.932z M213.393,232.704l-0.855-0.426l2.546-5.114l0.855,0.426L213.393,232.704z M218.485,222.477l-0.855-0.426
		l2.546-5.113l0.855,0.425L218.485,222.477z M223.577,212.249l-0.855-0.425l2.546-5.114l0.855,0.426L223.577,212.249z
		 M228.669,202.022l-0.855-0.426l2.546-5.114l0.855,0.426L228.669,202.022z M233.761,191.795l-0.855-0.425l2.546-5.115l0.855,0.425
		L233.761,191.795z M238.853,181.567l-0.855-0.425l2.546-5.114l0.855,0.425L238.853,181.567z M243.945,171.34l-0.855-0.426
		l2.546-5.113l0.855,0.425L243.945,171.34z M249.036,161.112l-0.855-0.426l2.546-5.113l0.855,0.426L249.036,161.112z
		 M254.128,150.885l-0.855-0.426l2.546-5.113l0.855,0.426L254.128,150.885z M259.22,140.658l-0.855-0.426l2.546-5.114l0.855,0.426
		L259.22,140.658z M264.312,130.431l-0.855-0.426l2.547-5.114l0.855,0.425L264.312,130.431z M269.405,120.203l-0.855-0.426
		l2.546-5.113l0.855,0.426L269.405,120.203z M274.497,109.976l-0.855-0.426l2.547-5.113l0.855,0.425L274.497,109.976z
		 M279.589,99.748l-0.855-0.426l2.547-5.114l0.855,0.426L279.589,99.748z M284.681,89.521l-0.855-0.425l2.547-5.114l0.855,0.425
		L284.681,89.521z M289.773,79.294l-0.855-0.426l2.547-5.113l0.855,0.426L289.773,79.294z M294.865,69.066l-0.855-0.425l2.547-5.114
		l0.855,0.426L294.865,69.066z M299.957,58.839l-0.855-0.426l2.547-5.113l0.855,0.426L299.957,58.839z M305.049,48.611l-0.855-0.426
		l2.547-5.114l0.855,0.426L305.049,48.611z M310.141,38.384l-0.855-0.425l2.547-5.114l0.855,0.426L310.141,38.384z M315.233,28.157
		l-0.855-0.426l2.547-5.113l0.855,0.426L315.233,28.157z M320.325,17.929l-0.855-0.426l2.547-5.114l0.855,0.426L320.325,17.929z"/>
	<polygon style="fill:#FFFFFF;" points="325.417,7.702 324.562,7.276 324.652,7.096 324.506,7.234 323.85,6.538 327.882,2.749 	"/>
	<path style="fill:#FFFFFF;" d="M-28.145,338.59l-0.654-0.696l4.199-3.945l0.654,0.696L-28.145,338.59z M-19.749,330.7l-0.654-0.696
		l4.198-3.945l0.654,0.696L-19.749,330.7z M-11.352,322.81l-0.654-0.696l4.198-3.945l0.654,0.696L-11.352,322.81z M-2.956,314.921
		l-0.654-0.696l4.198-3.944l0.654,0.696L-2.956,314.921z M5.441,307.031l-0.654-0.696l4.198-3.944l0.654,0.696L5.441,307.031z
		 M13.837,299.142l-0.654-0.696l4.199-3.944l0.654,0.696L13.837,299.142z M22.234,291.253l-0.654-0.696l4.198-3.945l0.654,0.696
		L22.234,291.253z M30.63,283.363l-0.654-0.696l4.198-3.945l0.654,0.696L30.63,283.363z M39.027,275.474l-0.654-0.696l4.198-3.945
		l0.654,0.696L39.027,275.474z M47.423,267.584l-0.654-0.696l4.198-3.944l0.654,0.696L47.423,267.584z M55.819,259.695l-0.654-0.696
		l4.199-3.944l0.654,0.696L55.819,259.695z M64.216,251.805l-0.654-0.696l4.198-3.944l0.654,0.696L64.216,251.805z M72.612,243.916
		l-0.654-0.696l4.198-3.944l0.654,0.696L72.612,243.916z M81.009,236.027l-0.654-0.696l4.198-3.945l0.654,0.696L81.009,236.027z
		 M89.405,228.138l-0.654-0.696l4.198-3.945l0.654,0.696L89.405,228.138z M97.801,220.248l-0.654-0.696l4.199-3.945l0.654,0.696
		L97.801,220.248z M106.198,212.358l-0.654-0.696l4.198-3.944l0.654,0.696L106.198,212.358z M114.594,204.469l-0.654-0.696
		l4.198-3.944l0.654,0.696L114.594,204.469z M122.991,196.579l-0.654-0.696l4.198-3.944l0.655,0.696L122.991,196.579z
		 M131.388,188.691l-0.655-0.696l4.198-3.945l0.655,0.696L131.388,188.691z M139.784,180.801l-0.655-0.696l4.198-3.945l0.655,0.696
		L139.784,180.801z M148.181,172.911l-0.655-0.696l4.198-3.945l0.655,0.696L148.181,172.911z M156.577,165.022l-0.655-0.696
		l4.198-3.944l0.655,0.696L156.577,165.022z M164.973,157.132l-0.655-0.696l4.198-3.945l0.655,0.696L164.973,157.132z
		 M173.37,149.243l-0.655-0.696l4.198-3.944l0.655,0.696L173.37,149.243z M181.767,141.354l-0.655-0.696l4.198-3.945l0.655,0.696
		L181.767,141.354z M190.163,133.464l-0.655-0.696l4.198-3.945l0.655,0.696L190.163,133.464z M198.559,125.575l-0.655-0.696
		l4.198-3.944l0.655,0.696L198.559,125.575z M206.955,117.685l-0.655-0.696l4.198-3.945l0.655,0.696L206.955,117.685z
		 M215.352,109.796l-0.655-0.696l4.198-3.945l0.655,0.696L215.352,109.796z M223.749,101.906l-0.655-0.696l4.198-3.945l0.655,0.696
		L223.749,101.906z M232.145,94.017l-0.655-0.696l4.198-3.945l0.655,0.696L232.145,94.017z M240.541,86.128l-0.655-0.696
		l4.198-3.945l0.655,0.696L240.541,86.128z M248.937,78.238l-0.655-0.696l4.198-3.945l0.655,0.696L248.937,78.238z M257.335,70.349
		l-0.655-0.696l4.198-3.945l0.655,0.696L257.335,70.349z M265.731,62.459l-0.655-0.696l4.198-3.945l0.655,0.696L265.731,62.459z
		 M274.127,54.57l-0.655-0.696l4.198-3.945l0.655,0.696L274.127,54.57z M282.523,46.681l-0.655-0.696l4.198-3.945l0.655,0.696
		L282.523,46.681z M290.92,38.791l-0.655-0.696l4.198-3.945l0.655,0.696L290.92,38.791z M299.317,30.902l-0.655-0.696l4.198-3.945
		l0.655,0.696L299.317,30.902z M307.713,23.013l-0.655-0.696l4.198-3.945l0.655,0.696L307.713,23.013z M316.109,15.123l-0.655-0.696
		l4.198-3.945l0.655,0.696L316.109,15.123z"/>
	<polygon style="fill:#FFFFFF;" points="-35.904,345.88 -34.219,341.292 -33.322,341.622 -33.614,342.416 -32.997,341.837 
		-32.343,342.533 	"/>
	<path style="fill:#FFFFFF;" d="M-31.335,336.213l-0.897-0.33l1.988-5.41l0.897,0.33L-31.335,336.213z M-27.359,325.392l-0.897-0.33
		l1.988-5.41l0.897,0.33L-27.359,325.392z M-23.384,314.573l-0.897-0.33l1.988-5.41l0.897,0.33L-23.384,314.573z M-19.408,303.752
		l-0.897-0.33l1.987-5.41l0.897,0.33L-19.408,303.752z M-15.433,292.932l-0.897-0.33l1.988-5.41l0.897,0.33L-15.433,292.932z
		 M-11.458,282.112l-0.897-0.33l1.988-5.41l0.897,0.33L-11.458,282.112z M-7.482,271.292l-0.897-0.33l1.988-5.41l0.897,0.33
		L-7.482,271.292z M-3.507,260.471l-0.897-0.33l1.988-5.41l0.897,0.33L-3.507,260.471z M0.468,249.652l-0.897-0.33l1.988-5.41
		l0.897,0.33L0.468,249.652z M4.444,238.831l-0.897-0.33l1.988-5.41l0.897,0.33L4.444,238.831z M8.42,228.011l-0.897-0.33
		l1.988-5.41l0.897,0.33L8.42,228.011z M12.395,217.19l-0.897-0.33l1.988-5.409l0.897,0.33L12.395,217.19z M16.37,206.371
		l-0.897-0.33l1.988-5.41l0.897,0.33L16.37,206.371z M20.346,195.55l-0.897-0.33l1.988-5.41l0.897,0.33L20.346,195.55z
		 M24.322,184.73l-0.897-0.33l1.988-5.409l0.897,0.33L24.322,184.73z M28.297,173.91l-0.897-0.33l1.988-5.41l0.897,0.33
		L28.297,173.91z M32.272,163.089l-0.897-0.33l1.988-5.41l0.897,0.33L32.272,163.089z M36.248,152.269l-0.897-0.329l1.988-5.41
		l0.897,0.329L36.248,152.269z M40.223,141.449l-0.897-0.329l1.988-5.41l0.897,0.329L40.223,141.449z M44.198,130.628l-0.897-0.329
		l1.988-5.41l0.897,0.329L44.198,130.628z M48.174,119.808l-0.897-0.329l1.987-5.41l0.897,0.329L48.174,119.808z M52.149,108.988
		l-0.897-0.329l1.988-5.41l0.897,0.329L52.149,108.988z M56.125,98.168l-0.897-0.329l1.987-5.41l0.897,0.329L56.125,98.168z
		 M60.1,87.347l-0.897-0.329l1.988-5.41l0.897,0.329L60.1,87.347z M64.075,76.527l-0.897-0.329l1.988-5.41l0.897,0.329
		L64.075,76.527z M68.051,65.707l-0.897-0.329l1.988-5.41l0.897,0.329L68.051,65.707z M72.026,54.887l-0.897-0.329l1.987-5.41
		l0.897,0.329L72.026,54.887z M76.002,44.067l-0.897-0.329l1.988-5.41l0.897,0.329L76.002,44.067z M79.977,33.246l-0.897-0.329
		l1.988-5.41l0.897,0.329L79.977,33.246z M83.953,22.426l-0.897-0.33l1.987-5.41l0.897,0.329L83.953,22.426z M87.928,11.606
		l-0.897-0.329l1.988-5.41l0.897,0.329L87.928,11.606z M91.903,0.786l-0.897-0.329l1.988-5.41l0.897,0.329L91.903,0.786z
		 M95.879-10.034l-0.897-0.329l1.987-5.41l0.897,0.329L95.879-10.034z M99.855-20.855l-0.897-0.329l1.988-5.41l0.897,0.33
		L99.855-20.855z M103.83-31.675l-0.897-0.329l1.988-5.41l0.897,0.329L103.83-31.675z M107.805-42.495l-0.897-0.329l1.988-5.41
		l0.897,0.329L107.805-42.495z M111.781-53.315l-0.897-0.329l1.988-5.41l0.897,0.329L111.781-53.315z M115.756-64.135l-0.897-0.33
		l1.988-5.41l0.897,0.329L115.756-64.135z"/>
	<polygon style="fill:#FFFFFF;" points="119.731,-74.956 118.835,-75.285 120.07,-78.647 122.702,-76.218 122.055,-75.516 
		120.473,-76.975 	"/>
	<path style="fill:#FFFFFF;" d="M355.902,140.339l-4.176-3.855l0.648-0.702l4.176,3.855L355.902,140.339z M347.551,132.63
		l-4.176-3.855l0.648-0.702l4.176,3.855L347.551,132.63z M339.199,124.921l-4.176-3.854l0.648-0.702l4.176,3.854L339.199,124.921z
		 M330.847,117.212l-4.176-3.854l0.648-0.702l4.176,3.854L330.847,117.212z M322.496,109.503l-4.176-3.855l0.648-0.702l4.176,3.855
		L322.496,109.503z M314.144,101.794l-4.176-3.855l0.648-0.702l4.176,3.855L314.144,101.794z M305.793,94.085l-4.177-3.854
		l0.648-0.703l4.177,3.854L305.793,94.085z M297.44,86.375l-4.176-3.855l0.648-0.702l4.176,3.855L297.44,86.375z M289.089,78.666
		l-4.176-3.855l0.648-0.702l4.176,3.855L289.089,78.666z M280.737,70.957l-4.176-3.855l0.648-0.702l4.176,3.855L280.737,70.957z
		 M272.385,63.248l-4.176-3.854l0.648-0.702l4.176,3.854L272.385,63.248z M264.033,55.539l-4.176-3.855l0.648-0.702l4.176,3.855
		L264.033,55.539z M255.682,47.83l-4.176-3.855l0.647-0.702l4.176,3.855L255.682,47.83z M247.331,40.121l-4.176-3.854l0.648-0.702
		l4.176,3.854L247.331,40.121z M238.978,32.412l-4.176-3.854l0.647-0.702l4.176,3.854L238.978,32.412z M230.627,24.703l-4.176-3.855
		l0.648-0.702l4.176,3.855L230.627,24.703z M222.275,16.994l-4.176-3.855l0.648-0.702l4.176,3.855L222.275,16.994z M213.924,9.285
		l-4.177-3.854l0.648-0.703l4.177,3.854L213.924,9.285z M205.571,1.575l-4.176-3.855l0.648-0.702l4.176,3.855L205.571,1.575z
		 M197.22-6.134l-4.176-3.855l0.648-0.702l4.176,3.855L197.22-6.134z M188.869-13.843l-4.176-3.855l0.648-0.702l4.176,3.855
		L188.869-13.843z M180.516-21.552l-4.176-3.854l0.648-0.702l4.176,3.854L180.516-21.552z M172.165-29.261l-4.176-3.855l0.648-0.702
		l4.176,3.855L172.165-29.261z M163.813-36.97l-4.176-3.855l0.648-0.702l4.176,3.855L163.813-36.97z M155.462-44.679l-4.177-3.854
		l0.648-0.703l4.177,3.854L155.462-44.679z M147.109-52.389l-4.176-3.854l0.648-0.702l4.176,3.854L147.109-52.389z M138.758-60.098
		l-4.176-3.855l0.648-0.702l4.176,3.855L138.758-60.098z M130.406-67.807l-4.177-3.855l0.649-0.702l4.176,3.855L130.406-67.807z"/>
	<polygon style="fill:#FFFFFF;" points="362.445,148.693 361.507,148.516 361.99,145.959 360.079,144.194 360.727,143.492 
		363.028,145.616 	"/>
	<path style="fill:#FFFFFF;" d="M329.947,320.409l-0.939-0.177l1.083-5.724l0.939,0.177L329.947,320.409z M332.112,308.96
		l-0.939-0.177l1.083-5.724l0.939,0.177L332.112,308.96z M334.279,297.513l-0.939-0.177l1.083-5.724l0.939,0.177L334.279,297.513z
		 M336.446,286.065l-0.939-0.177l1.083-5.724l0.939,0.177L336.446,286.065z M338.612,274.617l-0.939-0.177l1.083-5.724l0.939,0.177
		L338.612,274.617z M340.779,263.17l-0.939-0.177l1.083-5.724l0.939,0.177L340.779,263.17z M342.946,251.722l-0.939-0.177
		l1.083-5.724l0.939,0.177L342.946,251.722z M345.113,240.275l-0.939-0.177l1.083-5.725l0.939,0.177L345.113,240.275z
		 M347.279,228.826l-0.939-0.177l1.083-5.724l0.939,0.177L347.279,228.826z M349.446,217.379l-0.939-0.177l1.083-5.724l0.939,0.177
		L349.446,217.379z M351.612,205.931l-0.939-0.177l1.083-5.724l0.939,0.177L351.612,205.931z M353.779,194.484l-0.939-0.177
		l1.083-5.724l0.939,0.177L353.779,194.484z M355.945,183.036l-0.939-0.177l1.083-5.724l0.939,0.177L355.945,183.036z
		 M358.112,171.588l-0.939-0.177l1.083-5.724l0.939,0.177L358.112,171.588z M360.279,160.141l-0.939-0.177l1.083-5.724l0.939,0.177
		L360.279,160.141z"/>
	<polygon style="fill:#FFFFFF;" points="328.06,330.373 326.184,326.485 327.045,326.071 327.66,327.346 327.924,325.955 
		328.862,326.132 	"/>
	<path style="fill:#FFFFFF;" d="M323.688,321.31l-2.496-5.175l0.86-0.414l2.496,5.175L323.688,321.31z M318.696,310.961
		l-2.497-5.176l0.86-0.415l2.497,5.175L318.696,310.961z M313.703,300.61l-2.496-5.175l0.86-0.414l2.496,5.175L313.703,300.61z
		 M308.711,290.26l-2.497-5.176l0.86-0.415l2.497,5.175L308.711,290.26z M303.717,279.909l-2.496-5.175l0.86-0.414l2.496,5.175
		L303.717,279.909z M298.725,269.559l-2.497-5.175l0.86-0.414l2.497,5.174L298.725,269.559z M293.732,259.209l-2.496-5.175
		l0.86-0.414l2.496,5.175L293.732,259.209z M288.74,248.858l-2.496-5.175l0.86-0.414l2.496,5.175L288.74,248.858z M283.747,238.508
		l-2.496-5.175l0.86-0.414l2.496,5.175L283.747,238.508z M278.754,228.158l-2.496-5.175l0.86-0.414l2.496,5.175L278.754,228.158z
		 M273.761,217.808l-2.496-5.175l0.86-0.414l2.496,5.175L273.761,217.808z M268.769,207.458l-2.496-5.175l0.86-0.414l2.496,5.175
		L268.769,207.458z M263.777,197.107l-2.497-5.175l0.86-0.414l2.497,5.174L263.777,197.107z M258.784,186.757l-2.496-5.175
		l0.86-0.414l2.496,5.175L258.784,186.757z M253.792,176.407l-2.497-5.175l0.86-0.414l2.497,5.174L253.792,176.407z
		 M248.798,166.057l-2.496-5.175l0.86-0.414l2.496,5.175L248.798,166.057z M243.806,155.707l-2.497-5.175l0.86-0.415l2.497,5.175
		L243.806,155.707z M238.813,145.357l-2.496-5.175l0.86-0.415l2.496,5.175L238.813,145.357z M233.821,135.007l-2.496-5.175
		l0.86-0.415l2.496,5.175L233.821,135.007z M228.828,124.656l-2.496-5.175l0.86-0.415l2.496,5.175L228.828,124.656z
		 M223.835,114.306l-2.496-5.175l0.86-0.415l2.496,5.175L223.835,114.306z M218.842,103.956l-2.496-5.175l0.86-0.415l2.496,5.175
		L218.842,103.956z M213.85,93.606l-2.496-5.175l0.86-0.415l2.496,5.175L213.85,93.606z M208.857,83.256l-2.496-5.175l0.86-0.415
		l2.496,5.175L208.857,83.256z M203.865,72.905l-2.496-5.175l0.86-0.415l2.496,5.175L203.865,72.905z M198.873,62.555l-2.497-5.175
		l0.86-0.415l2.497,5.175L198.873,62.555z M193.879,52.205l-2.496-5.175l0.86-0.415l2.496,5.175L193.879,52.205z M188.887,41.855
		l-2.497-5.175l0.86-0.415l2.497,5.175L188.887,41.855z M183.894,31.505l-2.496-5.175l0.86-0.415l2.496,5.175L183.894,31.505z
		 M178.902,21.154l-2.496-5.175l0.86-0.415l2.496,5.175L178.902,21.154z M173.909,10.804l-2.496-5.175l0.86-0.415l2.496,5.175
		L173.909,10.804z M168.916,0.454l-2.496-5.175l0.86-0.415l2.496,5.175L168.916,0.454z M163.923-9.896l-2.496-5.175l0.86-0.415
		l2.496,5.175L163.923-9.896z M158.931-20.246l-2.496-5.175l0.86-0.415l2.496,5.175L158.931-20.246z M153.939-30.597l-2.497-5.175
		l0.86-0.415l2.497,5.175L153.939-30.597z M148.946-40.947l-2.496-5.175l0.86-0.415l2.496,5.175L148.946-40.947z M143.954-51.297
		l-2.497-5.175l0.86-0.415l2.497,5.175L143.954-51.297z M138.96-61.647l-2.496-5.175l0.86-0.415l2.496,5.175L138.96-61.647z
		 M133.968-71.998l-2.496-5.175l0.86-0.415l2.496,5.175L133.968-71.998z M128.975-82.348l-2.496-5.175l0.86-0.415l2.496,5.175
		L128.975-82.348z"/>
	<polygon style="fill:#FFFFFF;" points="122.785,-92.606 122.615,-97.732 124.843,-93.113 123.982,-92.698 123.72,-93.243 
		123.739,-92.638 	"/>
	<path style="fill:#FFFFFF;" d="M139.34,407.467l-0.188-5.683l0.956-0.032l0.188,5.683L139.34,407.467z M138.964,396.102
		l-0.188-5.683l0.955-0.032l0.188,5.683L138.964,396.102z M138.588,384.736l-0.188-5.683l0.955-0.032l0.189,5.683L138.588,384.736z
		 M138.211,373.371l-0.188-5.682l0.956-0.032l0.188,5.682L138.211,373.371z M137.835,362.006l-0.188-5.683l0.956-0.032l0.188,5.683
		L137.835,362.006z M137.459,350.641l-0.188-5.683l0.955-0.032l0.189,5.683L137.459,350.641z M137.083,339.275l-0.189-5.683
		l0.956-0.032l0.189,5.683L137.083,339.275z M136.706,327.91l-0.188-5.683l0.956-0.032l0.188,5.683L136.706,327.91z M136.33,316.544
		l-0.188-5.683l0.956-0.032l0.188,5.683L136.33,316.544z M135.954,305.179l-0.189-5.683l0.956-0.032l0.189,5.683L135.954,305.179z
		 M135.578,293.814l-0.189-5.683l0.956-0.032l0.188,5.683L135.578,293.814z M135.201,282.449l-0.188-5.683l0.956-0.032l0.188,5.683
		L135.201,282.449z M134.825,271.084l-0.188-5.683l0.955-0.032l0.188,5.683L134.825,271.084z M134.449,259.718l-0.188-5.683
		l0.955-0.032l0.189,5.683L134.449,259.718z M134.073,248.353l-0.189-5.683l0.956-0.032l0.189,5.683L134.073,248.353z
		 M133.696,236.987l-0.188-5.683l0.956-0.032l0.188,5.683L133.696,236.987z M133.32,225.622l-0.188-5.682l0.956-0.032l0.188,5.682
		L133.32,225.622z M132.944,214.257l-0.189-5.683l0.956-0.032l0.189,5.683L132.944,214.257z M132.568,202.892l-0.189-5.683
		l0.956-0.032l0.188,5.683L132.568,202.892z M132.192,191.526l-0.188-5.683l0.956-0.032l0.188,5.683L132.192,191.526z
		 M131.815,180.161l-0.188-5.683l0.955-0.032l0.188,5.683L131.815,180.161z M131.439,168.796l-0.189-5.683l0.956-0.032l0.188,5.683
		L131.439,168.796z M131.062,157.43l-0.189-5.682l0.956-0.032l0.188,5.682L131.062,157.43z M130.686,146.065l-0.189-5.683
		l0.956-0.032l0.189,5.683L130.686,146.065z M130.309,134.7l-0.188-5.683l0.956-0.032l0.188,5.683L130.309,134.7z M129.933,123.334
		l-0.189-5.682l0.956-0.032l0.188,5.682L129.933,123.334z M129.557,111.969l-0.188-5.683l0.955-0.032l0.189,5.683L129.557,111.969z
		 M129.181,100.604l-0.188-5.683l0.955-0.032l0.189,5.683L129.181,100.604z M128.804,89.238l-0.188-5.683l0.955-0.032l0.188,5.683
		L128.804,89.238z M128.428,77.873l-0.189-5.682l0.956-0.032l0.188,5.682L128.428,77.873z M128.052,66.508l-0.188-5.683l0.955-0.032
		l0.188,5.683L128.052,66.508z M127.676,55.142l-0.188-5.683l0.955-0.032l0.189,5.683L127.676,55.142z M127.299,43.777l-0.188-5.683
		l0.956-0.032l0.188,5.683L127.299,43.777z M126.923,32.412l-0.189-5.682l0.956-0.032l0.188,5.682L126.923,32.412z M126.547,21.047
		l-0.188-5.683l0.955-0.032l0.188,5.683L126.547,21.047z M126.171,9.681l-0.188-5.683l0.955-0.032l0.188,5.683L126.171,9.681z
		 M125.795-1.684l-0.188-5.683l0.954-0.032l0.188,5.683L125.795-1.684z M125.418-13.05l-0.188-5.683l0.954-0.032l0.188,5.683
		L125.418-13.05z M125.042-24.415l-0.188-5.683l0.954-0.032l0.188,5.683L125.042-24.415z M124.666-35.78l-0.188-5.683l0.955-0.032
		l0.188,5.683L124.666-35.78z M124.29-47.146l-0.188-5.683l0.955-0.032l0.188,5.683L124.29-47.146z M123.913-58.511l-0.188-5.683
		l0.955-0.032l0.188,5.683L123.913-58.511z M123.537-69.876l-0.188-5.683l0.954-0.032l0.188,5.683L123.537-69.876z M123.161-81.242
		l-0.188-5.683l0.954-0.032l0.188,5.683L123.161-81.242z"/>
	<polygon style="fill:#FFFFFF;" points="140.601,416.656 137.222,415.604 137.506,414.691 139.601,415.344 139.528,413.151 
		140.483,413.119 	"/>
	<path style="fill:#FFFFFF;" d="M131.826,413.925l-5.396-1.679l0.284-0.913l5.396,1.679L131.826,413.925z M121.034,410.567
		l-5.396-1.679l0.284-0.913l5.396,1.679L121.034,410.567z M110.242,407.21l-5.396-1.68l0.284-0.913l5.396,1.68L110.242,407.21z
		 M99.45,403.851l-5.396-1.679l0.284-0.913l5.396,1.679L99.45,403.851z M88.658,400.493l-5.396-1.679l0.284-0.913l5.396,1.679
		L88.658,400.493z M77.866,397.135l-5.396-1.679l0.284-0.913l5.396,1.679L77.866,397.135z M67.073,393.777l-5.396-1.68l0.284-0.913
		l5.396,1.68L67.073,393.777z M56.281,390.419l-5.396-1.679l0.284-0.913l5.396,1.679L56.281,390.419z M45.489,387.061l-5.396-1.679
		l0.284-0.913l5.396,1.679L45.489,387.061z M34.697,383.703l-5.396-1.68l0.284-0.913l5.396,1.68L34.697,383.703z M23.905,380.345
		l-5.396-1.679l0.284-0.913l5.396,1.679L23.905,380.345z M13.113,376.987l-5.396-1.679l0.284-0.913l5.396,1.679L13.113,376.987z
		 M2.321,373.629l-5.396-1.68l0.284-0.913l5.396,1.68L2.321,373.629z M-8.471,370.271l-5.396-1.68l0.284-0.913l5.396,1.68
		L-8.471,370.271z M-19.263,366.913l-5.396-1.679l0.284-0.913l5.396,1.679L-19.263,366.913z"/>
	<polygon style="fill:#FFFFFF;" points="-30.055,363.555 -33.104,362.606 -33.324,359.42 -32.37,359.354 -32.196,361.888 
		-29.771,362.643 	"/>
	
		<rect x="-45.648" y="177.437" transform="matrix(0.9977 -0.0683 0.0683 0.9977 -12.4119 -2.6628)" style="fill:#FFFFFF;" width="0.956" height="5.7"/>
	
		<rect x="-48.777" y="131.951" transform="matrix(0.9977 -0.0684 0.0684 0.9977 -9.3324 -2.9877)" style="fill:#FFFFFF;" width="0.956" height="5.699"/>
	
		<rect x="-47.212" y="154.694" transform="matrix(0.9977 -0.0683 0.0683 0.9977 -10.8733 -2.825)" style="fill:#FFFFFF;" width="0.956" height="5.699"/>
	
		<rect x="-47.995" y="143.323" transform="matrix(0.9977 -0.0684 0.0684 0.9977 -10.1159 -2.9094)" style="fill:#FFFFFF;" width="0.956" height="5.699"/>
	
		<rect x="-49.56" y="120.58" transform="matrix(0.9977 -0.0682 0.0682 0.9977 -8.5307 -3.0595)" style="fill:#FFFFFF;" width="0.956" height="5.699"/>
	
		<rect x="-46.43" y="166.066" transform="matrix(0.9977 -0.0683 0.0683 0.9977 -11.6477 -2.7448)" style="fill:#FFFFFF;" width="0.956" height="5.699"/>
	
		<rect x="-52.689" y="75.094" transform="matrix(0.9977 -0.0684 0.0684 0.9977 -5.4571 -3.3907)" style="fill:#FFFFFF;" width="0.956" height="5.699"/>
	
		<rect x="-50.342" y="109.209" transform="matrix(0.9977 -0.0683 0.0683 0.9977 -7.7728 -3.1451)" style="fill:#FFFFFF;" width="0.956" height="5.699"/>
	
		<rect x="-44.865" y="188.809" transform="matrix(0.9977 -0.0684 0.0684 0.9977 -13.2093 -2.5866)" style="fill:#FFFFFF;" width="0.956" height="5.699"/>
	
		<rect x="-53.472" y="63.723" transform="matrix(0.9977 -0.0682 0.0682 0.9977 -4.6634 -3.4591)" style="fill:#FFFFFF;" width="0.956" height="5.699"/>
	
		<rect x="-51.125" y="97.837" transform="matrix(0.9977 -0.0683 0.0683 0.9977 -6.9968 -3.2247)" style="fill:#FFFFFF;" width="0.956" height="5.699"/>
	
		<rect x="-51.907" y="86.466" transform="matrix(0.9977 -0.0683 0.0683 0.9977 -6.223 -3.3053)" style="fill:#FFFFFF;" width="0.956" height="5.699"/>
	<path style="fill:#FFFFFF;" d="M-53.495,52.325l-0.411,0.028c-0.16,0.276-0.326,0.55-0.489,0.825l0.337,4.898l0.954-0.065
		L-53.495,52.325z"/>
	
		<rect x="-37.041" y="302.523" transform="matrix(0.9977 -0.0682 0.0682 0.9977 -20.9094 -1.7825)" style="fill:#FFFFFF;" width="0.956" height="5.699"/>
	
		<rect x="-36.259" y="313.895" transform="matrix(0.9977 -0.0684 0.0684 0.9977 -21.7453 -1.7054)" style="fill:#FFFFFF;" width="0.956" height="5.699"/>
	
		<rect x="-37.824" y="291.152" transform="matrix(0.9977 -0.0683 0.0683 0.9977 -20.1747 -1.8646)" style="fill:#FFFFFF;" width="0.956" height="5.699"/>
	
		<rect x="-44.083" y="200.18" transform="matrix(0.9977 -0.0684 0.0684 0.9977 -13.9868 -2.5067)" style="fill:#FFFFFF;" width="0.956" height="5.699"/>
	
		<rect x="-33.912" y="348.009" transform="matrix(0.9977 -0.0683 0.0683 0.9977 -24.0519 -1.4645)" style="fill:#FFFFFF;" width="0.956" height="5.699"/>
	
		<rect x="-34.694" y="336.637" transform="matrix(0.9977 -0.0684 0.0684 0.9977 -23.3157 -1.5458)" style="fill:#FFFFFF;" width="0.956" height="5.7"/>
	
		<rect x="-38.606" y="279.78" transform="matrix(0.9977 -0.0684 0.0684 0.9977 -19.4152 -1.9457)" style="fill:#FFFFFF;" width="0.956" height="5.699"/>
	
		<rect x="-35.477" y="325.266" transform="matrix(0.9977 -0.0683 0.0683 0.9977 -22.5001 -1.6245)" style="fill:#FFFFFF;" width="0.956" height="5.699"/>
	
		<rect x="-41.736" y="234.295" transform="matrix(0.9977 -0.0683 0.0683 0.9977 -16.2971 -2.2645)" style="fill:#FFFFFF;" width="0.956" height="5.699"/>
	
		<rect x="-42.518" y="222.923" transform="matrix(0.9977 -0.0684 0.0684 0.9977 -15.5385 -2.3465)" style="fill:#FFFFFF;" width="0.956" height="5.699"/>
	
		<rect x="-43.301" y="211.552" transform="matrix(0.9977 -0.0683 0.0683 0.9977 -14.748 -2.4247)" style="fill:#FFFFFF;" width="0.956" height="5.699"/>
	
		<rect x="-39.389" y="268.409" transform="matrix(0.9977 -0.0683 0.0683 0.9977 -18.6245 -2.0247)" style="fill:#FFFFFF;" width="0.956" height="5.699"/>
	
		<rect x="-40.953" y="245.666" transform="matrix(0.9977 -0.0682 0.0682 0.9977 -17.0423 -2.1817)" style="fill:#FFFFFF;" width="0.956" height="5.699"/>
	
		<rect x="-40.171" y="257.037" transform="matrix(0.9977 -0.0684 0.0684 0.9977 -17.8649 -2.106)" style="fill:#FFFFFF;" width="0.956" height="5.7"/>
	
		<rect x="46.982" y="9.659" transform="matrix(-0.082 -0.9966 0.9966 -0.082 38.8466 60.8762)" style="fill:#FFFFFF;" width="0.956" height="5.775"/>
	
		<rect x="58.494" y="8.712" transform="matrix(-0.0819 -0.9966 0.9966 -0.0819 52.2421 71.3241)" style="fill:#FFFFFF;" width="0.956" height="5.775"/>
	
		<rect x="81.518" y="6.818" transform="matrix(-0.082 -0.9966 0.9966 -0.082 79.0443 92.221)" style="fill:#FFFFFF;" width="0.956" height="5.775"/>
	
		<rect x="70.006" y="7.765" transform="matrix(-0.082 -0.9966 0.9966 -0.082 65.6494 81.773)" style="fill:#FFFFFF;" width="0.956" height="5.775"/>
	
		<rect x="116.053" y="3.977" transform="matrix(-0.082 -0.9966 0.9966 -0.082 119.2442 123.5658)" style="fill:#FFFFFF;" width="0.956" height="5.775"/>
	
		<rect x="104.542" y="4.924" transform="matrix(-0.082 -0.9966 0.9966 -0.082 105.8506 113.1178)" style="fill:#FFFFFF;" width="0.956" height="5.775"/>
	
		<rect x="93.03" y="5.871" transform="matrix(-0.082 -0.9966 0.9966 -0.082 92.4503 102.6695)" style="fill:#FFFFFF;" width="0.956" height="5.775"/>
	
		<rect x="-10.576" y="14.395" transform="matrix(-0.0819 -0.9966 0.9966 -0.0819 -28.1507 8.6346)" style="fill:#FFFFFF;" width="0.956" height="5.775"/>
	
		<rect x="35.471" y="10.607" transform="matrix(-0.0819 -0.9966 0.9966 -0.0819 25.4448 50.4273)" style="fill:#FFFFFF;" width="0.956" height="5.775"/>
	
		<rect x="-33.6" y="16.29" transform="matrix(-0.082 -0.9966 0.9966 -0.082 -54.9523 -12.2597)" style="fill:#FFFFFF;" width="0.956" height="5.775"/>
	
		<rect x="127.565" y="3.03" transform="matrix(-0.0821 -0.9966 0.9966 -0.0821 132.6593 134.0133)" style="fill:#FFFFFF;" width="0.956" height="5.775"/>
	
		<rect x="23.959" y="11.554" transform="matrix(-0.082 -0.9966 0.9966 -0.082 12.0491 39.9808)" style="fill:#FFFFFF;" width="0.956" height="5.775"/>
	
		<rect x="0.935" y="13.448" transform="matrix(-0.0819 -0.9966 0.9966 -0.0819 -14.752 19.0829)" style="fill:#FFFFFF;" width="0.956" height="5.775"/>
	
		<rect x="12.447" y="12.501" transform="matrix(-0.082 -0.9966 0.9966 -0.082 -1.3524 29.5319)" style="fill:#FFFFFF;" width="0.956" height="5.775"/>
	
		<rect x="-22.088" y="15.342" transform="matrix(-0.0819 -0.9966 0.9966 -0.0819 -41.5495 -1.8141)" style="fill:#FFFFFF;" width="0.956" height="5.776"/>
	
		<rect x="254.194" y="-7.389" transform="matrix(-0.082 -0.9966 0.9966 -0.082 280.0526 248.9429)" style="fill:#FFFFFF;" width="0.956" height="5.775"/>
	
		<rect x="139.077" y="2.083" transform="matrix(-0.082 -0.9966 0.9966 -0.082 146.0515 144.462)" style="fill:#FFFFFF;" width="0.956" height="5.775"/>
	
		<rect x="242.683" y="-6.443" transform="matrix(-0.0819 -0.9966 0.9966 -0.0819 266.6232 238.4979)" style="fill:#FFFFFF;" width="0.956" height="5.776"/>
	
		<rect x="297.832" y="-8.768" transform="matrix(0.9966 -0.082 0.082 0.9966 1.6926 24.6317)" style="fill:#FFFFFF;" width="5.776" height="0.956"/>
	
		<rect x="231.171" y="-5.495" transform="matrix(-0.082 -0.9966 0.9966 -0.082 253.239 228.048)" style="fill:#FFFFFF;" width="0.956" height="5.776"/>
	
		<rect x="288.73" y="-10.231" transform="matrix(-0.082 -0.9966 0.9966 -0.082 320.2363 280.2892)" style="fill:#FFFFFF;" width="0.956" height="5.776"/>
	
		<rect x="277.218" y="-9.283" transform="matrix(-0.082 -0.9966 0.9966 -0.082 306.8371 269.8412)" style="fill:#FFFFFF;" width="0.956" height="5.775"/>
	
		<rect x="265.706" y="-8.336" transform="matrix(-0.0819 -0.9966 0.9966 -0.0819 293.4207 259.3946)" style="fill:#FFFFFF;" width="0.956" height="5.775"/>
	
		<rect x="219.66" y="-4.548" transform="matrix(-0.082 -0.9966 0.9966 -0.082 239.8538 217.5987)" style="fill:#FFFFFF;" width="0.956" height="5.775"/>
	
		<rect x="150.589" y="1.135" transform="matrix(-0.0821 -0.9966 0.9966 -0.0821 159.4615 154.9098)" style="fill:#FFFFFF;" width="0.956" height="5.775"/>
	
		<rect x="173.612" y="-0.76" transform="matrix(-0.0819 -0.9966 0.9966 -0.0819 186.2306 175.8076)" style="fill:#FFFFFF;" width="0.956" height="5.776"/>
	
		<rect x="162.1" y="0.188" transform="matrix(-0.0819 -0.9966 0.9966 -0.0819 172.8314 165.3592)" style="fill:#FFFFFF;" width="0.956" height="5.776"/>
	
		<rect x="208.148" y="-3.601" transform="matrix(-0.082 -0.9966 0.9966 -0.082 226.438 207.1517)" style="fill:#FFFFFF;" width="0.956" height="5.775"/>
	
		<rect x="185.124" y="-1.707" transform="matrix(-0.0819 -0.9966 0.9966 -0.0819 199.6295 186.2562)" style="fill:#FFFFFF;" width="0.956" height="5.776"/>
	
		<rect x="196.636" y="-2.654" transform="matrix(-0.082 -0.9966 0.9966 -0.082 213.0395 196.7032)" style="fill:#FFFFFF;" width="0.956" height="5.775"/>
	<polygon style="fill:#FFFFFF;" points="313.193,-6.501 311.944,-8.734 309.393,-8.524 309.314,-9.477 312.478,-9.737 
		314.027,-6.967 	"/>
	<path style="fill:#FFFFFF;" d="M394.434,138.682l-2.708-4.84l0.834-0.467l2.708,4.84L394.434,138.682z M389.018,129.003
		l-2.708-4.839l0.834-0.467l2.708,4.839L389.018,129.003z M383.601,119.324l-2.708-4.84l0.834-0.467l2.708,4.84L383.601,119.324z
		 M378.185,109.645l-2.708-4.839l0.834-0.467l2.708,4.839L378.185,109.645z M372.77,99.966l-2.708-4.839l0.834-0.467l2.708,4.839
		L372.77,99.966z M367.354,90.287l-2.708-4.839l0.834-0.466l2.708,4.839L367.354,90.287z M361.938,80.608l-2.708-4.839l0.834-0.466
		l2.708,4.839L361.938,80.608z M356.521,70.929l-2.708-4.839l0.834-0.466l2.708,4.839L356.521,70.929z M351.105,61.251l-2.708-4.839
		l0.834-0.467l2.708,4.839L351.105,61.251z M345.689,51.572l-2.708-4.839l0.834-0.467l2.708,4.839L345.689,51.572z M340.273,41.893
		l-2.708-4.839l0.834-0.467l2.708,4.839L340.273,41.893z M334.858,32.214l-2.708-4.839l0.834-0.467l2.708,4.839L334.858,32.214z
		 M329.441,22.535l-2.708-4.839l0.834-0.467l2.708,4.839L329.441,22.535z M324.025,12.857l-2.708-4.839l0.834-0.467l2.708,4.839
		L324.025,12.857z M318.609,3.178l-2.708-4.839l0.834-0.467l2.708,4.839L318.609,3.178z"/>
	<polygon style="fill:#FFFFFF;" points="396.174,146.621 396.055,145.673 398.195,145.404 397.142,143.521 397.976,143.054 
		399.722,146.175 	"/>
	<path style="fill:#FFFFFF;" d="M-100.182,209.04l-0.119-0.948l5.64-0.709l0.119,0.948L-100.182,209.04z M-88.901,207.622
		l-0.119-0.948l5.641-0.709l0.12,0.948L-88.901,207.622z M-77.62,206.203l-0.119-0.948l5.64-0.709l0.119,0.948L-77.62,206.203z
		 M-66.339,204.784l-0.119-0.948l5.64-0.709l0.119,0.948L-66.339,204.784z M-55.058,203.366l-0.119-0.948l5.64-0.709l0.12,0.948
		L-55.058,203.366z M-43.777,201.948l-0.119-0.948l5.64-0.71l0.119,0.948L-43.777,201.948z M-32.497,200.528l-0.119-0.948
		l5.641-0.709l0.119,0.948L-32.497,200.528z M-21.216,199.11l-0.119-0.948l5.64-0.709l0.119,0.948L-21.216,199.11z M-9.935,197.692
		l-0.12-0.948l5.641-0.709l0.119,0.948L-9.935,197.692z M1.346,196.272l-0.119-0.948l5.64-0.709l0.119,0.948L1.346,196.272z
		 M12.627,194.854l-0.119-0.948l5.64-0.709l0.119,0.948L12.627,194.854z M23.907,193.436l-0.119-0.948l5.641-0.709l0.12,0.948
		L23.907,193.436z M35.188,192.017l-0.119-0.948l5.64-0.71l0.119,0.948L35.188,192.017z M46.469,190.598l-0.119-0.948l5.641-0.709
		l0.119,0.948L46.469,190.598z M57.75,189.18l-0.119-0.948l5.64-0.709l0.119,0.948L57.75,189.18z M69.031,187.761l-0.12-0.948
		l5.64-0.709l0.119,0.948L69.031,187.761z M80.311,186.342l-0.119-0.948l5.64-0.709l0.119,0.948L80.311,186.342z M91.592,184.924
		l-0.119-0.948l5.64-0.709l0.119,0.948L91.592,184.924z M102.873,183.505l-0.119-0.948l5.641-0.709l0.119,0.948L102.873,183.505z
		 M114.154,182.087l-0.119-0.948l5.64-0.71l0.119,0.948L114.154,182.087z M125.435,180.668l-0.119-0.948l5.64-0.709l0.119,0.948
		L125.435,180.668z M136.715,179.249l-0.119-0.948l5.641-0.709l0.119,0.948L136.715,179.249z M147.996,177.831l-0.12-0.948
		l5.641-0.709l0.119,0.948L147.996,177.831z M159.277,176.412l-0.119-0.948l5.64-0.709l0.119,0.948L159.277,176.412z
		 M170.558,174.993l-0.12-0.948l5.641-0.709l0.119,0.948L170.558,174.993z M181.838,173.575l-0.119-0.948l5.641-0.709l0.119,0.948
		L181.838,173.575z M193.12,172.157L193,171.209l5.64-0.71l0.119,0.948L193.12,172.157z M204.4,170.737l-0.119-0.948l5.64-0.709
		l0.119,0.948L204.4,170.737z M215.681,169.319l-0.119-0.948l5.641-0.709l0.119,0.948L215.681,169.319z M226.961,167.901
		l-0.119-0.948l5.641-0.709l0.119,0.948L226.961,167.901z M238.243,166.481l-0.119-0.948l5.64-0.709l0.12,0.948L238.243,166.481z
		 M249.523,165.063l-0.119-0.948l5.641-0.709l0.119,0.948L249.523,165.063z M260.804,163.645l-0.119-0.948l5.641-0.709l0.12,0.948
		L260.804,163.645z M272.085,162.226l-0.119-0.948l5.64-0.71l0.119,0.948L272.085,162.226z M283.366,160.807l-0.12-0.948
		l5.641-0.709l0.119,0.948L283.366,160.807z M294.646,159.389l-0.119-0.948l5.641-0.709l0.119,0.948L294.646,159.389z
		 M305.927,157.97l-0.119-0.948l5.641-0.709l0.119,0.948L305.927,157.97z M317.208,156.551l-0.119-0.948l5.64-0.709l0.12,0.948
		L317.208,156.551z M328.489,155.133l-0.119-0.948l5.641-0.709l0.119,0.948L328.489,155.133z M339.77,153.714l-0.12-0.948
		l5.641-0.71l0.12,0.948L339.77,153.714z M351.051,152.296l-0.119-0.948l5.64-0.709l0.119,0.948L351.051,152.296z M362.332,150.877
		l-0.12-0.948l5.64-0.709l0.119,0.948L362.332,150.877z M373.612,149.458l-0.119-0.948l5.641-0.709l0.119,0.948L373.612,149.458z
		 M384.893,148.04l-0.119-0.948l5.641-0.709l0.119,0.948L384.893,148.04z"/>
	<polygon style="fill:#FFFFFF;" points="-107.951,212.434 -109.434,209.24 -105.941,208.801 -105.821,209.749 -108.016,210.026 
		-107.084,212.031 	"/>
	<path style="fill:#FFFFFF;" d="M165.529,409.778l-0.368-0.883l2.176-0.907l0.368,0.883L165.529,409.778z M172.996,406.664
		l-0.368-0.883l5.292-2.206l0.368,0.883L172.996,406.664z M183.58,402.251l-0.368-0.883l5.292-2.206l0.368,0.883L183.58,402.251z
		 M194.162,397.838l-0.368-0.883l5.292-2.206l0.368,0.883L194.162,397.838z M204.746,393.426l-0.368-0.883l5.292-2.206l0.368,0.883
		L204.746,393.426z M215.329,389.013l-0.368-0.883l5.291-2.206l0.368,0.883L215.329,389.013z M225.912,384.6l-0.368-0.883
		l5.292-2.207l0.368,0.883L225.912,384.6z M236.495,380.187l-0.368-0.883l5.292-2.207l0.368,0.883L236.495,380.187z
		 M247.078,375.775l-0.367-0.883l5.292-2.207l0.368,0.883L247.078,375.775z M257.661,371.362l-0.368-0.883l5.292-2.207l0.368,0.883
		L257.661,371.362z M268.244,366.949l-0.368-0.883l5.292-2.207l0.368,0.883L268.244,366.949z M278.827,362.536l-0.368-0.883
		l5.292-2.207l0.368,0.883L278.827,362.536z M289.411,358.124l-0.368-0.883l5.291-2.207l0.368,0.883L289.411,358.124z
		 M299.993,353.711l-0.368-0.883l5.292-2.207l0.368,0.883L299.993,353.711z M310.577,349.298l-0.368-0.883l5.291-2.207l0.367,0.883
		L310.577,349.298z M321.159,344.885l-0.368-0.883l5.292-2.207l0.368,0.883L321.159,344.885z"/>
	<path style="fill:#FFFFFF;" d="M-50.27,336.577l-2.403-5.172l0.867-0.403l2.403,5.172L-50.27,336.577z M-55.077,326.232
		l-2.403-5.173l0.867-0.403l2.403,5.173L-55.077,326.232z M-59.884,315.887l-2.403-5.173l0.867-0.403l2.403,5.173L-59.884,315.887z
		 M-64.69,305.541l-2.403-5.172l0.867-0.403l2.403,5.172L-64.69,305.541z M-69.497,295.196l-2.403-5.172l0.867-0.403l2.403,5.172
		L-69.497,295.196z M-74.304,284.851l-2.403-5.173l0.867-0.403l2.403,5.173L-74.304,284.851z M-79.11,274.505l-2.404-5.172
		l0.867-0.403l2.404,5.172L-79.11,274.505z M-83.917,264.16l-2.403-5.172l0.867-0.403l2.403,5.172L-83.917,264.16z M-88.724,253.815
		l-2.404-5.173l0.867-0.403l2.404,5.173L-88.724,253.815z M-93.531,243.47l-2.403-5.173l0.867-0.403l2.403,5.173L-93.531,243.47z
		 M-98.337,233.124l-2.404-5.172l0.867-0.403l2.404,5.172L-98.337,233.124z M-103.144,222.779l-2.403-5.172l0.867-0.403l2.403,5.172
		L-103.144,222.779z"/>
	
		<rect x="-48.263" y="342.37" transform="matrix(0.4214 0.9069 -0.9069 0.4214 283.8286 240.852)" style="fill:#FFFFFF;" width="2.867" height="0.956"/>
	<path style="fill:#FFFFFF;" d="M323.3,317.247l-0.887-0.358l2.15-5.315l0.887,0.358L323.3,317.247z M327.599,306.617l-0.886-0.358
		l2.15-5.315l0.887,0.358L327.599,306.617z M331.898,295.988l-0.886-0.358l2.149-5.315l0.887,0.358L331.898,295.988z
		 M336.197,285.358l-0.886-0.358l2.149-5.315l0.886,0.358L336.197,285.358z M340.496,274.728l-0.887-0.358l2.149-5.315l0.887,0.358
		L340.496,274.728z M344.794,264.097l-0.887-0.358l2.149-5.314l0.887,0.358L344.794,264.097z M349.093,253.468l-0.887-0.358
		l2.149-5.315l0.886,0.358L349.093,253.468z M353.392,242.838l-0.886-0.358l2.149-5.315l0.887,0.358L353.392,242.838z
		 M357.691,232.208l-0.887-0.358l2.149-5.314l0.887,0.358L357.691,232.208z M361.99,221.579l-0.887-0.358l2.149-5.315l0.887,0.358
		L361.99,221.579z M366.289,210.948l-0.887-0.358l2.149-5.315l0.886,0.358L366.289,210.948z M370.588,200.318l-0.886-0.358
		l2.149-5.315l0.887,0.358L370.588,200.318z M374.887,189.689L374,189.331l2.149-5.315l0.887,0.358L374.887,189.689z
		 M379.186,179.059l-0.887-0.358l2.149-5.315l0.887,0.358L379.186,179.059z"/>
	
		<rect x="-71.942" y="79.049" transform="matrix(-0.9276 -0.3735 0.3735 -0.9276 -168.3512 131.214)" style="fill:#FFFFFF;" width="0.956" height="5.733"/>
	
		<rect x="-84.791" y="110.959" transform="matrix(-0.9275 -0.3739 0.3739 -0.9275 -205.0678 187.873)" style="fill:#FFFFFF;" width="0.956" height="5.733"/>
	
		<rect x="-80.508" y="100.322" transform="matrix(-0.9276 -0.3736 0.3736 -0.9276 -192.8147 169.0091)" style="fill:#FFFFFF;" width="0.956" height="5.733"/>
	
		<rect x="-76.225" y="89.686" transform="matrix(-0.9275 -0.3739 0.3739 -0.9275 -180.6043 150.0722)" style="fill:#FFFFFF;" width="0.956" height="5.733"/>
	<path style="fill:#FFFFFF;" d="M-67.314,70.332l-1.381,3.43l0.886,0.356l2.142-5.318l-0.179-0.072
		C-66.331,69.267-66.819,69.803-67.314,70.332z"/>
	<path style="fill:#FFFFFF;" d="M-42.773,9.386c0.011,0.219,0.011,0.437,0.02,0.656l0.642,0.258l2.141-5.318l-0.886-0.357
		L-42.773,9.386z"/>
	
		<rect x="-37.678" y="-6.041" transform="matrix(-0.9277 -0.3734 0.3734 -0.9277 -70.5244 -20.0097)" style="fill:#FFFFFF;" width="0.956" height="5.734"/>
	
		<rect x="-101.922" y="153.504" transform="matrix(-0.9278 -0.3731 0.3731 -0.9278 -253.9108 263.5934)" style="fill:#FFFFFF;" width="0.955" height="5.733"/>
	
		<rect x="-89.074" y="121.595" transform="matrix(-0.9278 -0.373 0.373 -0.9278 -217.2259 206.8894)" style="fill:#FFFFFF;" width="0.956" height="5.733"/>
	
		<rect x="-106.205" y="164.14" transform="matrix(-0.9278 -0.373 0.373 -0.9278 -266.1222 282.519)" style="fill:#FFFFFF;" width="0.955" height="5.734"/>
	
		<rect x="-93.357" y="132.231" transform="matrix(-0.9276 -0.3735 0.3735 -0.9276 -229.4913 225.7343)" style="fill:#FFFFFF;" width="0.956" height="5.734"/>
	
		<rect x="-97.64" y="142.868" transform="matrix(-0.9276 -0.3735 0.3735 -0.9276 -241.7267 244.6273)" style="fill:#FFFFFF;" width="0.956" height="5.733"/>
	
		<rect x="68.884" y="-70.935" transform="matrix(-0.4919 -0.8706 0.8706 -0.4919 162.7473 -41.1657)" style="fill:#FFFFFF;" width="0.956" height="5.733"/>
	
		<rect x="58.901" y="-65.295" transform="matrix(-0.492 -0.8706 0.8706 -0.492 142.9435 -41.4468)" style="fill:#FFFFFF;" width="0.956" height="5.733"/>
	
		<rect x="48.919" y="-59.654" transform="matrix(-0.492 -0.8706 0.8706 -0.492 123.139 -41.7221)" style="fill:#FFFFFF;" width="0.956" height="5.733"/>
	
		<rect x="38.936" y="-54.013" transform="matrix(-0.492 -0.8706 0.8706 -0.492 103.3332 -41.9953)" style="fill:#FFFFFF;" width="0.956" height="5.733"/>
	
		<rect x="86.461" y="-79.828" transform="matrix(0.8706 -0.4919 0.4919 0.8706 50.5922 33.6785)" style="fill:#FFFFFF;" width="5.733" height="0.956"/>
	
		<rect x="78.867" y="-76.576" transform="matrix(-0.4923 -0.8704 0.8704 -0.4923 182.566 -40.936)" style="fill:#FFFFFF;" width="0.955" height="5.733"/>
	
		<rect x="28.953" y="-48.373" transform="matrix(-0.4919 -0.8707 0.8707 -0.4919 83.5279 -42.2656)" style="fill:#FFFFFF;" width="0.956" height="5.734"/>
	
		<rect x="-20.961" y="-20.169" transform="matrix(-0.4922 -0.8705 0.8705 -0.4922 -15.5023 -43.6482)" style="fill:#FFFFFF;" width="0.956" height="5.733"/>
	
		<rect x="-10.978" y="-25.81" transform="matrix(-0.492 -0.8706 0.8706 -0.492 4.3084 -43.3718)" style="fill:#FFFFFF;" width="0.956" height="5.733"/>
	
		<rect x="-30.944" y="-14.528" transform="matrix(-0.4918 -0.8707 0.8707 -0.4918 -35.2971 -43.9234)" style="fill:#FFFFFF;" width="0.956" height="5.733"/>
	
		<rect x="8.987" y="-37.091" transform="matrix(-0.4919 -0.8706 0.8706 -0.4919 43.9186 -42.82)" style="fill:#FFFFFF;" width="0.956" height="5.733"/>
	
		<rect x="18.97" y="-42.732" transform="matrix(-0.4919 -0.8707 0.8707 -0.4919 63.7235 -42.5419)" style="fill:#FFFFFF;" width="0.956" height="5.733"/>
	
		<rect x="-0.995" y="-31.45" transform="matrix(-0.4921 -0.8705 0.8705 -0.4921 24.1111 -43.1005)" style="fill:#FFFFFF;" width="0.956" height="5.733"/>
</g>
<g id="puzzle-icon-group">
	<circle id="puzzle-bg" style="fill:#FFFFFF;" cx="325.423" cy="328.435" r="33.395"/>
	<path id="puzzle-icon" style="fill:#F7911E;" d="M338.675,315.287c5.219,4.671-1.816,6.352-1.816,6.352
		c-2.723,0.793-0.68,3.176-0.68,3.176l4.196,3.404c1.361,0.681,0.341,2.042,0.341,2.042l-3.29,3.063
		c-2.837,2.609-3.857-1.929-3.857-1.929c-2.269-4.651-5.785-1.247-5.785-1.247c-3.743,3.517-0.228,5.557-0.228,5.557
		c2.268,0.227,2.383,1.249,2.383,1.249c1.816,2.949-3.063,6.125-3.063,6.125c-1.02,1.248-1.815,0.114-1.815,0.114l-3.404-4.083
		c-2.043-2.95-3.176,0.568-3.176,0.568c-2.155,6.58-6.466,1.474-6.466,1.474c-3.29-4.425,1.7-6.24,1.7-6.24
		c4.65-1.928-3.402-5.671-3.402-5.671s-1.322-0.492,0.13-1.882l3.094-3.472c0,0,2.335-2.398,3.283,0.947c0,0,1.642,6.063,6.82,1.39
		c0,0,3.979-3.412-1.894-5.873c0,0-2.968-0.631-1.2-2.778l3.347-3.851c0,0,1.199-1.073,1.893-0.126l4.546,4.861
		c0,0,1.958,2.463,2.59-1.264C332.922,317.193,334.64,311.678,338.675,315.287z"/>
</g>
<g id="wrench-icon-group">
	<circle id="wrench-bg" style="fill:#FFFFFF;" cx="136.596" cy="178.301" r="33.395"/>
	<path id="wrench-icon" style="fill:#3DB771;" d="M152.284,167.394l-3.124,2.911l-2.91-0.217l-2.263-2.157l-0.108-3.016l2.371-2.479
		c1.616-2.157-1.616-1.939-1.616-1.939c-7.544,1.51-6.358,8.513-6.358,8.513c0.324,0.754-0.325,1.615-0.325,1.615l-4.063,4.258
		l-5.492,5.652c-0.484,0.716-1.51,0.539-1.51,0.539c-8.407-0.54-9.159,6.575-9.159,6.575c-0.323,3.77,1.509,2.155,1.509,2.155
		l3.124-2.911l2.91,0.217l2.263,2.156l0.109,3.018l-2.372,2.478c-1.616,2.158,1.616,1.94,1.616,1.94
		c7.543-1.51,6.358-8.513,6.358-8.513c-0.3-0.963,0.326-1.616,0.326-1.616l0.918-0.955l0.005,0.003l8.631-8.957
		c0.538-0.862,1.51-0.539,1.51-0.539c8.407,0.541,9.159-6.575,9.159-6.575C154.116,165.779,152.284,167.394,152.284,167.394z"/>
</g>
<g id="people-icon-group">
	<circle id="people-icon-bg" style="fill:#FFFFFF;" cx="377.036" cy="146.699" r="33.395"/>
	<path style="fill:#E83B5E;" d="M367.08,131.249c0,2.237-1.814,4.049-4.049,4.049c-2.237,0-4.05-1.812-4.05-4.049
		c0-2.237,1.812-4.05,4.05-4.05C365.265,127.199,367.08,129.012,367.08,131.249L367.08,131.249z M367.08,131.249"/>
	<path style="fill:#E83B5E;" d="M358.511,149.49h0.402v8.032c0,1.105,0.904,2.009,2.007,2.009h4.218
		c1.105,0,2.008-0.904,2.008-2.009v-0.469c-0.369-0.702-0.603-1.505-0.603-2.342v-10.51c0-2.041,1.239-3.816,3.012-4.586v-0.802
		c0-1.105-0.904-2.009-2.009-2.009h-9.035c-1.105,0-2.009,0.904-2.009,2.009v8.668C356.503,148.587,357.372,149.49,358.511,149.49
		L358.511,149.49z M358.511,149.49"/>
	<path style="fill:#E83B5E;" d="M395.126,131.249c0,2.237-1.814,4.049-4.049,4.049c-2.237,0-4.05-1.812-4.05-4.049
		c0-2.237,1.812-4.05,4.05-4.05C393.312,127.199,395.126,129.012,395.126,131.249L395.126,131.249z M395.126,131.249"/>
	<path style="fill:#E83B5E;" d="M384.517,138.78v0.804c1.773,0.769,3.012,2.543,3.012,4.584v10.477c0,0.837-0.201,1.639-0.603,2.342
		v0.469c0,1.105,0.904,2.008,2.009,2.008h4.218c1.103,0,2.007-0.904,2.007-2.008v-8.032h0.402c1.105,0,2.009-0.904,2.009-2.009
		v-8.635c0-1.105-0.904-2.009-2.009-2.009h-9.035C385.421,136.771,384.517,137.675,384.517,138.78L384.517,138.78z M384.517,138.78"
		/>
	<path style="fill:#E83B5E;" d="M369.59,144.202v10.51c0,1.103,0.904,2.007,2.007,2.007h0.771v9.472
		c0,1.105,0.902,2.009,2.007,2.009h5.39c1.103,0,2.007-0.904,2.007-2.009v-9.505h0.77c1.105,0,2.009-0.904,2.009-2.008v-10.475
		c0-1.105-0.904-2.009-2.009-2.009h-10.945C370.459,142.194,369.59,143.097,369.59,144.202L369.59,144.202z M369.59,144.202"/>
	<path style="fill:#E83B5E;" d="M381.704,135.868c0,2.57-2.082,4.653-4.651,4.653c-2.569,0-4.653-2.082-4.653-4.653
		c0-2.569,2.083-4.651,4.653-4.651C379.623,131.217,381.704,133.298,381.704,135.868L381.704,135.868z M381.704,135.868"/>
</g>
<g id="search-icon-group">
	<circle id="search-icon-bg" style="fill:#FFFFFF;" cx="141.551" cy="404.223" r="33.395"/>
	<g>
		<path style="fill:#E83B5E;" d="M155.045,420.728c-0.631,0.573-1.617,0.524-2.188-0.107l-8.179-9.005
			c-0.573-0.63-0.525-1.613,0.106-2.184l3.185-2.882c0.63-0.572,1.616-0.523,2.189,0.108l8.178,9.004
			c0.572,0.63,0.523,1.613-0.106,2.185L155.045,420.728z"/>
	</g>
	<g>
		<path style="fill:#E83B5E;" d="M124.058,397.96c0-1.366,0.223-2.753,0.695-4.115c2.271-6.567,9.439-10.049,16.007-7.778
			c5.205,1.801,8.472,6.677,8.472,11.892c0,1.363-0.224,2.753-0.695,4.116c-2.272,6.567-9.439,10.049-16.008,7.777
			C127.325,408.05,124.059,403.176,124.058,397.96 M127.47,397.96c0,3.906,2.481,7.389,6.176,8.669
			c2.315,0.801,4.804,0.652,7.007-0.419c2.205-1.07,3.86-2.934,4.661-5.251c0.336-0.974,0.508-1.984,0.508-2.999
			c0-3.908-2.482-7.391-6.178-8.668c-2.314-0.801-4.804-0.655-7.009,0.417c-2.202,1.071-3.857,2.935-4.658,5.252l0,0
			C127.64,395.935,127.47,396.942,127.47,397.96L127.47,397.96z"/>
	</g>
</g>
<g id="warning-icon-group">
	<circle id="warning-icon-bg" style="fill:#FFFFFF;" cx="13.398" cy="60.891" r="33.395"/>
	<path style="fill:#F7911E;" d="M31.883,69.837L17.194,44.395c-0.917-1.59-2.127-2.384-3.336-2.384c-1.21,0-2.421,0.794-3.34,2.384
		L-4.17,69.837c-1.836,3.182-0.333,5.784,3.338,5.784h29.378C32.218,75.62,33.719,73.019,31.883,69.837z M29.858,72.519
		c-0.046,0.058-0.419,0.3-1.312,0.3H-0.831c-0.893,0-1.266-0.242-1.307-0.295c-0.029-0.068-0.052-0.513,0.394-1.288l14.689-25.439
		c0.446-0.771,0.842-0.976,0.909-0.985c0.075,0.009,0.471,0.214,0.916,0.985l14.687,25.439
		C29.907,72.011,29.883,72.456,29.858,72.519z"/>
	<circle style="fill:#F7911E;" cx="13.858" cy="67.415" r="2.095"/>
	<rect x="11.942" y="54.835" style="fill:#F7911E;" width="3.83" height="8.902"/>
</g>
</svg>
