<?xml version="1.0" encoding="iso-8859-1"?>
<!-- Generator: Adobe Illustrator 19.0.0, SVG Export Plug-In . SVG Version: 6.00 Build 0)  -->
<svg version="1.1" id="Layer_1" xmlns="http://www.w3.org/2000/svg" xmlns:xlink="http://www.w3.org/1999/xlink" x="0px" y="0px"
	 viewBox="0 0 60 60" style="enable-background:new 0 0 60 60;" xml:space="preserve">
<style type="text/css">
	.st0{fill:#5C2D91;}
</style>
<g>
	<g id="XMLID_371_">
		<path class="st0" d="M29.999,60C13.457,60,0,46.542,0,29.999C0,13.457,13.457,0,29.999,0C46.542,0,60,13.457,60,29.999
			C60,46.542,46.542,60,29.999,60z M29.999,1.879c-15.506,0-28.12,12.614-28.12,28.12c0,15.507,12.614,28.122,28.12,28.122
			c15.507,0,28.122-12.615,28.122-28.122C58.121,14.493,45.506,1.879,29.999,1.879z"/>
	</g>
	<g id="XMLID_359_">
		<path class="st0" d="M50.02,44.871H10.46c-0.519,0-0.939-0.42-0.939-0.939V16.068c0-0.519,0.42-0.939,0.939-0.939H50.02
			c0.519,0,0.939,0.42,0.939,0.939v27.863C50.959,44.451,50.539,44.871,50.02,44.871z M11.4,42.992H49.08V17.008H11.4V42.992z"/>
	</g>
	<g id="XMLID_315_">
		<g id="XMLID_358_">
			<path class="st0" d="M31.401,38.613h-2.846c-2.704,0-4.501-0.827-5.342-2.458c-2.022-3.92,2.734-10.801,3.283-11.573
				c0.176-0.248,0.461-0.394,0.765-0.394h5.865c0.294,0,0.57,0.137,0.748,0.371c0.566,0.744,5.475,7.388,3.496,11.38
				C36.491,37.714,34.482,38.613,31.401,38.613z M27.755,26.067c-1.416,2.115-4.065,6.918-2.872,9.228
				c0.494,0.955,1.729,1.439,3.672,1.439h2.846c2.307,0,3.749-0.548,4.285-1.629c1.167-2.349-1.58-7.008-3.034-9.038H27.755z"/>
		</g>
		<g id="XMLID_357_">
			<path id="XMLID_9_" class="st0" d="M31.528,25.771c-0.519,0-0.939-0.42-0.939-0.939v-1.566h-0.627v1.409
				c0,0.519-0.42,0.939-0.939,0.939c-0.519,0-0.939-0.42-0.939-0.939v-2.349c0-0.519,0.42-0.939,0.939-0.939h2.505
				c0.519,0,0.939,0.42,0.939,0.939v2.505C32.468,25.351,32.048,25.771,31.528,25.771z"/>
		</g>
	</g>
	<g id="XMLID_283_">
		<g id="XMLID_314_">
			<path class="st0" d="M19.723,29.061h-4.227c-0.519,0-0.939-0.42-0.939-0.939v-4.227c0-0.519,0.42-0.939,0.939-0.939h4.227
				c0.519,0,0.939,0.42,0.939,0.939v4.227C20.663,28.64,20.242,29.061,19.723,29.061z M16.435,27.182h2.349v-2.349h-2.349V27.182z"
				/>
		</g>
		<g id="XMLID_313_">
			<path class="st0" d="M19.723,37.046h-4.227c-0.519,0-0.939-0.42-0.939-0.939v-4.227c0-0.519,0.42-0.939,0.939-0.939h4.227
				c0.519,0,0.939,0.42,0.939,0.939v4.227C20.663,36.625,20.242,37.046,19.723,37.046z M16.435,35.167h2.349v-2.349h-2.349V35.167z"
				/>
		</g>
	</g>
	<g id="XMLID_279_">
		<g id="XMLID_282_">
			<path class="st0" d="M44.775,28.905h-4.227c-0.519,0-0.939-0.42-0.939-0.939v-4.227c0-0.519,0.42-0.939,0.939-0.939h4.227
				c0.519,0,0.939,0.42,0.939,0.939v4.227C45.714,28.484,45.294,28.905,44.775,28.905z M41.487,27.026h2.349v-2.349h-2.349V27.026z"
				/>
		</g>
		<g id="XMLID_280_">
			<path class="st0" d="M44.775,37.203h-4.227c-0.519,0-0.939-0.42-0.939-0.939v-4.227c0-0.519,0.42-0.939,0.939-0.939h4.227
				c0.519,0,0.939,0.42,0.939,0.939v4.227C45.714,36.782,45.294,37.203,44.775,37.203z M41.487,35.324h2.349v-2.349h-2.349V35.324z"
				/>
		</g>
	</g>
</g>
</svg>
