<?xml version="1.0" encoding="iso-8859-1"?>
<!-- Generator: Adobe Illustrator 19.0.0, SVG Export Plug-In . SVG Version: 6.00 Build 0)  -->
<svg version="1.1" id="Layer_1" xmlns="http://www.w3.org/2000/svg" xmlns:xlink="http://www.w3.org/1999/xlink" x="0px" y="0px"
	 viewBox="0 0 60 60" style="enable-background:new 0 0 60 60;" xml:space="preserve">
<style type="text/css">
	.st0{fill:#5C2D91;}
	.st1{fill:none;stroke:#5C2D91;stroke-miterlimit:10;}
	.st2{fill:#231F20;}
</style>
<g>
	<path id="XMLID_4_" class="st0" d="M4.505,42.577h50.238c0.95,0,1.525-1.05,1.014-1.85l-5.968-9.343
		c-0.221-0.346-0.603-0.555-1.014-0.555H10.473c-0.41,0-0.793,0.209-1.014,0.555l-5.968,9.343
		C2.98,41.527,3.555,42.577,4.505,42.577z"/>
	<path id="XMLID_3_" class="st1" d="M28.61,1.403l-8.792,13.764c-0.511,0.801,0.064,1.85,1.014,1.85h17.584
		c0.95,0,1.525-1.05,1.014-1.85L30.637,1.403C30.164,0.662,29.083,0.662,28.61,1.403z"/>
	<path id="XMLID_2_" class="st1" d="M17.228,19.221l-5.179,8.107c-0.511,0.801,0.064,1.85,1.014,1.85h33.122
		c0.95,0,1.525-1.05,1.014-1.85l-5.179-8.107c-0.221-0.346-0.603-0.555-1.014-0.555H18.242
		C17.831,18.666,17.449,18.875,17.228,19.221z"/>
</g>
<g id="XMLID_5_">
	<path id="XMLID_6_" class="st2" d="M11.39,53.679H8.855v2.351h2.825v0.706H8.014v-6.521h3.521v0.706h-2.68v2.061h2.535V53.679z"/>
	<path id="XMLID_8_" class="st2" d="M12.625,55.864c0.251,0.165,0.696,0.339,1.122,0.339c0.619,0,0.909-0.31,0.909-0.696
		c0-0.406-0.242-0.629-0.871-0.861c-0.842-0.3-1.238-0.764-1.238-1.325c0-0.755,0.609-1.374,1.616-1.374
		c0.474,0,0.89,0.136,1.151,0.291l-0.212,0.619c-0.184-0.116-0.522-0.271-0.958-0.271c-0.503,0-0.784,0.29-0.784,0.639
		c0,0.387,0.281,0.562,0.89,0.793c0.813,0.31,1.229,0.716,1.229,1.413c0,0.822-0.638,1.402-1.751,1.402
		c-0.513,0-0.987-0.126-1.315-0.319L12.625,55.864z"/>
	<path id="XMLID_10_" class="st2" d="M17.595,50.708v1.345h1.219v0.648h-1.219v2.525c0,0.58,0.165,0.909,0.639,0.909
		c0.223,0,0.387-0.029,0.493-0.059l0.039,0.639c-0.165,0.068-0.426,0.116-0.755,0.116c-0.396,0-0.716-0.126-0.919-0.357
		c-0.242-0.252-0.329-0.668-0.329-1.22v-2.554h-0.726v-0.648h0.726v-1.122L17.595,50.708z"/>
	<path id="XMLID_12_" class="st2" d="M19.769,53.514c0-0.551-0.009-1.025-0.039-1.461h0.745l0.029,0.919h0.039
		c0.213-0.628,0.726-1.025,1.296-1.025c0.097,0,0.165,0.01,0.242,0.029v0.803c-0.087-0.019-0.174-0.028-0.29-0.028
		c-0.6,0-1.025,0.454-1.142,1.093c-0.019,0.116-0.039,0.252-0.039,0.396v2.496h-0.842V53.514z"/>
	<path id="XMLID_14_" class="st2" d="M25.475,56.735l-0.068-0.59h-0.029c-0.261,0.367-0.764,0.696-1.432,0.696
		c-0.948,0-1.432-0.668-1.432-1.345c0-1.132,1.006-1.751,2.815-1.741v-0.097c0-0.387-0.106-1.084-1.064-1.084
		c-0.436,0-0.89,0.136-1.219,0.349l-0.193-0.562c0.387-0.251,0.948-0.416,1.538-0.416c1.432,0,1.78,0.978,1.78,1.916v1.751
		c0,0.406,0.019,0.803,0.077,1.122H25.475z M25.349,54.346c-0.929-0.02-1.983,0.146-1.983,1.055c0,0.552,0.368,0.813,0.803,0.813
		c0.61,0,0.997-0.387,1.132-0.783c0.029-0.088,0.048-0.185,0.048-0.271V54.346z"/>
	<path id="XMLID_17_" class="st2" d="M28.528,50.708v1.345h1.219v0.648h-1.219v2.525c0,0.58,0.165,0.909,0.639,0.909
		c0.223,0,0.387-0.029,0.493-0.059l0.039,0.639c-0.165,0.068-0.426,0.116-0.755,0.116c-0.396,0-0.716-0.126-0.919-0.357
		c-0.242-0.252-0.329-0.668-0.329-1.22v-2.554h-0.726v-0.648h0.726v-1.122L28.528,50.708z"/>
	<path id="XMLID_19_" class="st2" d="M31.119,54.549c0.02,1.151,0.755,1.625,1.605,1.625c0.61,0,0.978-0.106,1.297-0.241
		l0.146,0.609c-0.301,0.136-0.813,0.29-1.558,0.29c-1.441,0-2.303-0.948-2.303-2.36s0.832-2.525,2.196-2.525
		c1.528,0,1.935,1.345,1.935,2.206c0,0.174-0.02,0.31-0.029,0.396H31.119z M33.615,53.939c0.01-0.542-0.223-1.383-1.181-1.383
		c-0.86,0-1.238,0.793-1.306,1.383H33.615z M33.818,50.031l-1.181,1.384h-0.609l0.852-1.384H33.818z"/>
	<path id="XMLID_23_" class="st2" d="M39.522,52.053c-0.02,0.339-0.039,0.716-0.039,1.287v2.719c0,1.073-0.212,1.731-0.667,2.138
		c-0.455,0.426-1.112,0.561-1.703,0.561c-0.561,0-1.18-0.135-1.557-0.387l0.212-0.648c0.31,0.194,0.794,0.368,1.374,0.368
		c0.871,0,1.51-0.455,1.51-1.635v-0.522h-0.02c-0.262,0.436-0.765,0.783-1.49,0.783c-1.161,0-1.993-0.986-1.993-2.283
		c0-1.586,1.035-2.486,2.109-2.486c0.813,0,1.258,0.426,1.461,0.813h0.02l0.038-0.707H39.522z M38.643,53.9
		c0-0.145-0.01-0.271-0.049-0.387c-0.154-0.493-0.57-0.899-1.189-0.899c-0.813,0-1.394,0.687-1.394,1.771
		c0,0.919,0.465,1.683,1.384,1.683c0.522,0,0.996-0.328,1.18-0.87c0.049-0.146,0.068-0.31,0.068-0.455V53.9z"/>
	<path id="XMLID_26_" class="st2" d="M41.782,50.737c0.01,0.29-0.203,0.522-0.542,0.522c-0.3,0-0.513-0.232-0.513-0.522
		c0-0.3,0.223-0.532,0.532-0.532C41.579,50.205,41.782,50.438,41.782,50.737z M40.834,56.735v-4.683h0.852v4.683H40.834z"/>
	<path id="XMLID_29_" class="st2" d="M46.434,56.562c-0.223,0.116-0.716,0.271-1.345,0.271c-1.412,0-2.332-0.958-2.332-2.39
		c0-1.441,0.987-2.486,2.516-2.486c0.503,0,0.948,0.126,1.181,0.242l-0.193,0.658c-0.204-0.116-0.522-0.223-0.987-0.223
		c-1.074,0-1.654,0.793-1.654,1.771c0,1.083,0.696,1.751,1.625,1.751c0.484,0,0.804-0.126,1.045-0.232L46.434,56.562z"/>
	<path id="XMLID_31_" class="st2" d="M51.606,54.355c0,1.731-1.199,2.486-2.331,2.486c-1.268,0-2.245-0.929-2.245-2.409
		c0-1.567,1.026-2.486,2.322-2.486C50.697,51.946,51.606,52.924,51.606,54.355z M47.892,54.404c0,1.025,0.59,1.799,1.422,1.799
		c0.813,0,1.423-0.764,1.423-1.818c0-0.794-0.397-1.8-1.403-1.8S47.892,53.514,47.892,54.404z"/>
</g>
</svg>
