<?xml version="1.0" encoding="iso-8859-1"?>
<!-- Generator: Adobe Illustrator 19.0.0, SVG Export Plug-In . SVG Version: 6.00 Build 0)  -->
<svg version="1.1" id="Layer_1" xmlns="http://www.w3.org/2000/svg" xmlns:xlink="http://www.w3.org/1999/xlink" x="0px" y="0px"
	 viewBox="0 0 60 60" style="enable-background:new 0 0 60 60;" xml:space="preserve">
<style type="text/css">
	.st0{fill:#5C2D91;}
</style>
<g>
	<g id="XMLID_225_">
		<path class="st0" d="M30.001,60C13.458,60,0,46.542,0,29.999C0,13.457,13.458,0,30.001,0C46.543,0,60,13.457,60,29.999
			C60,46.542,46.543,60,30.001,60z M30.001,1.879c-15.507,0-28.122,12.614-28.122,28.12c0,15.507,12.615,28.122,28.122,28.122
			c15.506,0,28.12-12.615,28.12-28.122C58.121,14.493,45.507,1.879,30.001,1.879z"/>
	</g>
	<g id="XMLID_137_">
		<g id="XMLID_174_">
			<path class="st0" d="M19.957,30.024c-1.083,0-2.051-0.126-2.88-0.372c-0.85-0.253-1.677-0.661-2.459-1.211
				c-0.647-0.471-1.161-1.029-1.537-1.669c-0.421-0.707-0.635-1.442-0.635-2.183c0-0.885,0.294-1.675,0.851-2.285
				c0.209-0.229,0.449-0.423,0.71-0.577c-0.028-0.025-0.055-0.05-0.082-0.076c-1.015-0.985-1.527-2.339-1.527-4.028
				c0-1.892,0.728-3.469,2.107-4.559c1.261-1.001,2.963-1.509,5.059-1.509c0.939,0,1.81,0.111,2.593,0.33
				c0.831,0.23,1.599,0.594,2.281,1.08c0.596,0.416,1.094,0.942,1.474,1.558c0.433,0.699,0.652,1.408,0.652,2.106
				c0,0.89-0.315,1.672-0.911,2.26c-0.12,0.12-0.25,0.228-0.386,0.325c0.594,0.448,1.062,0.991,1.398,1.623
				c0.422,0.79,0.637,1.735,0.637,2.807c0,1.963-0.721,3.556-2.143,4.735C23.844,29.47,22.093,30.024,19.957,30.024z M15.625,23.177
				c-0.385,0-0.701,0.132-0.939,0.393c-0.239,0.262-0.361,0.605-0.361,1.019c0,0.397,0.126,0.809,0.372,1.226
				c0.248,0.419,0.588,0.787,1.013,1.097c0.605,0.425,1.249,0.744,1.904,0.939c0.653,0.194,1.441,0.294,2.342,0.294
				c1.686,0,3.033-0.408,4.004-1.214c0.985-0.816,1.464-1.893,1.464-3.289c0-0.76-0.139-1.407-0.416-1.923
				c-0.279-0.524-0.715-0.956-1.296-1.285c-0.328-0.183-0.717-0.349-1.183-0.503c-0.47-0.158-1.189-0.355-2.202-0.605l-0.892-0.217
				c-1.577-0.371-2.381-0.928-2.381-1.658c0-0.544,0.203-0.955,0.621-1.255c0.401-0.292,0.984-0.441,1.729-0.441
				c0.513,0,0.963,0.072,1.338,0.217c0.369,0.143,0.683,0.358,0.911,0.624l0.294,0.373c0.481,0.628,0.955,0.928,1.46,0.928
				c0.383,0,0.694-0.117,0.925-0.346c0.236-0.232,0.354-0.542,0.354-0.924c0-0.344-0.125-0.72-0.372-1.118
				c-0.245-0.397-0.568-0.738-0.959-1.01c-0.511-0.364-1.081-0.633-1.703-0.805c-0.619-0.173-1.321-0.261-2.088-0.261
				c-1.661,0-2.971,0.371-3.893,1.103c-0.939,0.743-1.395,1.753-1.395,3.087c0,1.161,0.321,2.062,0.953,2.676
				c0.632,0.606,1.858,1.122,3.638,1.527c0.009,0.002,0.017,0.004,0.026,0.006l0.186,0.044c1.846,0.423,2.975,0.939,3.369,1.537
				c0.101,0.15,0.16,0.33,0.16,0.524c0,0.594-0.232,1.048-0.688,1.349c-0.45,0.303-1.111,0.452-2.013,0.452
				c-0.562,0-1.053-0.083-1.458-0.248c-0.405-0.164-0.75-0.418-1.025-0.756c-0.104-0.127-0.237-0.317-0.403-0.574
				C16.384,23.177,15.813,23.177,15.625,23.177z"/>
		</g>
		<g id="XMLID_141_">
			<path class="st0" d="M41.096,29.806c-1.075,0-1.885-0.277-2.479-0.848c-0.527-0.51-0.856-1.25-1.102-2.474
				c-0.231,1.15-0.562,1.897-1.07,2.412c-0.596,0.604-1.449,0.91-2.537,0.91c-0.982,0-1.731-0.232-2.292-0.709
				c-0.531-0.448-0.89-1.147-1.275-2.491L27.43,16.512c-0.098-0.379-0.153-0.626-0.182-0.785c-0.035-0.21-0.056-0.377-0.067-0.518
				c-0.006-1.054,0.304-1.874,0.916-2.508c0.628-0.64,1.442-0.976,2.36-0.976c1.183,0,1.913,0.532,2.318,0.978
				c0.441,0.486,0.757,1.163,0.99,2.13l0.06,0.247l0.035-0.169c0.221-1.064,0.612-1.834,1.195-2.352
				c0.457-0.409,1.035-0.67,1.724-0.777c0.173-0.227,0.446-0.369,0.746-0.369h0.003c0.297,0.001,0.566,0.14,0.739,0.363
				c0.686,0.102,1.264,0.354,1.723,0.753c0.589,0.516,0.975,1.302,1.219,2.473l0.009,0.04c0.271-1.081,0.583-1.786,1.01-2.28
				c0.582-0.671,1.42-1.039,2.364-1.039c1.218,0,1.955,0.526,2.359,0.967c0.543,0.59,0.819,1.375,0.819,2.334
				c0,0.172-0.017,0.398-0.061,0.673c-0.037,0.208-0.083,0.429-0.148,0.679l-2.945,10.203c-0.039,0.118-0.054,0.176-0.073,0.25
				C43.78,29.518,41.879,29.806,41.096,29.806z M37.518,20.834C37.518,20.834,37.518,20.834,37.518,20.834
				c0.448,0,0.832,0.315,0.921,0.752l0.912,4.496c0.158,0.799,0.35,1.31,0.571,1.524c0.221,0.213,0.616,0.321,1.174,0.321
				c0.785,0,1.335-0.537,1.636-1.595c0.024-0.091,0.049-0.178,0.09-0.305l2.927-10.142c0.042-0.169,0.08-0.344,0.107-0.502
				c0.023-0.14,0.036-0.264,0.036-0.359c0-0.472-0.108-0.829-0.323-1.061c-0.002-0.002-0.003-0.003-0.005-0.005
				c-0.215-0.236-0.542-0.356-0.972-0.356c-0.402,0-0.719,0.131-0.944,0.389c-0.223,0.259-0.436,0.795-0.629,1.594l-0.96,3.976
				c-0.103,0.428-0.515,0.743-0.928,0.719c-0.439-0.007-0.816-0.318-0.905-0.75l-0.857-4.148c-0.152-0.729-0.36-1.215-0.616-1.44
				c-0.252-0.219-0.649-0.335-1.176-0.34c-0.016,0-0.031-0.001-0.047-0.002c-0.017,0.002-0.036,0.003-0.054,0.003
				c-0.522,0.009-0.916,0.128-1.17,0.356c-0.27,0.24-0.473,0.687-0.606,1.331l-0.879,4.26c-0.089,0.43-0.464,0.741-0.904,0.75
				c-0.431,0.005-0.825-0.29-0.929-0.717l-1.05-4.309c-0.154-0.641-0.336-1.069-0.555-1.309c-0.443-0.488-1.418-0.489-1.94,0.045
				c-0.26,0.269-0.387,0.639-0.386,1.123c0.005,0.028,0.02,0.141,0.042,0.276c0.021,0.119,0.069,0.32,0.143,0.607l2.904,10.069
				c0.251,0.876,0.482,1.406,0.684,1.577c0.207,0.176,0.568,0.264,1.077,0.264c0.389,0,0.913-0.061,1.199-0.35
				c0.232-0.236,0.42-0.728,0.572-1.502l0.917-4.49C36.687,21.148,37.071,20.834,37.518,20.834z"/>
		</g>
		<g id="XMLID_140_">
			<path class="st0" d="M20.922,49.354c-2.624,0-4.762-0.871-6.355-2.588c-1.551-1.675-2.338-3.911-2.338-6.647
				c0-2.745,0.788-4.983,2.341-6.654c1.59-1.713,3.727-2.582,6.352-2.582c2.618,0,4.758,0.872,6.357,2.589
				c1.565,1.683,2.359,3.918,2.359,6.647c0,2.728-0.794,4.964-2.359,6.645C25.68,48.482,23.541,49.354,20.922,49.354z
				 M20.922,32.762c-2.081,0-3.755,0.667-4.976,1.982c-1.22,1.312-1.838,3.12-1.838,5.375c0,2.247,0.618,4.053,1.838,5.37
				c1.222,1.317,2.897,1.986,4.977,1.986c2.076,0,3.752-0.67,4.981-1.992c1.231-1.322,1.855-3.127,1.855-5.364
				c0-2.238-0.624-4.044-1.855-5.366C24.674,33.432,22.998,32.762,20.922,32.762z M20.922,44.971c-1.236,0-2.172-0.417-2.861-1.272
				c-0.681-0.851-1.025-2.055-1.025-3.581c0-1.537,0.344-2.742,1.023-3.583c0.681-0.843,1.644-1.271,2.863-1.271
				c1.25,0,2.195,0.417,2.893,1.273c0.685,0.849,1.032,2.052,1.032,3.581c0,1.527-0.347,2.731-1.031,3.576
				C23.119,44.554,22.173,44.971,20.922,44.971z M20.922,37.144c-0.832,0-1.186,0.305-1.401,0.572
				c-0.396,0.492-0.606,1.323-0.606,2.404c0,1.073,0.211,1.905,0.611,2.405c0.226,0.28,0.57,0.569,1.396,0.569
				c0.849,0,1.201-0.294,1.434-0.58c0.4-0.494,0.612-1.323,0.612-2.394c0-1.072-0.212-1.901-0.613-2.397
				C22.123,37.436,21.771,37.144,20.922,37.144z"/>
		</g>
		<g id="XMLID_139_">
			<path class="st0" d="M38.336,49.135c-1.005,0-1.852-0.338-2.451-0.976c-0.577-0.613-0.87-1.43-0.87-2.429v-8.236h-1.031
				c-0.939,0-1.709-0.257-2.291-0.763c-0.454-0.401-0.992-1.127-0.992-2.337c0-0.946,0.353-1.778,0.994-2.341
				c0.583-0.516,1.354-0.781,2.288-0.781h8.693c0.936,0,1.709,0.264,2.299,0.786c0.635,0.564,0.983,1.393,0.983,2.336
				c0,0.939-0.351,1.765-0.99,2.325c-0.586,0.515-1.358,0.775-2.293,0.775h-1.031v8.236c0,0.997-0.288,1.814-0.856,2.427
				C40.186,48.799,39.339,49.135,38.336,49.135z M33.984,33.15c-0.461,0-0.812,0.105-1.044,0.311c-0.24,0.21-0.36,0.523-0.36,0.932
				c0,0.407,0.118,0.718,0.351,0.924c0.226,0.196,0.581,0.297,1.052,0.297h1.971c0.519,0,0.939,0.42,0.939,0.939v9.176
				c0,0.505,0.121,0.889,0.36,1.142c0.243,0.259,0.596,0.384,1.083,0.384c0.484,0,0.839-0.126,1.081-0.383
				c0.231-0.249,0.35-0.635,0.35-1.143v-9.176c0-0.519,0.42-0.939,0.939-0.939h1.971c0.465,0,0.82-0.104,1.054-0.309
				c0.232-0.204,0.35-0.51,0.35-0.912c0-0.41-0.118-0.723-0.35-0.93c-0.235-0.207-0.59-0.313-1.053-0.313H33.984z"/>
		</g>
	</g>
</g>
</svg>
