<?xml version="1.0" encoding="iso-8859-1"?>
<!-- Generator: Adobe Illustrator 19.0.0, SVG Export Plug-In . SVG Version: 6.00 Build 0)  -->
<svg version="1.1" id="Layer_1" xmlns="http://www.w3.org/2000/svg" xmlns:xlink="http://www.w3.org/1999/xlink" x="0px" y="0px"
	 viewBox="0 0 60 60" style="enable-background:new 0 0 60 60;" xml:space="preserve">
<style type="text/css">
	.st0{fill:#5C2D91;}
</style>
<g>
	<g id="XMLID_179_">
		<path class="st0" d="M30,60C13.458,60,0,46.542,0,29.999C0,13.457,13.458,0,30,0s30,13.457,30,29.999C60,46.542,46.542,60,30,60z
			 M30,1.879c-15.506,0-28.121,12.614-28.121,28.12c0,15.507,12.615,28.122,28.121,28.122s28.121-12.615,28.121-28.122
			C58.121,14.493,45.506,1.879,30,1.879z"/>
	</g>
	<g id="XMLID_178_">
		<path class="st0" d="M48.202,43.884H11.798c-0.519,0-0.939-0.42-0.939-0.939V24.059c0-0.519,0.42-0.939,0.939-0.939h36.404
			c0.519,0,0.939,0.42,0.939,0.939v18.886C49.142,43.464,48.721,43.884,48.202,43.884z M12.737,42.005h34.526V24.998H12.737V42.005z
			"/>
	</g>
	<g id="XMLID_177_">
		<path class="st0" d="M25.806,39.151c-0.151,0-0.304-0.037-0.442-0.111c-0.306-0.163-0.497-0.482-0.497-0.828l0.001-10.306
			c0-0.333,0.177-0.641,0.464-0.81c0.288-0.169,0.642-0.172,0.934-0.01l8.388,4.69c0.285,0.16,0.467,0.456,0.48,0.783
			s-0.144,0.637-0.416,0.818l-8.389,5.616C26.171,39.098,25.988,39.151,25.806,39.151z M26.746,29.507l-0.001,6.945l5.653-3.784
			L26.746,29.507z"/>
	</g>
	<g id="XMLID_176_">
		<path class="st0" d="M21.831,22.564h-3.484c-0.519,0-0.939-0.42-0.939-0.939V14.46c0-0.519,0.42-0.939,0.939-0.939h3.484
			c0.519,0,0.939,0.42,0.939,0.939v7.164C22.77,22.143,22.35,22.564,21.831,22.564z M19.286,20.685h1.605V15.4h-1.605V20.685z"/>
	</g>
	<g id="XMLID_153_">
		<path class="st0" d="M28.406,22.564h-3.484c-0.519,0-0.939-0.42-0.939-0.939V10.402c0-0.519,0.42-0.939,0.939-0.939h3.484
			c0.519,0,0.939,0.42,0.939,0.939v11.223C29.346,22.143,28.926,22.564,28.406,22.564z M25.862,20.685h1.605v-9.344h-1.605V20.685z"
			/>
	</g>
	<g id="XMLID_152_">
		<path class="st0" d="M34.982,22.564h-3.484c-0.519,0-0.939-0.42-0.939-0.939v-4.845c0-0.519,0.42-0.939,0.939-0.939h3.484
			c0.519,0,0.939,0.42,0.939,0.939v4.845C35.922,22.143,35.502,22.564,34.982,22.564z M32.438,20.685h1.605v-2.966h-1.605V20.685z"
			/>
	</g>
	<g id="XMLID_147_">
		<path class="st0" d="M41.558,22.564h-3.484c-0.519,0-0.939-0.42-0.939-0.939v-8.613c0-0.519,0.42-0.939,0.939-0.939h3.484
			c0.519,0,0.939,0.42,0.939,0.939v8.613C42.498,22.143,42.078,22.564,41.558,22.564z M39.013,20.685h1.605V13.95h-1.605V20.685z"/>
	</g>
</g>
</svg>
