<?xml version="1.0" encoding="iso-8859-1"?>
<!-- Generator: Adobe Illustrator 19.0.0, SVG Export Plug-In . SVG Version: 6.00 Build 0)  -->
<svg version="1.1" id="Layer_1" xmlns="http://www.w3.org/2000/svg" xmlns:xlink="http://www.w3.org/1999/xlink" x="0px" y="0px"
	 viewBox="0 0 49.077 49.076" style="enable-background:new 0 0 49.077 49.076;" xml:space="preserve">
<g id="about-nas-gear">
	<g>
		<path style="fill:#8DC63F;" d="M-91.353-74.638c13.061,0,23.686,10.625,23.686,23.685c0,13.061-10.626,23.686-23.686,23.686
			c-13.061,0-23.686-10.625-23.686-23.686C-115.039-64.013-104.414-74.638-91.353-74.638 M-91.353-75.491
			c-13.516,0-24.539,11.023-24.539,24.537c0,13.516,11.023,24.539,24.539,24.539c13.516,0,24.539-11.023,24.539-24.539
			C-66.814-64.468-77.837-75.491-91.353-75.491L-91.353-75.491z"/>
	</g>
	<g>
		<path style="fill:#8DC63F;" d="M-89.512-65.743c-0.001,0.132-0.002,0.258-0.003,0.378c-0.025,2.897,0.041,3.251,2.065,4.334
			c0.436,0.233,0.978,0.523,1.666,0.943c0.137,0.084,0.291,0.125,0.444,0.125c0.22,0,0.439-0.085,0.603-0.25l2.521-2.519l2.64,2.639
			c-0.06,0.059-0.118,0.116-0.174,0.172c-2.138,2.109-2.35,2.419-1.667,4.771c0.129,0.446,0.29,1,0.462,1.702
			c0.093,0.382,0.435,0.651,0.828,0.651h3.564v2.612c-3.16,0.019-3.779,0.216-4.419,2.116c-0.209,0.62-0.495,1.469-1.237,2.684
			c-0.205,0.336-0.154,0.769,0.124,1.047l2.521,2.522l-2.634,2.634c-0.11-0.115-0.216-0.226-0.318-0.333
			c-1.143-1.201-1.969-2.068-3.335-2.068c-0.825,0-1.783,0.331-3.203,1.108c-0.274,0.15-0.444,0.436-0.444,0.748v3.564h-3.686
			c0.001-0.145,0.002-0.283,0.003-0.414c0.025-2.838-0.048-3.24-2.01-4.275c-0.447-0.236-1.003-0.529-1.721-0.968
			c-0.138-0.084-0.292-0.125-0.444-0.125c-0.22,0-0.439,0.085-0.603,0.25l-2.52,2.521l-2.645-2.643
			c2.24-2.271,2.483-2.817,1.933-4.971c-0.165-0.647-0.371-1.452-0.533-2.66c-0.057-0.423-0.418-0.739-0.845-0.739h-3.563v-2.607
			c0.124,0.001,0.243,0.002,0.357,0.003c0.281,0.002,0.533,0.004,0.76,0.004c2.286,0,2.667-0.339,3.596-2.071
			c0.233-0.435,0.524-0.977,0.944-1.664c0.205-0.336,0.154-0.769-0.125-1.047l-2.521-2.521l2.64-2.639
			c0.043,0.044,0.085,0.086,0.127,0.128c1.434,1.449,2.027,2.049,3.054,2.049c0.451,0,0.906-0.129,1.536-0.307
			c0.485-0.137,1.089-0.308,1.906-0.486c0.392-0.085,0.672-0.432,0.672-0.833v-3.564H-89.512 M-88.656-66.595h-5.395v4.416
			c-1.846,0.4-2.649,0.774-3.261,0.774c-0.78,0-1.252-0.605-3.179-2.531l-3.848,3.847l3.124,3.124
			c-1.877,3.073-1.246,3.327-3.812,3.327c-0.508,0-1.142-0.01-1.945-0.01c-0.008,0-0.016,0-0.024,0v4.315h4.415
			c0.65,4.842,2.037,3.723-1.759,7.519l3.849,3.847l3.123-3.124c3.705,2.264,3.317,0.818,3.317,5.783h5.395v-4.416
			c1.265-0.692,2.113-1.003,2.794-1.003c1.258,0,1.948,1.064,3.647,2.761l3.847-3.847l-3.124-3.125
			c2.56-4.188,0.067-4.394,5.781-4.394v-4.315h-4.416c-1.012-4.146-1.613-3.069,1.759-6.441l-3.848-3.847l-3.124,3.122
			C-89.037-63.068-88.656-61.704-88.656-66.595L-88.656-66.595z"/>
	</g>
	<g>
		<path style="fill:#8DC63F;" d="M-91.354-56.033c2.802,0,5.082,2.279,5.082,5.081c0,2.801-2.28,5.081-5.082,5.081
			c-2.802,0-5.081-2.28-5.081-5.082C-96.435-53.754-94.156-56.033-91.354-56.033 M-91.354-56.886c-3.277,0-5.933,2.656-5.933,5.932
			c0,3.277,2.656,5.935,5.933,5.935c3.277,0,5.935-2.657,5.935-5.933C-85.42-54.23-88.077-56.886-91.354-56.886L-91.354-56.886z"/>
	</g>
</g>
<g id="about-nas-id">
	
		<path style="fill-rule:evenodd;clip-rule:evenodd;fill:none;stroke:#F7941E;stroke-width:0.8527;stroke-linecap:round;stroke-linejoin:round;stroke-miterlimit:2.6131;" d="
		M12.545-53.448v4.329c0,0.892,0.724,1.618,1.618,1.618h3.779"/>
	
		<path style="fill-rule:evenodd;clip-rule:evenodd;fill:none;stroke:#F7941E;stroke-width:0.8527;stroke-linecap:round;stroke-linejoin:round;stroke-miterlimit:2.6131;" d="
		M36.246-53.448v4.329c0,0.892-0.724,1.618-1.618,1.618h-3.78"/>
	
		<path style="fill-rule:evenodd;clip-rule:evenodd;fill:none;stroke:#F7941E;stroke-width:0.8527;stroke-linecap:round;stroke-linejoin:round;stroke-miterlimit:2.6131;" d="
		M12.544-62.411v-4.329c0-0.892,0.724-1.618,1.618-1.618h3.779"/>
	
		<path style="fill-rule:evenodd;clip-rule:evenodd;fill:none;stroke:#F7941E;stroke-width:0.8527;stroke-linecap:round;stroke-linejoin:round;stroke-miterlimit:2.6131;" d="
		M36.247-62.411v-4.329c0-0.892-0.724-1.618-1.618-1.618h-3.779"/>
	<g>
		<g>
			<path style="fill:#F7941E;" d="M24.732-74.639c13.061,0,23.686,10.626,23.686,23.686S37.793-27.266,24.732-27.266
				c-13.061,0-23.686-10.626-23.686-23.686S11.672-74.639,24.732-74.639 M24.732-75.491c-13.516,0-24.539,11.025-24.539,24.539
				c0,13.517,11.024,24.539,24.539,24.539c13.516,0,24.539-11.022,24.539-24.539C49.272-64.467,38.248-75.491,24.732-75.491
				L24.732-75.491z"/>
		</g>
		<g>
			<path style="fill-rule:evenodd;clip-rule:evenodd;fill:none;stroke:#F7941E;stroke-width:0.8527;stroke-miterlimit:2.6131;" d="
				M21.496-49.237v3.412l-7.002,2.597c-1.624,0.581-2.708,2.149-2.708,3.874v2.159h25.892v-2.159c0-1.725-1.132-3.293-2.756-3.874
				l-6.954-2.597v-3.677"/>
			<g>
				<path style="fill:#F7941E;" d="M24.538-63.854c3.28,0,5.949,3.28,5.949,7.311c0,4.03-2.669,7.308-5.949,7.308
					c-3.28,0-5.948-3.278-5.948-7.308C18.59-60.574,21.259-63.854,24.538-63.854 M24.538-64.707c-3.757,0-6.801,3.654-6.801,8.163
					c0,4.507,3.044,8.161,6.801,8.161c3.756,0,6.801-3.654,6.801-8.161C31.34-61.053,28.294-64.707,24.538-64.707L24.538-64.707z"/>
			</g>
			<path style="fill-rule:evenodd;clip-rule:evenodd;fill:none;stroke:#F7941E;stroke-width:0.8527;stroke-miterlimit:2.6131;" d="
				M31.314-57.267c-0.229,0.027-0.425-0.002-0.655,0.042c-2.317,0.447-2.595,0.306-3.871-1.925
				c-1.321,2.532-6.029,1.596-8.964,1.292"/>
		</g>
	</g>
</g>
<g id="about-nas-googles">
	<g>
		<path style="fill:#8DC63F;" d="M33.761,13.476c1.428,0,1.755,0.4,3.145,2.888c0.046,0.083,0.105,0.155,0.172,0.217l3.293,6.737
			c0.004,0.173,0.06,0.345,0.169,0.49c0.969,1.301,1.481,2.82,1.481,4.393c0,4.08-3.319,7.4-7.398,7.4
			c-3.905,0-7.135-3.069-7.352-6.988c-0.025-0.452-0.399-0.805-0.851-0.805h-3.761c-0.452,0-0.826,0.353-0.851,0.805
			c-0.22,3.919-3.45,6.988-7.355,6.988c-4.078,0-7.397-3.32-7.397-7.4c0-1.567,0.508-3.082,1.47-4.379
			c0.105-0.142,0.161-0.309,0.167-0.478l3.144-6.395c0.009-0.019,0.018-0.038,0.026-0.058c1.032-2.563,1.634-3.416,3.16-3.416
			c1.165,0,1.981,0.271,2.495,0.829c0.968,1.05,0.8,3.097,0.678,4.592c-0.038,0.465-0.074,0.904-0.074,1.275
			c0,0.471,0.382,0.853,0.853,0.853h10.835c0.471,0,0.853-0.382,0.853-0.853c0-0.306-0.02-0.671-0.042-1.074
			c-0.087-1.576-0.205-3.735,0.835-4.834C31.958,13.733,32.712,13.476,33.761,13.476 M33.761,12.623c-5.021,0-3.95,5.366-3.95,7.549
			H18.975c0-2.183,1.418-7.549-3.952-7.549c-2.181,0-2.976,1.529-3.951,3.95l-3.323,6.76l0.092-0.019
			c-1.016,1.371-1.638,3.052-1.638,4.887c0,4.559,3.694,8.253,8.249,8.253c4.401,0,7.963-3.454,8.206-7.793h3.761
			c0.241,4.339,3.802,7.793,8.203,7.793c4.557,0,8.251-3.693,8.251-8.253c0-1.841-0.627-3.529-1.65-4.902l0.104,0.035l-3.612-7.39
			l-0.066,0.005C36.265,13.468,35.73,12.623,33.761,12.623L33.761,12.623z"/>
	</g>
	<g>
		<path style="fill:#8DC63F;" d="M14.537,23.266c2.737,0,4.964,2.227,4.964,4.965c0,2.736-2.227,4.963-4.964,4.963
			c-2.736,0-4.962-2.226-4.962-4.963C9.574,25.494,11.801,23.266,14.537,23.266 M14.537,22.414c-3.211,0-5.815,2.606-5.815,5.818
			s2.604,5.815,5.815,5.815c3.212,0,5.816-2.604,5.816-5.815S17.749,22.414,14.537,22.414L14.537,22.414z"/>
	</g>
	<g>
		<path style="fill:#8DC63F;" d="M26.363,24.416c-0.235,0.516-0.42,1.056-0.556,1.618h-2.536c-0.134-0.565-0.317-1.105-0.547-1.618
			H26.363 M27.892,23.457c-0.201,0.066-0.317,0.107-0.317,0.107h-6.302c0.667,0.974,1.103,2.108,1.299,3.323h3.933
			C26.71,25.623,27.185,24.459,27.892,23.457L27.892,23.457z"/>
	</g>
	<g>
		<path style="fill:#8DC63F;" d="M34.649,23.266c2.737,0,4.963,2.227,4.963,4.965c0,2.736-2.226,4.963-4.963,4.963
			c-2.736,0-4.962-2.226-4.962-4.963C29.687,25.494,31.913,23.266,34.649,23.266 M34.649,22.414c-3.214,0-5.815,2.606-5.815,5.818
			s2.602,5.815,5.815,5.815c3.211,0,5.816-2.604,5.816-5.815S37.86,22.414,34.649,22.414L34.649,22.414z"/>
	</g>
	
		<path style="fill:none;stroke:#8DC63F;stroke-width:0.8527;stroke-linecap:round;stroke-linejoin:round;stroke-miterlimit:2.6131;" d="
		M38.175,26.333c0.305,0.565,0.478,1.211,0.478,1.898c0,2.211-1.793,4.003-4.003,4.003"/>
	<g>
		
			<path style="fill:none;stroke:#8DC63F;stroke-width:0.8527;stroke-linecap:round;stroke-linejoin:round;stroke-miterlimit:2.6131;" d="
			M18.063,26.333c0.305,0.565,0.478,1.211,0.478,1.898c0,2.211-1.793,4.003-4.003,4.003"/>
	</g>
	<g>
		<path style="fill:#8DC63F;" d="M24.539,0.853c13.06,0,23.686,10.625,23.686,23.685c0,13.061-10.626,23.686-23.686,23.686
			S0.853,37.598,0.853,24.537C0.853,11.478,11.478,0.853,24.539,0.853 M24.539,0C11.023,0,0,11.023,0,24.537
			c0,13.516,11.023,24.539,24.539,24.539s24.539-11.023,24.539-24.539C49.077,11.023,38.055,0,24.539,0L24.539,0z"/>
	</g>
</g>
<g id="about-nas-sustain">
	<g>
		<g>
			<path style="fill:#8DC63F;" d="M137.876-74.638c13.061,0,23.686,10.625,23.686,23.685c0,13.061-10.626,23.686-23.686,23.686
				c-13.06,0-23.686-10.625-23.686-23.686C114.19-64.013,124.816-74.638,137.876-74.638 M137.876-75.491
				c-13.516,0-24.539,11.023-24.539,24.537c0,13.516,11.023,24.539,24.539,24.539c13.516,0,24.539-11.023,24.539-24.539
				C162.415-64.468,151.392-75.491,137.876-75.491L137.876-75.491z"/>
		</g>
	</g>
	<g>
		<g>
			<defs>
				<path id="SVGID_3_" d="M138.954-64.263c6.461,0,11.702,5.241,11.702,11.702s-5.24,11.702-11.702,11.702
					c-6.461,0-11.702-5.241-11.702-11.702S132.493-64.263,138.954-64.263L138.954-64.263z"/>
			</defs>
			<clipPath id="SVGID_1_">
				<use xlink:href="#SVGID_3_"  style="overflow:visible;"/>
			</clipPath>
			<g style="clip-path:url(#SVGID_1_);">
				<g>
					<path style="fill:#8DC63F;" d="M138.185-63.738c-0.17,0.145-0.324,0.364-0.36,0.719c-0.019,0.189-0.297,0.547-0.481,0.785
						c-0.273,0.351-0.513,0.661-0.465,0.97c-0.339-0.361-0.677-0.635-0.95-0.857c-0.179-0.146-0.363-0.294-0.475-0.417
						c0.286-0.115,0.586-0.246,0.726-0.486C136.87-63.613,137.74-63.723,138.185-63.738 M145.123-62.19
						c0.252,0.152,0.566,0.38,0.89,0.688c-0.364,1.065-0.928,1.189-1.201,1.189c0,0-0.001,0-0.001,0
						c-0.024-0.004-0.053-0.007-0.077-0.008c-0.088-0.004-0.233-0.036-0.308-0.089l0.732-0.49c0.195-0.131,0.273-0.379,0.188-0.598
						C145.273-61.683,145.188-61.942,145.123-62.19 M130.831-60.588c-0.028,0.082-0.053,0.162-0.071,0.234
						c-0.095,0.395,0.1,0.834,0.162,0.959c0.079,0.158,0.236,0.263,0.412,0.276c0,0,0.114,0.008,0.264,0.008
						c0.757,0,1.14-0.233,1.14-0.692c0-0.182-0.041-0.342-0.099-0.47c0.181-0.029,0.425-0.053,0.74-0.053
						c0.184,0,0.389,0.008,0.617,0.027c0.592,0.05,0.643,0.215,0.746,0.545c0.068,0.219,0.165,0.529,0.452,0.736
						c-0.089,0.125-0.223,0.283-0.316,0.392c-0.014,0.017-0.029,0.034-0.043,0.05c0.008-0.093,0-0.193-0.036-0.297
						c-0.066-0.197-0.245-0.452-0.725-0.551c-0.062-0.012-0.123-0.018-0.183-0.018c-0.393,0-0.762,0.248-1.012,0.681
						c-0.091,0.157-0.369,0.701-0.139,1.099c0.104,0.181,0.291,0.289,0.499,0.289c0.018,0,0.042-0.002,0.066-0.004
						c0.022,0.017,0.048,0.046,0.056,0.046c0.001,0,0.001,0,0.002-0.001c-0.044,0.217-0.044,0.217-0.239,0.641l-0.101,0.221
						c-0.162,0.36-0.461,0.67-0.651,0.844c-0.005,0-0.01,0-0.016,0c-0.173,0-0.377,0.109-0.468,0.256
						c-0.177,0.285-0.024,0.593,0.027,0.696c0.014,0.035,0.02,0.091,0.019,0.16c-0.005-0.016-0.008-0.032-0.012-0.048
						c-0.087-0.429-0.396-0.695-0.807-0.695c-0.29,0-0.572,0.135-0.779,0.233c-0.055,0.026-0.102,0.051-0.119,0.058
						c-0.086,0-0.219-0.069-0.245-0.117c-0.093-0.232-0.312-0.376-0.571-0.376c-0.365,0-0.796,0.291-1.412,0.735
						c-0.124,0.09-0.229,0.166-0.295,0.206c-0.001,0-0.002,0.001-0.003,0.001l0.007-0.033c0.056-0.278-0.002-0.593-0.058-0.898
						c-0.018-0.101-0.039-0.211-0.049-0.295C128.542-58.027,129.755-59.57,130.831-60.588 M143.766-58.256
						c0.079,0.042,0.22,0.167,0.317,0.253c0.314,0.278,0.743,0.658,1.347,0.658c0.077,0,0.156-0.006,0.238-0.02
						c0.017-0.003,0.034-0.006,0.051-0.009c-0.019,0.033-0.034,0.068-0.045,0.105c-0.012,0.042-0.282,0.988,0.369,2.139
						c-0.036,0.12-0.082,0.237-0.124,0.314l-1.46-0.734c-0.049-0.021-0.232-0.09-0.521-0.09c-0.282,0-0.733,0.069-1.278,0.396
						c-0.159,0.095-0.381,0.143-0.659,0.143c-0.23,0-0.459-0.033-0.651-0.073c0.106-0.166,0.275-0.349,0.543-0.482
						c0.018-0.009,0.036-0.019,0.053-0.031l0.712-0.47c0.172-0.114,0.257-0.322,0.213-0.524c-0.044-0.202-0.132-0.812-0.033-1.256
						C143.074-57.938,143.388-57.981,143.766-58.256 M147.02-58.087c0.114,0,0.333,0.249,0.437,0.453
						c0.075,0.15,0.22,0.253,0.386,0.273l1.323,0.165c0.021,0.003,0.041,0.004,0.062,0.004c0.029,0,0.058-0.003,0.086-0.007
						c0.518,1.306,0.943,2.867,1.013,3.654c-0.034-0.007-0.069-0.011-0.104-0.011h-1.21l0.055-0.02
						c0.165-0.059,0.286-0.201,0.321-0.373l0.166-0.83c0.014-0.069,0.013-0.141-0.003-0.209l-0.264-1.156
						c-0.036-0.158-0.147-0.289-0.297-0.351l-2.604-1.075c0.159-0.085,0.259-0.189,0.354-0.323c0.042-0.059,0.069-0.098,0.232-0.178
						C146.99-58.082,147.007-58.087,147.02-58.087 M148.096-53.226c-0.06,0.168-0.027,0.357,0.09,0.494l0.976,1.142
						c0.092,0.129,0.452,0.586,1.007,0.774c-0.507,3.738-3.112,6.434-4.13,7.36c-0.039-0.14-0.006-0.229,0.002-0.247
						c0.028-0.048,0.047-0.101,0.057-0.156l0.186-0.995c0.004-0.02,0.006-0.04,0.008-0.061l0.105-1.707
						c0-0.656-0.366-1.633-1.373-1.633c-0.292,0-0.606,0.082-0.957,0.251c-0.595,0.153-0.915,0.257-1.128,0.327
						c-0.382,0.125-0.45,0.147-1.568,0.225l-0.051,0.002c-0.16,0-0.282-0.055-0.397-0.179c-0.503-0.544-0.586-2.102-0.519-2.995
						c0-1.115,0.178-2.445,1.024-2.445c0.859,0,2.083,1.016,2.482,1.408c0.022,0.022,0.047,0.042,0.073,0.06
						c0.577,0.384,1.114,0.578,1.598,0.578c1.216,0,1.767-1.139,1.942-1.996L148.096-53.226 M131.784-51.489
						c0.084,0,0.143,0.009,0.178,0.017c0.226,0.646,1.134,0.863,1.804,1.023c0.102,0.024,0.192,0.046,0.262,0.066
						c0.109,0.031,0.242,0.059,0.39,0.09c0.408,0.084,0.915,0.189,1.198,0.47c0.045,0.13-0.228,0.588-0.318,0.738
						c-0.124,0.208-0.222,0.372-0.257,0.542c-0.05,0.244-0.442,1.032-0.64,1.428c-0.232,0.463-0.314,0.578-0.552,0.768
						c-0.394,0.32-0.616,0.82-0.64,0.876c-0.023,0.053-0.036,0.11-0.04,0.168l-0.061,1.054c-0.002,0.033-0.001,0.065,0.004,0.098
						c0.029,0.211,0.135,0.887,0.326,1.283c-0.019,0.195-0.188,0.7-0.413,1.247c-0.113-0.153-0.225-0.374-0.334-0.662
						c-0.057-0.152-0.118-0.285-0.177-0.41c-0.126-0.269-0.195-0.417-0.166-0.681c0.069-0.62-0.31-1.015-0.561-1.277
						c-0.068-0.071-0.145-0.151-0.172-0.197c-0.09-0.151-0.365-0.613-0.365-0.8c0-0.509-0.572-0.95-0.913-1.168
						c-0.021-0.013-0.042-0.025-0.065-0.035c-0.493-0.221-1.127-0.55-1.226-0.64c-0.09-0.15-0.256-0.873-0.347-1.519
						c-0.027-0.19,0.051-0.746,0.146-1.217c0.138-0.141,0.313-0.375,0.332-0.666c0.003-0.05,0.002-0.099-0.004-0.148
						c0.117,0.045,0.262,0.074,0.443,0.074c0.549,0,1.235-0.256,1.483-0.38C131.217-51.407,131.52-51.489,131.784-51.489
						 M138.299-64.24c-0.759,0-1.779,0.215-2.539,0.921c-0.013,0.217-0.899,0.411-0.912,0.536c-0.065,0.623,0.805,0.939,1.675,1.87
						c0.257,0.276,0.449,0.377,0.588,0.377c0.334,0,0.37-0.58,0.282-0.756c-0.123-0.251,0.867-1.056,0.929-1.678
						c0.063-0.621,0.643-0.416,1.018-1.032C139.272-64.124,138.856-64.24,138.299-64.24L138.299-64.24z M144.62-62.925
						c-0.035,0-0.064,0.005-0.087,0.016c-0.07,0.525,0.347,1.593,0.347,1.593l-0.992,0.664c-0.125,0.808,0.83,0.83,0.83,0.83
						s0.048,0.009,0.13,0.009c0.344,0,1.28-0.161,1.73-1.831C145.83-62.43,144.957-62.925,144.62-62.925L144.62-62.925z
						 M133.295-62.844c0,0-3.888,1.328-6.206,7.014c0,0.309,0.185,0.868,0.123,1.178c-0.061,0.311-0.123,0.499-0.061,0.808
						c0.061,0.311,0.495,0.931,0.495,0.931l0.56,0.62c0,0,0.061,0.81,0.371,1.121c0.315,0.307-0.185,0.682-0.185,0.682
						s-0.248,1.117-0.186,1.55c0.061,0.433,0.249,1.491,0.436,1.739c0.185,0.248,1.427,0.805,1.427,0.805s0.682,0.436,0.682,0.747
						c0,0.311,0.25,0.744,0.436,1.056c0.184,0.311,0.728,0.606,0.666,1.163c-0.063,0.559,0.185,0.822,0.371,1.321
						c0.188,0.494,0.488,1.119,1.026,1.226c0,0,0.851-1.849,0.664-2.156c-0.185-0.313-0.306-1.182-0.306-1.182l0.061-1.054
						c0,0,0.186-0.433,0.496-0.684c0.312-0.25,0.435-0.436,0.684-0.932c0.246-0.494,0.619-1.24,0.683-1.552
						c0.063-0.309,0.93-1.241,0.435-1.737c-0.499-0.498-1.366-0.56-1.802-0.684c-0.435-0.124-1.611-0.307-1.74-0.803
						c-0.058-0.239-0.331-0.321-0.64-0.321c-0.337,0-0.717,0.097-0.91,0.196c-0.245,0.123-0.842,0.326-1.257,0.326
						c-0.214,0-0.379-0.054-0.421-0.201c-0.122-0.438-0.62-0.749-0.68-1.059c-0.062-0.307,0.434,0,0.558-0.492
						c0.086-0.351-0.102-0.547-0.394-0.547c-0.124,0-0.266,0.035-0.413,0.109c-0.096,0.048-0.178,0.069-0.245,0.069
						c-0.282,0-0.316-0.353-0.066-0.503c0.267-0.16,1.131-0.869,1.448-0.869c0.052,0,0.09,0.019,0.107,0.063
						c0.104,0.266,0.455,0.431,0.709,0.431c0.041,0,0.079-0.004,0.113-0.013c0.159-0.041,0.516-0.278,0.784-0.278
						c0.149,0,0.272,0.073,0.317,0.295c0.105,0.532,0.667,1.108,0.826,1.108c0.027,0,0.042-0.016,0.042-0.052
						c0-0.25,0.251-1.117,0.061-1.491c-0.09-0.182-0.06-0.229-0.006-0.229c0.056,0,0.139,0.05,0.139,0.05s0.674-0.504,0.983-1.188
						c0.311-0.681,0.311-0.657,0.374-0.968c0.058-0.287-0.237-0.65-0.526-0.65c-0.022,0-0.044,0.002-0.066,0.007
						c-0.007,0.001-0.014,0.002-0.021,0.002c-0.261,0,0.094-1.068,0.652-1.068c0.028,0,0.057,0.003,0.086,0.009
						c0.621,0.129,0.249,0.559,0.249,0.559s0.25,0.748,0.476,0.748c0.05,0,0.1-0.037,0.145-0.127
						c0.246-0.496,1.368-1.364,0.746-1.611c-0.621-0.251-0.063-1.306-1.555-1.431c-0.244-0.02-0.463-0.028-0.659-0.028
						c-0.995,0-1.387,0.217-1.387,0.217l0.124,0.435c0,0,0.122,0.122,0.122,0.372c0,0.165-0.383,0.192-0.64,0.192
						c-0.13,0-0.228-0.007-0.228-0.007s-0.184-0.37-0.124-0.62c0.063-0.248,0.251-0.682,0.251-0.682l0.496-0.683
						c0,0,0.187,0,0.561,0.124c0.091,0.03,0.202,0.042,0.316,0.042c0.35,0,0.738-0.106,0.738-0.106L133.295-62.844L133.295-62.844z
						 M149.091-58.865c-0.026,0,0.136,1.173,0.136,1.173l-1.323-0.165c0,0-0.363-0.73-0.884-0.73c-0.087,0-0.178,0.02-0.273,0.068
						c-0.665,0.331-0.169,0.496-1.161,0.662c-0.053,0.009-0.105,0.013-0.155,0.013c-0.75,0-1.183-0.922-1.677-0.922
						c-0.09,0-0.182,0.031-0.278,0.103c-0.282,0.211-0.496,0.228-0.662,0.228c-0.031,0-0.061-0.001-0.088-0.001
						c-0.173,0-0.285,0.023-0.366,0.35c-0.164,0.662,0.023,1.513,0.023,1.513l-0.712,0.47c-0.869,0.431-0.985,1.265-0.985,1.265
						S141.328-54.6,142-54.6c0.321,0,0.649-0.054,0.916-0.214c0.438-0.263,0.788-0.325,1.021-0.325c0.208,0,0.323,0.05,0.323,0.05
						l1.532,0.771c0.064,0.035,0.123,0.051,0.178,0.051c0.429,0,0.607-0.942,0.607-0.942c-0.68-1.056-0.425-1.915-0.425-1.915
						l2.645,1.092l0.264,1.156l-0.166,0.83l-1.821,0.657c0,0-0.203,1.866-1.495,1.866c-0.353,0-0.787-0.139-1.321-0.494
						c0,0-1.576-1.551-2.832-1.551c-0.832,0-1.524,0.681-1.524,2.945c0,0-0.289,3.674,1.416,3.674c0.028,0,0.056-0.001,0.085-0.003
						c1.799-0.126,1.057-0.126,2.836-0.579c0.318-0.159,0.576-0.223,0.783-0.223c0.873,0,0.873,1.133,0.873,1.133l-0.104,1.676
						l-0.186,0.995c0,0-0.33,0.577,0.33,1.241c0,0,4.334-3.335,4.781-8.527c-0.021,0.001-0.041,0.002-0.062,0.002
						c-0.649,0-1.1-0.662-1.1-0.662l-0.992-1.16h1.656c0,0,0.228,0.104,0.5,0.224c0.456-0.686-0.773-4.527-1.611-5.968
						C149.101-58.845,149.094-58.865,149.091-58.865L149.091-58.865z M150.719-51.237h0.005H150.719z"/>
				</g>
			</g>
		</g>
		<g>
			<path style="fill:#8DC63F;" d="M138.954-63.41c5.982,0,10.849,4.867,10.849,10.849s-4.867,10.849-10.849,10.849
				c-5.982,0-10.849-4.867-10.849-10.849S132.972-63.41,138.954-63.41 M138.954-64.263c-6.461,0-11.702,5.241-11.702,11.702
				c0,6.461,5.24,11.702,11.702,11.702c6.461,0,11.702-5.241,11.702-11.702C150.656-59.022,145.416-64.263,138.954-64.263
				L138.954-64.263z"/>
		</g>
		
			<path style="fill:#FFFFFF;stroke:#8DC63F;stroke-width:0.8527;stroke-linecap:round;stroke-linejoin:round;stroke-miterlimit:2.6131;" d="
			M126.897-33.278c0,0,3.541-3.487,5.264-3.487c3.926,0,4.086-0.054,7.732-0.251c1.549-0.083,1.874-0.147,2.761-0.447
			c4.726-1.597,9.801-5.852,9.895-6.365c0.217-1.185-1.08-1.696-2.062-1.635l0,0c-1.855,0.115-4.296,1.969-6.651,3.035
			c-2.884,1.305-7.377,0.255-7.377,0.255c0.692-0.324,3.508-0.995,4.075-1.246c3.014-1.325,2.76-4.09,1.325-4.067
			c-1.898,0.032-3.011,0.498-6.795,1.013c-2.869,0.39-6.262,0.247-7.889,0.869c-2.298,0.878-5.998,6.781-5.998,6.781
			 M150.488-45.463"/>
	</g>
</g>
</svg>
