<?xml version="1.0" encoding="iso-8859-1" ?>
<!-- Generator: Adobe Illustrator 19.0.0, SVG Export Plug-In . SVG Version: 6.00 Build 0)  -->
<svg version="1.1" xmlns="http://www.w3.org/2000/svg" xmlns:xlink="http://www.w3.org/1999/xlink" x="0px" y="0px"
     viewBox="0 0 227 227" style="enable-background:new 0 0 227 227;" xml:space="preserve">
<g id="square">
<g id="square-shape">
<linearGradient id="XMLID_2_" gradientUnits="userSpaceOnUse" x1="153.5" y1="187" x2="73.5" y2="187">
<stop offset="0" style="stop-color:#FF0000" />
<stop offset="0.5" style="stop-color:#ED047B" />
<stop offset="1" style="stop-color:#A3238E" />
		</linearGradient>
<path id="XMLID_53_" style="fill:url(#XMLID_2_);" d="M151.5,149v76h-38h-38v-76h38H151.5 M153.5,147h-40h-40v80h40h40V147
			L153.5,147z">
<animate dur="5s" repeatCount="indefinite"
         attributeName="d"
         values="M8 64 L54 64 L64 22 L32 0 L0 22;
		     M14 64 L50 64 L64 32 L50 0 L14 0 L0 32;
		     " />
        </path>
	</g>
</g>
<g id="pentagon" style="display:none;">
<linearGradient id="pentagon-shape_1_" gradientUnits="userSpaceOnUse" x1="29.3244" y1="147.905" x2="197.6741" y2="147.905">
<stop offset="0" style="stop-color:#00AA0B" />
<stop offset="0.5" style="stop-color:#E4E517" />
<stop offset="1" style="stop-color:#FBB03B" />
	</linearGradient>
<polygon id="pentagon-shape" style="fill:none;stroke:url(#pentagon-shape_1_);stroke-width:2;stroke-miterlimit:10;" points="
         196.5,129.389=196.5,129.389 113.602,69.046=113.602,69.046 30.5,129.376=30.5,129.376 62.203,227=62.203,227 165,227=165,227 =" />
</g>
<g id="hexagon" style="display:none;">
<linearGradient id="hex-shape_1_" gradientUnits="userSpaceOnUse" x1="2.2889" y1="132" x2="224.7112" y2="132">
<stop offset="0" style="stop-color:#5F4B9F" />
<stop offset="0.5" style="stop-color:#0099AA" />
<stop offset="1" style="stop-color:#00BF47" />
	</linearGradient>
<polygon id="hex-shape" style="fill:none;stroke:url(#hex-shape_1_);stroke-width:2;stroke-miterlimit:10;" points="168.528,37
		58.472,37 3.444,132 58.472,227 168.528,227 223.555,132 	" />
</g>
</svg>
